G04 #@! TF.GenerationSoftware,KiCad,Pcbnew,6.0.2-378541a8eb~116~ubuntu20.04.1*
G04 #@! TF.CreationDate,2022-03-07T01:05:26+01:00*
G04 #@! TF.ProjectId,lora_sensor,6c6f7261-5f73-4656-9e73-6f722e6b6963,rev?*
G04 #@! TF.SameCoordinates,Original*
G04 #@! TF.FileFunction,Copper,L3,Inr*
G04 #@! TF.FilePolarity,Positive*
%FSLAX46Y46*%
G04 Gerber Fmt 4.6, Leading zero omitted, Abs format (unit mm)*
G04 Created by KiCad (PCBNEW 6.0.2-378541a8eb~116~ubuntu20.04.1) date 2022-03-07 01:05:26*
%MOMM*%
%LPD*%
G01*
G04 APERTURE LIST*
G04 Aperture macros list*
%AMRoundRect*
0 Rectangle with rounded corners*
0 $1 Rounding radius*
0 $2 $3 $4 $5 $6 $7 $8 $9 X,Y pos of 4 corners*
0 Add a 4 corners polygon primitive as box body*
4,1,4,$2,$3,$4,$5,$6,$7,$8,$9,$2,$3,0*
0 Add four circle primitives for the rounded corners*
1,1,$1+$1,$2,$3*
1,1,$1+$1,$4,$5*
1,1,$1+$1,$6,$7*
1,1,$1+$1,$8,$9*
0 Add four rect primitives between the rounded corners*
20,1,$1+$1,$2,$3,$4,$5,0*
20,1,$1+$1,$4,$5,$6,$7,0*
20,1,$1+$1,$6,$7,$8,$9,0*
20,1,$1+$1,$8,$9,$2,$3,0*%
G04 Aperture macros list end*
G04 #@! TA.AperFunction,ComponentPad*
%ADD10C,5.000000*%
G04 #@! TD*
G04 #@! TA.AperFunction,ComponentPad*
%ADD11RoundRect,0.250000X0.600000X0.725000X-0.600000X0.725000X-0.600000X-0.725000X0.600000X-0.725000X0*%
G04 #@! TD*
G04 #@! TA.AperFunction,ComponentPad*
%ADD12O,1.700000X1.950000*%
G04 #@! TD*
G04 #@! TA.AperFunction,ComponentPad*
%ADD13R,1.524000X1.524000*%
G04 #@! TD*
G04 #@! TA.AperFunction,ComponentPad*
%ADD14C,1.524000*%
G04 #@! TD*
G04 #@! TA.AperFunction,ComponentPad*
%ADD15RoundRect,0.250000X0.750000X-0.600000X0.750000X0.600000X-0.750000X0.600000X-0.750000X-0.600000X0*%
G04 #@! TD*
G04 #@! TA.AperFunction,ComponentPad*
%ADD16O,2.000000X1.700000*%
G04 #@! TD*
G04 #@! TA.AperFunction,ComponentPad*
%ADD17C,2.000000*%
G04 #@! TD*
G04 #@! TA.AperFunction,ComponentPad*
%ADD18C,1.800000*%
G04 #@! TD*
G04 #@! TA.AperFunction,ViaPad*
%ADD19C,0.800000*%
G04 #@! TD*
G04 #@! TA.AperFunction,Conductor*
%ADD20C,1.000000*%
G04 #@! TD*
G04 APERTURE END LIST*
D10*
G04 #@! TO.N,GND*
G04 #@! TO.C,REF\u002A\u002A*
X154000000Y-126500000D03*
G04 #@! TD*
G04 #@! TO.N,GND*
G04 #@! TO.C,REF\u002A\u002A*
X108000000Y-126500000D03*
G04 #@! TD*
G04 #@! TO.N,GND*
G04 #@! TO.C,REF\u002A\u002A*
X108000000Y-80000000D03*
G04 #@! TD*
D11*
G04 #@! TO.N,GND*
G04 #@! TO.C,J105*
X148999998Y-76525000D03*
D12*
G04 #@! TO.N,/OUT1*
X146499998Y-76525000D03*
G04 #@! TO.N,/OUT2*
X143999998Y-76525000D03*
G04 #@! TO.N,/OUT3*
X141499998Y-76525000D03*
G04 #@! TO.N,VCC*
X138999998Y-76525000D03*
G04 #@! TD*
D13*
G04 #@! TO.N,GND*
G04 #@! TO.C,J103*
X146350000Y-130000000D03*
D14*
G04 #@! TO.N,/~{CTS}*
X143810000Y-130000000D03*
G04 #@! TO.N,/5V*
X141270000Y-130000000D03*
G04 #@! TO.N,/RX*
X138730000Y-130000000D03*
G04 #@! TO.N,/TX*
X136190000Y-130000000D03*
G04 #@! TO.N,/~{RTS}*
X133650000Y-130000000D03*
G04 #@! TD*
D15*
G04 #@! TO.N,Net-(C102-Pad2)*
G04 #@! TO.C,J102*
X157773001Y-109938500D03*
D16*
G04 #@! TO.N,GND*
X157773001Y-107438500D03*
G04 #@! TD*
D17*
G04 #@! TO.N,GND*
G04 #@! TO.C,J101*
X156570000Y-96230000D03*
D18*
X160370000Y-96380000D03*
D17*
X156570000Y-88780000D03*
D18*
X160370000Y-88630000D03*
G04 #@! TD*
D17*
G04 #@! TO.N,+3V3*
G04 #@! TO.C,U105*
X115150000Y-94350000D03*
G04 #@! TO.N,Net-(U106-Pad10)*
X115150000Y-90750000D03*
G04 #@! TO.N,GND*
X111550000Y-90750000D03*
G04 #@! TD*
D19*
G04 #@! TO.N,GND*
X151750000Y-117750000D03*
X144250000Y-90500000D03*
X144250000Y-99750000D03*
X159250000Y-102250000D03*
X158750000Y-99750000D03*
X158750000Y-77500000D03*
X158750000Y-81500000D03*
X158000000Y-74250000D03*
X113000000Y-73500000D03*
X102500000Y-74000000D03*
X102250000Y-85000000D03*
X102750000Y-98750000D03*
X157000000Y-130750000D03*
X129250000Y-129250000D03*
X109500000Y-132000000D03*
X102500000Y-127000000D03*
X102500000Y-117750000D03*
X102750000Y-111000000D03*
X149250000Y-123500000D03*
X159000000Y-119000000D03*
X159250000Y-122500000D03*
X109500000Y-102000000D03*
X107250000Y-100500000D03*
X106000000Y-93500000D03*
X106750000Y-88250000D03*
X112250000Y-87250000D03*
X123500000Y-74000000D03*
X133000000Y-74000000D03*
X134000000Y-82750000D03*
X128250000Y-87000000D03*
X131000000Y-87000000D03*
X141750000Y-123750000D03*
X137500000Y-123750000D03*
X134000000Y-123750000D03*
X124500000Y-112750000D03*
X124500000Y-115250000D03*
X133500000Y-116250000D03*
X131750000Y-103750000D03*
X128750000Y-106000000D03*
X134250000Y-102750000D03*
X137750000Y-111750000D03*
X137750000Y-108500000D03*
X137750000Y-104750000D03*
X137750000Y-102250000D03*
G04 #@! TO.N,/IO2*
X131250000Y-99250000D03*
X119250000Y-121500000D03*
G04 #@! TO.N,/IO1*
X118250000Y-119500000D03*
X132512299Y-96012299D03*
G04 #@! TO.N,/IO0*
X118250000Y-117500000D03*
X132500000Y-95000000D03*
G04 #@! TO.N,/IO3*
X127750000Y-121750000D03*
X136000000Y-114500000D03*
G04 #@! TO.N,/OUT3_D*
X133500000Y-86250000D03*
X140250000Y-97500000D03*
G04 #@! TO.N,GND*
X159000000Y-120750000D03*
X128500000Y-109500000D03*
X133750000Y-100250000D03*
G04 #@! TO.N,/DIO4*
X142000000Y-121500000D03*
X145750000Y-96500000D03*
X145750000Y-108000000D03*
X132750000Y-121500000D03*
G04 #@! TO.N,/DIO5*
X138000000Y-114000000D03*
X146500000Y-102250000D03*
X142000000Y-114000000D03*
X146500000Y-95750000D03*
G04 #@! TO.N,/~{RST}*
X132500000Y-84500000D03*
X139750000Y-89250000D03*
G04 #@! TO.N,GND*
X139250000Y-92750000D03*
G04 #@! TO.N,/SWCLK*
X140500000Y-95500000D03*
X135750000Y-79500000D03*
G04 #@! TO.N,/OUT2_D*
X140500000Y-84000000D03*
X141250000Y-96750000D03*
G04 #@! TO.N,/SWDIO*
X142000000Y-97500000D03*
X134250000Y-79500000D03*
X140750000Y-85250000D03*
X137250000Y-85250000D03*
G04 #@! TO.N,+3V3*
X113250000Y-113500000D03*
G04 #@! TO.N,/5V*
X152250000Y-103750000D03*
X150000000Y-110250000D03*
G04 #@! TO.N,GND*
X155500000Y-100750000D03*
X148000000Y-99500000D03*
X128500000Y-123500000D03*
X117500000Y-111500000D03*
X117500000Y-109500000D03*
X117750000Y-98500000D03*
X117750000Y-97000000D03*
X123500000Y-80750000D03*
X123500000Y-82000000D03*
X126000000Y-87750000D03*
X137250000Y-86750000D03*
X140750000Y-86750000D03*
X139000000Y-84000000D03*
X145000000Y-84000000D03*
X152000000Y-84000000D03*
X149000000Y-87750000D03*
X146000000Y-89750000D03*
X145250000Y-88500000D03*
X150750000Y-95500000D03*
X142500000Y-105750000D03*
X150500000Y-104500000D03*
X148500000Y-108000000D03*
X145750000Y-114000000D03*
X144750000Y-115000000D03*
X155750000Y-116000000D03*
X151000000Y-122250000D03*
X144750000Y-122500000D03*
G04 #@! TO.N,+3V3*
X115250000Y-99750000D03*
G04 #@! TO.N,/BMON*
X155000000Y-120750000D03*
X134000000Y-91750000D03*
G04 #@! TO.N,/BATV*
X137762299Y-89237701D03*
X144750000Y-104250000D03*
G04 #@! TO.N,GND*
X155250000Y-91250000D03*
G04 #@! TO.N,+3V3*
X147000000Y-92250000D03*
X143500000Y-87000000D03*
X132750000Y-97750000D03*
X138750000Y-87000000D03*
X123500000Y-79500000D03*
X143000000Y-120500000D03*
X143000000Y-118000000D03*
X143000000Y-119250000D03*
G04 #@! TO.N,/5V*
X148000000Y-115500000D03*
G04 #@! TO.N,VCC*
X153500000Y-111750000D03*
G04 #@! TD*
D20*
G04 #@! TO.N,/5V*
X148000000Y-121750000D02*
X148000000Y-115500000D01*
X147000000Y-122750000D02*
X148000000Y-121750000D01*
X141270000Y-130000000D02*
X141270000Y-128480000D01*
X141270000Y-128480000D02*
X147000000Y-122750000D01*
G04 #@! TO.N,VCC*
X154000000Y-86000000D02*
X154000000Y-92250000D01*
X141750000Y-73500000D02*
X153000000Y-73500000D01*
X155000000Y-85000000D02*
X154250000Y-85750000D01*
X154000000Y-92250000D02*
X154000000Y-111250000D01*
X153000000Y-73500000D02*
X155000000Y-75500000D01*
X139750000Y-73500000D02*
X141750000Y-73500000D01*
X154250000Y-85750000D02*
X154000000Y-86000000D01*
X138999998Y-76525000D02*
X138999998Y-74250002D01*
X138999998Y-74250002D02*
X139750000Y-73500000D01*
X155000000Y-75500000D02*
X155000000Y-85000000D01*
X154000000Y-111250000D02*
X153500000Y-111750000D01*
G04 #@! TD*
G04 #@! TA.AperFunction,Conductor*
G04 #@! TO.N,+3V3*
G36*
X134515677Y-76019685D02*
G01*
X134536319Y-76036319D01*
X147213681Y-88713681D01*
X147247166Y-88775004D01*
X147250000Y-88801362D01*
X147250000Y-95293386D01*
X147230315Y-95360425D01*
X147177511Y-95406180D01*
X147108353Y-95416124D01*
X147044797Y-95387099D01*
X147023809Y-95363621D01*
X146995768Y-95322821D01*
X146995765Y-95322818D01*
X146991531Y-95316657D01*
X146873976Y-95211919D01*
X146734831Y-95138245D01*
X146582128Y-95099889D01*
X146500329Y-95099461D01*
X146432158Y-95099104D01*
X146432157Y-95099104D01*
X146424684Y-95099065D01*
X146417421Y-95100809D01*
X146417418Y-95100809D01*
X146348136Y-95117442D01*
X146271588Y-95135820D01*
X146131679Y-95208032D01*
X146013034Y-95311533D01*
X145922501Y-95440348D01*
X145865309Y-95587039D01*
X145864333Y-95594453D01*
X145844974Y-95741497D01*
X145816707Y-95805393D01*
X145758383Y-95843864D01*
X145721387Y-95849309D01*
X145682159Y-95849104D01*
X145682158Y-95849104D01*
X145674684Y-95849065D01*
X145667421Y-95850809D01*
X145667418Y-95850809D01*
X145614899Y-95863418D01*
X145521588Y-95885820D01*
X145381679Y-95958032D01*
X145263034Y-96061533D01*
X145172501Y-96190348D01*
X145115309Y-96337039D01*
X145094758Y-96493138D01*
X145095578Y-96500566D01*
X145095578Y-96500568D01*
X145097473Y-96517733D01*
X145112035Y-96649633D01*
X145114601Y-96656645D01*
X145114602Y-96656649D01*
X145129484Y-96697314D01*
X145166143Y-96797490D01*
X145170314Y-96803697D01*
X145234781Y-96899633D01*
X145253958Y-96928172D01*
X145291046Y-96961919D01*
X145364878Y-97029102D01*
X145364882Y-97029105D01*
X145370410Y-97034135D01*
X145376980Y-97037702D01*
X145376981Y-97037703D01*
X145441660Y-97072821D01*
X145508776Y-97109262D01*
X145611031Y-97136088D01*
X145653841Y-97147319D01*
X145653843Y-97147319D01*
X145661069Y-97149215D01*
X145738127Y-97150425D01*
X145811025Y-97151571D01*
X145811028Y-97151571D01*
X145818495Y-97151688D01*
X145825776Y-97150020D01*
X145825780Y-97150020D01*
X145964681Y-97118207D01*
X145971968Y-97116538D01*
X146112625Y-97045795D01*
X146118306Y-97040943D01*
X146118309Y-97040941D01*
X146226666Y-96948395D01*
X146226667Y-96948394D01*
X146232348Y-96943542D01*
X146243393Y-96928172D01*
X146298336Y-96851710D01*
X146324224Y-96815683D01*
X146382950Y-96669598D01*
X146384371Y-96659618D01*
X146397600Y-96566657D01*
X146405134Y-96513723D01*
X146405438Y-96513766D01*
X146429437Y-96450309D01*
X146485561Y-96408694D01*
X146530310Y-96401088D01*
X146540381Y-96401246D01*
X146561025Y-96401571D01*
X146561028Y-96401571D01*
X146568495Y-96401688D01*
X146575776Y-96400020D01*
X146575780Y-96400020D01*
X146714681Y-96368207D01*
X146721968Y-96366538D01*
X146862625Y-96295795D01*
X146868306Y-96290943D01*
X146868309Y-96290941D01*
X146976666Y-96198395D01*
X146976667Y-96198394D01*
X146982348Y-96193542D01*
X147025302Y-96133765D01*
X147080407Y-96090810D01*
X147149988Y-96084466D01*
X147211953Y-96116748D01*
X147246629Y-96177406D01*
X147250000Y-96206124D01*
X147250000Y-101793386D01*
X147230315Y-101860425D01*
X147177511Y-101906180D01*
X147108353Y-101916124D01*
X147044797Y-101887099D01*
X147023809Y-101863621D01*
X146995768Y-101822821D01*
X146995765Y-101822818D01*
X146991531Y-101816657D01*
X146873976Y-101711919D01*
X146734831Y-101638245D01*
X146582128Y-101599889D01*
X146500329Y-101599461D01*
X146432158Y-101599104D01*
X146432157Y-101599104D01*
X146424684Y-101599065D01*
X146417421Y-101600809D01*
X146417418Y-101600809D01*
X146348136Y-101617442D01*
X146271588Y-101635820D01*
X146131679Y-101708032D01*
X146013034Y-101811533D01*
X145922501Y-101940348D01*
X145865309Y-102087039D01*
X145844758Y-102243138D01*
X145845578Y-102250566D01*
X145845578Y-102250568D01*
X145852309Y-102311533D01*
X145862035Y-102399633D01*
X145864601Y-102406645D01*
X145864602Y-102406649D01*
X145879484Y-102447314D01*
X145916143Y-102547490D01*
X146003958Y-102678172D01*
X146026183Y-102698395D01*
X146114878Y-102779102D01*
X146114882Y-102779105D01*
X146120410Y-102784135D01*
X146258776Y-102859262D01*
X146361031Y-102886088D01*
X146403841Y-102897319D01*
X146403843Y-102897319D01*
X146411069Y-102899215D01*
X146488127Y-102900425D01*
X146561025Y-102901571D01*
X146561028Y-102901571D01*
X146568495Y-102901688D01*
X146575776Y-102900020D01*
X146575780Y-102900020D01*
X146714681Y-102868207D01*
X146721968Y-102866538D01*
X146862625Y-102795795D01*
X146868306Y-102790943D01*
X146868309Y-102790941D01*
X146976666Y-102698395D01*
X146976667Y-102698394D01*
X146982348Y-102693542D01*
X147025302Y-102633765D01*
X147080407Y-102590810D01*
X147149988Y-102584466D01*
X147211953Y-102616748D01*
X147246629Y-102677406D01*
X147250000Y-102706124D01*
X147250000Y-115405747D01*
X147249762Y-115413424D01*
X147249500Y-115417648D01*
X147249500Y-121126000D01*
X147229815Y-121193039D01*
X147177011Y-121238794D01*
X147125500Y-121250000D01*
X142682779Y-121250000D01*
X142615740Y-121230315D01*
X142580588Y-121196235D01*
X142578392Y-121193039D01*
X142532317Y-121126000D01*
X142495768Y-121072821D01*
X142495765Y-121072818D01*
X142491531Y-121066657D01*
X142373976Y-120961919D01*
X142234831Y-120888245D01*
X142082128Y-120849889D01*
X142000329Y-120849461D01*
X141932158Y-120849104D01*
X141932157Y-120849104D01*
X141924684Y-120849065D01*
X141917421Y-120850809D01*
X141917418Y-120850809D01*
X141848136Y-120867443D01*
X141771588Y-120885820D01*
X141631679Y-120958032D01*
X141513034Y-121061533D01*
X141508735Y-121067650D01*
X141456661Y-121141744D01*
X141422501Y-121190348D01*
X141421578Y-121189699D01*
X141377579Y-121234375D01*
X141317323Y-121250000D01*
X133432779Y-121250000D01*
X133365740Y-121230315D01*
X133330588Y-121196235D01*
X133328392Y-121193039D01*
X133282317Y-121126000D01*
X133245768Y-121072821D01*
X133245765Y-121072818D01*
X133241531Y-121066657D01*
X133123976Y-120961919D01*
X132984831Y-120888245D01*
X132832128Y-120849889D01*
X132750329Y-120849461D01*
X132682158Y-120849104D01*
X132682157Y-120849104D01*
X132674684Y-120849065D01*
X132667421Y-120850809D01*
X132667418Y-120850809D01*
X132598136Y-120867443D01*
X132521588Y-120885820D01*
X132381679Y-120958032D01*
X132263034Y-121061533D01*
X132258735Y-121067650D01*
X132206661Y-121141744D01*
X132172501Y-121190348D01*
X132171578Y-121189699D01*
X132127579Y-121234375D01*
X132067323Y-121250000D01*
X128213944Y-121250000D01*
X128146905Y-121230315D01*
X128131452Y-121218580D01*
X128129559Y-121216893D01*
X128129558Y-121216892D01*
X128123976Y-121211919D01*
X127984831Y-121138245D01*
X127832128Y-121099889D01*
X127750329Y-121099461D01*
X127682158Y-121099104D01*
X127682157Y-121099104D01*
X127674684Y-121099065D01*
X127667421Y-121100809D01*
X127667418Y-121100809D01*
X127598136Y-121117443D01*
X127521588Y-121135820D01*
X127451634Y-121171926D01*
X127388318Y-121204605D01*
X127388316Y-121204607D01*
X127381679Y-121208032D01*
X127370851Y-121217478D01*
X127368598Y-121219443D01*
X127305139Y-121248679D01*
X127287085Y-121250000D01*
X119932779Y-121250000D01*
X119865740Y-121230315D01*
X119830588Y-121196235D01*
X119828392Y-121193039D01*
X119782317Y-121126000D01*
X119745768Y-121072821D01*
X119745765Y-121072818D01*
X119741531Y-121066657D01*
X119623976Y-120961919D01*
X119484831Y-120888245D01*
X119332128Y-120849889D01*
X119250329Y-120849461D01*
X119182158Y-120849104D01*
X119182157Y-120849104D01*
X119174684Y-120849065D01*
X119167421Y-120850809D01*
X119167418Y-120850809D01*
X119098136Y-120867443D01*
X119021588Y-120885820D01*
X118881679Y-120958032D01*
X118763034Y-121061533D01*
X118758735Y-121067650D01*
X118706661Y-121141744D01*
X118672501Y-121190348D01*
X118671578Y-121189699D01*
X118627579Y-121234375D01*
X118567323Y-121250000D01*
X106624000Y-121250000D01*
X106556961Y-121230315D01*
X106511206Y-121177511D01*
X106500000Y-121126000D01*
X106500000Y-119493138D01*
X117594758Y-119493138D01*
X117595578Y-119500566D01*
X117595578Y-119500568D01*
X117597474Y-119517744D01*
X117612035Y-119649633D01*
X117666143Y-119797490D01*
X117753958Y-119928172D01*
X117776183Y-119948395D01*
X117864878Y-120029102D01*
X117864882Y-120029105D01*
X117870410Y-120034135D01*
X118008776Y-120109262D01*
X118111031Y-120136088D01*
X118153841Y-120147319D01*
X118153843Y-120147319D01*
X118161069Y-120149215D01*
X118238127Y-120150425D01*
X118311025Y-120151571D01*
X118311028Y-120151571D01*
X118318495Y-120151688D01*
X118325776Y-120150020D01*
X118325780Y-120150020D01*
X118464681Y-120118207D01*
X118471968Y-120116538D01*
X118612625Y-120045795D01*
X118618306Y-120040943D01*
X118618309Y-120040941D01*
X118726666Y-119948395D01*
X118726667Y-119948394D01*
X118732348Y-119943542D01*
X118743393Y-119928172D01*
X118763798Y-119899775D01*
X118824224Y-119815683D01*
X118882950Y-119669598D01*
X118884793Y-119656649D01*
X118904562Y-119517744D01*
X118904562Y-119517740D01*
X118905134Y-119513723D01*
X118905278Y-119500000D01*
X118886363Y-119343694D01*
X118830710Y-119196412D01*
X118822337Y-119184229D01*
X118745768Y-119072821D01*
X118745765Y-119072818D01*
X118741531Y-119066657D01*
X118623976Y-118961919D01*
X118484831Y-118888245D01*
X118332128Y-118849889D01*
X118250329Y-118849461D01*
X118182158Y-118849104D01*
X118182157Y-118849104D01*
X118174684Y-118849065D01*
X118167421Y-118850809D01*
X118167418Y-118850809D01*
X118098136Y-118867443D01*
X118021588Y-118885820D01*
X117881679Y-118958032D01*
X117763034Y-119061533D01*
X117672501Y-119190348D01*
X117615309Y-119337039D01*
X117594758Y-119493138D01*
X106500000Y-119493138D01*
X106500000Y-117493138D01*
X117594758Y-117493138D01*
X117595578Y-117500566D01*
X117595578Y-117500568D01*
X117597474Y-117517744D01*
X117612035Y-117649633D01*
X117666143Y-117797490D01*
X117753958Y-117928172D01*
X117776183Y-117948395D01*
X117864878Y-118029102D01*
X117864882Y-118029105D01*
X117870410Y-118034135D01*
X118008776Y-118109262D01*
X118111031Y-118136088D01*
X118153841Y-118147319D01*
X118153843Y-118147319D01*
X118161069Y-118149215D01*
X118238127Y-118150425D01*
X118311025Y-118151571D01*
X118311028Y-118151571D01*
X118318495Y-118151688D01*
X118325776Y-118150020D01*
X118325780Y-118150020D01*
X118464681Y-118118207D01*
X118471968Y-118116538D01*
X118612625Y-118045795D01*
X118618306Y-118040943D01*
X118618309Y-118040941D01*
X118726666Y-117948395D01*
X118726667Y-117948394D01*
X118732348Y-117943542D01*
X118743393Y-117928172D01*
X118763798Y-117899775D01*
X118824224Y-117815683D01*
X118882950Y-117669598D01*
X118884793Y-117656649D01*
X118904562Y-117517744D01*
X118904562Y-117517740D01*
X118905134Y-117513723D01*
X118905278Y-117500000D01*
X118886363Y-117343694D01*
X118830710Y-117196412D01*
X118822337Y-117184229D01*
X118745768Y-117072821D01*
X118745765Y-117072818D01*
X118741531Y-117066657D01*
X118623976Y-116961919D01*
X118484831Y-116888245D01*
X118332128Y-116849889D01*
X118250329Y-116849461D01*
X118182158Y-116849104D01*
X118182157Y-116849104D01*
X118174684Y-116849065D01*
X118167421Y-116850809D01*
X118167418Y-116850809D01*
X118098136Y-116867442D01*
X118021588Y-116885820D01*
X117881679Y-116958032D01*
X117763034Y-117061533D01*
X117672501Y-117190348D01*
X117615309Y-117337039D01*
X117594758Y-117493138D01*
X106500000Y-117493138D01*
X106500000Y-116243138D01*
X132844758Y-116243138D01*
X132845578Y-116250566D01*
X132845578Y-116250568D01*
X132847474Y-116267744D01*
X132862035Y-116399633D01*
X132916143Y-116547490D01*
X133003958Y-116678172D01*
X133026183Y-116698395D01*
X133114878Y-116779102D01*
X133114882Y-116779105D01*
X133120410Y-116784135D01*
X133126980Y-116787702D01*
X133126981Y-116787703D01*
X133244867Y-116851710D01*
X133258776Y-116859262D01*
X133353362Y-116884076D01*
X133403841Y-116897319D01*
X133403843Y-116897319D01*
X133411069Y-116899215D01*
X133488127Y-116900425D01*
X133561025Y-116901571D01*
X133561028Y-116901571D01*
X133568495Y-116901688D01*
X133575776Y-116900020D01*
X133575780Y-116900020D01*
X133714681Y-116868207D01*
X133721968Y-116866538D01*
X133862625Y-116795795D01*
X133868306Y-116790943D01*
X133868309Y-116790941D01*
X133976666Y-116698395D01*
X133976667Y-116698394D01*
X133982348Y-116693542D01*
X133993393Y-116678172D01*
X134013798Y-116649775D01*
X134074224Y-116565683D01*
X134132950Y-116419598D01*
X134134793Y-116406649D01*
X134154562Y-116267744D01*
X134154562Y-116267740D01*
X134155134Y-116263723D01*
X134155278Y-116250000D01*
X134136363Y-116093694D01*
X134080710Y-115946412D01*
X134049972Y-115901688D01*
X133995768Y-115822821D01*
X133995765Y-115822818D01*
X133991531Y-115816657D01*
X133873976Y-115711919D01*
X133734831Y-115638245D01*
X133582128Y-115599889D01*
X133500329Y-115599461D01*
X133432158Y-115599104D01*
X133432157Y-115599104D01*
X133424684Y-115599065D01*
X133417421Y-115600809D01*
X133417418Y-115600809D01*
X133348136Y-115617443D01*
X133271588Y-115635820D01*
X133131679Y-115708032D01*
X133013034Y-115811533D01*
X132922501Y-115940348D01*
X132865309Y-116087039D01*
X132844758Y-116243138D01*
X106500000Y-116243138D01*
X106500000Y-115243138D01*
X123844758Y-115243138D01*
X123845578Y-115250566D01*
X123845578Y-115250568D01*
X123852767Y-115315683D01*
X123862035Y-115399633D01*
X123864601Y-115406645D01*
X123864602Y-115406649D01*
X123894206Y-115487544D01*
X123916143Y-115547490D01*
X124003958Y-115678172D01*
X124041046Y-115711919D01*
X124114878Y-115779102D01*
X124114882Y-115779105D01*
X124120410Y-115784135D01*
X124126980Y-115787702D01*
X124126981Y-115787703D01*
X124191660Y-115822821D01*
X124258776Y-115859262D01*
X124361031Y-115886088D01*
X124403841Y-115897319D01*
X124403843Y-115897319D01*
X124411069Y-115899215D01*
X124488127Y-115900425D01*
X124561025Y-115901571D01*
X124561028Y-115901571D01*
X124568495Y-115901688D01*
X124575776Y-115900020D01*
X124575780Y-115900020D01*
X124714681Y-115868207D01*
X124721968Y-115866538D01*
X124862625Y-115795795D01*
X124868306Y-115790943D01*
X124868309Y-115790941D01*
X124976666Y-115698395D01*
X124976667Y-115698394D01*
X124982348Y-115693542D01*
X124993393Y-115678172D01*
X125025079Y-115634076D01*
X125074224Y-115565683D01*
X125132950Y-115419598D01*
X125134799Y-115406606D01*
X125154562Y-115267744D01*
X125154562Y-115267740D01*
X125155134Y-115263723D01*
X125155278Y-115250000D01*
X125146387Y-115176530D01*
X125137262Y-115101119D01*
X125137261Y-115101115D01*
X125136363Y-115093694D01*
X125106145Y-115013723D01*
X125083354Y-114953408D01*
X125083352Y-114953405D01*
X125080710Y-114946412D01*
X125045348Y-114894960D01*
X124995768Y-114822821D01*
X124995765Y-114822818D01*
X124991531Y-114816657D01*
X124873976Y-114711919D01*
X124734831Y-114638245D01*
X124582128Y-114599889D01*
X124500329Y-114599461D01*
X124432158Y-114599104D01*
X124432157Y-114599104D01*
X124424684Y-114599065D01*
X124417421Y-114600809D01*
X124417418Y-114600809D01*
X124348136Y-114617443D01*
X124271588Y-114635820D01*
X124131679Y-114708032D01*
X124013034Y-114811533D01*
X123922501Y-114940348D01*
X123865309Y-115087039D01*
X123844758Y-115243138D01*
X106500000Y-115243138D01*
X106500000Y-114493138D01*
X135344758Y-114493138D01*
X135345578Y-114500566D01*
X135345578Y-114500568D01*
X135357578Y-114609262D01*
X135362035Y-114649633D01*
X135364601Y-114656645D01*
X135364602Y-114656649D01*
X135383406Y-114708032D01*
X135416143Y-114797490D01*
X135503958Y-114928172D01*
X135524004Y-114946412D01*
X135614878Y-115029102D01*
X135614882Y-115029105D01*
X135620410Y-115034135D01*
X135626980Y-115037702D01*
X135626981Y-115037703D01*
X135752208Y-115105696D01*
X135758776Y-115109262D01*
X135861031Y-115136088D01*
X135903841Y-115147319D01*
X135903843Y-115147319D01*
X135911069Y-115149215D01*
X135988127Y-115150425D01*
X136061025Y-115151571D01*
X136061028Y-115151571D01*
X136068495Y-115151688D01*
X136075776Y-115150020D01*
X136075780Y-115150020D01*
X136214681Y-115118207D01*
X136221968Y-115116538D01*
X136362625Y-115045795D01*
X136368306Y-115040943D01*
X136368309Y-115040941D01*
X136424279Y-114993138D01*
X144094758Y-114993138D01*
X144095578Y-115000566D01*
X144095578Y-115000568D01*
X144097206Y-115015315D01*
X144112035Y-115149633D01*
X144114601Y-115156645D01*
X144114602Y-115156649D01*
X144116634Y-115162201D01*
X144166143Y-115297490D01*
X144170314Y-115303697D01*
X144234781Y-115399633D01*
X144253958Y-115428172D01*
X144308693Y-115477977D01*
X144364878Y-115529102D01*
X144364882Y-115529105D01*
X144370410Y-115534135D01*
X144376980Y-115537702D01*
X144376981Y-115537703D01*
X144494867Y-115601710D01*
X144508776Y-115609262D01*
X144603362Y-115634076D01*
X144653841Y-115647319D01*
X144653843Y-115647319D01*
X144661069Y-115649215D01*
X144738127Y-115650425D01*
X144811025Y-115651571D01*
X144811028Y-115651571D01*
X144818495Y-115651688D01*
X144825776Y-115650020D01*
X144825780Y-115650020D01*
X144964681Y-115618207D01*
X144971968Y-115616538D01*
X145112625Y-115545795D01*
X145118306Y-115540943D01*
X145118309Y-115540941D01*
X145226666Y-115448395D01*
X145226667Y-115448394D01*
X145232348Y-115443542D01*
X145243393Y-115428172D01*
X145269237Y-115392205D01*
X145324224Y-115315683D01*
X145382950Y-115169598D01*
X145384003Y-115162201D01*
X145404562Y-115017744D01*
X145404562Y-115017740D01*
X145405134Y-115013723D01*
X145405278Y-115000000D01*
X145398911Y-114947383D01*
X145387262Y-114851119D01*
X145387261Y-114851115D01*
X145386363Y-114843694D01*
X145359372Y-114772264D01*
X145354089Y-114702596D01*
X145387311Y-114641129D01*
X145448490Y-114607382D01*
X145508030Y-114612107D01*
X145508776Y-114609262D01*
X145653841Y-114647319D01*
X145653843Y-114647319D01*
X145661069Y-114649215D01*
X145738127Y-114650425D01*
X145811025Y-114651571D01*
X145811028Y-114651571D01*
X145818495Y-114651688D01*
X145825776Y-114650020D01*
X145825780Y-114650020D01*
X145964681Y-114618207D01*
X145971968Y-114616538D01*
X146112625Y-114545795D01*
X146118306Y-114540943D01*
X146118309Y-114540941D01*
X146226666Y-114448395D01*
X146226667Y-114448394D01*
X146232348Y-114443542D01*
X146243393Y-114428172D01*
X146263798Y-114399775D01*
X146324224Y-114315683D01*
X146382950Y-114169598D01*
X146384793Y-114156649D01*
X146404562Y-114017744D01*
X146404562Y-114017740D01*
X146405134Y-114013723D01*
X146405278Y-114000000D01*
X146400670Y-113961919D01*
X146387262Y-113851119D01*
X146387261Y-113851115D01*
X146386363Y-113843694D01*
X146330710Y-113696412D01*
X146322337Y-113684229D01*
X146245768Y-113572821D01*
X146245765Y-113572818D01*
X146241531Y-113566657D01*
X146123976Y-113461919D01*
X145984831Y-113388245D01*
X145832128Y-113349889D01*
X145750329Y-113349461D01*
X145682158Y-113349104D01*
X145682157Y-113349104D01*
X145674684Y-113349065D01*
X145667421Y-113350809D01*
X145667418Y-113350809D01*
X145598136Y-113367443D01*
X145521588Y-113385820D01*
X145381679Y-113458032D01*
X145263034Y-113561533D01*
X145172501Y-113690348D01*
X145115309Y-113837039D01*
X145094758Y-113993138D01*
X145095578Y-114000566D01*
X145095578Y-114000568D01*
X145097474Y-114017744D01*
X145112035Y-114149633D01*
X145114601Y-114156645D01*
X145114602Y-114156649D01*
X145141100Y-114229057D01*
X145145653Y-114298778D01*
X145111789Y-114359893D01*
X145050260Y-114392998D01*
X144984940Y-114387810D01*
X144984831Y-114388245D01*
X144832128Y-114349889D01*
X144750329Y-114349461D01*
X144682158Y-114349104D01*
X144682157Y-114349104D01*
X144674684Y-114349065D01*
X144667421Y-114350809D01*
X144667418Y-114350809D01*
X144598136Y-114367442D01*
X144521588Y-114385820D01*
X144381679Y-114458032D01*
X144263034Y-114561533D01*
X144172501Y-114690348D01*
X144115309Y-114837039D01*
X144094758Y-114993138D01*
X136424279Y-114993138D01*
X136476666Y-114948395D01*
X136476667Y-114948394D01*
X136482348Y-114943542D01*
X136493393Y-114928172D01*
X136517258Y-114894960D01*
X136574224Y-114815683D01*
X136632950Y-114669598D01*
X136635516Y-114651571D01*
X136654562Y-114517744D01*
X136654562Y-114517740D01*
X136655134Y-114513723D01*
X136655278Y-114500000D01*
X136650670Y-114461919D01*
X136637262Y-114351119D01*
X136637261Y-114351115D01*
X136636363Y-114343694D01*
X136623159Y-114308750D01*
X136583354Y-114203408D01*
X136583352Y-114203405D01*
X136580710Y-114196412D01*
X136572337Y-114184229D01*
X136495768Y-114072821D01*
X136495765Y-114072818D01*
X136491531Y-114066657D01*
X136412191Y-113995967D01*
X136409016Y-113993138D01*
X137344758Y-113993138D01*
X137345578Y-114000566D01*
X137345578Y-114000568D01*
X137347474Y-114017744D01*
X137362035Y-114149633D01*
X137364601Y-114156645D01*
X137364602Y-114156649D01*
X137379484Y-114197314D01*
X137416143Y-114297490D01*
X137503958Y-114428172D01*
X137536774Y-114458032D01*
X137614878Y-114529102D01*
X137614882Y-114529105D01*
X137620410Y-114534135D01*
X137626980Y-114537702D01*
X137626981Y-114537703D01*
X137744867Y-114601710D01*
X137758776Y-114609262D01*
X137853362Y-114634076D01*
X137903841Y-114647319D01*
X137903843Y-114647319D01*
X137911069Y-114649215D01*
X137988127Y-114650425D01*
X138061025Y-114651571D01*
X138061028Y-114651571D01*
X138068495Y-114651688D01*
X138075776Y-114650020D01*
X138075780Y-114650020D01*
X138214681Y-114618207D01*
X138221968Y-114616538D01*
X138362625Y-114545795D01*
X138368306Y-114540943D01*
X138368309Y-114540941D01*
X138476666Y-114448395D01*
X138476667Y-114448394D01*
X138482348Y-114443542D01*
X138493393Y-114428172D01*
X138513798Y-114399775D01*
X138574224Y-114315683D01*
X138632950Y-114169598D01*
X138634793Y-114156649D01*
X138654562Y-114017744D01*
X138654562Y-114017740D01*
X138655134Y-114013723D01*
X138655278Y-114000000D01*
X138654448Y-113993138D01*
X141344758Y-113993138D01*
X141345578Y-114000566D01*
X141345578Y-114000568D01*
X141347474Y-114017744D01*
X141362035Y-114149633D01*
X141364601Y-114156645D01*
X141364602Y-114156649D01*
X141379484Y-114197314D01*
X141416143Y-114297490D01*
X141503958Y-114428172D01*
X141536774Y-114458032D01*
X141614878Y-114529102D01*
X141614882Y-114529105D01*
X141620410Y-114534135D01*
X141626980Y-114537702D01*
X141626981Y-114537703D01*
X141744867Y-114601710D01*
X141758776Y-114609262D01*
X141853362Y-114634076D01*
X141903841Y-114647319D01*
X141903843Y-114647319D01*
X141911069Y-114649215D01*
X141988127Y-114650425D01*
X142061025Y-114651571D01*
X142061028Y-114651571D01*
X142068495Y-114651688D01*
X142075776Y-114650020D01*
X142075780Y-114650020D01*
X142214681Y-114618207D01*
X142221968Y-114616538D01*
X142362625Y-114545795D01*
X142368306Y-114540943D01*
X142368309Y-114540941D01*
X142476666Y-114448395D01*
X142476667Y-114448394D01*
X142482348Y-114443542D01*
X142493393Y-114428172D01*
X142513798Y-114399775D01*
X142574224Y-114315683D01*
X142632950Y-114169598D01*
X142634793Y-114156649D01*
X142654562Y-114017744D01*
X142654562Y-114017740D01*
X142655134Y-114013723D01*
X142655278Y-114000000D01*
X142650670Y-113961919D01*
X142637262Y-113851119D01*
X142637261Y-113851115D01*
X142636363Y-113843694D01*
X142580710Y-113696412D01*
X142572337Y-113684229D01*
X142495768Y-113572821D01*
X142495765Y-113572818D01*
X142491531Y-113566657D01*
X142373976Y-113461919D01*
X142234831Y-113388245D01*
X142082128Y-113349889D01*
X142000329Y-113349461D01*
X141932158Y-113349104D01*
X141932157Y-113349104D01*
X141924684Y-113349065D01*
X141917421Y-113350809D01*
X141917418Y-113350809D01*
X141848136Y-113367443D01*
X141771588Y-113385820D01*
X141631679Y-113458032D01*
X141513034Y-113561533D01*
X141422501Y-113690348D01*
X141365309Y-113837039D01*
X141344758Y-113993138D01*
X138654448Y-113993138D01*
X138650670Y-113961919D01*
X138637262Y-113851119D01*
X138637261Y-113851115D01*
X138636363Y-113843694D01*
X138580710Y-113696412D01*
X138572337Y-113684229D01*
X138495768Y-113572821D01*
X138495765Y-113572818D01*
X138491531Y-113566657D01*
X138373976Y-113461919D01*
X138234831Y-113388245D01*
X138082128Y-113349889D01*
X138000329Y-113349461D01*
X137932158Y-113349104D01*
X137932157Y-113349104D01*
X137924684Y-113349065D01*
X137917421Y-113350809D01*
X137917418Y-113350809D01*
X137848136Y-113367443D01*
X137771588Y-113385820D01*
X137631679Y-113458032D01*
X137513034Y-113561533D01*
X137422501Y-113690348D01*
X137365309Y-113837039D01*
X137344758Y-113993138D01*
X136409016Y-113993138D01*
X136379559Y-113966893D01*
X136379558Y-113966892D01*
X136373976Y-113961919D01*
X136234831Y-113888245D01*
X136082128Y-113849889D01*
X136000329Y-113849461D01*
X135932158Y-113849104D01*
X135932157Y-113849104D01*
X135924684Y-113849065D01*
X135917421Y-113850809D01*
X135917418Y-113850809D01*
X135848136Y-113867443D01*
X135771588Y-113885820D01*
X135631679Y-113958032D01*
X135513034Y-114061533D01*
X135422501Y-114190348D01*
X135365309Y-114337039D01*
X135344758Y-114493138D01*
X106500000Y-114493138D01*
X106500000Y-112743138D01*
X123844758Y-112743138D01*
X123845578Y-112750566D01*
X123845578Y-112750568D01*
X123847474Y-112767744D01*
X123862035Y-112899633D01*
X123916143Y-113047490D01*
X124003958Y-113178172D01*
X124026183Y-113198395D01*
X124114878Y-113279102D01*
X124114882Y-113279105D01*
X124120410Y-113284135D01*
X124126980Y-113287702D01*
X124126981Y-113287703D01*
X124244867Y-113351710D01*
X124258776Y-113359262D01*
X124353362Y-113384076D01*
X124403841Y-113397319D01*
X124403843Y-113397319D01*
X124411069Y-113399215D01*
X124488127Y-113400425D01*
X124561025Y-113401571D01*
X124561028Y-113401571D01*
X124568495Y-113401688D01*
X124575776Y-113400020D01*
X124575780Y-113400020D01*
X124714681Y-113368207D01*
X124721968Y-113366538D01*
X124862625Y-113295795D01*
X124868306Y-113290943D01*
X124868309Y-113290941D01*
X124976666Y-113198395D01*
X124976667Y-113198394D01*
X124982348Y-113193542D01*
X124993393Y-113178172D01*
X125013798Y-113149775D01*
X125074224Y-113065683D01*
X125132950Y-112919598D01*
X125134793Y-112906649D01*
X125154562Y-112767744D01*
X125154562Y-112767740D01*
X125155134Y-112763723D01*
X125155278Y-112750000D01*
X125136363Y-112593694D01*
X125080710Y-112446412D01*
X125049972Y-112401688D01*
X124995768Y-112322821D01*
X124995765Y-112322818D01*
X124991531Y-112316657D01*
X124873976Y-112211919D01*
X124734831Y-112138245D01*
X124582128Y-112099889D01*
X124500329Y-112099461D01*
X124432158Y-112099104D01*
X124432157Y-112099104D01*
X124424684Y-112099065D01*
X124417421Y-112100809D01*
X124417418Y-112100809D01*
X124348136Y-112117442D01*
X124271588Y-112135820D01*
X124131679Y-112208032D01*
X124013034Y-112311533D01*
X123922501Y-112440348D01*
X123865309Y-112587039D01*
X123844758Y-112743138D01*
X106500000Y-112743138D01*
X106500000Y-111493138D01*
X116844758Y-111493138D01*
X116845578Y-111500566D01*
X116845578Y-111500568D01*
X116847474Y-111517744D01*
X116862035Y-111649633D01*
X116916143Y-111797490D01*
X116920314Y-111803697D01*
X116984781Y-111899633D01*
X117003958Y-111928172D01*
X117026183Y-111948395D01*
X117114878Y-112029102D01*
X117114882Y-112029105D01*
X117120410Y-112034135D01*
X117126980Y-112037702D01*
X117126981Y-112037703D01*
X117244867Y-112101710D01*
X117258776Y-112109262D01*
X117353362Y-112134076D01*
X117403841Y-112147319D01*
X117403843Y-112147319D01*
X117411069Y-112149215D01*
X117488127Y-112150425D01*
X117561025Y-112151571D01*
X117561028Y-112151571D01*
X117568495Y-112151688D01*
X117575776Y-112150020D01*
X117575780Y-112150020D01*
X117714681Y-112118207D01*
X117721968Y-112116538D01*
X117862625Y-112045795D01*
X117868306Y-112040943D01*
X117868309Y-112040941D01*
X117976666Y-111948395D01*
X117976667Y-111948394D01*
X117982348Y-111943542D01*
X117993393Y-111928172D01*
X118019237Y-111892205D01*
X118074224Y-111815683D01*
X118103387Y-111743138D01*
X137094758Y-111743138D01*
X137095578Y-111750566D01*
X137095578Y-111750568D01*
X137102767Y-111815683D01*
X137112035Y-111899633D01*
X137114601Y-111906645D01*
X137114602Y-111906649D01*
X137124321Y-111933206D01*
X137166143Y-112047490D01*
X137253958Y-112178172D01*
X137291046Y-112211919D01*
X137364878Y-112279102D01*
X137364882Y-112279105D01*
X137370410Y-112284135D01*
X137376980Y-112287702D01*
X137376981Y-112287703D01*
X137441660Y-112322821D01*
X137508776Y-112359262D01*
X137611031Y-112386088D01*
X137653841Y-112397319D01*
X137653843Y-112397319D01*
X137661069Y-112399215D01*
X137738127Y-112400425D01*
X137811025Y-112401571D01*
X137811028Y-112401571D01*
X137818495Y-112401688D01*
X137825776Y-112400020D01*
X137825780Y-112400020D01*
X137964681Y-112368207D01*
X137971968Y-112366538D01*
X138112625Y-112295795D01*
X138118306Y-112290943D01*
X138118309Y-112290941D01*
X138226666Y-112198395D01*
X138226667Y-112198394D01*
X138232348Y-112193542D01*
X138243393Y-112178172D01*
X138275079Y-112134076D01*
X138324224Y-112065683D01*
X138382950Y-111919598D01*
X138384793Y-111906649D01*
X138404562Y-111767744D01*
X138404562Y-111767740D01*
X138405134Y-111763723D01*
X138405278Y-111750000D01*
X138396387Y-111676530D01*
X138387262Y-111601119D01*
X138387261Y-111601115D01*
X138386363Y-111593694D01*
X138356145Y-111513723D01*
X138333354Y-111453408D01*
X138333352Y-111453405D01*
X138330710Y-111446412D01*
X138322337Y-111434229D01*
X138245768Y-111322821D01*
X138245765Y-111322818D01*
X138241531Y-111316657D01*
X138123976Y-111211919D01*
X137984831Y-111138245D01*
X137832128Y-111099889D01*
X137750329Y-111099461D01*
X137682158Y-111099104D01*
X137682157Y-111099104D01*
X137674684Y-111099065D01*
X137667421Y-111100809D01*
X137667418Y-111100809D01*
X137598136Y-111117442D01*
X137521588Y-111135820D01*
X137381679Y-111208032D01*
X137263034Y-111311533D01*
X137172501Y-111440348D01*
X137115309Y-111587039D01*
X137094758Y-111743138D01*
X118103387Y-111743138D01*
X118132950Y-111669598D01*
X118134793Y-111656649D01*
X118154562Y-111517744D01*
X118154562Y-111517740D01*
X118155134Y-111513723D01*
X118155278Y-111500000D01*
X118149640Y-111453408D01*
X118137262Y-111351119D01*
X118137261Y-111351115D01*
X118136363Y-111343694D01*
X118088449Y-111216893D01*
X118083354Y-111203408D01*
X118083352Y-111203405D01*
X118080710Y-111196412D01*
X118072337Y-111184229D01*
X117995768Y-111072821D01*
X117995765Y-111072818D01*
X117991531Y-111066657D01*
X117873976Y-110961919D01*
X117734831Y-110888245D01*
X117582128Y-110849889D01*
X117500329Y-110849461D01*
X117432158Y-110849104D01*
X117432157Y-110849104D01*
X117424684Y-110849065D01*
X117417421Y-110850809D01*
X117417418Y-110850809D01*
X117348136Y-110867443D01*
X117271588Y-110885820D01*
X117131679Y-110958032D01*
X117013034Y-111061533D01*
X116922501Y-111190348D01*
X116865309Y-111337039D01*
X116844758Y-111493138D01*
X106500000Y-111493138D01*
X106500000Y-109493138D01*
X116844758Y-109493138D01*
X116845578Y-109500566D01*
X116845578Y-109500568D01*
X116847474Y-109517744D01*
X116862035Y-109649633D01*
X116916143Y-109797490D01*
X117003958Y-109928172D01*
X117026183Y-109948395D01*
X117114878Y-110029102D01*
X117114882Y-110029105D01*
X117120410Y-110034135D01*
X117258776Y-110109262D01*
X117361031Y-110136088D01*
X117403841Y-110147319D01*
X117403843Y-110147319D01*
X117411069Y-110149215D01*
X117488127Y-110150425D01*
X117561025Y-110151571D01*
X117561028Y-110151571D01*
X117568495Y-110151688D01*
X117575776Y-110150020D01*
X117575780Y-110150020D01*
X117714681Y-110118207D01*
X117721968Y-110116538D01*
X117862625Y-110045795D01*
X117868306Y-110040943D01*
X117868309Y-110040941D01*
X117976666Y-109948395D01*
X117976667Y-109948394D01*
X117982348Y-109943542D01*
X117993393Y-109928172D01*
X118013798Y-109899775D01*
X118074224Y-109815683D01*
X118132950Y-109669598D01*
X118134793Y-109656649D01*
X118154562Y-109517744D01*
X118154562Y-109517740D01*
X118155134Y-109513723D01*
X118155278Y-109500000D01*
X118154448Y-109493138D01*
X127844758Y-109493138D01*
X127845578Y-109500566D01*
X127845578Y-109500568D01*
X127847474Y-109517744D01*
X127862035Y-109649633D01*
X127916143Y-109797490D01*
X128003958Y-109928172D01*
X128026183Y-109948395D01*
X128114878Y-110029102D01*
X128114882Y-110029105D01*
X128120410Y-110034135D01*
X128258776Y-110109262D01*
X128361031Y-110136088D01*
X128403841Y-110147319D01*
X128403843Y-110147319D01*
X128411069Y-110149215D01*
X128488127Y-110150425D01*
X128561025Y-110151571D01*
X128561028Y-110151571D01*
X128568495Y-110151688D01*
X128575776Y-110150020D01*
X128575780Y-110150020D01*
X128714681Y-110118207D01*
X128721968Y-110116538D01*
X128862625Y-110045795D01*
X128868306Y-110040943D01*
X128868309Y-110040941D01*
X128976666Y-109948395D01*
X128976667Y-109948394D01*
X128982348Y-109943542D01*
X128993393Y-109928172D01*
X129013798Y-109899775D01*
X129074224Y-109815683D01*
X129132950Y-109669598D01*
X129134793Y-109656649D01*
X129154562Y-109517744D01*
X129154562Y-109517740D01*
X129155134Y-109513723D01*
X129155278Y-109500000D01*
X129136363Y-109343694D01*
X129080710Y-109196412D01*
X129049972Y-109151688D01*
X128995768Y-109072821D01*
X128995765Y-109072818D01*
X128991531Y-109066657D01*
X128873976Y-108961919D01*
X128734831Y-108888245D01*
X128582128Y-108849889D01*
X128500329Y-108849461D01*
X128432158Y-108849104D01*
X128432157Y-108849104D01*
X128424684Y-108849065D01*
X128417421Y-108850809D01*
X128417418Y-108850809D01*
X128348136Y-108867443D01*
X128271588Y-108885820D01*
X128131679Y-108958032D01*
X128013034Y-109061533D01*
X127922501Y-109190348D01*
X127865309Y-109337039D01*
X127844758Y-109493138D01*
X118154448Y-109493138D01*
X118136363Y-109343694D01*
X118080710Y-109196412D01*
X118049972Y-109151688D01*
X117995768Y-109072821D01*
X117995765Y-109072818D01*
X117991531Y-109066657D01*
X117873976Y-108961919D01*
X117734831Y-108888245D01*
X117582128Y-108849889D01*
X117500329Y-108849461D01*
X117432158Y-108849104D01*
X117432157Y-108849104D01*
X117424684Y-108849065D01*
X117417421Y-108850809D01*
X117417418Y-108850809D01*
X117348136Y-108867443D01*
X117271588Y-108885820D01*
X117131679Y-108958032D01*
X117013034Y-109061533D01*
X116922501Y-109190348D01*
X116865309Y-109337039D01*
X116844758Y-109493138D01*
X106500000Y-109493138D01*
X106500000Y-108493138D01*
X137094758Y-108493138D01*
X137095578Y-108500566D01*
X137095578Y-108500568D01*
X137097474Y-108517744D01*
X137112035Y-108649633D01*
X137166143Y-108797490D01*
X137253958Y-108928172D01*
X137291046Y-108961919D01*
X137364878Y-109029102D01*
X137364882Y-109029105D01*
X137370410Y-109034135D01*
X137376980Y-109037702D01*
X137376981Y-109037703D01*
X137441660Y-109072821D01*
X137508776Y-109109262D01*
X137611031Y-109136088D01*
X137653841Y-109147319D01*
X137653843Y-109147319D01*
X137661069Y-109149215D01*
X137738127Y-109150425D01*
X137811025Y-109151571D01*
X137811028Y-109151571D01*
X137818495Y-109151688D01*
X137825776Y-109150020D01*
X137825780Y-109150020D01*
X137964681Y-109118207D01*
X137971968Y-109116538D01*
X138112625Y-109045795D01*
X138118306Y-109040943D01*
X138118309Y-109040941D01*
X138226666Y-108948395D01*
X138226667Y-108948394D01*
X138232348Y-108943542D01*
X138243393Y-108928172D01*
X138299644Y-108849889D01*
X138324224Y-108815683D01*
X138382950Y-108669598D01*
X138385516Y-108651571D01*
X138404562Y-108517744D01*
X138404562Y-108517740D01*
X138405134Y-108513723D01*
X138405278Y-108500000D01*
X138398446Y-108443542D01*
X138387262Y-108351119D01*
X138387261Y-108351115D01*
X138386363Y-108343694D01*
X138373159Y-108308750D01*
X138333354Y-108203408D01*
X138333352Y-108203405D01*
X138330710Y-108196412D01*
X138322337Y-108184229D01*
X138245768Y-108072821D01*
X138245765Y-108072818D01*
X138241531Y-108066657D01*
X138162191Y-107995967D01*
X138159016Y-107993138D01*
X145094758Y-107993138D01*
X145095578Y-108000566D01*
X145095578Y-108000568D01*
X145097474Y-108017744D01*
X145112035Y-108149633D01*
X145114601Y-108156645D01*
X145114602Y-108156649D01*
X145129484Y-108197314D01*
X145166143Y-108297490D01*
X145253958Y-108428172D01*
X145276183Y-108448395D01*
X145364878Y-108529102D01*
X145364882Y-108529105D01*
X145370410Y-108534135D01*
X145508776Y-108609262D01*
X145611031Y-108636088D01*
X145653841Y-108647319D01*
X145653843Y-108647319D01*
X145661069Y-108649215D01*
X145738127Y-108650425D01*
X145811025Y-108651571D01*
X145811028Y-108651571D01*
X145818495Y-108651688D01*
X145825776Y-108650020D01*
X145825780Y-108650020D01*
X145964681Y-108618207D01*
X145971968Y-108616538D01*
X146112625Y-108545795D01*
X146118306Y-108540943D01*
X146118309Y-108540941D01*
X146226666Y-108448395D01*
X146226667Y-108448394D01*
X146232348Y-108443542D01*
X146243393Y-108428172D01*
X146263798Y-108399775D01*
X146324224Y-108315683D01*
X146382950Y-108169598D01*
X146384793Y-108156649D01*
X146404562Y-108017744D01*
X146404562Y-108017740D01*
X146405134Y-108013723D01*
X146405278Y-108000000D01*
X146400670Y-107961919D01*
X146387262Y-107851119D01*
X146387261Y-107851115D01*
X146386363Y-107843694D01*
X146330710Y-107696412D01*
X146322337Y-107684229D01*
X146245768Y-107572821D01*
X146245765Y-107572818D01*
X146241531Y-107566657D01*
X146123976Y-107461919D01*
X145984831Y-107388245D01*
X145832128Y-107349889D01*
X145750329Y-107349461D01*
X145682158Y-107349104D01*
X145682157Y-107349104D01*
X145674684Y-107349065D01*
X145667421Y-107350809D01*
X145667418Y-107350809D01*
X145598136Y-107367442D01*
X145521588Y-107385820D01*
X145381679Y-107458032D01*
X145263034Y-107561533D01*
X145172501Y-107690348D01*
X145115309Y-107837039D01*
X145094758Y-107993138D01*
X138159016Y-107993138D01*
X138129559Y-107966893D01*
X138129558Y-107966892D01*
X138123976Y-107961919D01*
X137984831Y-107888245D01*
X137832128Y-107849889D01*
X137750329Y-107849461D01*
X137682158Y-107849104D01*
X137682157Y-107849104D01*
X137674684Y-107849065D01*
X137667421Y-107850809D01*
X137667418Y-107850809D01*
X137598136Y-107867443D01*
X137521588Y-107885820D01*
X137381679Y-107958032D01*
X137263034Y-108061533D01*
X137172501Y-108190348D01*
X137115309Y-108337039D01*
X137094758Y-108493138D01*
X106500000Y-108493138D01*
X106500000Y-105993138D01*
X128094758Y-105993138D01*
X128095578Y-106000566D01*
X128095578Y-106000568D01*
X128102767Y-106065683D01*
X128112035Y-106149633D01*
X128114601Y-106156645D01*
X128114602Y-106156649D01*
X128124321Y-106183206D01*
X128166143Y-106297490D01*
X128253958Y-106428172D01*
X128276183Y-106448395D01*
X128364878Y-106529102D01*
X128364882Y-106529105D01*
X128370410Y-106534135D01*
X128508776Y-106609262D01*
X128611031Y-106636088D01*
X128653841Y-106647319D01*
X128653843Y-106647319D01*
X128661069Y-106649215D01*
X128738127Y-106650425D01*
X128811025Y-106651571D01*
X128811028Y-106651571D01*
X128818495Y-106651688D01*
X128825776Y-106650020D01*
X128825780Y-106650020D01*
X128964681Y-106618207D01*
X128971968Y-106616538D01*
X129112625Y-106545795D01*
X129118306Y-106540943D01*
X129118309Y-106540941D01*
X129226666Y-106448395D01*
X129226667Y-106448394D01*
X129232348Y-106443542D01*
X129243393Y-106428172D01*
X129265563Y-106397319D01*
X129324224Y-106315683D01*
X129382950Y-106169598D01*
X129384793Y-106156649D01*
X129404562Y-106017744D01*
X129404562Y-106017740D01*
X129405134Y-106013723D01*
X129405278Y-106000000D01*
X129396387Y-105926530D01*
X129387262Y-105851119D01*
X129387261Y-105851115D01*
X129386363Y-105843694D01*
X129356145Y-105763723D01*
X129348367Y-105743138D01*
X141844758Y-105743138D01*
X141845578Y-105750566D01*
X141845578Y-105750568D01*
X141847474Y-105767744D01*
X141862035Y-105899633D01*
X141916143Y-106047490D01*
X141920314Y-106053697D01*
X141984781Y-106149633D01*
X142003958Y-106178172D01*
X142026183Y-106198395D01*
X142114878Y-106279102D01*
X142114882Y-106279105D01*
X142120410Y-106284135D01*
X142126980Y-106287702D01*
X142126981Y-106287703D01*
X142165745Y-106308750D01*
X142258776Y-106359262D01*
X142361031Y-106386088D01*
X142403841Y-106397319D01*
X142403843Y-106397319D01*
X142411069Y-106399215D01*
X142488127Y-106400425D01*
X142561025Y-106401571D01*
X142561028Y-106401571D01*
X142568495Y-106401688D01*
X142575776Y-106400020D01*
X142575780Y-106400020D01*
X142714681Y-106368207D01*
X142721968Y-106366538D01*
X142862625Y-106295795D01*
X142868306Y-106290943D01*
X142868309Y-106290941D01*
X142976666Y-106198395D01*
X142976667Y-106198394D01*
X142982348Y-106193542D01*
X142993393Y-106178172D01*
X143019237Y-106142205D01*
X143074224Y-106065683D01*
X143132950Y-105919598D01*
X143134793Y-105906649D01*
X143154562Y-105767744D01*
X143154562Y-105767740D01*
X143155134Y-105763723D01*
X143155278Y-105750000D01*
X143149640Y-105703408D01*
X143137262Y-105601119D01*
X143137261Y-105601115D01*
X143136363Y-105593694D01*
X143088449Y-105466893D01*
X143083354Y-105453408D01*
X143083352Y-105453405D01*
X143080710Y-105446412D01*
X143049972Y-105401688D01*
X142995768Y-105322821D01*
X142995765Y-105322818D01*
X142991531Y-105316657D01*
X142873976Y-105211919D01*
X142734831Y-105138245D01*
X142582128Y-105099889D01*
X142500329Y-105099461D01*
X142432158Y-105099104D01*
X142432157Y-105099104D01*
X142424684Y-105099065D01*
X142417421Y-105100809D01*
X142417418Y-105100809D01*
X142348136Y-105117442D01*
X142271588Y-105135820D01*
X142131679Y-105208032D01*
X142013034Y-105311533D01*
X141922501Y-105440348D01*
X141865309Y-105587039D01*
X141844758Y-105743138D01*
X129348367Y-105743138D01*
X129333354Y-105703408D01*
X129333352Y-105703405D01*
X129330710Y-105696412D01*
X129322337Y-105684229D01*
X129245768Y-105572821D01*
X129245765Y-105572818D01*
X129241531Y-105566657D01*
X129123976Y-105461919D01*
X128984831Y-105388245D01*
X128832128Y-105349889D01*
X128750329Y-105349461D01*
X128682158Y-105349104D01*
X128682157Y-105349104D01*
X128674684Y-105349065D01*
X128667421Y-105350809D01*
X128667418Y-105350809D01*
X128598136Y-105367443D01*
X128521588Y-105385820D01*
X128381679Y-105458032D01*
X128263034Y-105561533D01*
X128172501Y-105690348D01*
X128115309Y-105837039D01*
X128094758Y-105993138D01*
X106500000Y-105993138D01*
X106500000Y-104743138D01*
X137094758Y-104743138D01*
X137095578Y-104750566D01*
X137095578Y-104750568D01*
X137097474Y-104767744D01*
X137112035Y-104899633D01*
X137166143Y-105047490D01*
X137253958Y-105178172D01*
X137291046Y-105211919D01*
X137364878Y-105279102D01*
X137364882Y-105279105D01*
X137370410Y-105284135D01*
X137376980Y-105287702D01*
X137376981Y-105287703D01*
X137494867Y-105351710D01*
X137508776Y-105359262D01*
X137603362Y-105384076D01*
X137653841Y-105397319D01*
X137653843Y-105397319D01*
X137661069Y-105399215D01*
X137738127Y-105400425D01*
X137811025Y-105401571D01*
X137811028Y-105401571D01*
X137818495Y-105401688D01*
X137825776Y-105400020D01*
X137825780Y-105400020D01*
X137964681Y-105368207D01*
X137971968Y-105366538D01*
X138112625Y-105295795D01*
X138118306Y-105290943D01*
X138118309Y-105290941D01*
X138226666Y-105198395D01*
X138226667Y-105198394D01*
X138232348Y-105193542D01*
X138243393Y-105178172D01*
X138299644Y-105099889D01*
X138324224Y-105065683D01*
X138382950Y-104919598D01*
X138385516Y-104901571D01*
X138404562Y-104767744D01*
X138404562Y-104767740D01*
X138405134Y-104763723D01*
X138405278Y-104750000D01*
X138398446Y-104693542D01*
X138387262Y-104601119D01*
X138387261Y-104601115D01*
X138386363Y-104593694D01*
X138373159Y-104558750D01*
X138333354Y-104453408D01*
X138333352Y-104453405D01*
X138330710Y-104446412D01*
X138322337Y-104434229D01*
X138245768Y-104322821D01*
X138245765Y-104322818D01*
X138241531Y-104316657D01*
X138162191Y-104245967D01*
X138159016Y-104243138D01*
X144094758Y-104243138D01*
X144095578Y-104250566D01*
X144095578Y-104250568D01*
X144097474Y-104267744D01*
X144112035Y-104399633D01*
X144114601Y-104406645D01*
X144114602Y-104406649D01*
X144129484Y-104447314D01*
X144166143Y-104547490D01*
X144253958Y-104678172D01*
X144276183Y-104698395D01*
X144364878Y-104779102D01*
X144364882Y-104779105D01*
X144370410Y-104784135D01*
X144508776Y-104859262D01*
X144611031Y-104886088D01*
X144653841Y-104897319D01*
X144653843Y-104897319D01*
X144661069Y-104899215D01*
X144738127Y-104900425D01*
X144811025Y-104901571D01*
X144811028Y-104901571D01*
X144818495Y-104901688D01*
X144825776Y-104900020D01*
X144825780Y-104900020D01*
X144964681Y-104868207D01*
X144971968Y-104866538D01*
X145112625Y-104795795D01*
X145118306Y-104790943D01*
X145118309Y-104790941D01*
X145226666Y-104698395D01*
X145226667Y-104698394D01*
X145232348Y-104693542D01*
X145243393Y-104678172D01*
X145263798Y-104649775D01*
X145324224Y-104565683D01*
X145382950Y-104419598D01*
X145385516Y-104401571D01*
X145404562Y-104267744D01*
X145404562Y-104267740D01*
X145405134Y-104263723D01*
X145405278Y-104250000D01*
X145400670Y-104211919D01*
X145387262Y-104101119D01*
X145387261Y-104101115D01*
X145386363Y-104093694D01*
X145373159Y-104058750D01*
X145333354Y-103953408D01*
X145333352Y-103953405D01*
X145330710Y-103946412D01*
X145322337Y-103934229D01*
X145245768Y-103822821D01*
X145245765Y-103822818D01*
X145241531Y-103816657D01*
X145162191Y-103745967D01*
X145129559Y-103716893D01*
X145129558Y-103716892D01*
X145123976Y-103711919D01*
X144984831Y-103638245D01*
X144832128Y-103599889D01*
X144750329Y-103599461D01*
X144682158Y-103599104D01*
X144682157Y-103599104D01*
X144674684Y-103599065D01*
X144667421Y-103600809D01*
X144667418Y-103600809D01*
X144598136Y-103617442D01*
X144521588Y-103635820D01*
X144381679Y-103708032D01*
X144263034Y-103811533D01*
X144172501Y-103940348D01*
X144115309Y-104087039D01*
X144094758Y-104243138D01*
X138159016Y-104243138D01*
X138129559Y-104216893D01*
X138129558Y-104216892D01*
X138123976Y-104211919D01*
X137984831Y-104138245D01*
X137832128Y-104099889D01*
X137750329Y-104099461D01*
X137682158Y-104099104D01*
X137682157Y-104099104D01*
X137674684Y-104099065D01*
X137667421Y-104100809D01*
X137667418Y-104100809D01*
X137598136Y-104117443D01*
X137521588Y-104135820D01*
X137381679Y-104208032D01*
X137263034Y-104311533D01*
X137172501Y-104440348D01*
X137115309Y-104587039D01*
X137094758Y-104743138D01*
X106500000Y-104743138D01*
X106500000Y-103743138D01*
X131094758Y-103743138D01*
X131095578Y-103750566D01*
X131095578Y-103750568D01*
X131097474Y-103767744D01*
X131112035Y-103899633D01*
X131114601Y-103906645D01*
X131114602Y-103906649D01*
X131129484Y-103947314D01*
X131166143Y-104047490D01*
X131253958Y-104178172D01*
X131291046Y-104211919D01*
X131364878Y-104279102D01*
X131364882Y-104279105D01*
X131370410Y-104284135D01*
X131376980Y-104287702D01*
X131376981Y-104287703D01*
X131441660Y-104322821D01*
X131508776Y-104359262D01*
X131611031Y-104386088D01*
X131653841Y-104397319D01*
X131653843Y-104397319D01*
X131661069Y-104399215D01*
X131738127Y-104400425D01*
X131811025Y-104401571D01*
X131811028Y-104401571D01*
X131818495Y-104401688D01*
X131825776Y-104400020D01*
X131825780Y-104400020D01*
X131964681Y-104368207D01*
X131971968Y-104366538D01*
X132112625Y-104295795D01*
X132118306Y-104290943D01*
X132118309Y-104290941D01*
X132226666Y-104198395D01*
X132226667Y-104198394D01*
X132232348Y-104193542D01*
X132243393Y-104178172D01*
X132298336Y-104101710D01*
X132324224Y-104065683D01*
X132382950Y-103919598D01*
X132384793Y-103906649D01*
X132404562Y-103767744D01*
X132404562Y-103767740D01*
X132405134Y-103763723D01*
X132405278Y-103750000D01*
X132400670Y-103711919D01*
X132387262Y-103601119D01*
X132387261Y-103601115D01*
X132386363Y-103593694D01*
X132330710Y-103446412D01*
X132299972Y-103401688D01*
X132245768Y-103322821D01*
X132245765Y-103322818D01*
X132241531Y-103316657D01*
X132123976Y-103211919D01*
X131984831Y-103138245D01*
X131832128Y-103099889D01*
X131750329Y-103099461D01*
X131682158Y-103099104D01*
X131682157Y-103099104D01*
X131674684Y-103099065D01*
X131667421Y-103100809D01*
X131667418Y-103100809D01*
X131598136Y-103117442D01*
X131521588Y-103135820D01*
X131381679Y-103208032D01*
X131263034Y-103311533D01*
X131172501Y-103440348D01*
X131115309Y-103587039D01*
X131094758Y-103743138D01*
X106500000Y-103743138D01*
X106500000Y-102743138D01*
X133594758Y-102743138D01*
X133595578Y-102750566D01*
X133595578Y-102750568D01*
X133597474Y-102767744D01*
X133612035Y-102899633D01*
X133666143Y-103047490D01*
X133753958Y-103178172D01*
X133791046Y-103211919D01*
X133864878Y-103279102D01*
X133864882Y-103279105D01*
X133870410Y-103284135D01*
X133876980Y-103287702D01*
X133876981Y-103287703D01*
X133941660Y-103322821D01*
X134008776Y-103359262D01*
X134111031Y-103386088D01*
X134153841Y-103397319D01*
X134153843Y-103397319D01*
X134161069Y-103399215D01*
X134238127Y-103400425D01*
X134311025Y-103401571D01*
X134311028Y-103401571D01*
X134318495Y-103401688D01*
X134325776Y-103400020D01*
X134325780Y-103400020D01*
X134464681Y-103368207D01*
X134471968Y-103366538D01*
X134612625Y-103295795D01*
X134618306Y-103290943D01*
X134618309Y-103290941D01*
X134726666Y-103198395D01*
X134726667Y-103198394D01*
X134732348Y-103193542D01*
X134743393Y-103178172D01*
X134799644Y-103099889D01*
X134824224Y-103065683D01*
X134882950Y-102919598D01*
X134885516Y-102901571D01*
X134904562Y-102767744D01*
X134904562Y-102767740D01*
X134905134Y-102763723D01*
X134905278Y-102750000D01*
X134903551Y-102735727D01*
X134887262Y-102601119D01*
X134887261Y-102601115D01*
X134886363Y-102593694D01*
X134873159Y-102558750D01*
X134833354Y-102453408D01*
X134833352Y-102453405D01*
X134830710Y-102446412D01*
X134818174Y-102428172D01*
X134745768Y-102322821D01*
X134745765Y-102322818D01*
X134741531Y-102316657D01*
X134662191Y-102245967D01*
X134659016Y-102243138D01*
X137094758Y-102243138D01*
X137095578Y-102250566D01*
X137095578Y-102250568D01*
X137102309Y-102311533D01*
X137112035Y-102399633D01*
X137114601Y-102406645D01*
X137114602Y-102406649D01*
X137129484Y-102447314D01*
X137166143Y-102547490D01*
X137253958Y-102678172D01*
X137276183Y-102698395D01*
X137364878Y-102779102D01*
X137364882Y-102779105D01*
X137370410Y-102784135D01*
X137508776Y-102859262D01*
X137611031Y-102886088D01*
X137653841Y-102897319D01*
X137653843Y-102897319D01*
X137661069Y-102899215D01*
X137738127Y-102900425D01*
X137811025Y-102901571D01*
X137811028Y-102901571D01*
X137818495Y-102901688D01*
X137825776Y-102900020D01*
X137825780Y-102900020D01*
X137964681Y-102868207D01*
X137971968Y-102866538D01*
X138112625Y-102795795D01*
X138118306Y-102790943D01*
X138118309Y-102790941D01*
X138226666Y-102698395D01*
X138226667Y-102698394D01*
X138232348Y-102693542D01*
X138243393Y-102678172D01*
X138275302Y-102633765D01*
X138324224Y-102565683D01*
X138382950Y-102419598D01*
X138384793Y-102406649D01*
X138404562Y-102267744D01*
X138404562Y-102267740D01*
X138405134Y-102263723D01*
X138405278Y-102250000D01*
X138400670Y-102211919D01*
X138387262Y-102101119D01*
X138387261Y-102101115D01*
X138386363Y-102093694D01*
X138356145Y-102013723D01*
X138333354Y-101953408D01*
X138333352Y-101953405D01*
X138330710Y-101946412D01*
X138322337Y-101934229D01*
X138245768Y-101822821D01*
X138245765Y-101822818D01*
X138241531Y-101816657D01*
X138123976Y-101711919D01*
X137984831Y-101638245D01*
X137832128Y-101599889D01*
X137750329Y-101599461D01*
X137682158Y-101599104D01*
X137682157Y-101599104D01*
X137674684Y-101599065D01*
X137667421Y-101600809D01*
X137667418Y-101600809D01*
X137598136Y-101617442D01*
X137521588Y-101635820D01*
X137381679Y-101708032D01*
X137263034Y-101811533D01*
X137172501Y-101940348D01*
X137115309Y-102087039D01*
X137094758Y-102243138D01*
X134659016Y-102243138D01*
X134629559Y-102216893D01*
X134629558Y-102216892D01*
X134623976Y-102211919D01*
X134484831Y-102138245D01*
X134332128Y-102099889D01*
X134250329Y-102099461D01*
X134182158Y-102099104D01*
X134182157Y-102099104D01*
X134174684Y-102099065D01*
X134167421Y-102100809D01*
X134167418Y-102100809D01*
X134098136Y-102117443D01*
X134021588Y-102135820D01*
X133881679Y-102208032D01*
X133763034Y-102311533D01*
X133672501Y-102440348D01*
X133615309Y-102587039D01*
X133594758Y-102743138D01*
X106500000Y-102743138D01*
X106500000Y-101993138D01*
X108844758Y-101993138D01*
X108845578Y-102000566D01*
X108845578Y-102000568D01*
X108847474Y-102017744D01*
X108862035Y-102149633D01*
X108864601Y-102156645D01*
X108864602Y-102156649D01*
X108883406Y-102208032D01*
X108916143Y-102297490D01*
X108920314Y-102303697D01*
X108984781Y-102399633D01*
X109003958Y-102428172D01*
X109024004Y-102446412D01*
X109114878Y-102529102D01*
X109114882Y-102529105D01*
X109120410Y-102534135D01*
X109126980Y-102537702D01*
X109126981Y-102537703D01*
X109252208Y-102605696D01*
X109258776Y-102609262D01*
X109352177Y-102633765D01*
X109403841Y-102647319D01*
X109403843Y-102647319D01*
X109411069Y-102649215D01*
X109488127Y-102650425D01*
X109561025Y-102651571D01*
X109561028Y-102651571D01*
X109568495Y-102651688D01*
X109575776Y-102650020D01*
X109575780Y-102650020D01*
X109714681Y-102618207D01*
X109721968Y-102616538D01*
X109862625Y-102545795D01*
X109868306Y-102540943D01*
X109868309Y-102540941D01*
X109976666Y-102448395D01*
X109976667Y-102448394D01*
X109982348Y-102443542D01*
X109993393Y-102428172D01*
X110019237Y-102392205D01*
X110074224Y-102315683D01*
X110132950Y-102169598D01*
X110134793Y-102156649D01*
X110154562Y-102017744D01*
X110154562Y-102017740D01*
X110155134Y-102013723D01*
X110155278Y-102000000D01*
X110149640Y-101953408D01*
X110137262Y-101851119D01*
X110137261Y-101851115D01*
X110136363Y-101843694D01*
X110088449Y-101716893D01*
X110083354Y-101703408D01*
X110083352Y-101703405D01*
X110080710Y-101696412D01*
X110072337Y-101684229D01*
X109995768Y-101572821D01*
X109995765Y-101572818D01*
X109991531Y-101566657D01*
X109873976Y-101461919D01*
X109734831Y-101388245D01*
X109582128Y-101349889D01*
X109500329Y-101349461D01*
X109432158Y-101349104D01*
X109432157Y-101349104D01*
X109424684Y-101349065D01*
X109417421Y-101350809D01*
X109417418Y-101350809D01*
X109348136Y-101367443D01*
X109271588Y-101385820D01*
X109131679Y-101458032D01*
X109013034Y-101561533D01*
X108922501Y-101690348D01*
X108865309Y-101837039D01*
X108844758Y-101993138D01*
X106500000Y-101993138D01*
X106500000Y-100957098D01*
X106519685Y-100890059D01*
X106572489Y-100844304D01*
X106641647Y-100834360D01*
X106705203Y-100863385D01*
X106726921Y-100887937D01*
X106736083Y-100901571D01*
X106753958Y-100928172D01*
X106808693Y-100977977D01*
X106864878Y-101029102D01*
X106864882Y-101029105D01*
X106870410Y-101034135D01*
X107008776Y-101109262D01*
X107111031Y-101136088D01*
X107153841Y-101147319D01*
X107153843Y-101147319D01*
X107161069Y-101149215D01*
X107238127Y-101150425D01*
X107311025Y-101151571D01*
X107311028Y-101151571D01*
X107318495Y-101151688D01*
X107325776Y-101150020D01*
X107325780Y-101150020D01*
X107464681Y-101118207D01*
X107471968Y-101116538D01*
X107612625Y-101045795D01*
X107618306Y-101040943D01*
X107618309Y-101040941D01*
X107726666Y-100948395D01*
X107726667Y-100948394D01*
X107732348Y-100943542D01*
X107743393Y-100928172D01*
X107772304Y-100887937D01*
X107824224Y-100815683D01*
X107882950Y-100669598D01*
X107884003Y-100662201D01*
X107904562Y-100517744D01*
X107904562Y-100517740D01*
X107905134Y-100513723D01*
X107905278Y-100500000D01*
X107896387Y-100426530D01*
X107887262Y-100351119D01*
X107887261Y-100351115D01*
X107886363Y-100343694D01*
X107856145Y-100263723D01*
X107848367Y-100243138D01*
X133094758Y-100243138D01*
X133095578Y-100250566D01*
X133095578Y-100250568D01*
X133097474Y-100267744D01*
X133112035Y-100399633D01*
X133166143Y-100547490D01*
X133170314Y-100553697D01*
X133234781Y-100649633D01*
X133253958Y-100678172D01*
X133276183Y-100698395D01*
X133364878Y-100779102D01*
X133364882Y-100779105D01*
X133370410Y-100784135D01*
X133376980Y-100787702D01*
X133376981Y-100787703D01*
X133398071Y-100799154D01*
X133508776Y-100859262D01*
X133611031Y-100886088D01*
X133653841Y-100897319D01*
X133653843Y-100897319D01*
X133661069Y-100899215D01*
X133738127Y-100900425D01*
X133811025Y-100901571D01*
X133811028Y-100901571D01*
X133818495Y-100901688D01*
X133825776Y-100900020D01*
X133825780Y-100900020D01*
X133964681Y-100868207D01*
X133971968Y-100866538D01*
X134112625Y-100795795D01*
X134118306Y-100790943D01*
X134118309Y-100790941D01*
X134226666Y-100698395D01*
X134226667Y-100698394D01*
X134232348Y-100693542D01*
X134243393Y-100678172D01*
X134263900Y-100649633D01*
X134324224Y-100565683D01*
X134382950Y-100419598D01*
X134385516Y-100401571D01*
X134404562Y-100267744D01*
X134404562Y-100267740D01*
X134405134Y-100263723D01*
X134405278Y-100250000D01*
X134398446Y-100193542D01*
X134387262Y-100101119D01*
X134387261Y-100101115D01*
X134386363Y-100093694D01*
X134372354Y-100056620D01*
X134333354Y-99953408D01*
X134333352Y-99953405D01*
X134330710Y-99946412D01*
X134322337Y-99934229D01*
X134245768Y-99822821D01*
X134245765Y-99822818D01*
X134241531Y-99816657D01*
X134162191Y-99745967D01*
X134159016Y-99743138D01*
X143594758Y-99743138D01*
X143595578Y-99750566D01*
X143595578Y-99750568D01*
X143597474Y-99767744D01*
X143612035Y-99899633D01*
X143614601Y-99906645D01*
X143614602Y-99906649D01*
X143633406Y-99958032D01*
X143666143Y-100047490D01*
X143753958Y-100178172D01*
X143774004Y-100196412D01*
X143864878Y-100279102D01*
X143864882Y-100279105D01*
X143870410Y-100284135D01*
X143876980Y-100287702D01*
X143876981Y-100287703D01*
X144002208Y-100355696D01*
X144008776Y-100359262D01*
X144111031Y-100386088D01*
X144153841Y-100397319D01*
X144153843Y-100397319D01*
X144161069Y-100399215D01*
X144238127Y-100400425D01*
X144311025Y-100401571D01*
X144311028Y-100401571D01*
X144318495Y-100401688D01*
X144325776Y-100400020D01*
X144325780Y-100400020D01*
X144464681Y-100368207D01*
X144471968Y-100366538D01*
X144612625Y-100295795D01*
X144618306Y-100290943D01*
X144618309Y-100290941D01*
X144726666Y-100198395D01*
X144726667Y-100198394D01*
X144732348Y-100193542D01*
X144743393Y-100178172D01*
X144775149Y-100133978D01*
X144824224Y-100065683D01*
X144882950Y-99919598D01*
X144885516Y-99901571D01*
X144904562Y-99767744D01*
X144904562Y-99767740D01*
X144905134Y-99763723D01*
X144905278Y-99750000D01*
X144900670Y-99711919D01*
X144887262Y-99601119D01*
X144887261Y-99601115D01*
X144886363Y-99593694D01*
X144873159Y-99558750D01*
X144833354Y-99453408D01*
X144833352Y-99453405D01*
X144830710Y-99446412D01*
X144822337Y-99434229D01*
X144745768Y-99322821D01*
X144745765Y-99322818D01*
X144741531Y-99316657D01*
X144662191Y-99245967D01*
X144629559Y-99216893D01*
X144629558Y-99216892D01*
X144623976Y-99211919D01*
X144484831Y-99138245D01*
X144332128Y-99099889D01*
X144250329Y-99099461D01*
X144182158Y-99099104D01*
X144182157Y-99099104D01*
X144174684Y-99099065D01*
X144167421Y-99100809D01*
X144167418Y-99100809D01*
X144098136Y-99117443D01*
X144021588Y-99135820D01*
X143881679Y-99208032D01*
X143763034Y-99311533D01*
X143672501Y-99440348D01*
X143615309Y-99587039D01*
X143594758Y-99743138D01*
X134159016Y-99743138D01*
X134129559Y-99716893D01*
X134129558Y-99716892D01*
X134123976Y-99711919D01*
X133984831Y-99638245D01*
X133832128Y-99599889D01*
X133750329Y-99599461D01*
X133682158Y-99599104D01*
X133682157Y-99599104D01*
X133674684Y-99599065D01*
X133667421Y-99600809D01*
X133667418Y-99600809D01*
X133598136Y-99617443D01*
X133521588Y-99635820D01*
X133381679Y-99708032D01*
X133263034Y-99811533D01*
X133172501Y-99940348D01*
X133115309Y-100087039D01*
X133094758Y-100243138D01*
X107848367Y-100243138D01*
X107833354Y-100203408D01*
X107833352Y-100203405D01*
X107830710Y-100196412D01*
X107774763Y-100115009D01*
X107745768Y-100072821D01*
X107745765Y-100072818D01*
X107741531Y-100066657D01*
X107623976Y-99961919D01*
X107484831Y-99888245D01*
X107332128Y-99849889D01*
X107250329Y-99849461D01*
X107182158Y-99849104D01*
X107182157Y-99849104D01*
X107174684Y-99849065D01*
X107167421Y-99850809D01*
X107167418Y-99850809D01*
X107098136Y-99867442D01*
X107021588Y-99885820D01*
X106881679Y-99958032D01*
X106763034Y-100061533D01*
X106758735Y-100067650D01*
X106725450Y-100115009D01*
X106670797Y-100158538D01*
X106601286Y-100165610D01*
X106538987Y-100133978D01*
X106503678Y-100073687D01*
X106500000Y-100043708D01*
X106500000Y-99243138D01*
X130594758Y-99243138D01*
X130595578Y-99250566D01*
X130595578Y-99250568D01*
X130597474Y-99267744D01*
X130612035Y-99399633D01*
X130614601Y-99406645D01*
X130614602Y-99406649D01*
X130629484Y-99447314D01*
X130666143Y-99547490D01*
X130753958Y-99678172D01*
X130791046Y-99711919D01*
X130864878Y-99779102D01*
X130864882Y-99779105D01*
X130870410Y-99784135D01*
X130876980Y-99787702D01*
X130876981Y-99787703D01*
X130994867Y-99851710D01*
X131008776Y-99859262D01*
X131103362Y-99884076D01*
X131153841Y-99897319D01*
X131153843Y-99897319D01*
X131161069Y-99899215D01*
X131238127Y-99900425D01*
X131311025Y-99901571D01*
X131311028Y-99901571D01*
X131318495Y-99901688D01*
X131325776Y-99900020D01*
X131325780Y-99900020D01*
X131464681Y-99868207D01*
X131471968Y-99866538D01*
X131612625Y-99795795D01*
X131618306Y-99790943D01*
X131618309Y-99790941D01*
X131726666Y-99698395D01*
X131726667Y-99698394D01*
X131732348Y-99693542D01*
X131743393Y-99678172D01*
X131798336Y-99601710D01*
X131824224Y-99565683D01*
X131882950Y-99419598D01*
X131884793Y-99406649D01*
X131904562Y-99267744D01*
X131904562Y-99267740D01*
X131905134Y-99263723D01*
X131905278Y-99250000D01*
X131900670Y-99211919D01*
X131887262Y-99101119D01*
X131887261Y-99101115D01*
X131886363Y-99093694D01*
X131830710Y-98946412D01*
X131813908Y-98921965D01*
X131745768Y-98822821D01*
X131745765Y-98822818D01*
X131741531Y-98816657D01*
X131623976Y-98711919D01*
X131484831Y-98638245D01*
X131332128Y-98599889D01*
X131250329Y-98599461D01*
X131182158Y-98599104D01*
X131182157Y-98599104D01*
X131174684Y-98599065D01*
X131167421Y-98600809D01*
X131167418Y-98600809D01*
X131098136Y-98617442D01*
X131021588Y-98635820D01*
X130881679Y-98708032D01*
X130763034Y-98811533D01*
X130672501Y-98940348D01*
X130615309Y-99087039D01*
X130594758Y-99243138D01*
X106500000Y-99243138D01*
X106500000Y-98493138D01*
X117094758Y-98493138D01*
X117095578Y-98500566D01*
X117095578Y-98500568D01*
X117097474Y-98517744D01*
X117112035Y-98649633D01*
X117114601Y-98656645D01*
X117114602Y-98656649D01*
X117133406Y-98708032D01*
X117166143Y-98797490D01*
X117253958Y-98928172D01*
X117274004Y-98946412D01*
X117364878Y-99029102D01*
X117364882Y-99029105D01*
X117370410Y-99034135D01*
X117376980Y-99037702D01*
X117376981Y-99037703D01*
X117494867Y-99101710D01*
X117508776Y-99109262D01*
X117603362Y-99134076D01*
X117653841Y-99147319D01*
X117653843Y-99147319D01*
X117661069Y-99149215D01*
X117738127Y-99150425D01*
X117811025Y-99151571D01*
X117811028Y-99151571D01*
X117818495Y-99151688D01*
X117825776Y-99150020D01*
X117825780Y-99150020D01*
X117964681Y-99118207D01*
X117971968Y-99116538D01*
X118112625Y-99045795D01*
X118118306Y-99040943D01*
X118118309Y-99040941D01*
X118226666Y-98948395D01*
X118226667Y-98948394D01*
X118232348Y-98943542D01*
X118243393Y-98928172D01*
X118263798Y-98899775D01*
X118324224Y-98815683D01*
X118382950Y-98669598D01*
X118384793Y-98656649D01*
X118404562Y-98517744D01*
X118404562Y-98517740D01*
X118405134Y-98513723D01*
X118405278Y-98500000D01*
X118386363Y-98343694D01*
X118330710Y-98196412D01*
X118299972Y-98151688D01*
X118245768Y-98072821D01*
X118245765Y-98072818D01*
X118241531Y-98066657D01*
X118123976Y-97961919D01*
X117984831Y-97888245D01*
X117913826Y-97870410D01*
X117853602Y-97834987D01*
X117822089Y-97772627D01*
X117829293Y-97703130D01*
X117872926Y-97648560D01*
X117916351Y-97629276D01*
X117964681Y-97618207D01*
X117971968Y-97616538D01*
X118112625Y-97545795D01*
X118118306Y-97540943D01*
X118118309Y-97540941D01*
X118174279Y-97493138D01*
X139594758Y-97493138D01*
X139595578Y-97500566D01*
X139595578Y-97500568D01*
X139597474Y-97517744D01*
X139612035Y-97649633D01*
X139666143Y-97797490D01*
X139753958Y-97928172D01*
X139791046Y-97961919D01*
X139864878Y-98029102D01*
X139864882Y-98029105D01*
X139870410Y-98034135D01*
X139876980Y-98037702D01*
X139876981Y-98037703D01*
X139941660Y-98072821D01*
X140008776Y-98109262D01*
X140111031Y-98136088D01*
X140153841Y-98147319D01*
X140153843Y-98147319D01*
X140161069Y-98149215D01*
X140238127Y-98150425D01*
X140311025Y-98151571D01*
X140311028Y-98151571D01*
X140318495Y-98151688D01*
X140325776Y-98150020D01*
X140325780Y-98150020D01*
X140464681Y-98118207D01*
X140471968Y-98116538D01*
X140612625Y-98045795D01*
X140618306Y-98040943D01*
X140618309Y-98040941D01*
X140726666Y-97948395D01*
X140726667Y-97948394D01*
X140732348Y-97943542D01*
X140743393Y-97928172D01*
X140784820Y-97870519D01*
X140824224Y-97815683D01*
X140882950Y-97669598D01*
X140885499Y-97651688D01*
X140904562Y-97517744D01*
X140904562Y-97517740D01*
X140905134Y-97513723D01*
X140905278Y-97500000D01*
X140905141Y-97498868D01*
X140920954Y-97431508D01*
X140971163Y-97382919D01*
X141039670Y-97369189D01*
X141060263Y-97372770D01*
X141153838Y-97397318D01*
X141161069Y-97399215D01*
X141225383Y-97400225D01*
X141292104Y-97420960D01*
X141337024Y-97474476D01*
X141346686Y-97510603D01*
X141347474Y-97517744D01*
X141362035Y-97649633D01*
X141416143Y-97797490D01*
X141503958Y-97928172D01*
X141541046Y-97961919D01*
X141614878Y-98029102D01*
X141614882Y-98029105D01*
X141620410Y-98034135D01*
X141626980Y-98037702D01*
X141626981Y-98037703D01*
X141691660Y-98072821D01*
X141758776Y-98109262D01*
X141861031Y-98136088D01*
X141903841Y-98147319D01*
X141903843Y-98147319D01*
X141911069Y-98149215D01*
X141988127Y-98150425D01*
X142061025Y-98151571D01*
X142061028Y-98151571D01*
X142068495Y-98151688D01*
X142075776Y-98150020D01*
X142075780Y-98150020D01*
X142214681Y-98118207D01*
X142221968Y-98116538D01*
X142362625Y-98045795D01*
X142368306Y-98040943D01*
X142368309Y-98040941D01*
X142476666Y-97948395D01*
X142476667Y-97948394D01*
X142482348Y-97943542D01*
X142493393Y-97928172D01*
X142534820Y-97870519D01*
X142574224Y-97815683D01*
X142632950Y-97669598D01*
X142635499Y-97651688D01*
X142654562Y-97517744D01*
X142654562Y-97517740D01*
X142655134Y-97513723D01*
X142655278Y-97500000D01*
X142648446Y-97443542D01*
X142637262Y-97351119D01*
X142637261Y-97351115D01*
X142636363Y-97343694D01*
X142623159Y-97308750D01*
X142583354Y-97203408D01*
X142583352Y-97203405D01*
X142580710Y-97196412D01*
X142572337Y-97184229D01*
X142495768Y-97072821D01*
X142495765Y-97072818D01*
X142491531Y-97066657D01*
X142412191Y-96995967D01*
X142379559Y-96966893D01*
X142379558Y-96966892D01*
X142373976Y-96961919D01*
X142234831Y-96888245D01*
X142136559Y-96863561D01*
X142089378Y-96851710D01*
X142082128Y-96849889D01*
X142059828Y-96849772D01*
X142026580Y-96849598D01*
X141959645Y-96829563D01*
X141914167Y-96776520D01*
X141904128Y-96740497D01*
X141887262Y-96601119D01*
X141887261Y-96601115D01*
X141886363Y-96593694D01*
X141850959Y-96500000D01*
X141833354Y-96453408D01*
X141833352Y-96453405D01*
X141830710Y-96446412D01*
X141799972Y-96401688D01*
X141745768Y-96322821D01*
X141745765Y-96322818D01*
X141741531Y-96316657D01*
X141623976Y-96211919D01*
X141484831Y-96138245D01*
X141332128Y-96099889D01*
X141250329Y-96099461D01*
X141182158Y-96099104D01*
X141182157Y-96099104D01*
X141174684Y-96099065D01*
X141167415Y-96100810D01*
X141167416Y-96100810D01*
X141131408Y-96109454D01*
X141061626Y-96105963D01*
X141004809Y-96065299D01*
X140978996Y-96000372D01*
X140992382Y-95931797D01*
X141001761Y-95916526D01*
X141074224Y-95815683D01*
X141132950Y-95669598D01*
X141134793Y-95656649D01*
X141154562Y-95517744D01*
X141154562Y-95517740D01*
X141155134Y-95513723D01*
X141155278Y-95500000D01*
X141153551Y-95485727D01*
X141137262Y-95351119D01*
X141137261Y-95351115D01*
X141136363Y-95343694D01*
X141122354Y-95306620D01*
X141083354Y-95203408D01*
X141083352Y-95203405D01*
X141080710Y-95196412D01*
X141072337Y-95184229D01*
X140995768Y-95072821D01*
X140995765Y-95072818D01*
X140991531Y-95066657D01*
X140912191Y-94995967D01*
X140879559Y-94966893D01*
X140879558Y-94966892D01*
X140873976Y-94961919D01*
X140734831Y-94888245D01*
X140582128Y-94849889D01*
X140500329Y-94849461D01*
X140432158Y-94849104D01*
X140432157Y-94849104D01*
X140424684Y-94849065D01*
X140417421Y-94850809D01*
X140417418Y-94850809D01*
X140348136Y-94867443D01*
X140271588Y-94885820D01*
X140131679Y-94958032D01*
X140013034Y-95061533D01*
X139922501Y-95190348D01*
X139865309Y-95337039D01*
X139844758Y-95493138D01*
X139845578Y-95500566D01*
X139845578Y-95500568D01*
X139854232Y-95578956D01*
X139862035Y-95649633D01*
X139864601Y-95656645D01*
X139864602Y-95656649D01*
X139886215Y-95715707D01*
X139916143Y-95797490D01*
X140003958Y-95928172D01*
X140036774Y-95958032D01*
X140114878Y-96029102D01*
X140114882Y-96029105D01*
X140120410Y-96034135D01*
X140126980Y-96037702D01*
X140126981Y-96037703D01*
X140240067Y-96099104D01*
X140258776Y-96109262D01*
X140352177Y-96133765D01*
X140403841Y-96147319D01*
X140403843Y-96147319D01*
X140411069Y-96149215D01*
X140488127Y-96150425D01*
X140561025Y-96151571D01*
X140561028Y-96151571D01*
X140568495Y-96151688D01*
X140611913Y-96141744D01*
X140619371Y-96140036D01*
X140689113Y-96144257D01*
X140745502Y-96185514D01*
X140770634Y-96250707D01*
X140756530Y-96319138D01*
X140748504Y-96332207D01*
X140672501Y-96440348D01*
X140669785Y-96447313D01*
X140669785Y-96447314D01*
X140665606Y-96458032D01*
X140615309Y-96587039D01*
X140594758Y-96743138D01*
X140595578Y-96750569D01*
X140595500Y-96758044D01*
X140592223Y-96758010D01*
X140582544Y-96812322D01*
X140535043Y-96863561D01*
X140467380Y-96880985D01*
X140441333Y-96877319D01*
X140339378Y-96851710D01*
X140332128Y-96849889D01*
X140250329Y-96849461D01*
X140182158Y-96849104D01*
X140182157Y-96849104D01*
X140174684Y-96849065D01*
X140167421Y-96850809D01*
X140167418Y-96850809D01*
X140098136Y-96867442D01*
X140021588Y-96885820D01*
X139881679Y-96958032D01*
X139763034Y-97061533D01*
X139672501Y-97190348D01*
X139615309Y-97337039D01*
X139594758Y-97493138D01*
X118174279Y-97493138D01*
X118226666Y-97448395D01*
X118226667Y-97448394D01*
X118232348Y-97443542D01*
X118240996Y-97431508D01*
X118292909Y-97359262D01*
X118324224Y-97315683D01*
X118382950Y-97169598D01*
X118385516Y-97151571D01*
X118404562Y-97017744D01*
X118404562Y-97017740D01*
X118405134Y-97013723D01*
X118405278Y-97000000D01*
X118400670Y-96961919D01*
X118387262Y-96851119D01*
X118387261Y-96851115D01*
X118386363Y-96843694D01*
X118373159Y-96808750D01*
X118333354Y-96703408D01*
X118333352Y-96703405D01*
X118330710Y-96696412D01*
X118322337Y-96684229D01*
X118245768Y-96572821D01*
X118245765Y-96572818D01*
X118241531Y-96566657D01*
X118166717Y-96500000D01*
X118129559Y-96466893D01*
X118129558Y-96466892D01*
X118123976Y-96461919D01*
X117984831Y-96388245D01*
X117832128Y-96349889D01*
X117750329Y-96349461D01*
X117682158Y-96349104D01*
X117682157Y-96349104D01*
X117674684Y-96349065D01*
X117667421Y-96350809D01*
X117667418Y-96350809D01*
X117598136Y-96367442D01*
X117521588Y-96385820D01*
X117381679Y-96458032D01*
X117263034Y-96561533D01*
X117172501Y-96690348D01*
X117115309Y-96837039D01*
X117094758Y-96993138D01*
X117095578Y-97000566D01*
X117095578Y-97000568D01*
X117097474Y-97017744D01*
X117112035Y-97149633D01*
X117114601Y-97156645D01*
X117114602Y-97156649D01*
X117129484Y-97197314D01*
X117166143Y-97297490D01*
X117253958Y-97428172D01*
X117276183Y-97448395D01*
X117364878Y-97529102D01*
X117364882Y-97529105D01*
X117370410Y-97534135D01*
X117508776Y-97609262D01*
X117573960Y-97626362D01*
X117587840Y-97630004D01*
X117647690Y-97666056D01*
X117678548Y-97728742D01*
X117670616Y-97798160D01*
X117626414Y-97852270D01*
X117585321Y-97870519D01*
X117521588Y-97885820D01*
X117381679Y-97958032D01*
X117263034Y-98061533D01*
X117172501Y-98190348D01*
X117115309Y-98337039D01*
X117094758Y-98493138D01*
X106500000Y-98493138D01*
X106500000Y-94993138D01*
X131844758Y-94993138D01*
X131845578Y-95000566D01*
X131845578Y-95000568D01*
X131847474Y-95017744D01*
X131862035Y-95149633D01*
X131864601Y-95156645D01*
X131864602Y-95156649D01*
X131883406Y-95208032D01*
X131916143Y-95297490D01*
X132003958Y-95428172D01*
X132009483Y-95433199D01*
X132009512Y-95433233D01*
X132038415Y-95496845D01*
X132028338Y-95565984D01*
X132017098Y-95585550D01*
X131934800Y-95702647D01*
X131877608Y-95849338D01*
X131857057Y-96005437D01*
X131857877Y-96012865D01*
X131857877Y-96012867D01*
X131869346Y-96116748D01*
X131874334Y-96161932D01*
X131876900Y-96168944D01*
X131876901Y-96168948D01*
X131894447Y-96216893D01*
X131928442Y-96309789D01*
X131954861Y-96349104D01*
X132012063Y-96434229D01*
X132016257Y-96440471D01*
X132065993Y-96485727D01*
X132127177Y-96541401D01*
X132127181Y-96541404D01*
X132132709Y-96546434D01*
X132139279Y-96550001D01*
X132139280Y-96550002D01*
X132264507Y-96617995D01*
X132271075Y-96621561D01*
X132349766Y-96642205D01*
X132416140Y-96659618D01*
X132416142Y-96659618D01*
X132423368Y-96661514D01*
X132500426Y-96662724D01*
X132573324Y-96663870D01*
X132573327Y-96663870D01*
X132580794Y-96663987D01*
X132588075Y-96662319D01*
X132588079Y-96662319D01*
X132726980Y-96630506D01*
X132734267Y-96628837D01*
X132874924Y-96558094D01*
X132880605Y-96553242D01*
X132880608Y-96553240D01*
X132988965Y-96460694D01*
X132988966Y-96460693D01*
X132994647Y-96455841D01*
X133000775Y-96447314D01*
X133040705Y-96391744D01*
X133086523Y-96327982D01*
X133145249Y-96181897D01*
X133147092Y-96168948D01*
X133166861Y-96030043D01*
X133166861Y-96030039D01*
X133167433Y-96026022D01*
X133167577Y-96012299D01*
X133158006Y-95933206D01*
X133149561Y-95863418D01*
X133149560Y-95863414D01*
X133148662Y-95855993D01*
X133133430Y-95815683D01*
X133095653Y-95715707D01*
X133095651Y-95715704D01*
X133093009Y-95708711D01*
X133003830Y-95578956D01*
X133002227Y-95577528D01*
X132973623Y-95516279D01*
X132982977Y-95447038D01*
X132995508Y-95425228D01*
X133039777Y-95363621D01*
X133074224Y-95315683D01*
X133132950Y-95169598D01*
X133134793Y-95156649D01*
X133154562Y-95017744D01*
X133154562Y-95017740D01*
X133155134Y-95013723D01*
X133155278Y-95000000D01*
X133150670Y-94961919D01*
X133137262Y-94851119D01*
X133137261Y-94851115D01*
X133136363Y-94843694D01*
X133080710Y-94696412D01*
X133072337Y-94684229D01*
X132995768Y-94572821D01*
X132995765Y-94572818D01*
X132991531Y-94566657D01*
X132873976Y-94461919D01*
X132734831Y-94388245D01*
X132582128Y-94349889D01*
X132500329Y-94349461D01*
X132432158Y-94349104D01*
X132432157Y-94349104D01*
X132424684Y-94349065D01*
X132417421Y-94350809D01*
X132417418Y-94350809D01*
X132348136Y-94367443D01*
X132271588Y-94385820D01*
X132131679Y-94458032D01*
X132013034Y-94561533D01*
X131922501Y-94690348D01*
X131865309Y-94837039D01*
X131844758Y-94993138D01*
X106500000Y-94993138D01*
X106500000Y-93958908D01*
X106523300Y-93886551D01*
X106574224Y-93815683D01*
X106632950Y-93669598D01*
X106634003Y-93662201D01*
X106654562Y-93517744D01*
X106654562Y-93517740D01*
X106655134Y-93513723D01*
X106655278Y-93500000D01*
X106643082Y-93399215D01*
X106637262Y-93351119D01*
X106637261Y-93351115D01*
X106636363Y-93343694D01*
X106580710Y-93196412D01*
X106521809Y-93110711D01*
X106500000Y-93040476D01*
X106500000Y-92743138D01*
X138594758Y-92743138D01*
X138595578Y-92750566D01*
X138595578Y-92750568D01*
X138597474Y-92767744D01*
X138612035Y-92899633D01*
X138666143Y-93047490D01*
X138753958Y-93178172D01*
X138774004Y-93196412D01*
X138864878Y-93279102D01*
X138864882Y-93279105D01*
X138870410Y-93284135D01*
X138876980Y-93287702D01*
X138876981Y-93287703D01*
X139002208Y-93355696D01*
X139008776Y-93359262D01*
X139111031Y-93386088D01*
X139153841Y-93397319D01*
X139153843Y-93397319D01*
X139161069Y-93399215D01*
X139238127Y-93400425D01*
X139311025Y-93401571D01*
X139311028Y-93401571D01*
X139318495Y-93401688D01*
X139325776Y-93400020D01*
X139325780Y-93400020D01*
X139464681Y-93368207D01*
X139471968Y-93366538D01*
X139612625Y-93295795D01*
X139618306Y-93290943D01*
X139618309Y-93290941D01*
X139726666Y-93198395D01*
X139726667Y-93198394D01*
X139732348Y-93193542D01*
X139743393Y-93178172D01*
X139791868Y-93110711D01*
X139824224Y-93065683D01*
X139882950Y-92919598D01*
X139884793Y-92906649D01*
X139904562Y-92767744D01*
X139904562Y-92767740D01*
X139905134Y-92763723D01*
X139905278Y-92750000D01*
X139886363Y-92593694D01*
X139830710Y-92446412D01*
X139799972Y-92401688D01*
X139745768Y-92322821D01*
X139745765Y-92322818D01*
X139741531Y-92316657D01*
X139623976Y-92211919D01*
X139484831Y-92138245D01*
X139332128Y-92099889D01*
X139250329Y-92099461D01*
X139182158Y-92099104D01*
X139182157Y-92099104D01*
X139174684Y-92099065D01*
X139167421Y-92100809D01*
X139167418Y-92100809D01*
X139098136Y-92117442D01*
X139021588Y-92135820D01*
X138881679Y-92208032D01*
X138763034Y-92311533D01*
X138672501Y-92440348D01*
X138615309Y-92587039D01*
X138594758Y-92743138D01*
X106500000Y-92743138D01*
X106500000Y-90750000D01*
X110294723Y-90750000D01*
X110313793Y-90967977D01*
X110315195Y-90973209D01*
X110362356Y-91149215D01*
X110370425Y-91179330D01*
X110462898Y-91377638D01*
X110466005Y-91382075D01*
X110466006Y-91382077D01*
X110585296Y-91552442D01*
X110585300Y-91552446D01*
X110588402Y-91556877D01*
X110743123Y-91711598D01*
X110922361Y-91837102D01*
X111120670Y-91929575D01*
X111125893Y-91930974D01*
X111125897Y-91930976D01*
X111292901Y-91975724D01*
X111332023Y-91986207D01*
X111550000Y-92005277D01*
X111767977Y-91986207D01*
X111807099Y-91975724D01*
X111974103Y-91930976D01*
X111974107Y-91930974D01*
X111979330Y-91929575D01*
X112177639Y-91837102D01*
X112356877Y-91711598D01*
X112511598Y-91556877D01*
X112514700Y-91552446D01*
X112514704Y-91552442D01*
X112633994Y-91382077D01*
X112633995Y-91382075D01*
X112637102Y-91377638D01*
X112729575Y-91179330D01*
X112737645Y-91149215D01*
X112784805Y-90973209D01*
X112786207Y-90967977D01*
X112805277Y-90750000D01*
X113894723Y-90750000D01*
X113913793Y-90967977D01*
X113915195Y-90973209D01*
X113962356Y-91149215D01*
X113970425Y-91179330D01*
X114062898Y-91377638D01*
X114066005Y-91382075D01*
X114066006Y-91382077D01*
X114185296Y-91552442D01*
X114185300Y-91552446D01*
X114188402Y-91556877D01*
X114343123Y-91711598D01*
X114522361Y-91837102D01*
X114720670Y-91929575D01*
X114725893Y-91930974D01*
X114725897Y-91930976D01*
X114892901Y-91975724D01*
X114932023Y-91986207D01*
X115150000Y-92005277D01*
X115367977Y-91986207D01*
X115407099Y-91975724D01*
X115574103Y-91930976D01*
X115574107Y-91930974D01*
X115579330Y-91929575D01*
X115777639Y-91837102D01*
X115911833Y-91743138D01*
X133344758Y-91743138D01*
X133345578Y-91750566D01*
X133345578Y-91750568D01*
X133347474Y-91767744D01*
X133362035Y-91899633D01*
X133416143Y-92047490D01*
X133503958Y-92178172D01*
X133541046Y-92211919D01*
X133614878Y-92279102D01*
X133614882Y-92279105D01*
X133620410Y-92284135D01*
X133626980Y-92287702D01*
X133626981Y-92287703D01*
X133691660Y-92322821D01*
X133758776Y-92359262D01*
X133861031Y-92386088D01*
X133903841Y-92397319D01*
X133903843Y-92397319D01*
X133911069Y-92399215D01*
X133988127Y-92400425D01*
X134061025Y-92401571D01*
X134061028Y-92401571D01*
X134068495Y-92401688D01*
X134075776Y-92400020D01*
X134075780Y-92400020D01*
X134214681Y-92368207D01*
X134221968Y-92366538D01*
X134362625Y-92295795D01*
X134368306Y-92290943D01*
X134368309Y-92290941D01*
X134476666Y-92198395D01*
X134476667Y-92198394D01*
X134482348Y-92193542D01*
X134493393Y-92178172D01*
X134549644Y-92099889D01*
X134574224Y-92065683D01*
X134632950Y-91919598D01*
X134634793Y-91906649D01*
X134654562Y-91767744D01*
X134654562Y-91767740D01*
X134655134Y-91763723D01*
X134655278Y-91750000D01*
X134636363Y-91593694D01*
X134580710Y-91446412D01*
X134572337Y-91434229D01*
X134495768Y-91322821D01*
X134495765Y-91322818D01*
X134491531Y-91316657D01*
X134373976Y-91211919D01*
X134234831Y-91138245D01*
X134082128Y-91099889D01*
X134000329Y-91099461D01*
X133932158Y-91099104D01*
X133932157Y-91099104D01*
X133924684Y-91099065D01*
X133917421Y-91100809D01*
X133917418Y-91100809D01*
X133848136Y-91117442D01*
X133771588Y-91135820D01*
X133631679Y-91208032D01*
X133513034Y-91311533D01*
X133422501Y-91440348D01*
X133365309Y-91587039D01*
X133344758Y-91743138D01*
X115911833Y-91743138D01*
X115956877Y-91711598D01*
X116111598Y-91556877D01*
X116114700Y-91552446D01*
X116114704Y-91552442D01*
X116233994Y-91382077D01*
X116233995Y-91382075D01*
X116237102Y-91377638D01*
X116329575Y-91179330D01*
X116337645Y-91149215D01*
X116384805Y-90973209D01*
X116386207Y-90967977D01*
X116405277Y-90750000D01*
X116386207Y-90532023D01*
X116375788Y-90493138D01*
X143594758Y-90493138D01*
X143595578Y-90500566D01*
X143595578Y-90500568D01*
X143597474Y-90517744D01*
X143612035Y-90649633D01*
X143666143Y-90797490D01*
X143753958Y-90928172D01*
X143776183Y-90948395D01*
X143864878Y-91029102D01*
X143864882Y-91029105D01*
X143870410Y-91034135D01*
X143876980Y-91037702D01*
X143876981Y-91037703D01*
X143994867Y-91101710D01*
X144008776Y-91109262D01*
X144103362Y-91134076D01*
X144153841Y-91147319D01*
X144153843Y-91147319D01*
X144161069Y-91149215D01*
X144238127Y-91150425D01*
X144311025Y-91151571D01*
X144311028Y-91151571D01*
X144318495Y-91151688D01*
X144325776Y-91150020D01*
X144325780Y-91150020D01*
X144464681Y-91118207D01*
X144471968Y-91116538D01*
X144612625Y-91045795D01*
X144618306Y-91040943D01*
X144618309Y-91040941D01*
X144726666Y-90948395D01*
X144726667Y-90948394D01*
X144732348Y-90943542D01*
X144743393Y-90928172D01*
X144763798Y-90899775D01*
X144824224Y-90815683D01*
X144882950Y-90669598D01*
X144884793Y-90656649D01*
X144904562Y-90517744D01*
X144904562Y-90517740D01*
X144905134Y-90513723D01*
X144905278Y-90500000D01*
X144893082Y-90399215D01*
X144887262Y-90351119D01*
X144887261Y-90351115D01*
X144886363Y-90343694D01*
X144830710Y-90196412D01*
X144783192Y-90127273D01*
X144745768Y-90072821D01*
X144745765Y-90072818D01*
X144741531Y-90066657D01*
X144623976Y-89961919D01*
X144484831Y-89888245D01*
X144332128Y-89849889D01*
X144250329Y-89849461D01*
X144182158Y-89849104D01*
X144182157Y-89849104D01*
X144174684Y-89849065D01*
X144167421Y-89850809D01*
X144167418Y-89850809D01*
X144098136Y-89867443D01*
X144021588Y-89885820D01*
X143881679Y-89958032D01*
X143763034Y-90061533D01*
X143672501Y-90190348D01*
X143615309Y-90337039D01*
X143594758Y-90493138D01*
X116375788Y-90493138D01*
X116351284Y-90401688D01*
X116330976Y-90325897D01*
X116330974Y-90325893D01*
X116329575Y-90320670D01*
X116237102Y-90122362D01*
X116201666Y-90071754D01*
X116114704Y-89947558D01*
X116114700Y-89947554D01*
X116111598Y-89943123D01*
X115956877Y-89788402D01*
X115777639Y-89662898D01*
X115579330Y-89570425D01*
X115574107Y-89569026D01*
X115574103Y-89569024D01*
X115373209Y-89515195D01*
X115373210Y-89515195D01*
X115367977Y-89513793D01*
X115150000Y-89494723D01*
X114932023Y-89513793D01*
X114926790Y-89515195D01*
X114926791Y-89515195D01*
X114725897Y-89569024D01*
X114725893Y-89569026D01*
X114720670Y-89570425D01*
X114522362Y-89662898D01*
X114517925Y-89666005D01*
X114517923Y-89666006D01*
X114347558Y-89785296D01*
X114347557Y-89785297D01*
X114343123Y-89788402D01*
X114188402Y-89943123D01*
X114185300Y-89947554D01*
X114185296Y-89947558D01*
X114098334Y-90071754D01*
X114062898Y-90122362D01*
X113970425Y-90320670D01*
X113969026Y-90325893D01*
X113969024Y-90325897D01*
X113948716Y-90401688D01*
X113913793Y-90532023D01*
X113894723Y-90750000D01*
X112805277Y-90750000D01*
X112786207Y-90532023D01*
X112751284Y-90401688D01*
X112730976Y-90325897D01*
X112730974Y-90325893D01*
X112729575Y-90320670D01*
X112637102Y-90122362D01*
X112601666Y-90071754D01*
X112514704Y-89947558D01*
X112514700Y-89947554D01*
X112511598Y-89943123D01*
X112356877Y-89788402D01*
X112177639Y-89662898D01*
X111979330Y-89570425D01*
X111974107Y-89569026D01*
X111974103Y-89569024D01*
X111773209Y-89515195D01*
X111773210Y-89515195D01*
X111767977Y-89513793D01*
X111550000Y-89494723D01*
X111332023Y-89513793D01*
X111326790Y-89515195D01*
X111326791Y-89515195D01*
X111125897Y-89569024D01*
X111125893Y-89569026D01*
X111120670Y-89570425D01*
X110922362Y-89662898D01*
X110917925Y-89666005D01*
X110917923Y-89666006D01*
X110747558Y-89785296D01*
X110747557Y-89785297D01*
X110743123Y-89788402D01*
X110588402Y-89943123D01*
X110585300Y-89947554D01*
X110585296Y-89947558D01*
X110498334Y-90071754D01*
X110462898Y-90122362D01*
X110370425Y-90320670D01*
X110369026Y-90325893D01*
X110369024Y-90325897D01*
X110348716Y-90401688D01*
X110313793Y-90532023D01*
X110294723Y-90750000D01*
X106500000Y-90750000D01*
X106500000Y-89230839D01*
X137107057Y-89230839D01*
X137107877Y-89238267D01*
X137107877Y-89238269D01*
X137115982Y-89311682D01*
X137124334Y-89387334D01*
X137126900Y-89394346D01*
X137126901Y-89394350D01*
X137148514Y-89453408D01*
X137178442Y-89535191D01*
X137266257Y-89665873D01*
X137320992Y-89715678D01*
X137377177Y-89766803D01*
X137377181Y-89766806D01*
X137382709Y-89771836D01*
X137389279Y-89775403D01*
X137389280Y-89775404D01*
X137433022Y-89799154D01*
X137521075Y-89846963D01*
X137602053Y-89868207D01*
X137666140Y-89885020D01*
X137666142Y-89885020D01*
X137673368Y-89886916D01*
X137750426Y-89888126D01*
X137823324Y-89889272D01*
X137823327Y-89889272D01*
X137830794Y-89889389D01*
X137838075Y-89887721D01*
X137838079Y-89887721D01*
X137976980Y-89855908D01*
X137984267Y-89854239D01*
X138124924Y-89783496D01*
X138130605Y-89778644D01*
X138130608Y-89778642D01*
X138238965Y-89686096D01*
X138238966Y-89686095D01*
X138244647Y-89681243D01*
X138255692Y-89665873D01*
X138317345Y-89580073D01*
X138336523Y-89553384D01*
X138395249Y-89407299D01*
X138397397Y-89392205D01*
X138416861Y-89255445D01*
X138416861Y-89255441D01*
X138417433Y-89251424D01*
X138417520Y-89243138D01*
X139094758Y-89243138D01*
X139095578Y-89250566D01*
X139095578Y-89250568D01*
X139097474Y-89267744D01*
X139112035Y-89399633D01*
X139114601Y-89406645D01*
X139114602Y-89406649D01*
X139129484Y-89447314D01*
X139166143Y-89547490D01*
X139253958Y-89678172D01*
X139276183Y-89698395D01*
X139364878Y-89779102D01*
X139364882Y-89779105D01*
X139370410Y-89784135D01*
X139376980Y-89787702D01*
X139376981Y-89787703D01*
X139493338Y-89850880D01*
X139508776Y-89859262D01*
X139610010Y-89885820D01*
X139653841Y-89897319D01*
X139653843Y-89897319D01*
X139661069Y-89899215D01*
X139738127Y-89900425D01*
X139811025Y-89901571D01*
X139811028Y-89901571D01*
X139818495Y-89901688D01*
X139825776Y-89900020D01*
X139825780Y-89900020D01*
X139964681Y-89868207D01*
X139971968Y-89866538D01*
X140112625Y-89795795D01*
X140118306Y-89790943D01*
X140118309Y-89790941D01*
X140226666Y-89698395D01*
X140226667Y-89698394D01*
X140232348Y-89693542D01*
X140237699Y-89686096D01*
X140263798Y-89649775D01*
X140324224Y-89565683D01*
X140382950Y-89419598D01*
X140384003Y-89412201D01*
X140404562Y-89267744D01*
X140404562Y-89267740D01*
X140405134Y-89263723D01*
X140405278Y-89250000D01*
X140404448Y-89243138D01*
X140387262Y-89101119D01*
X140387261Y-89101115D01*
X140386363Y-89093694D01*
X140330710Y-88946412D01*
X140318174Y-88928172D01*
X140245768Y-88822821D01*
X140245765Y-88822818D01*
X140241531Y-88816657D01*
X140123976Y-88711919D01*
X139984831Y-88638245D01*
X139832128Y-88599889D01*
X139750329Y-88599461D01*
X139682158Y-88599104D01*
X139682157Y-88599104D01*
X139674684Y-88599065D01*
X139667421Y-88600809D01*
X139667418Y-88600809D01*
X139598136Y-88617442D01*
X139521588Y-88635820D01*
X139381679Y-88708032D01*
X139263034Y-88811533D01*
X139172501Y-88940348D01*
X139115309Y-89087039D01*
X139094758Y-89243138D01*
X138417520Y-89243138D01*
X138417577Y-89237701D01*
X138411262Y-89185514D01*
X138399561Y-89088820D01*
X138399560Y-89088816D01*
X138398662Y-89081395D01*
X138378902Y-89029102D01*
X138345653Y-88941109D01*
X138345651Y-88941106D01*
X138343009Y-88934113D01*
X138320724Y-88901688D01*
X138258067Y-88810522D01*
X138258064Y-88810519D01*
X138253830Y-88804358D01*
X138146153Y-88708421D01*
X138141858Y-88704594D01*
X138141857Y-88704593D01*
X138136275Y-88699620D01*
X137997130Y-88625946D01*
X137844427Y-88587590D01*
X137762628Y-88587162D01*
X137694457Y-88586805D01*
X137694456Y-88586805D01*
X137686983Y-88586766D01*
X137679720Y-88588510D01*
X137679717Y-88588510D01*
X137610435Y-88605144D01*
X137533887Y-88623521D01*
X137393978Y-88695733D01*
X137388347Y-88700646D01*
X137388346Y-88700646D01*
X137373404Y-88713681D01*
X137275333Y-88799234D01*
X137184800Y-88928049D01*
X137182084Y-88935014D01*
X137182084Y-88935015D01*
X137177641Y-88946412D01*
X137127608Y-89074740D01*
X137107057Y-89230839D01*
X106500000Y-89230839D01*
X106500000Y-89017686D01*
X106519685Y-88950647D01*
X106572489Y-88904892D01*
X106641647Y-88894948D01*
X106652358Y-88897116D01*
X106653844Y-88897319D01*
X106661069Y-88899215D01*
X106738127Y-88900425D01*
X106811025Y-88901571D01*
X106811028Y-88901571D01*
X106818495Y-88901688D01*
X106825776Y-88900020D01*
X106825780Y-88900020D01*
X106964681Y-88868207D01*
X106971968Y-88866538D01*
X107112625Y-88795795D01*
X107118306Y-88790943D01*
X107118309Y-88790941D01*
X107226666Y-88698395D01*
X107226667Y-88698394D01*
X107232348Y-88693542D01*
X107243393Y-88678172D01*
X107278406Y-88629445D01*
X107324224Y-88565683D01*
X107353387Y-88493138D01*
X144594758Y-88493138D01*
X144595578Y-88500566D01*
X144595578Y-88500568D01*
X144606452Y-88599065D01*
X144612035Y-88649633D01*
X144614601Y-88656645D01*
X144614602Y-88656649D01*
X144633406Y-88708032D01*
X144666143Y-88797490D01*
X144670314Y-88803697D01*
X144749764Y-88921930D01*
X144753958Y-88928172D01*
X144774004Y-88946412D01*
X144864878Y-89029102D01*
X144864882Y-89029105D01*
X144870410Y-89034135D01*
X144876980Y-89037702D01*
X144876981Y-89037703D01*
X144994867Y-89101710D01*
X145008776Y-89109262D01*
X145110010Y-89135820D01*
X145153841Y-89147319D01*
X145153843Y-89147319D01*
X145161069Y-89149215D01*
X145238127Y-89150425D01*
X145311025Y-89151571D01*
X145311028Y-89151571D01*
X145318495Y-89151688D01*
X145361913Y-89141744D01*
X145369371Y-89140036D01*
X145439113Y-89144257D01*
X145495502Y-89185514D01*
X145520634Y-89250707D01*
X145506530Y-89319138D01*
X145498504Y-89332207D01*
X145422501Y-89440348D01*
X145365309Y-89587039D01*
X145344758Y-89743138D01*
X145345578Y-89750566D01*
X145345578Y-89750568D01*
X145357184Y-89855696D01*
X145362035Y-89899633D01*
X145364601Y-89906645D01*
X145364602Y-89906649D01*
X145383406Y-89958032D01*
X145416143Y-90047490D01*
X145503958Y-90178172D01*
X145524004Y-90196412D01*
X145614878Y-90279102D01*
X145614882Y-90279105D01*
X145620410Y-90284135D01*
X145626980Y-90287702D01*
X145626981Y-90287703D01*
X145752208Y-90355696D01*
X145758776Y-90359262D01*
X145861031Y-90386088D01*
X145903841Y-90397319D01*
X145903843Y-90397319D01*
X145911069Y-90399215D01*
X145988127Y-90400425D01*
X146061025Y-90401571D01*
X146061028Y-90401571D01*
X146068495Y-90401688D01*
X146075776Y-90400020D01*
X146075780Y-90400020D01*
X146214681Y-90368207D01*
X146221968Y-90366538D01*
X146362625Y-90295795D01*
X146368306Y-90290943D01*
X146368309Y-90290941D01*
X146476666Y-90198395D01*
X146476667Y-90198394D01*
X146482348Y-90193542D01*
X146493393Y-90178172D01*
X146536686Y-90117923D01*
X146574224Y-90065683D01*
X146632950Y-89919598D01*
X146635516Y-89901571D01*
X146654562Y-89767744D01*
X146654562Y-89767740D01*
X146655134Y-89763723D01*
X146655278Y-89750000D01*
X146648446Y-89693542D01*
X146637262Y-89601119D01*
X146637261Y-89601115D01*
X146636363Y-89593694D01*
X146623159Y-89558750D01*
X146583354Y-89453408D01*
X146583352Y-89453405D01*
X146580710Y-89446412D01*
X146572337Y-89434229D01*
X146495768Y-89322821D01*
X146495765Y-89322818D01*
X146491531Y-89316657D01*
X146412191Y-89245967D01*
X146379559Y-89216893D01*
X146379558Y-89216892D01*
X146373976Y-89211919D01*
X146234831Y-89138245D01*
X146082128Y-89099889D01*
X146000329Y-89099461D01*
X145932158Y-89099104D01*
X145932157Y-89099104D01*
X145924684Y-89099065D01*
X145913667Y-89101710D01*
X145881408Y-89109454D01*
X145811626Y-89105963D01*
X145754809Y-89065299D01*
X145728996Y-89000372D01*
X145742382Y-88931797D01*
X145751761Y-88916526D01*
X145824224Y-88815683D01*
X145882950Y-88669598D01*
X145884793Y-88656649D01*
X145904562Y-88517744D01*
X145904562Y-88517740D01*
X145905134Y-88513723D01*
X145905278Y-88500000D01*
X145896387Y-88426530D01*
X145887262Y-88351119D01*
X145887261Y-88351115D01*
X145886363Y-88343694D01*
X145856145Y-88263723D01*
X145833354Y-88203408D01*
X145833352Y-88203405D01*
X145830710Y-88196412D01*
X145813908Y-88171965D01*
X145745768Y-88072821D01*
X145745765Y-88072818D01*
X145741531Y-88066657D01*
X145623976Y-87961919D01*
X145484831Y-87888245D01*
X145332128Y-87849889D01*
X145250329Y-87849461D01*
X145182158Y-87849104D01*
X145182157Y-87849104D01*
X145174684Y-87849065D01*
X145167421Y-87850809D01*
X145167418Y-87850809D01*
X145098136Y-87867443D01*
X145021588Y-87885820D01*
X144881679Y-87958032D01*
X144763034Y-88061533D01*
X144672501Y-88190348D01*
X144615309Y-88337039D01*
X144594758Y-88493138D01*
X107353387Y-88493138D01*
X107382950Y-88419598D01*
X107385516Y-88401571D01*
X107404562Y-88267744D01*
X107404562Y-88267740D01*
X107405134Y-88263723D01*
X107405278Y-88250000D01*
X107399033Y-88198395D01*
X107387262Y-88101119D01*
X107387261Y-88101115D01*
X107386363Y-88093694D01*
X107372354Y-88056620D01*
X107333354Y-87953408D01*
X107333352Y-87953405D01*
X107330710Y-87946412D01*
X107326473Y-87940247D01*
X107245768Y-87822821D01*
X107245765Y-87822818D01*
X107241531Y-87816657D01*
X107162191Y-87745967D01*
X107129559Y-87716893D01*
X107129558Y-87716892D01*
X107123976Y-87711919D01*
X106984831Y-87638245D01*
X106855247Y-87605696D01*
X106839378Y-87601710D01*
X106832128Y-87599889D01*
X106750329Y-87599461D01*
X106682158Y-87599104D01*
X106682157Y-87599104D01*
X106674684Y-87599065D01*
X106667416Y-87600810D01*
X106667415Y-87600810D01*
X106652949Y-87604283D01*
X106583167Y-87600794D01*
X106526349Y-87560131D01*
X106500534Y-87495205D01*
X106500000Y-87483710D01*
X106500000Y-87243138D01*
X111594758Y-87243138D01*
X111595578Y-87250566D01*
X111595578Y-87250568D01*
X111602309Y-87311533D01*
X111612035Y-87399633D01*
X111614601Y-87406645D01*
X111614602Y-87406649D01*
X111629484Y-87447314D01*
X111666143Y-87547490D01*
X111753958Y-87678172D01*
X111791046Y-87711919D01*
X111864878Y-87779102D01*
X111864882Y-87779105D01*
X111870410Y-87784135D01*
X111876980Y-87787702D01*
X111876981Y-87787703D01*
X111994867Y-87851710D01*
X112008776Y-87859262D01*
X112103362Y-87884076D01*
X112153841Y-87897319D01*
X112153843Y-87897319D01*
X112161069Y-87899215D01*
X112238127Y-87900425D01*
X112311025Y-87901571D01*
X112311028Y-87901571D01*
X112318495Y-87901688D01*
X112325776Y-87900020D01*
X112325780Y-87900020D01*
X112464681Y-87868207D01*
X112471968Y-87866538D01*
X112612625Y-87795795D01*
X112618306Y-87790943D01*
X112618309Y-87790941D01*
X112674279Y-87743138D01*
X125344758Y-87743138D01*
X125345578Y-87750566D01*
X125345578Y-87750568D01*
X125347474Y-87767744D01*
X125362035Y-87899633D01*
X125364601Y-87906645D01*
X125364602Y-87906649D01*
X125383406Y-87958032D01*
X125416143Y-88047490D01*
X125503958Y-88178172D01*
X125524004Y-88196412D01*
X125614878Y-88279102D01*
X125614882Y-88279105D01*
X125620410Y-88284135D01*
X125626980Y-88287702D01*
X125626981Y-88287703D01*
X125752208Y-88355696D01*
X125758776Y-88359262D01*
X125861031Y-88386088D01*
X125903841Y-88397319D01*
X125903843Y-88397319D01*
X125911069Y-88399215D01*
X125988127Y-88400425D01*
X126061025Y-88401571D01*
X126061028Y-88401571D01*
X126068495Y-88401688D01*
X126075776Y-88400020D01*
X126075780Y-88400020D01*
X126214681Y-88368207D01*
X126221968Y-88366538D01*
X126362625Y-88295795D01*
X126368306Y-88290943D01*
X126368309Y-88290941D01*
X126476666Y-88198395D01*
X126476667Y-88198394D01*
X126482348Y-88193542D01*
X126493393Y-88178172D01*
X126513798Y-88149775D01*
X126574224Y-88065683D01*
X126632950Y-87919598D01*
X126635516Y-87901571D01*
X126654562Y-87767744D01*
X126654562Y-87767740D01*
X126655134Y-87763723D01*
X126655278Y-87750000D01*
X126650670Y-87711919D01*
X126637262Y-87601119D01*
X126637261Y-87601115D01*
X126636363Y-87593694D01*
X126623159Y-87558750D01*
X126583354Y-87453408D01*
X126583352Y-87453405D01*
X126580710Y-87446412D01*
X126568174Y-87428172D01*
X126495768Y-87322821D01*
X126495765Y-87322818D01*
X126491531Y-87316657D01*
X126412191Y-87245967D01*
X126379559Y-87216893D01*
X126379558Y-87216892D01*
X126373976Y-87211919D01*
X126234831Y-87138245D01*
X126082128Y-87099889D01*
X126000329Y-87099461D01*
X125932158Y-87099104D01*
X125932157Y-87099104D01*
X125924684Y-87099065D01*
X125917421Y-87100809D01*
X125917418Y-87100809D01*
X125848136Y-87117443D01*
X125771588Y-87135820D01*
X125631679Y-87208032D01*
X125513034Y-87311533D01*
X125422501Y-87440348D01*
X125365309Y-87587039D01*
X125344758Y-87743138D01*
X112674279Y-87743138D01*
X112726666Y-87698395D01*
X112726667Y-87698394D01*
X112732348Y-87693542D01*
X112743393Y-87678172D01*
X112773825Y-87635820D01*
X112824224Y-87565683D01*
X112882950Y-87419598D01*
X112885516Y-87401571D01*
X112904562Y-87267744D01*
X112904562Y-87267740D01*
X112905134Y-87263723D01*
X112905278Y-87250000D01*
X112900670Y-87211919D01*
X112887262Y-87101119D01*
X112887261Y-87101115D01*
X112886363Y-87093694D01*
X112873159Y-87058750D01*
X112848367Y-86993138D01*
X127594758Y-86993138D01*
X127595578Y-87000566D01*
X127595578Y-87000568D01*
X127602767Y-87065683D01*
X127612035Y-87149633D01*
X127614601Y-87156645D01*
X127614602Y-87156649D01*
X127633406Y-87208032D01*
X127666143Y-87297490D01*
X127670314Y-87303697D01*
X127734781Y-87399633D01*
X127753958Y-87428172D01*
X127774004Y-87446412D01*
X127864878Y-87529102D01*
X127864882Y-87529105D01*
X127870410Y-87534135D01*
X127876980Y-87537702D01*
X127876981Y-87537703D01*
X127994867Y-87601710D01*
X128008776Y-87609262D01*
X128110010Y-87635820D01*
X128153841Y-87647319D01*
X128153843Y-87647319D01*
X128161069Y-87649215D01*
X128238127Y-87650425D01*
X128311025Y-87651571D01*
X128311028Y-87651571D01*
X128318495Y-87651688D01*
X128325776Y-87650020D01*
X128325780Y-87650020D01*
X128464681Y-87618207D01*
X128471968Y-87616538D01*
X128612625Y-87545795D01*
X128618306Y-87540943D01*
X128618309Y-87540941D01*
X128726666Y-87448395D01*
X128726667Y-87448394D01*
X128732348Y-87443542D01*
X128743393Y-87428172D01*
X128769237Y-87392205D01*
X128824224Y-87315683D01*
X128882950Y-87169598D01*
X128884793Y-87156649D01*
X128904562Y-87017744D01*
X128904562Y-87017740D01*
X128905134Y-87013723D01*
X128905278Y-87000000D01*
X128904448Y-86993138D01*
X130344758Y-86993138D01*
X130345578Y-87000566D01*
X130345578Y-87000568D01*
X130352767Y-87065683D01*
X130362035Y-87149633D01*
X130364601Y-87156645D01*
X130364602Y-87156649D01*
X130383406Y-87208032D01*
X130416143Y-87297490D01*
X130420314Y-87303697D01*
X130484781Y-87399633D01*
X130503958Y-87428172D01*
X130524004Y-87446412D01*
X130614878Y-87529102D01*
X130614882Y-87529105D01*
X130620410Y-87534135D01*
X130626980Y-87537702D01*
X130626981Y-87537703D01*
X130744867Y-87601710D01*
X130758776Y-87609262D01*
X130860010Y-87635820D01*
X130903841Y-87647319D01*
X130903843Y-87647319D01*
X130911069Y-87649215D01*
X130988127Y-87650425D01*
X131061025Y-87651571D01*
X131061028Y-87651571D01*
X131068495Y-87651688D01*
X131075776Y-87650020D01*
X131075780Y-87650020D01*
X131214681Y-87618207D01*
X131221968Y-87616538D01*
X131362625Y-87545795D01*
X131368306Y-87540943D01*
X131368309Y-87540941D01*
X131476666Y-87448395D01*
X131476667Y-87448394D01*
X131482348Y-87443542D01*
X131493393Y-87428172D01*
X131519237Y-87392205D01*
X131574224Y-87315683D01*
X131632950Y-87169598D01*
X131634793Y-87156649D01*
X131654562Y-87017744D01*
X131654562Y-87017740D01*
X131655134Y-87013723D01*
X131655278Y-87000000D01*
X131649640Y-86953408D01*
X131637262Y-86851119D01*
X131637261Y-86851115D01*
X131636363Y-86843694D01*
X131606145Y-86763723D01*
X131583354Y-86703408D01*
X131583352Y-86703405D01*
X131580710Y-86696412D01*
X131563908Y-86671965D01*
X131495768Y-86572821D01*
X131495765Y-86572818D01*
X131491531Y-86566657D01*
X131373976Y-86461919D01*
X131234831Y-86388245D01*
X131082128Y-86349889D01*
X131000329Y-86349461D01*
X130932158Y-86349104D01*
X130932157Y-86349104D01*
X130924684Y-86349065D01*
X130917421Y-86350809D01*
X130917418Y-86350809D01*
X130848136Y-86367442D01*
X130771588Y-86385820D01*
X130631679Y-86458032D01*
X130513034Y-86561533D01*
X130422501Y-86690348D01*
X130365309Y-86837039D01*
X130344758Y-86993138D01*
X128904448Y-86993138D01*
X128899640Y-86953408D01*
X128887262Y-86851119D01*
X128887261Y-86851115D01*
X128886363Y-86843694D01*
X128856145Y-86763723D01*
X128833354Y-86703408D01*
X128833352Y-86703405D01*
X128830710Y-86696412D01*
X128813908Y-86671965D01*
X128745768Y-86572821D01*
X128745765Y-86572818D01*
X128741531Y-86566657D01*
X128623976Y-86461919D01*
X128484831Y-86388245D01*
X128332128Y-86349889D01*
X128250329Y-86349461D01*
X128182158Y-86349104D01*
X128182157Y-86349104D01*
X128174684Y-86349065D01*
X128167421Y-86350809D01*
X128167418Y-86350809D01*
X128098136Y-86367442D01*
X128021588Y-86385820D01*
X127881679Y-86458032D01*
X127763034Y-86561533D01*
X127672501Y-86690348D01*
X127615309Y-86837039D01*
X127594758Y-86993138D01*
X112848367Y-86993138D01*
X112833354Y-86953408D01*
X112833352Y-86953405D01*
X112830710Y-86946412D01*
X112822337Y-86934229D01*
X112745768Y-86822821D01*
X112745765Y-86822818D01*
X112741531Y-86816657D01*
X112662191Y-86745967D01*
X112629559Y-86716893D01*
X112629558Y-86716892D01*
X112623976Y-86711919D01*
X112484831Y-86638245D01*
X112332128Y-86599889D01*
X112250329Y-86599461D01*
X112182158Y-86599104D01*
X112182157Y-86599104D01*
X112174684Y-86599065D01*
X112167421Y-86600809D01*
X112167418Y-86600809D01*
X112098136Y-86617443D01*
X112021588Y-86635820D01*
X111881679Y-86708032D01*
X111763034Y-86811533D01*
X111672501Y-86940348D01*
X111615309Y-87087039D01*
X111594758Y-87243138D01*
X106500000Y-87243138D01*
X106500000Y-86243138D01*
X132844758Y-86243138D01*
X132845578Y-86250566D01*
X132845578Y-86250568D01*
X132847474Y-86267744D01*
X132862035Y-86399633D01*
X132864601Y-86406645D01*
X132864602Y-86406649D01*
X132883406Y-86458032D01*
X132916143Y-86547490D01*
X133003958Y-86678172D01*
X133041046Y-86711919D01*
X133114878Y-86779102D01*
X133114882Y-86779105D01*
X133120410Y-86784135D01*
X133126980Y-86787702D01*
X133126981Y-86787703D01*
X133252208Y-86855696D01*
X133258776Y-86859262D01*
X133361031Y-86886088D01*
X133403841Y-86897319D01*
X133403843Y-86897319D01*
X133411069Y-86899215D01*
X133488127Y-86900425D01*
X133561025Y-86901571D01*
X133561028Y-86901571D01*
X133568495Y-86901688D01*
X133575776Y-86900020D01*
X133575780Y-86900020D01*
X133714681Y-86868207D01*
X133721968Y-86866538D01*
X133862625Y-86795795D01*
X133868306Y-86790943D01*
X133868309Y-86790941D01*
X133924279Y-86743138D01*
X136594758Y-86743138D01*
X136595578Y-86750566D01*
X136595578Y-86750568D01*
X136597474Y-86767744D01*
X136612035Y-86899633D01*
X136614601Y-86906645D01*
X136614602Y-86906649D01*
X136629484Y-86947314D01*
X136666143Y-87047490D01*
X136670314Y-87053697D01*
X136734781Y-87149633D01*
X136753958Y-87178172D01*
X136791046Y-87211919D01*
X136864878Y-87279102D01*
X136864882Y-87279105D01*
X136870410Y-87284135D01*
X136876980Y-87287702D01*
X136876981Y-87287703D01*
X136939695Y-87321754D01*
X137008776Y-87359262D01*
X137111031Y-87386088D01*
X137153841Y-87397319D01*
X137153843Y-87397319D01*
X137161069Y-87399215D01*
X137238127Y-87400425D01*
X137311025Y-87401571D01*
X137311028Y-87401571D01*
X137318495Y-87401688D01*
X137325776Y-87400020D01*
X137325780Y-87400020D01*
X137464681Y-87368207D01*
X137471968Y-87366538D01*
X137612625Y-87295795D01*
X137618306Y-87290943D01*
X137618309Y-87290941D01*
X137726666Y-87198395D01*
X137726667Y-87198394D01*
X137732348Y-87193542D01*
X137743393Y-87178172D01*
X137798336Y-87101710D01*
X137824224Y-87065683D01*
X137882950Y-86919598D01*
X137885516Y-86901571D01*
X137904562Y-86767744D01*
X137904562Y-86767740D01*
X137905134Y-86763723D01*
X137905278Y-86750000D01*
X137900670Y-86711919D01*
X137887262Y-86601119D01*
X137887261Y-86601115D01*
X137886363Y-86593694D01*
X137872354Y-86556620D01*
X137833354Y-86453408D01*
X137833352Y-86453405D01*
X137830710Y-86446412D01*
X137822337Y-86434229D01*
X137745768Y-86322821D01*
X137745765Y-86322818D01*
X137741531Y-86316657D01*
X137662191Y-86245967D01*
X137629559Y-86216893D01*
X137629558Y-86216892D01*
X137623976Y-86211919D01*
X137484831Y-86138245D01*
X137413826Y-86120410D01*
X137353602Y-86084987D01*
X137322089Y-86022627D01*
X137329293Y-85953130D01*
X137372926Y-85898560D01*
X137416351Y-85879276D01*
X137464681Y-85868207D01*
X137471968Y-85866538D01*
X137612625Y-85795795D01*
X137618306Y-85790943D01*
X137618309Y-85790941D01*
X137726666Y-85698395D01*
X137726667Y-85698394D01*
X137732348Y-85693542D01*
X137743393Y-85678172D01*
X137799644Y-85599889D01*
X137824224Y-85565683D01*
X137882950Y-85419598D01*
X137884793Y-85406649D01*
X137904562Y-85267744D01*
X137904562Y-85267740D01*
X137905134Y-85263723D01*
X137905278Y-85250000D01*
X137893082Y-85149215D01*
X137887262Y-85101119D01*
X137887261Y-85101115D01*
X137886363Y-85093694D01*
X137830710Y-84946412D01*
X137813908Y-84921965D01*
X137745768Y-84822821D01*
X137745765Y-84822818D01*
X137741531Y-84816657D01*
X137623976Y-84711919D01*
X137484831Y-84638245D01*
X137332128Y-84599889D01*
X137250329Y-84599461D01*
X137182158Y-84599104D01*
X137182157Y-84599104D01*
X137174684Y-84599065D01*
X137167421Y-84600809D01*
X137167418Y-84600809D01*
X137098136Y-84617443D01*
X137021588Y-84635820D01*
X136881679Y-84708032D01*
X136763034Y-84811533D01*
X136672501Y-84940348D01*
X136615309Y-85087039D01*
X136594758Y-85243138D01*
X136595578Y-85250566D01*
X136595578Y-85250568D01*
X136597474Y-85267744D01*
X136612035Y-85399633D01*
X136666143Y-85547490D01*
X136753958Y-85678172D01*
X136791046Y-85711919D01*
X136864878Y-85779102D01*
X136864882Y-85779105D01*
X136870410Y-85784135D01*
X136876980Y-85787702D01*
X136876981Y-85787703D01*
X136941660Y-85822821D01*
X137008776Y-85859262D01*
X137073960Y-85876362D01*
X137087840Y-85880004D01*
X137147690Y-85916056D01*
X137178548Y-85978742D01*
X137170616Y-86048160D01*
X137126414Y-86102270D01*
X137085321Y-86120519D01*
X137021588Y-86135820D01*
X136881679Y-86208032D01*
X136763034Y-86311533D01*
X136672501Y-86440348D01*
X136615309Y-86587039D01*
X136594758Y-86743138D01*
X133924279Y-86743138D01*
X133976666Y-86698395D01*
X133976667Y-86698394D01*
X133982348Y-86693542D01*
X133993393Y-86678172D01*
X134048336Y-86601710D01*
X134074224Y-86565683D01*
X134132950Y-86419598D01*
X134134793Y-86406649D01*
X134154562Y-86267744D01*
X134154562Y-86267740D01*
X134155134Y-86263723D01*
X134155278Y-86250000D01*
X134150670Y-86211919D01*
X134137262Y-86101119D01*
X134137261Y-86101115D01*
X134136363Y-86093694D01*
X134109509Y-86022627D01*
X134083354Y-85953408D01*
X134083352Y-85953405D01*
X134080710Y-85946412D01*
X134035069Y-85880004D01*
X133995768Y-85822821D01*
X133995765Y-85822818D01*
X133991531Y-85816657D01*
X133873976Y-85711919D01*
X133734831Y-85638245D01*
X133582128Y-85599889D01*
X133500329Y-85599461D01*
X133432158Y-85599104D01*
X133432157Y-85599104D01*
X133424684Y-85599065D01*
X133417421Y-85600809D01*
X133417418Y-85600809D01*
X133348136Y-85617442D01*
X133271588Y-85635820D01*
X133131679Y-85708032D01*
X133013034Y-85811533D01*
X132922501Y-85940348D01*
X132919785Y-85947313D01*
X132919785Y-85947314D01*
X132917409Y-85953408D01*
X132865309Y-86087039D01*
X132844758Y-86243138D01*
X106500000Y-86243138D01*
X106500000Y-84493138D01*
X131844758Y-84493138D01*
X131845578Y-84500566D01*
X131845578Y-84500568D01*
X131849284Y-84534135D01*
X131862035Y-84649633D01*
X131864601Y-84656645D01*
X131864602Y-84656649D01*
X131883406Y-84708032D01*
X131916143Y-84797490D01*
X132003958Y-84928172D01*
X132024004Y-84946412D01*
X132114878Y-85029102D01*
X132114882Y-85029105D01*
X132120410Y-85034135D01*
X132126980Y-85037702D01*
X132126981Y-85037703D01*
X132252208Y-85105696D01*
X132258776Y-85109262D01*
X132361031Y-85136088D01*
X132403841Y-85147319D01*
X132403843Y-85147319D01*
X132411069Y-85149215D01*
X132488127Y-85150425D01*
X132561025Y-85151571D01*
X132561028Y-85151571D01*
X132568495Y-85151688D01*
X132575776Y-85150020D01*
X132575780Y-85150020D01*
X132714681Y-85118207D01*
X132721968Y-85116538D01*
X132862625Y-85045795D01*
X132868306Y-85040943D01*
X132868309Y-85040941D01*
X132976666Y-84948395D01*
X132976667Y-84948394D01*
X132982348Y-84943542D01*
X132993393Y-84928172D01*
X133013798Y-84899775D01*
X133074224Y-84815683D01*
X133132950Y-84669598D01*
X133135516Y-84651571D01*
X133154562Y-84517744D01*
X133154562Y-84517740D01*
X133155134Y-84513723D01*
X133155278Y-84500000D01*
X133153551Y-84485727D01*
X133137262Y-84351119D01*
X133137261Y-84351115D01*
X133136363Y-84343694D01*
X133123159Y-84308750D01*
X133083354Y-84203408D01*
X133083352Y-84203405D01*
X133080710Y-84196412D01*
X133072337Y-84184229D01*
X132995768Y-84072821D01*
X132995765Y-84072818D01*
X132991531Y-84066657D01*
X132912191Y-83995967D01*
X132909016Y-83993138D01*
X138344758Y-83993138D01*
X138345578Y-84000566D01*
X138345578Y-84000568D01*
X138355677Y-84092044D01*
X138362035Y-84149633D01*
X138364601Y-84156645D01*
X138364602Y-84156649D01*
X138379484Y-84197314D01*
X138416143Y-84297490D01*
X138503958Y-84428172D01*
X138558693Y-84477977D01*
X138614878Y-84529102D01*
X138614882Y-84529105D01*
X138620410Y-84534135D01*
X138626980Y-84537702D01*
X138626981Y-84537703D01*
X138752208Y-84605696D01*
X138758776Y-84609262D01*
X138853362Y-84634076D01*
X138903841Y-84647319D01*
X138903843Y-84647319D01*
X138911069Y-84649215D01*
X138988127Y-84650425D01*
X139061025Y-84651571D01*
X139061028Y-84651571D01*
X139068495Y-84651688D01*
X139075776Y-84650020D01*
X139075780Y-84650020D01*
X139214681Y-84618207D01*
X139221968Y-84616538D01*
X139362625Y-84545795D01*
X139368306Y-84540943D01*
X139368309Y-84540941D01*
X139476666Y-84448395D01*
X139476667Y-84448394D01*
X139482348Y-84443542D01*
X139493393Y-84428172D01*
X139513798Y-84399775D01*
X139574224Y-84315683D01*
X139632950Y-84169598D01*
X139633395Y-84169777D01*
X139667220Y-84114281D01*
X139730067Y-84083750D01*
X139799443Y-84092044D01*
X139853321Y-84136528D01*
X139867080Y-84163419D01*
X139916143Y-84297490D01*
X140003958Y-84428172D01*
X140058693Y-84477977D01*
X140114878Y-84529102D01*
X140114882Y-84529105D01*
X140120410Y-84534135D01*
X140241442Y-84599850D01*
X140247525Y-84603153D01*
X140297048Y-84652440D01*
X140312062Y-84720678D01*
X140287801Y-84786200D01*
X140269870Y-84805569D01*
X140268668Y-84806617D01*
X140268663Y-84806622D01*
X140263034Y-84811533D01*
X140172501Y-84940348D01*
X140115309Y-85087039D01*
X140094758Y-85243138D01*
X140095578Y-85250566D01*
X140095578Y-85250568D01*
X140097474Y-85267744D01*
X140112035Y-85399633D01*
X140166143Y-85547490D01*
X140253958Y-85678172D01*
X140291046Y-85711919D01*
X140364878Y-85779102D01*
X140364882Y-85779105D01*
X140370410Y-85784135D01*
X140376980Y-85787702D01*
X140376981Y-85787703D01*
X140441660Y-85822821D01*
X140508776Y-85859262D01*
X140573960Y-85876362D01*
X140587840Y-85880004D01*
X140647690Y-85916056D01*
X140678548Y-85978742D01*
X140670616Y-86048160D01*
X140626414Y-86102270D01*
X140585321Y-86120519D01*
X140521588Y-86135820D01*
X140381679Y-86208032D01*
X140263034Y-86311533D01*
X140172501Y-86440348D01*
X140115309Y-86587039D01*
X140094758Y-86743138D01*
X140095578Y-86750566D01*
X140095578Y-86750568D01*
X140097474Y-86767744D01*
X140112035Y-86899633D01*
X140114601Y-86906645D01*
X140114602Y-86906649D01*
X140129484Y-86947314D01*
X140166143Y-87047490D01*
X140170314Y-87053697D01*
X140234781Y-87149633D01*
X140253958Y-87178172D01*
X140291046Y-87211919D01*
X140364878Y-87279102D01*
X140364882Y-87279105D01*
X140370410Y-87284135D01*
X140376980Y-87287702D01*
X140376981Y-87287703D01*
X140439695Y-87321754D01*
X140508776Y-87359262D01*
X140611031Y-87386088D01*
X140653841Y-87397319D01*
X140653843Y-87397319D01*
X140661069Y-87399215D01*
X140738127Y-87400425D01*
X140811025Y-87401571D01*
X140811028Y-87401571D01*
X140818495Y-87401688D01*
X140825776Y-87400020D01*
X140825780Y-87400020D01*
X140964681Y-87368207D01*
X140971968Y-87366538D01*
X141112625Y-87295795D01*
X141118306Y-87290943D01*
X141118309Y-87290941D01*
X141226666Y-87198395D01*
X141226667Y-87198394D01*
X141232348Y-87193542D01*
X141243393Y-87178172D01*
X141298336Y-87101710D01*
X141324224Y-87065683D01*
X141382950Y-86919598D01*
X141385516Y-86901571D01*
X141404562Y-86767744D01*
X141404562Y-86767740D01*
X141405134Y-86763723D01*
X141405278Y-86750000D01*
X141400670Y-86711919D01*
X141387262Y-86601119D01*
X141387261Y-86601115D01*
X141386363Y-86593694D01*
X141372354Y-86556620D01*
X141333354Y-86453408D01*
X141333352Y-86453405D01*
X141330710Y-86446412D01*
X141322337Y-86434229D01*
X141245768Y-86322821D01*
X141245765Y-86322818D01*
X141241531Y-86316657D01*
X141162191Y-86245967D01*
X141129559Y-86216893D01*
X141129558Y-86216892D01*
X141123976Y-86211919D01*
X140984831Y-86138245D01*
X140913826Y-86120410D01*
X140853602Y-86084987D01*
X140822089Y-86022627D01*
X140829293Y-85953130D01*
X140872926Y-85898560D01*
X140916351Y-85879276D01*
X140964681Y-85868207D01*
X140971968Y-85866538D01*
X141112625Y-85795795D01*
X141118306Y-85790943D01*
X141118309Y-85790941D01*
X141226666Y-85698395D01*
X141226667Y-85698394D01*
X141232348Y-85693542D01*
X141243393Y-85678172D01*
X141299644Y-85599889D01*
X141324224Y-85565683D01*
X141382950Y-85419598D01*
X141384793Y-85406649D01*
X141404562Y-85267744D01*
X141404562Y-85267740D01*
X141405134Y-85263723D01*
X141405278Y-85250000D01*
X141393082Y-85149215D01*
X141387262Y-85101119D01*
X141387261Y-85101115D01*
X141386363Y-85093694D01*
X141330710Y-84946412D01*
X141313908Y-84921965D01*
X141245768Y-84822821D01*
X141245765Y-84822818D01*
X141241531Y-84816657D01*
X141123976Y-84711919D01*
X141117369Y-84708421D01*
X141117365Y-84708418D01*
X141003824Y-84648301D01*
X140953787Y-84599534D01*
X140938059Y-84531458D01*
X140961633Y-84465685D01*
X140972111Y-84454368D01*
X140971603Y-84453901D01*
X140976666Y-84448395D01*
X140982348Y-84443542D01*
X140993393Y-84428172D01*
X141013798Y-84399775D01*
X141074224Y-84315683D01*
X141132950Y-84169598D01*
X141134793Y-84156649D01*
X141154562Y-84017744D01*
X141154562Y-84017740D01*
X141155134Y-84013723D01*
X141155278Y-84000000D01*
X141150670Y-83961919D01*
X141137262Y-83851119D01*
X141137261Y-83851115D01*
X141136363Y-83843694D01*
X141080710Y-83696412D01*
X141072337Y-83684229D01*
X140995768Y-83572821D01*
X140995765Y-83572818D01*
X140991531Y-83566657D01*
X140873976Y-83461919D01*
X140734831Y-83388245D01*
X140582128Y-83349889D01*
X140500329Y-83349461D01*
X140432158Y-83349104D01*
X140432157Y-83349104D01*
X140424684Y-83349065D01*
X140417421Y-83350809D01*
X140417418Y-83350809D01*
X140348136Y-83367443D01*
X140271588Y-83385820D01*
X140131679Y-83458032D01*
X140013034Y-83561533D01*
X139922501Y-83690348D01*
X139865309Y-83837039D01*
X139862323Y-83835875D01*
X139834012Y-83883467D01*
X139771497Y-83914671D01*
X139702036Y-83907123D01*
X139647683Y-83863220D01*
X139633625Y-83836447D01*
X139583354Y-83703409D01*
X139580710Y-83696412D01*
X139572337Y-83684229D01*
X139495768Y-83572821D01*
X139495765Y-83572818D01*
X139491531Y-83566657D01*
X139373976Y-83461919D01*
X139234831Y-83388245D01*
X139082128Y-83349889D01*
X139000329Y-83349461D01*
X138932158Y-83349104D01*
X138932157Y-83349104D01*
X138924684Y-83349065D01*
X138917421Y-83350809D01*
X138917418Y-83350809D01*
X138848136Y-83367443D01*
X138771588Y-83385820D01*
X138631679Y-83458032D01*
X138513034Y-83561533D01*
X138422501Y-83690348D01*
X138365309Y-83837039D01*
X138344758Y-83993138D01*
X132909016Y-83993138D01*
X132879559Y-83966893D01*
X132879558Y-83966892D01*
X132873976Y-83961919D01*
X132734831Y-83888245D01*
X132582128Y-83849889D01*
X132500329Y-83849461D01*
X132432158Y-83849104D01*
X132432157Y-83849104D01*
X132424684Y-83849065D01*
X132417421Y-83850809D01*
X132417418Y-83850809D01*
X132365724Y-83863220D01*
X132271588Y-83885820D01*
X132131679Y-83958032D01*
X132013034Y-84061533D01*
X131922501Y-84190348D01*
X131865309Y-84337039D01*
X131844758Y-84493138D01*
X106500000Y-84493138D01*
X106500000Y-82529231D01*
X106519685Y-82462192D01*
X106572489Y-82416437D01*
X106641647Y-82406493D01*
X106682845Y-82420150D01*
X106685176Y-82421604D01*
X106774140Y-82463183D01*
X106982237Y-82560442D01*
X106982244Y-82560445D01*
X106985623Y-82562024D01*
X107104882Y-82601119D01*
X107245815Y-82647319D01*
X107300763Y-82665332D01*
X107304430Y-82666061D01*
X107304436Y-82666063D01*
X107520845Y-82709109D01*
X107626032Y-82730032D01*
X107665121Y-82733005D01*
X107952992Y-82754904D01*
X107952999Y-82754904D01*
X107956718Y-82755187D01*
X107960448Y-82755021D01*
X107960455Y-82755021D01*
X108227280Y-82743138D01*
X133344758Y-82743138D01*
X133345578Y-82750566D01*
X133345578Y-82750568D01*
X133347474Y-82767744D01*
X133362035Y-82899633D01*
X133416143Y-83047490D01*
X133503958Y-83178172D01*
X133526183Y-83198395D01*
X133614878Y-83279102D01*
X133614882Y-83279105D01*
X133620410Y-83284135D01*
X133626980Y-83287702D01*
X133626981Y-83287703D01*
X133744867Y-83351710D01*
X133758776Y-83359262D01*
X133853362Y-83384076D01*
X133903841Y-83397319D01*
X133903843Y-83397319D01*
X133911069Y-83399215D01*
X133988127Y-83400425D01*
X134061025Y-83401571D01*
X134061028Y-83401571D01*
X134068495Y-83401688D01*
X134075776Y-83400020D01*
X134075780Y-83400020D01*
X134214681Y-83368207D01*
X134221968Y-83366538D01*
X134362625Y-83295795D01*
X134368306Y-83290943D01*
X134368309Y-83290941D01*
X134476666Y-83198395D01*
X134476667Y-83198394D01*
X134482348Y-83193542D01*
X134493393Y-83178172D01*
X134513798Y-83149775D01*
X134574224Y-83065683D01*
X134632950Y-82919598D01*
X134634793Y-82906649D01*
X134654562Y-82767744D01*
X134654562Y-82767740D01*
X134655134Y-82763723D01*
X134655278Y-82750000D01*
X134643082Y-82649215D01*
X134637262Y-82601119D01*
X134637261Y-82601115D01*
X134636363Y-82593694D01*
X134611956Y-82529102D01*
X134583354Y-82453408D01*
X134583352Y-82453405D01*
X134580710Y-82446412D01*
X134568174Y-82428172D01*
X134495768Y-82322821D01*
X134495765Y-82322818D01*
X134491531Y-82316657D01*
X134373976Y-82211919D01*
X134234831Y-82138245D01*
X134082128Y-82099889D01*
X134000329Y-82099461D01*
X133932158Y-82099104D01*
X133932157Y-82099104D01*
X133924684Y-82099065D01*
X133917421Y-82100809D01*
X133917418Y-82100809D01*
X133848136Y-82117443D01*
X133771588Y-82135820D01*
X133631679Y-82208032D01*
X133513034Y-82311533D01*
X133422501Y-82440348D01*
X133365309Y-82587039D01*
X133344758Y-82743138D01*
X108227280Y-82743138D01*
X108284291Y-82740599D01*
X108284298Y-82740598D01*
X108288031Y-82740432D01*
X108615172Y-82685981D01*
X108683066Y-82666063D01*
X108929820Y-82593673D01*
X108929827Y-82593671D01*
X108933401Y-82592622D01*
X109001911Y-82563188D01*
X109234681Y-82463183D01*
X109234686Y-82463181D01*
X109238111Y-82461709D01*
X109275061Y-82440247D01*
X109333172Y-82406493D01*
X109524885Y-82295137D01*
X109527867Y-82292886D01*
X109786591Y-82097570D01*
X109786597Y-82097565D01*
X109789572Y-82095319D01*
X109895568Y-81993138D01*
X122844758Y-81993138D01*
X122845578Y-82000566D01*
X122845578Y-82000568D01*
X122847474Y-82017744D01*
X122862035Y-82149633D01*
X122864601Y-82156645D01*
X122864602Y-82156649D01*
X122883406Y-82208032D01*
X122916143Y-82297490D01*
X123003958Y-82428172D01*
X123024004Y-82446412D01*
X123114878Y-82529102D01*
X123114882Y-82529105D01*
X123120410Y-82534135D01*
X123126980Y-82537702D01*
X123126981Y-82537703D01*
X123252208Y-82605696D01*
X123258776Y-82609262D01*
X123361031Y-82636088D01*
X123403841Y-82647319D01*
X123403843Y-82647319D01*
X123411069Y-82649215D01*
X123488127Y-82650425D01*
X123561025Y-82651571D01*
X123561028Y-82651571D01*
X123568495Y-82651688D01*
X123575776Y-82650020D01*
X123575780Y-82650020D01*
X123714681Y-82618207D01*
X123721968Y-82616538D01*
X123862625Y-82545795D01*
X123868306Y-82540943D01*
X123868309Y-82540941D01*
X123976666Y-82448395D01*
X123976667Y-82448394D01*
X123982348Y-82443542D01*
X123993393Y-82428172D01*
X124013798Y-82399775D01*
X124074224Y-82315683D01*
X124132950Y-82169598D01*
X124134793Y-82156649D01*
X124154562Y-82017744D01*
X124154562Y-82017740D01*
X124155134Y-82013723D01*
X124155278Y-82000000D01*
X124139274Y-81867746D01*
X124137262Y-81851119D01*
X124137261Y-81851115D01*
X124136363Y-81843694D01*
X124080710Y-81696412D01*
X124072337Y-81684229D01*
X123995768Y-81572821D01*
X123995765Y-81572818D01*
X123991531Y-81566657D01*
X123879353Y-81466709D01*
X123842394Y-81407416D01*
X123843358Y-81337553D01*
X123881310Y-81279837D01*
X123976666Y-81198395D01*
X123976667Y-81198394D01*
X123982348Y-81193542D01*
X123993393Y-81178172D01*
X124013798Y-81149775D01*
X124074224Y-81065683D01*
X124132950Y-80919598D01*
X124134793Y-80906649D01*
X124154562Y-80767744D01*
X124154562Y-80767740D01*
X124155134Y-80763723D01*
X124155278Y-80750000D01*
X124136363Y-80593694D01*
X124080710Y-80446412D01*
X124040741Y-80388257D01*
X123995768Y-80322821D01*
X123995765Y-80322818D01*
X123991531Y-80316657D01*
X123873976Y-80211919D01*
X123734831Y-80138245D01*
X123582128Y-80099889D01*
X123500329Y-80099461D01*
X123432158Y-80099104D01*
X123432157Y-80099104D01*
X123424684Y-80099065D01*
X123417421Y-80100809D01*
X123417418Y-80100809D01*
X123348136Y-80117442D01*
X123271588Y-80135820D01*
X123131679Y-80208032D01*
X123013034Y-80311533D01*
X122922501Y-80440348D01*
X122865309Y-80587039D01*
X122844758Y-80743138D01*
X122845578Y-80750566D01*
X122845578Y-80750568D01*
X122847474Y-80767744D01*
X122862035Y-80899633D01*
X122864601Y-80906645D01*
X122864602Y-80906649D01*
X122894206Y-80987544D01*
X122916143Y-81047490D01*
X123003958Y-81178172D01*
X123115687Y-81279837D01*
X123120410Y-81284135D01*
X123118175Y-81286591D01*
X123152202Y-81329785D01*
X123158902Y-81399333D01*
X123126937Y-81461462D01*
X123118637Y-81469409D01*
X123018669Y-81556616D01*
X123018664Y-81556622D01*
X123013034Y-81561533D01*
X122922501Y-81690348D01*
X122865309Y-81837039D01*
X122844758Y-81993138D01*
X109895568Y-81993138D01*
X110028335Y-81865150D01*
X110237718Y-81607964D01*
X110414687Y-81327485D01*
X110416282Y-81324118D01*
X110416286Y-81324111D01*
X110555079Y-81031153D01*
X110556678Y-81027778D01*
X110661635Y-80713183D01*
X110715968Y-80447314D01*
X110727289Y-80391919D01*
X110727290Y-80391913D01*
X110728037Y-80388257D01*
X110728340Y-80384533D01*
X110754746Y-80059886D01*
X110754746Y-80059879D01*
X110754923Y-80057707D01*
X110755048Y-80045795D01*
X110755504Y-80002208D01*
X110755504Y-80002205D01*
X110755527Y-80000000D01*
X110735570Y-79668960D01*
X110703459Y-79493138D01*
X133594758Y-79493138D01*
X133595578Y-79500566D01*
X133595578Y-79500568D01*
X133605677Y-79592044D01*
X133612035Y-79649633D01*
X133614601Y-79656645D01*
X133614602Y-79656649D01*
X133621877Y-79676528D01*
X133666143Y-79797490D01*
X133753958Y-79928172D01*
X133776183Y-79948395D01*
X133864878Y-80029102D01*
X133864882Y-80029105D01*
X133870410Y-80034135D01*
X133876980Y-80037702D01*
X133876981Y-80037703D01*
X133994867Y-80101710D01*
X134008776Y-80109262D01*
X134103362Y-80134076D01*
X134153841Y-80147319D01*
X134153843Y-80147319D01*
X134161069Y-80149215D01*
X134238127Y-80150425D01*
X134311025Y-80151571D01*
X134311028Y-80151571D01*
X134318495Y-80151688D01*
X134325776Y-80150020D01*
X134325780Y-80150020D01*
X134464681Y-80118207D01*
X134471968Y-80116538D01*
X134612625Y-80045795D01*
X134618306Y-80040943D01*
X134618309Y-80040941D01*
X134726666Y-79948395D01*
X134726667Y-79948394D01*
X134732348Y-79943542D01*
X134743393Y-79928172D01*
X134763798Y-79899775D01*
X134824224Y-79815683D01*
X134882950Y-79669598D01*
X134883395Y-79669777D01*
X134917220Y-79614281D01*
X134980067Y-79583750D01*
X135049443Y-79592044D01*
X135103321Y-79636528D01*
X135117080Y-79663419D01*
X135166143Y-79797490D01*
X135253958Y-79928172D01*
X135276183Y-79948395D01*
X135364878Y-80029102D01*
X135364882Y-80029105D01*
X135370410Y-80034135D01*
X135376980Y-80037702D01*
X135376981Y-80037703D01*
X135494867Y-80101710D01*
X135508776Y-80109262D01*
X135603362Y-80134076D01*
X135653841Y-80147319D01*
X135653843Y-80147319D01*
X135661069Y-80149215D01*
X135738127Y-80150425D01*
X135811025Y-80151571D01*
X135811028Y-80151571D01*
X135818495Y-80151688D01*
X135825776Y-80150020D01*
X135825780Y-80150020D01*
X135964681Y-80118207D01*
X135971968Y-80116538D01*
X136112625Y-80045795D01*
X136118306Y-80040943D01*
X136118309Y-80040941D01*
X136226666Y-79948395D01*
X136226667Y-79948394D01*
X136232348Y-79943542D01*
X136243393Y-79928172D01*
X136263798Y-79899775D01*
X136324224Y-79815683D01*
X136382950Y-79669598D01*
X136384793Y-79656649D01*
X136404562Y-79517744D01*
X136404562Y-79517740D01*
X136405134Y-79513723D01*
X136405278Y-79500000D01*
X136386363Y-79343694D01*
X136330710Y-79196412D01*
X136322337Y-79184229D01*
X136245768Y-79072821D01*
X136245765Y-79072818D01*
X136241531Y-79066657D01*
X136123976Y-78961919D01*
X135984831Y-78888245D01*
X135832128Y-78849889D01*
X135750329Y-78849461D01*
X135682158Y-78849104D01*
X135682157Y-78849104D01*
X135674684Y-78849065D01*
X135667421Y-78850809D01*
X135667418Y-78850809D01*
X135598136Y-78867443D01*
X135521588Y-78885820D01*
X135381679Y-78958032D01*
X135263034Y-79061533D01*
X135172501Y-79190348D01*
X135115309Y-79337039D01*
X135112323Y-79335875D01*
X135084012Y-79383467D01*
X135021497Y-79414671D01*
X134952036Y-79407123D01*
X134897683Y-79363220D01*
X134883625Y-79336447D01*
X134833354Y-79203409D01*
X134830710Y-79196412D01*
X134822337Y-79184229D01*
X134745768Y-79072821D01*
X134745765Y-79072818D01*
X134741531Y-79066657D01*
X134623976Y-78961919D01*
X134484831Y-78888245D01*
X134332128Y-78849889D01*
X134250329Y-78849461D01*
X134182158Y-78849104D01*
X134182157Y-78849104D01*
X134174684Y-78849065D01*
X134167421Y-78850809D01*
X134167418Y-78850809D01*
X134098136Y-78867443D01*
X134021588Y-78885820D01*
X133881679Y-78958032D01*
X133763034Y-79061533D01*
X133672501Y-79190348D01*
X133615309Y-79337039D01*
X133594758Y-79493138D01*
X110703459Y-79493138D01*
X110675987Y-79342715D01*
X110590268Y-79066657D01*
X110578750Y-79029562D01*
X110578749Y-79029559D01*
X110577641Y-79025991D01*
X110551144Y-78966893D01*
X110443489Y-78726790D01*
X110441958Y-78723375D01*
X110270902Y-78439252D01*
X110066951Y-78177737D01*
X109950006Y-78060178D01*
X109835688Y-77945259D01*
X109835681Y-77945253D01*
X109833060Y-77942618D01*
X109572617Y-77737301D01*
X109503634Y-77695276D01*
X109343582Y-77597772D01*
X109289393Y-77564760D01*
X109089439Y-77473846D01*
X108990892Y-77429039D01*
X108990886Y-77429037D01*
X108987493Y-77427494D01*
X108983932Y-77426368D01*
X108983930Y-77426367D01*
X108674853Y-77328618D01*
X108674846Y-77328616D01*
X108671288Y-77327491D01*
X108667620Y-77326801D01*
X108667615Y-77326800D01*
X108349034Y-77266892D01*
X108349033Y-77266892D01*
X108345359Y-77266201D01*
X108214037Y-77257594D01*
X108018142Y-77244754D01*
X108018135Y-77244754D01*
X108014428Y-77244511D01*
X107683288Y-77262735D01*
X107679608Y-77263387D01*
X107679601Y-77263388D01*
X107360418Y-77319955D01*
X107360413Y-77319956D01*
X107356735Y-77320608D01*
X107353165Y-77321696D01*
X107353157Y-77321698D01*
X107173840Y-77376350D01*
X107039500Y-77417294D01*
X106736179Y-77551391D01*
X106687398Y-77580413D01*
X106619723Y-77597772D01*
X106553402Y-77575787D01*
X106509496Y-77521436D01*
X106500000Y-77473846D01*
X106500000Y-76124000D01*
X106519685Y-76056961D01*
X106572489Y-76011206D01*
X106624000Y-76000000D01*
X134448638Y-76000000D01*
X134515677Y-76019685D01*
G37*
G04 #@! TD.AperFunction*
G04 #@! TD*
M02*
