G04 #@! TF.GenerationSoftware,KiCad,Pcbnew,6.0.2-378541a8eb~116~ubuntu20.04.1*
G04 #@! TF.CreationDate,2022-03-07T01:05:26+01:00*
G04 #@! TF.ProjectId,lora_sensor,6c6f7261-5f73-4656-9e73-6f722e6b6963,rev?*
G04 #@! TF.SameCoordinates,Original*
G04 #@! TF.FileFunction,Copper,L4,Bot*
G04 #@! TF.FilePolarity,Positive*
%FSLAX46Y46*%
G04 Gerber Fmt 4.6, Leading zero omitted, Abs format (unit mm)*
G04 Created by KiCad (PCBNEW 6.0.2-378541a8eb~116~ubuntu20.04.1) date 2022-03-07 01:05:26*
%MOMM*%
%LPD*%
G01*
G04 APERTURE LIST*
G04 Aperture macros list*
%AMRoundRect*
0 Rectangle with rounded corners*
0 $1 Rounding radius*
0 $2 $3 $4 $5 $6 $7 $8 $9 X,Y pos of 4 corners*
0 Add a 4 corners polygon primitive as box body*
4,1,4,$2,$3,$4,$5,$6,$7,$8,$9,$2,$3,0*
0 Add four circle primitives for the rounded corners*
1,1,$1+$1,$2,$3*
1,1,$1+$1,$4,$5*
1,1,$1+$1,$6,$7*
1,1,$1+$1,$8,$9*
0 Add four rect primitives between the rounded corners*
20,1,$1+$1,$2,$3,$4,$5,0*
20,1,$1+$1,$4,$5,$6,$7,0*
20,1,$1+$1,$6,$7,$8,$9,0*
20,1,$1+$1,$8,$9,$2,$3,0*%
G04 Aperture macros list end*
G04 #@! TA.AperFunction,ComponentPad*
%ADD10C,5.000000*%
G04 #@! TD*
G04 #@! TA.AperFunction,SMDPad,CuDef*
%ADD11R,0.635000X1.143000*%
G04 #@! TD*
G04 #@! TA.AperFunction,ComponentPad*
%ADD12RoundRect,0.250000X0.600000X0.725000X-0.600000X0.725000X-0.600000X-0.725000X0.600000X-0.725000X0*%
G04 #@! TD*
G04 #@! TA.AperFunction,ComponentPad*
%ADD13O,1.700000X1.950000*%
G04 #@! TD*
G04 #@! TA.AperFunction,ComponentPad*
%ADD14R,1.524000X1.524000*%
G04 #@! TD*
G04 #@! TA.AperFunction,ComponentPad*
%ADD15C,1.524000*%
G04 #@! TD*
G04 #@! TA.AperFunction,ComponentPad*
%ADD16RoundRect,0.250000X0.750000X-0.600000X0.750000X0.600000X-0.750000X0.600000X-0.750000X-0.600000X0*%
G04 #@! TD*
G04 #@! TA.AperFunction,ComponentPad*
%ADD17O,2.000000X1.700000*%
G04 #@! TD*
G04 #@! TA.AperFunction,ComponentPad*
%ADD18C,2.000000*%
G04 #@! TD*
G04 #@! TA.AperFunction,ComponentPad*
%ADD19C,1.800000*%
G04 #@! TD*
G04 #@! TA.AperFunction,ViaPad*
%ADD20C,0.800000*%
G04 #@! TD*
G04 #@! TA.AperFunction,Conductor*
%ADD21C,0.250000*%
G04 #@! TD*
G04 #@! TA.AperFunction,Conductor*
%ADD22C,0.400000*%
G04 #@! TD*
G04 #@! TA.AperFunction,Conductor*
%ADD23C,0.500000*%
G04 #@! TD*
G04 #@! TA.AperFunction,Conductor*
%ADD24C,1.000000*%
G04 #@! TD*
G04 APERTURE END LIST*
D10*
G04 #@! TO.P,REF\u002A\u002A,1*
G04 #@! TO.N,GND*
X154000000Y-126500000D03*
G04 #@! TD*
G04 #@! TO.P,REF\u002A\u002A,1*
G04 #@! TO.N,GND*
X108000000Y-126500000D03*
G04 #@! TD*
G04 #@! TO.P,REF\u002A\u002A,1*
G04 #@! TO.N,GND*
X108000000Y-80000000D03*
G04 #@! TD*
D11*
G04 #@! TO.P,C110,1*
G04 #@! TO.N,GND*
X116762000Y-98500000D03*
G04 #@! TO.P,C110,2*
G04 #@! TO.N,+3V3*
X115238000Y-98500000D03*
G04 #@! TD*
G04 #@! TO.P,C107,1*
G04 #@! TO.N,GND*
X116762000Y-97000000D03*
G04 #@! TO.P,C107,2*
G04 #@! TO.N,+3V3*
X115238000Y-97000000D03*
G04 #@! TD*
D12*
G04 #@! TO.P,J105,1,Pin_1*
G04 #@! TO.N,GND*
X148999998Y-76525000D03*
D13*
G04 #@! TO.P,J105,2,Pin_2*
G04 #@! TO.N,/OUT1*
X146499998Y-76525000D03*
G04 #@! TO.P,J105,3,Pin_3*
G04 #@! TO.N,/OUT2*
X143999998Y-76525000D03*
G04 #@! TO.P,J105,4,Pin_4*
G04 #@! TO.N,/OUT3*
X141499998Y-76525000D03*
G04 #@! TO.P,J105,5,Pin_5*
G04 #@! TO.N,VCC*
X138999998Y-76525000D03*
G04 #@! TD*
D14*
G04 #@! TO.P,J103,1,Pin_1*
G04 #@! TO.N,GND*
X146350000Y-130000000D03*
D15*
G04 #@! TO.P,J103,2,Pin_2*
G04 #@! TO.N,/~{CTS}*
X143810000Y-130000000D03*
G04 #@! TO.P,J103,3,Pin_3*
G04 #@! TO.N,/5V*
X141270000Y-130000000D03*
G04 #@! TO.P,J103,4,Pin_4*
G04 #@! TO.N,/RX*
X138730000Y-130000000D03*
G04 #@! TO.P,J103,5,Pin_5*
G04 #@! TO.N,/TX*
X136190000Y-130000000D03*
G04 #@! TO.P,J103,6,Pin_6*
G04 #@! TO.N,/~{RTS}*
X133650000Y-130000000D03*
G04 #@! TD*
D16*
G04 #@! TO.P,J102,1,Pin_1*
G04 #@! TO.N,Net-(C102-Pad2)*
X157773001Y-109938500D03*
D17*
G04 #@! TO.P,J102,2,Pin_2*
G04 #@! TO.N,GND*
X157773001Y-107438500D03*
G04 #@! TD*
D18*
G04 #@! TO.P,J101,6,Shield*
G04 #@! TO.N,GND*
X156570000Y-96230000D03*
D19*
X160370000Y-96380000D03*
D18*
X156570000Y-88780000D03*
D19*
X160370000Y-88630000D03*
G04 #@! TD*
D18*
G04 #@! TO.P,U105,1,Vdd*
G04 #@! TO.N,+3V3*
X115150000Y-94350000D03*
G04 #@! TO.P,U105,2,O*
G04 #@! TO.N,Net-(U106-Pad10)*
X115150000Y-90750000D03*
G04 #@! TO.P,U105,3,GND*
G04 #@! TO.N,GND*
X111550000Y-90750000D03*
G04 #@! TD*
D20*
G04 #@! TO.N,GND*
X151750000Y-117750000D03*
X144250000Y-90500000D03*
X144250000Y-99750000D03*
X159250000Y-102250000D03*
X158750000Y-99750000D03*
X158750000Y-77500000D03*
X158750000Y-81500000D03*
X158000000Y-74250000D03*
X113000000Y-73500000D03*
X102500000Y-74000000D03*
X102250000Y-85000000D03*
X102750000Y-98750000D03*
X157000000Y-130750000D03*
X129250000Y-129250000D03*
X109500000Y-132000000D03*
X102500000Y-127000000D03*
X102500000Y-117750000D03*
X102750000Y-111000000D03*
X149250000Y-123500000D03*
X159000000Y-119000000D03*
X159250000Y-122500000D03*
X109500000Y-102000000D03*
X107250000Y-100500000D03*
X106000000Y-93500000D03*
X106750000Y-88250000D03*
X112250000Y-87250000D03*
X123500000Y-74000000D03*
X133000000Y-74000000D03*
X134000000Y-82750000D03*
X128250000Y-87000000D03*
X131000000Y-87000000D03*
X141750000Y-123750000D03*
X137500000Y-123750000D03*
X134000000Y-123750000D03*
X124500000Y-112750000D03*
X124500000Y-115250000D03*
X133500000Y-116250000D03*
X131750000Y-103750000D03*
X128750000Y-106000000D03*
X134250000Y-102750000D03*
X137750000Y-111750000D03*
X137750000Y-108500000D03*
X137750000Y-104750000D03*
X137750000Y-102250000D03*
G04 #@! TO.N,/IO2*
X131250000Y-99250000D03*
X119250000Y-121500000D03*
G04 #@! TO.N,/IO1*
X118250000Y-119500000D03*
X132512299Y-96012299D03*
G04 #@! TO.N,/IO0*
X118250000Y-117500000D03*
X132500000Y-95000000D03*
G04 #@! TO.N,/IO3*
X127750000Y-121750000D03*
X136000000Y-114500000D03*
G04 #@! TO.N,/OUT3_D*
X133500000Y-86250000D03*
X140250000Y-97500000D03*
G04 #@! TO.N,GND*
X159000000Y-120750000D03*
X128500000Y-109500000D03*
X133750000Y-100250000D03*
G04 #@! TO.N,/DIO4*
X142000000Y-121500000D03*
X145750000Y-96500000D03*
X145750000Y-108000000D03*
X132750000Y-121500000D03*
G04 #@! TO.N,/DIO5*
X138000000Y-114000000D03*
X146500000Y-102250000D03*
X142000000Y-114000000D03*
X146500000Y-95750000D03*
G04 #@! TO.N,/~{RST}*
X132500000Y-84500000D03*
X139750000Y-89250000D03*
G04 #@! TO.N,GND*
X139250000Y-92750000D03*
G04 #@! TO.N,/SWCLK*
X140500000Y-95500000D03*
X135750000Y-79500000D03*
G04 #@! TO.N,/OUT2_D*
X140500000Y-84000000D03*
X141250000Y-96750000D03*
G04 #@! TO.N,/SWDIO*
X142000000Y-97500000D03*
X134250000Y-79500000D03*
X140750000Y-85250000D03*
X137250000Y-85250000D03*
G04 #@! TO.N,+3V3*
X113250000Y-113500000D03*
G04 #@! TO.N,/5V*
X152250000Y-103750000D03*
X150000000Y-110250000D03*
G04 #@! TO.N,GND*
X155500000Y-100750000D03*
X148000000Y-99500000D03*
X128500000Y-123500000D03*
X117500000Y-111500000D03*
X117500000Y-109500000D03*
X117750000Y-98500000D03*
X117750000Y-97000000D03*
X123500000Y-80750000D03*
X123500000Y-82000000D03*
X126000000Y-87750000D03*
X137250000Y-86750000D03*
X140750000Y-86750000D03*
X139000000Y-84000000D03*
X145000000Y-84000000D03*
X152000000Y-84000000D03*
X149000000Y-87750000D03*
X146000000Y-89750000D03*
X145250000Y-88500000D03*
X150750000Y-95500000D03*
X142500000Y-105750000D03*
X150500000Y-104500000D03*
X148500000Y-108000000D03*
X145750000Y-114000000D03*
X144750000Y-115000000D03*
X155750000Y-116000000D03*
X151000000Y-122250000D03*
X144750000Y-122500000D03*
G04 #@! TO.N,+3V3*
X115250000Y-99750000D03*
G04 #@! TO.N,/BMON*
X155000000Y-120750000D03*
X134000000Y-91750000D03*
G04 #@! TO.N,/BATV*
X137762299Y-89237701D03*
X144750000Y-104250000D03*
G04 #@! TO.N,GND*
X155250000Y-91250000D03*
G04 #@! TO.N,+3V3*
X147000000Y-92250000D03*
X143500000Y-87000000D03*
X132750000Y-97750000D03*
X138750000Y-87000000D03*
X123500000Y-79500000D03*
X143000000Y-120500000D03*
X143000000Y-118000000D03*
X143000000Y-119250000D03*
G04 #@! TO.N,/5V*
X148000000Y-115500000D03*
G04 #@! TO.N,VCC*
X153500000Y-111750000D03*
G04 #@! TD*
D21*
G04 #@! TO.N,/IO2*
X122000000Y-108500000D02*
X122000000Y-114500000D01*
X122000000Y-118750000D02*
X119250000Y-121500000D01*
X131250000Y-99250000D02*
X122000000Y-108500000D01*
X122000000Y-114500000D02*
X122000000Y-118750000D01*
G04 #@! TO.N,/IO1*
X121000000Y-117250000D02*
X121000000Y-112250000D01*
X121000000Y-108500000D02*
X124500000Y-105000000D01*
X118250000Y-119500000D02*
X118750000Y-119500000D01*
X118750000Y-119500000D02*
X121000000Y-117250000D01*
X121000000Y-112250000D02*
X121000000Y-108500000D01*
X124500000Y-105000000D02*
X124500000Y-104024598D01*
X124500000Y-104024598D02*
X132512299Y-96012299D01*
G04 #@! TO.N,/IO0*
X119500000Y-116250000D02*
X118250000Y-117500000D01*
X132500000Y-95000000D02*
X119500000Y-108000000D01*
X119500000Y-113750000D02*
X119500000Y-116250000D01*
X119500000Y-108000000D02*
X119500000Y-113750000D01*
G04 #@! TO.N,/BMON*
X134000000Y-91750000D02*
X136500000Y-94250000D01*
X136500000Y-94250000D02*
X136500000Y-97500000D01*
X149250000Y-111000000D02*
X155000000Y-116750000D01*
X155000000Y-116750000D02*
X155000000Y-120750000D01*
X136500000Y-97500000D02*
X143500000Y-104500000D01*
X143500000Y-104500000D02*
X143500000Y-107750000D01*
X143500000Y-107750000D02*
X146750000Y-111000000D01*
X146750000Y-111000000D02*
X149250000Y-111000000D01*
G04 #@! TO.N,/IO3*
X127750000Y-121750000D02*
X127750000Y-120000000D01*
X136000000Y-114500000D02*
X133250000Y-114500000D01*
X127750000Y-120000000D02*
X133250000Y-114500000D01*
G04 #@! TO.N,/OUT3_D*
X140500000Y-93500000D02*
X139250000Y-94750000D01*
X133500000Y-86250000D02*
X135000000Y-86250000D01*
X135000000Y-86250000D02*
X136500000Y-87750000D01*
X139250000Y-94750000D02*
X139250000Y-96500000D01*
X139250000Y-96500000D02*
X140250000Y-97500000D01*
X136500000Y-87750000D02*
X139274614Y-87750000D01*
X139274614Y-87750000D02*
X140500000Y-88975386D01*
X140500000Y-88975386D02*
X140500000Y-93500000D01*
G04 #@! TO.N,/~{RST}*
X139750000Y-89250000D02*
X138750000Y-88250000D01*
X137000000Y-88250000D02*
X136500000Y-88750000D01*
X132750000Y-87000000D02*
X132750000Y-84750000D01*
X138750000Y-88250000D02*
X137000000Y-88250000D01*
X136500000Y-88750000D02*
X134500000Y-88750000D01*
X134500000Y-88750000D02*
X132750000Y-87000000D01*
X132750000Y-84750000D02*
X132500000Y-84500000D01*
G04 #@! TO.N,/SWCLK*
X135750000Y-79500000D02*
X138250000Y-82000000D01*
X141000000Y-88750000D02*
X141000000Y-95000000D01*
X138250000Y-82000000D02*
X138250000Y-85000000D01*
X139500000Y-86250000D02*
X139500000Y-87250000D01*
X138250000Y-85000000D02*
X139500000Y-86250000D01*
X139500000Y-87250000D02*
X141000000Y-88750000D01*
X141000000Y-95000000D02*
X140500000Y-95500000D01*
G04 #@! TO.N,/OUT2_D*
X141250000Y-96750000D02*
X141500000Y-96500000D01*
X141500000Y-96500000D02*
X141500000Y-88500000D01*
X141500000Y-88500000D02*
X140474511Y-87474511D01*
X140474511Y-87474511D02*
X140449897Y-87474511D01*
X140449897Y-87474511D02*
X140000000Y-87024614D01*
X140000000Y-87024614D02*
X140000000Y-84500000D01*
X140000000Y-84500000D02*
X140500000Y-84000000D01*
G04 #@! TO.N,/SWDIO*
X142000000Y-97500000D02*
X142250000Y-97250000D01*
X142250000Y-97250000D02*
X142250000Y-86000000D01*
X142250000Y-86000000D02*
X141500000Y-85250000D01*
X141500000Y-85250000D02*
X140750000Y-85250000D01*
G04 #@! TO.N,/DIO4*
X145750000Y-96500000D02*
X145750000Y-108000000D01*
X142000000Y-121500000D02*
X132750000Y-121500000D01*
G04 #@! TO.N,/DIO5*
X146500000Y-102250000D02*
X146500000Y-95750000D01*
X138000000Y-114000000D02*
X142000000Y-114000000D01*
G04 #@! TO.N,/SWDIO*
X135500000Y-83500000D02*
X137250000Y-85250000D01*
X134250000Y-79500000D02*
X135500000Y-80750000D01*
X135500000Y-80750000D02*
X135500000Y-83500000D01*
D22*
G04 #@! TO.N,/5V*
X152250000Y-105000000D02*
X152250000Y-103750000D01*
X150000000Y-110250000D02*
X150000000Y-107250000D01*
X150000000Y-107250000D02*
X152250000Y-105000000D01*
D23*
G04 #@! TO.N,GND*
X116762000Y-98500000D02*
X117750000Y-98500000D01*
X116762000Y-97000000D02*
X117750000Y-97000000D01*
D24*
G04 #@! TO.N,+3V3*
X115238000Y-99738000D02*
X115250000Y-99750000D01*
X115238000Y-98500000D02*
X115238000Y-99738000D01*
X115150000Y-94350000D02*
X115150000Y-96912000D01*
X115150000Y-96912000D02*
X115238000Y-97000000D01*
X115238000Y-98500000D02*
X115238000Y-97000000D01*
D22*
G04 #@! TO.N,/BATV*
X137762299Y-97262299D02*
X137762299Y-89237701D01*
X140750000Y-100250000D02*
X137762299Y-97262299D01*
X144750000Y-104250000D02*
X142000000Y-101500000D01*
X142000000Y-101500000D02*
X140750000Y-100250000D01*
G04 #@! TD*
G04 #@! TA.AperFunction,Conductor*
G04 #@! TO.N,GND*
G36*
X161693039Y-72269685D02*
G01*
X161738794Y-72322489D01*
X161750000Y-72374000D01*
X161750000Y-134151000D01*
X161730315Y-134218039D01*
X161677511Y-134263794D01*
X161626000Y-134275000D01*
X100349000Y-134275000D01*
X100281961Y-134255315D01*
X100236206Y-134202511D01*
X100225000Y-134151000D01*
X100225000Y-129985795D01*
X132632700Y-129985795D01*
X132649315Y-130183660D01*
X132704046Y-130374530D01*
X132794808Y-130551133D01*
X132918144Y-130706745D01*
X133069357Y-130835436D01*
X133074653Y-130838396D01*
X133074656Y-130838398D01*
X133104865Y-130855281D01*
X133242685Y-130932307D01*
X133431528Y-130993665D01*
X133437549Y-130994383D01*
X133504839Y-131002407D01*
X133628693Y-131017176D01*
X133634736Y-131016711D01*
X133634738Y-131016711D01*
X133820631Y-131002407D01*
X133820635Y-131002406D01*
X133826669Y-131001942D01*
X133832501Y-131000314D01*
X133832505Y-131000313D01*
X134012075Y-130950176D01*
X134012077Y-130950175D01*
X134017916Y-130948545D01*
X134195150Y-130859018D01*
X134199929Y-130855284D01*
X134199934Y-130855281D01*
X134346838Y-130740507D01*
X134346841Y-130740504D01*
X134351618Y-130736772D01*
X134481362Y-130586462D01*
X134579440Y-130413813D01*
X134642116Y-130225403D01*
X134647390Y-130183660D01*
X134666567Y-130031852D01*
X134666567Y-130031848D01*
X134667002Y-130028407D01*
X134667399Y-130000000D01*
X134666006Y-129985795D01*
X135172700Y-129985795D01*
X135189315Y-130183660D01*
X135244046Y-130374530D01*
X135334808Y-130551133D01*
X135458144Y-130706745D01*
X135609357Y-130835436D01*
X135614653Y-130838396D01*
X135614656Y-130838398D01*
X135644865Y-130855281D01*
X135782685Y-130932307D01*
X135971528Y-130993665D01*
X135977549Y-130994383D01*
X136044839Y-131002407D01*
X136168693Y-131017176D01*
X136174736Y-131016711D01*
X136174738Y-131016711D01*
X136360631Y-131002407D01*
X136360635Y-131002406D01*
X136366669Y-131001942D01*
X136372501Y-131000314D01*
X136372505Y-131000313D01*
X136552075Y-130950176D01*
X136552077Y-130950175D01*
X136557916Y-130948545D01*
X136735150Y-130859018D01*
X136739929Y-130855284D01*
X136739934Y-130855281D01*
X136886838Y-130740507D01*
X136886841Y-130740504D01*
X136891618Y-130736772D01*
X137021362Y-130586462D01*
X137119440Y-130413813D01*
X137182116Y-130225403D01*
X137187390Y-130183660D01*
X137206567Y-130031852D01*
X137206567Y-130031848D01*
X137207002Y-130028407D01*
X137207399Y-130000000D01*
X137206006Y-129985795D01*
X137712700Y-129985795D01*
X137729315Y-130183660D01*
X137784046Y-130374530D01*
X137874808Y-130551133D01*
X137998144Y-130706745D01*
X138149357Y-130835436D01*
X138154653Y-130838396D01*
X138154656Y-130838398D01*
X138184865Y-130855281D01*
X138322685Y-130932307D01*
X138511528Y-130993665D01*
X138517549Y-130994383D01*
X138584839Y-131002407D01*
X138708693Y-131017176D01*
X138714736Y-131016711D01*
X138714738Y-131016711D01*
X138900631Y-131002407D01*
X138900635Y-131002406D01*
X138906669Y-131001942D01*
X138912501Y-131000314D01*
X138912505Y-131000313D01*
X139092075Y-130950176D01*
X139092077Y-130950175D01*
X139097916Y-130948545D01*
X139275150Y-130859018D01*
X139279929Y-130855284D01*
X139279934Y-130855281D01*
X139426838Y-130740507D01*
X139426841Y-130740504D01*
X139431618Y-130736772D01*
X139561362Y-130586462D01*
X139659440Y-130413813D01*
X139722116Y-130225403D01*
X139727390Y-130183660D01*
X139746567Y-130031852D01*
X139746567Y-130031848D01*
X139747002Y-130028407D01*
X139747399Y-130000000D01*
X139746006Y-129985795D01*
X140252700Y-129985795D01*
X140269315Y-130183660D01*
X140324046Y-130374530D01*
X140414808Y-130551133D01*
X140538144Y-130706745D01*
X140689357Y-130835436D01*
X140694653Y-130838396D01*
X140694656Y-130838398D01*
X140724865Y-130855281D01*
X140862685Y-130932307D01*
X141051528Y-130993665D01*
X141057549Y-130994383D01*
X141124839Y-131002407D01*
X141248693Y-131017176D01*
X141254736Y-131016711D01*
X141254738Y-131016711D01*
X141440631Y-131002407D01*
X141440635Y-131002406D01*
X141446669Y-131001942D01*
X141452501Y-131000314D01*
X141452505Y-131000313D01*
X141632075Y-130950176D01*
X141632077Y-130950175D01*
X141637916Y-130948545D01*
X141815150Y-130859018D01*
X141819929Y-130855284D01*
X141819934Y-130855281D01*
X141966838Y-130740507D01*
X141966841Y-130740504D01*
X141971618Y-130736772D01*
X142101362Y-130586462D01*
X142199440Y-130413813D01*
X142262116Y-130225403D01*
X142267390Y-130183660D01*
X142286567Y-130031852D01*
X142286567Y-130031848D01*
X142287002Y-130028407D01*
X142287399Y-130000000D01*
X142286006Y-129985795D01*
X142792700Y-129985795D01*
X142809315Y-130183660D01*
X142864046Y-130374530D01*
X142954808Y-130551133D01*
X143078144Y-130706745D01*
X143229357Y-130835436D01*
X143234653Y-130838396D01*
X143234656Y-130838398D01*
X143264865Y-130855281D01*
X143402685Y-130932307D01*
X143591528Y-130993665D01*
X143597549Y-130994383D01*
X143664839Y-131002407D01*
X143788693Y-131017176D01*
X143794736Y-131016711D01*
X143794738Y-131016711D01*
X143980631Y-131002407D01*
X143980635Y-131002406D01*
X143986669Y-131001942D01*
X143992501Y-131000314D01*
X143992505Y-131000313D01*
X144172075Y-130950176D01*
X144172077Y-130950175D01*
X144177916Y-130948545D01*
X144355150Y-130859018D01*
X144359929Y-130855284D01*
X144359934Y-130855281D01*
X144506838Y-130740507D01*
X144506841Y-130740504D01*
X144511618Y-130736772D01*
X144641362Y-130586462D01*
X144739440Y-130413813D01*
X144802116Y-130225403D01*
X144807390Y-130183660D01*
X144826567Y-130031852D01*
X144826567Y-130031848D01*
X144827002Y-130028407D01*
X144827399Y-130000000D01*
X144808023Y-129802386D01*
X144750632Y-129612299D01*
X144657413Y-129436980D01*
X144531917Y-129283106D01*
X144378922Y-129156538D01*
X144204258Y-129062097D01*
X144195853Y-129059495D01*
X144020368Y-129005174D01*
X144020369Y-129005174D01*
X144014576Y-129003381D01*
X143817103Y-128982626D01*
X143811070Y-128983175D01*
X143811066Y-128983175D01*
X143691218Y-128994082D01*
X143619358Y-129000622D01*
X143613546Y-129002333D01*
X143613544Y-129002333D01*
X143434696Y-129054971D01*
X143428876Y-129056684D01*
X143252910Y-129148677D01*
X143098163Y-129273096D01*
X142970530Y-129425203D01*
X142874873Y-129599204D01*
X142814834Y-129788471D01*
X142792700Y-129985795D01*
X142286006Y-129985795D01*
X142268023Y-129802386D01*
X142210632Y-129612299D01*
X142117413Y-129436980D01*
X141991917Y-129283106D01*
X141838922Y-129156538D01*
X141664258Y-129062097D01*
X141655853Y-129059495D01*
X141480368Y-129005174D01*
X141480369Y-129005174D01*
X141474576Y-129003381D01*
X141277103Y-128982626D01*
X141271070Y-128983175D01*
X141271066Y-128983175D01*
X141151218Y-128994082D01*
X141079358Y-129000622D01*
X141073546Y-129002333D01*
X141073544Y-129002333D01*
X140894696Y-129054971D01*
X140888876Y-129056684D01*
X140712910Y-129148677D01*
X140558163Y-129273096D01*
X140430530Y-129425203D01*
X140334873Y-129599204D01*
X140274834Y-129788471D01*
X140252700Y-129985795D01*
X139746006Y-129985795D01*
X139728023Y-129802386D01*
X139670632Y-129612299D01*
X139577413Y-129436980D01*
X139451917Y-129283106D01*
X139298922Y-129156538D01*
X139124258Y-129062097D01*
X139115853Y-129059495D01*
X138940368Y-129005174D01*
X138940369Y-129005174D01*
X138934576Y-129003381D01*
X138737103Y-128982626D01*
X138731070Y-128983175D01*
X138731066Y-128983175D01*
X138611218Y-128994082D01*
X138539358Y-129000622D01*
X138533546Y-129002333D01*
X138533544Y-129002333D01*
X138354696Y-129054971D01*
X138348876Y-129056684D01*
X138172910Y-129148677D01*
X138018163Y-129273096D01*
X137890530Y-129425203D01*
X137794873Y-129599204D01*
X137734834Y-129788471D01*
X137712700Y-129985795D01*
X137206006Y-129985795D01*
X137188023Y-129802386D01*
X137130632Y-129612299D01*
X137037413Y-129436980D01*
X136911917Y-129283106D01*
X136758922Y-129156538D01*
X136584258Y-129062097D01*
X136575853Y-129059495D01*
X136400368Y-129005174D01*
X136400369Y-129005174D01*
X136394576Y-129003381D01*
X136197103Y-128982626D01*
X136191070Y-128983175D01*
X136191066Y-128983175D01*
X136071218Y-128994082D01*
X135999358Y-129000622D01*
X135993546Y-129002333D01*
X135993544Y-129002333D01*
X135814696Y-129054971D01*
X135808876Y-129056684D01*
X135632910Y-129148677D01*
X135478163Y-129273096D01*
X135350530Y-129425203D01*
X135254873Y-129599204D01*
X135194834Y-129788471D01*
X135172700Y-129985795D01*
X134666006Y-129985795D01*
X134648023Y-129802386D01*
X134590632Y-129612299D01*
X134497413Y-129436980D01*
X134371917Y-129283106D01*
X134218922Y-129156538D01*
X134044258Y-129062097D01*
X134035853Y-129059495D01*
X133860368Y-129005174D01*
X133860369Y-129005174D01*
X133854576Y-129003381D01*
X133657103Y-128982626D01*
X133651070Y-128983175D01*
X133651066Y-128983175D01*
X133531218Y-128994082D01*
X133459358Y-129000622D01*
X133453546Y-129002333D01*
X133453544Y-129002333D01*
X133274696Y-129054971D01*
X133268876Y-129056684D01*
X133092910Y-129148677D01*
X132938163Y-129273096D01*
X132810530Y-129425203D01*
X132714873Y-129599204D01*
X132654834Y-129788471D01*
X132632700Y-129985795D01*
X100225000Y-129985795D01*
X100225000Y-119493138D01*
X117594758Y-119493138D01*
X117595578Y-119500566D01*
X117595578Y-119500568D01*
X117602767Y-119565683D01*
X117612035Y-119649633D01*
X117614601Y-119656645D01*
X117614602Y-119656649D01*
X117624321Y-119683206D01*
X117666143Y-119797490D01*
X117753958Y-119928172D01*
X117791046Y-119961919D01*
X117864878Y-120029102D01*
X117864882Y-120029105D01*
X117870410Y-120034135D01*
X117876980Y-120037702D01*
X117876981Y-120037703D01*
X117941660Y-120072821D01*
X118008776Y-120109262D01*
X118111031Y-120136088D01*
X118153841Y-120147319D01*
X118153843Y-120147319D01*
X118161069Y-120149215D01*
X118238127Y-120150425D01*
X118311025Y-120151571D01*
X118311028Y-120151571D01*
X118318495Y-120151688D01*
X118325776Y-120150020D01*
X118325780Y-120150020D01*
X118464681Y-120118207D01*
X118471968Y-120116538D01*
X118612625Y-120045795D01*
X118618306Y-120040943D01*
X118618309Y-120040941D01*
X118726666Y-119948395D01*
X118726667Y-119948394D01*
X118732348Y-119943542D01*
X118750192Y-119918710D01*
X118805295Y-119875757D01*
X118836313Y-119867931D01*
X118846032Y-119866781D01*
X118846034Y-119866780D01*
X118856210Y-119865576D01*
X118864377Y-119861654D01*
X118873313Y-119860167D01*
X118917958Y-119836077D01*
X118923163Y-119833425D01*
X118925050Y-119832519D01*
X118968900Y-119811463D01*
X118973131Y-119807906D01*
X118975017Y-119806020D01*
X118976947Y-119804249D01*
X118977000Y-119804221D01*
X118977117Y-119804348D01*
X118977674Y-119803857D01*
X118983329Y-119800806D01*
X118992885Y-119790469D01*
X119019553Y-119761619D01*
X119022928Y-119758109D01*
X121227839Y-117553198D01*
X121246568Y-117538071D01*
X121247602Y-117537130D01*
X121256210Y-117531572D01*
X121276807Y-117505445D01*
X121280721Y-117501040D01*
X121280651Y-117500981D01*
X121283953Y-117497084D01*
X121287576Y-117493461D01*
X121298687Y-117477912D01*
X121302196Y-117473239D01*
X121312440Y-117460245D01*
X121333603Y-117433400D01*
X121336605Y-117424851D01*
X121341872Y-117417481D01*
X121351161Y-117386423D01*
X121356409Y-117368873D01*
X121358215Y-117363315D01*
X121372438Y-117322814D01*
X121372439Y-117322812D01*
X121375023Y-117315452D01*
X121375500Y-117309945D01*
X121375500Y-117307262D01*
X121375613Y-117304663D01*
X121375636Y-117304585D01*
X121375804Y-117304592D01*
X121375849Y-117303871D01*
X121377691Y-117297713D01*
X121377289Y-117287472D01*
X121377478Y-117285973D01*
X121378758Y-117283038D01*
X121376596Y-117269845D01*
X121375596Y-117244394D01*
X121375500Y-117239526D01*
X121375500Y-108706899D01*
X121395185Y-108639860D01*
X121411819Y-108619218D01*
X121412819Y-108618218D01*
X121474142Y-108584733D01*
X121543834Y-108589717D01*
X121599767Y-108631589D01*
X121624184Y-108697053D01*
X121624500Y-108705899D01*
X121624500Y-117264977D01*
X121620844Y-117277426D01*
X121622917Y-117281766D01*
X121624500Y-117301514D01*
X121624500Y-118543101D01*
X121604815Y-118610140D01*
X121588181Y-118630782D01*
X119405469Y-120813494D01*
X119344146Y-120846979D01*
X119317143Y-120849811D01*
X119209988Y-120849250D01*
X119182158Y-120849104D01*
X119182157Y-120849104D01*
X119174684Y-120849065D01*
X119167421Y-120850809D01*
X119167418Y-120850809D01*
X119098136Y-120867443D01*
X119021588Y-120885820D01*
X118881679Y-120958032D01*
X118763034Y-121061533D01*
X118672501Y-121190348D01*
X118669785Y-121197313D01*
X118669785Y-121197314D01*
X118659009Y-121224954D01*
X118615309Y-121337039D01*
X118594758Y-121493138D01*
X118595578Y-121500566D01*
X118595578Y-121500568D01*
X118597474Y-121517744D01*
X118612035Y-121649633D01*
X118666143Y-121797490D01*
X118670314Y-121803697D01*
X118734781Y-121899633D01*
X118753958Y-121928172D01*
X118776183Y-121948395D01*
X118864878Y-122029102D01*
X118864882Y-122029105D01*
X118870410Y-122034135D01*
X118876980Y-122037702D01*
X118876981Y-122037703D01*
X118915745Y-122058750D01*
X119008776Y-122109262D01*
X119111031Y-122136088D01*
X119153841Y-122147319D01*
X119153843Y-122147319D01*
X119161069Y-122149215D01*
X119238127Y-122150425D01*
X119311025Y-122151571D01*
X119311028Y-122151571D01*
X119318495Y-122151688D01*
X119325776Y-122150020D01*
X119325780Y-122150020D01*
X119464681Y-122118207D01*
X119471968Y-122116538D01*
X119612625Y-122045795D01*
X119618306Y-122040943D01*
X119618309Y-122040941D01*
X119726666Y-121948395D01*
X119726667Y-121948394D01*
X119732348Y-121943542D01*
X119743393Y-121928172D01*
X119781241Y-121875500D01*
X119824224Y-121815683D01*
X119853387Y-121743138D01*
X127094758Y-121743138D01*
X127095578Y-121750566D01*
X127095578Y-121750568D01*
X127102767Y-121815683D01*
X127112035Y-121899633D01*
X127114601Y-121906645D01*
X127114602Y-121906649D01*
X127124321Y-121933206D01*
X127166143Y-122047490D01*
X127253958Y-122178172D01*
X127276183Y-122198395D01*
X127364878Y-122279102D01*
X127364882Y-122279105D01*
X127370410Y-122284135D01*
X127508776Y-122359262D01*
X127611031Y-122386088D01*
X127653841Y-122397319D01*
X127653843Y-122397319D01*
X127661069Y-122399215D01*
X127738127Y-122400425D01*
X127811025Y-122401571D01*
X127811028Y-122401571D01*
X127818495Y-122401688D01*
X127825776Y-122400020D01*
X127825780Y-122400020D01*
X127964681Y-122368207D01*
X127971968Y-122366538D01*
X128112625Y-122295795D01*
X128118306Y-122290943D01*
X128118309Y-122290941D01*
X128226666Y-122198395D01*
X128226667Y-122198394D01*
X128232348Y-122193542D01*
X128243393Y-122178172D01*
X128265563Y-122147319D01*
X128324224Y-122065683D01*
X128382950Y-121919598D01*
X128384793Y-121906649D01*
X128404562Y-121767744D01*
X128404562Y-121767740D01*
X128405134Y-121763723D01*
X128405278Y-121750000D01*
X128396387Y-121676530D01*
X128387262Y-121601119D01*
X128387261Y-121601115D01*
X128386363Y-121593694D01*
X128356145Y-121513723D01*
X128348367Y-121493138D01*
X132094758Y-121493138D01*
X132095578Y-121500566D01*
X132095578Y-121500568D01*
X132097474Y-121517744D01*
X132112035Y-121649633D01*
X132166143Y-121797490D01*
X132170314Y-121803697D01*
X132234781Y-121899633D01*
X132253958Y-121928172D01*
X132276183Y-121948395D01*
X132364878Y-122029102D01*
X132364882Y-122029105D01*
X132370410Y-122034135D01*
X132376980Y-122037702D01*
X132376981Y-122037703D01*
X132415745Y-122058750D01*
X132508776Y-122109262D01*
X132611031Y-122136088D01*
X132653841Y-122147319D01*
X132653843Y-122147319D01*
X132661069Y-122149215D01*
X132738127Y-122150425D01*
X132811025Y-122151571D01*
X132811028Y-122151571D01*
X132818495Y-122151688D01*
X132825776Y-122150020D01*
X132825780Y-122150020D01*
X132964681Y-122118207D01*
X132971968Y-122116538D01*
X133112625Y-122045795D01*
X133118306Y-122040943D01*
X133118309Y-122040941D01*
X133226666Y-121948395D01*
X133226667Y-121948394D01*
X133232348Y-121943542D01*
X133244133Y-121927141D01*
X133299237Y-121884187D01*
X133344831Y-121875500D01*
X141402907Y-121875500D01*
X141469946Y-121895185D01*
X141496771Y-121918472D01*
X141499790Y-121921969D01*
X141503958Y-121928172D01*
X141509488Y-121933204D01*
X141509489Y-121933205D01*
X141614878Y-122029102D01*
X141614882Y-122029105D01*
X141620410Y-122034135D01*
X141626980Y-122037702D01*
X141626981Y-122037703D01*
X141665745Y-122058750D01*
X141758776Y-122109262D01*
X141861031Y-122136088D01*
X141903841Y-122147319D01*
X141903843Y-122147319D01*
X141911069Y-122149215D01*
X141988127Y-122150425D01*
X142061025Y-122151571D01*
X142061028Y-122151571D01*
X142068495Y-122151688D01*
X142075776Y-122150020D01*
X142075780Y-122150020D01*
X142214681Y-122118207D01*
X142221968Y-122116538D01*
X142362625Y-122045795D01*
X142368306Y-122040943D01*
X142368309Y-122040941D01*
X142476666Y-121948395D01*
X142476667Y-121948394D01*
X142482348Y-121943542D01*
X142493393Y-121928172D01*
X142531241Y-121875500D01*
X142574224Y-121815683D01*
X142632950Y-121669598D01*
X142634793Y-121656649D01*
X142654562Y-121517744D01*
X142654562Y-121517740D01*
X142655134Y-121513723D01*
X142655278Y-121500000D01*
X142649116Y-121449077D01*
X142637262Y-121351119D01*
X142637261Y-121351115D01*
X142636363Y-121343694D01*
X142609372Y-121272264D01*
X142604089Y-121202596D01*
X142637311Y-121141129D01*
X142698490Y-121107382D01*
X142758030Y-121112107D01*
X142758776Y-121109262D01*
X142903841Y-121147319D01*
X142903843Y-121147319D01*
X142911069Y-121149215D01*
X142988127Y-121150425D01*
X143061025Y-121151571D01*
X143061028Y-121151571D01*
X143068495Y-121151688D01*
X143075776Y-121150020D01*
X143075780Y-121150020D01*
X143214681Y-121118207D01*
X143221968Y-121116538D01*
X143362625Y-121045795D01*
X143368306Y-121040943D01*
X143368309Y-121040941D01*
X143476666Y-120948395D01*
X143476667Y-120948394D01*
X143482348Y-120943542D01*
X143493393Y-120928172D01*
X143513900Y-120899633D01*
X143574224Y-120815683D01*
X143632950Y-120669598D01*
X143634793Y-120656649D01*
X143654562Y-120517744D01*
X143654562Y-120517740D01*
X143655134Y-120513723D01*
X143655278Y-120500000D01*
X143649640Y-120453408D01*
X143637262Y-120351119D01*
X143637261Y-120351115D01*
X143636363Y-120343694D01*
X143591495Y-120224954D01*
X143583354Y-120203408D01*
X143583352Y-120203405D01*
X143580710Y-120196412D01*
X143572337Y-120184229D01*
X143495768Y-120072821D01*
X143495765Y-120072818D01*
X143491531Y-120066657D01*
X143379353Y-119966709D01*
X143342394Y-119907416D01*
X143343358Y-119837553D01*
X143381310Y-119779837D01*
X143476666Y-119698395D01*
X143476667Y-119698394D01*
X143482348Y-119693542D01*
X143493393Y-119678172D01*
X143519237Y-119642205D01*
X143574224Y-119565683D01*
X143632950Y-119419598D01*
X143634793Y-119406649D01*
X143654562Y-119267744D01*
X143654562Y-119267740D01*
X143655134Y-119263723D01*
X143655278Y-119250000D01*
X143653551Y-119235727D01*
X143637262Y-119101119D01*
X143637261Y-119101115D01*
X143636363Y-119093694D01*
X143592617Y-118977923D01*
X143583354Y-118953408D01*
X143583352Y-118953405D01*
X143580710Y-118946412D01*
X143571767Y-118933400D01*
X143495768Y-118822821D01*
X143495765Y-118822818D01*
X143491531Y-118816657D01*
X143379353Y-118716709D01*
X143342394Y-118657416D01*
X143343358Y-118587553D01*
X143381310Y-118529837D01*
X143476666Y-118448395D01*
X143476667Y-118448394D01*
X143482348Y-118443542D01*
X143493393Y-118428172D01*
X143513798Y-118399775D01*
X143574224Y-118315683D01*
X143632950Y-118169598D01*
X143635516Y-118151571D01*
X143654562Y-118017744D01*
X143654562Y-118017740D01*
X143655134Y-118013723D01*
X143655278Y-118000000D01*
X143648446Y-117943542D01*
X143637262Y-117851119D01*
X143637261Y-117851115D01*
X143636363Y-117843694D01*
X143623159Y-117808750D01*
X143583354Y-117703408D01*
X143583352Y-117703405D01*
X143580710Y-117696412D01*
X143572337Y-117684229D01*
X143495768Y-117572821D01*
X143495765Y-117572818D01*
X143491531Y-117566657D01*
X143409378Y-117493461D01*
X143379559Y-117466893D01*
X143379558Y-117466892D01*
X143373976Y-117461919D01*
X143234831Y-117388245D01*
X143082128Y-117349889D01*
X143000329Y-117349461D01*
X142932158Y-117349104D01*
X142932157Y-117349104D01*
X142924684Y-117349065D01*
X142917421Y-117350809D01*
X142917418Y-117350809D01*
X142865328Y-117363315D01*
X142771588Y-117385820D01*
X142631679Y-117458032D01*
X142626048Y-117462945D01*
X142626047Y-117462945D01*
X142583570Y-117500000D01*
X142513034Y-117561533D01*
X142422501Y-117690348D01*
X142365309Y-117837039D01*
X142344758Y-117993138D01*
X142345578Y-118000566D01*
X142345578Y-118000568D01*
X142347474Y-118017744D01*
X142362035Y-118149633D01*
X142416143Y-118297490D01*
X142503958Y-118428172D01*
X142526183Y-118448395D01*
X142620410Y-118534135D01*
X142618175Y-118536591D01*
X142652202Y-118579785D01*
X142658902Y-118649333D01*
X142626937Y-118711462D01*
X142618637Y-118719409D01*
X142518669Y-118806616D01*
X142518664Y-118806622D01*
X142513034Y-118811533D01*
X142422501Y-118940348D01*
X142419785Y-118947313D01*
X142419785Y-118947314D01*
X142407851Y-118977923D01*
X142365309Y-119087039D01*
X142344758Y-119243138D01*
X142345578Y-119250566D01*
X142345578Y-119250568D01*
X142347474Y-119267744D01*
X142362035Y-119399633D01*
X142416143Y-119547490D01*
X142420314Y-119553697D01*
X142484781Y-119649633D01*
X142503958Y-119678172D01*
X142590081Y-119756538D01*
X142620410Y-119784135D01*
X142618175Y-119786591D01*
X142652202Y-119829785D01*
X142658902Y-119899333D01*
X142626937Y-119961462D01*
X142618637Y-119969409D01*
X142518669Y-120056616D01*
X142518664Y-120056622D01*
X142513034Y-120061533D01*
X142422501Y-120190348D01*
X142419785Y-120197313D01*
X142419785Y-120197314D01*
X142409009Y-120224954D01*
X142365309Y-120337039D01*
X142344758Y-120493138D01*
X142345578Y-120500566D01*
X142345578Y-120500568D01*
X142347474Y-120517744D01*
X142362035Y-120649633D01*
X142364601Y-120656645D01*
X142364602Y-120656649D01*
X142391100Y-120729057D01*
X142395653Y-120798778D01*
X142361789Y-120859893D01*
X142300260Y-120892998D01*
X142234940Y-120887810D01*
X142234831Y-120888245D01*
X142082128Y-120849889D01*
X142000329Y-120849461D01*
X141932158Y-120849104D01*
X141932157Y-120849104D01*
X141924684Y-120849065D01*
X141917421Y-120850809D01*
X141917418Y-120850809D01*
X141848136Y-120867443D01*
X141771588Y-120885820D01*
X141631679Y-120958032D01*
X141626048Y-120962945D01*
X141626047Y-120962945D01*
X141522017Y-121053697D01*
X141513034Y-121061533D01*
X141508736Y-121067649D01*
X141505820Y-121071798D01*
X141451168Y-121115329D01*
X141404367Y-121124500D01*
X133346525Y-121124500D01*
X133279486Y-121104815D01*
X133251522Y-121077705D01*
X133250707Y-121078424D01*
X133245768Y-121072822D01*
X133241531Y-121066657D01*
X133123976Y-120961919D01*
X132984831Y-120888245D01*
X132832128Y-120849889D01*
X132750329Y-120849461D01*
X132682158Y-120849104D01*
X132682157Y-120849104D01*
X132674684Y-120849065D01*
X132667421Y-120850809D01*
X132667418Y-120850809D01*
X132598136Y-120867443D01*
X132521588Y-120885820D01*
X132381679Y-120958032D01*
X132263034Y-121061533D01*
X132172501Y-121190348D01*
X132169785Y-121197313D01*
X132169785Y-121197314D01*
X132159009Y-121224954D01*
X132115309Y-121337039D01*
X132094758Y-121493138D01*
X128348367Y-121493138D01*
X128333354Y-121453408D01*
X128333352Y-121453405D01*
X128330710Y-121446412D01*
X128299972Y-121401688D01*
X128245768Y-121322821D01*
X128245765Y-121322818D01*
X128241531Y-121316657D01*
X128167011Y-121250262D01*
X128130052Y-121190968D01*
X128125500Y-121157679D01*
X128125500Y-120206899D01*
X128145185Y-120139860D01*
X128161819Y-120119218D01*
X132787900Y-115493138D01*
X147344758Y-115493138D01*
X147345578Y-115500566D01*
X147345578Y-115500568D01*
X147347474Y-115517744D01*
X147362035Y-115649633D01*
X147416143Y-115797490D01*
X147503958Y-115928172D01*
X147526183Y-115948395D01*
X147614878Y-116029102D01*
X147614882Y-116029105D01*
X147620410Y-116034135D01*
X147626980Y-116037702D01*
X147626981Y-116037703D01*
X147752208Y-116105696D01*
X147758776Y-116109262D01*
X147840806Y-116130782D01*
X147903841Y-116147319D01*
X147903843Y-116147319D01*
X147911069Y-116149215D01*
X147988127Y-116150425D01*
X148061025Y-116151571D01*
X148061028Y-116151571D01*
X148068495Y-116151688D01*
X148075776Y-116150020D01*
X148075780Y-116150020D01*
X148214681Y-116118207D01*
X148221968Y-116116538D01*
X148362625Y-116045795D01*
X148368306Y-116040943D01*
X148368309Y-116040941D01*
X148476666Y-115948395D01*
X148476667Y-115948394D01*
X148482348Y-115943542D01*
X148493393Y-115928172D01*
X148513798Y-115899775D01*
X148574224Y-115815683D01*
X148632950Y-115669598D01*
X148634793Y-115656649D01*
X148654562Y-115517744D01*
X148654562Y-115517740D01*
X148655134Y-115513723D01*
X148655278Y-115500000D01*
X148636363Y-115343694D01*
X148580710Y-115196412D01*
X148549972Y-115151688D01*
X148495768Y-115072821D01*
X148495765Y-115072818D01*
X148491531Y-115066657D01*
X148373976Y-114961919D01*
X148234831Y-114888245D01*
X148082128Y-114849889D01*
X148000329Y-114849461D01*
X147932158Y-114849104D01*
X147932157Y-114849104D01*
X147924684Y-114849065D01*
X147917421Y-114850809D01*
X147917418Y-114850809D01*
X147848136Y-114867443D01*
X147771588Y-114885820D01*
X147631679Y-114958032D01*
X147513034Y-115061533D01*
X147422501Y-115190348D01*
X147365309Y-115337039D01*
X147344758Y-115493138D01*
X132787900Y-115493138D01*
X133369219Y-114911819D01*
X133430542Y-114878334D01*
X133456900Y-114875500D01*
X135402907Y-114875500D01*
X135469946Y-114895185D01*
X135496771Y-114918472D01*
X135499790Y-114921969D01*
X135503958Y-114928172D01*
X135509488Y-114933204D01*
X135509489Y-114933205D01*
X135614878Y-115029102D01*
X135614882Y-115029105D01*
X135620410Y-115034135D01*
X135626980Y-115037702D01*
X135626981Y-115037703D01*
X135691660Y-115072821D01*
X135758776Y-115109262D01*
X135861031Y-115136088D01*
X135903841Y-115147319D01*
X135903843Y-115147319D01*
X135911069Y-115149215D01*
X135988127Y-115150425D01*
X136061025Y-115151571D01*
X136061028Y-115151571D01*
X136068495Y-115151688D01*
X136075776Y-115150020D01*
X136075780Y-115150020D01*
X136214681Y-115118207D01*
X136221968Y-115116538D01*
X136362625Y-115045795D01*
X136368306Y-115040943D01*
X136368309Y-115040941D01*
X136476666Y-114948395D01*
X136476667Y-114948394D01*
X136482348Y-114943542D01*
X136493393Y-114928172D01*
X136549644Y-114849889D01*
X136574224Y-114815683D01*
X136632950Y-114669598D01*
X136635516Y-114651571D01*
X136654562Y-114517744D01*
X136654562Y-114517740D01*
X136655134Y-114513723D01*
X136655278Y-114500000D01*
X136647712Y-114437474D01*
X136637262Y-114351119D01*
X136637261Y-114351115D01*
X136636363Y-114343694D01*
X136623159Y-114308750D01*
X136583354Y-114203408D01*
X136583352Y-114203405D01*
X136580710Y-114196412D01*
X136572977Y-114185161D01*
X136495768Y-114072821D01*
X136495765Y-114072818D01*
X136491531Y-114066657D01*
X136412191Y-113995967D01*
X136409016Y-113993138D01*
X137344758Y-113993138D01*
X137345578Y-114000566D01*
X137345578Y-114000568D01*
X137347474Y-114017744D01*
X137362035Y-114149633D01*
X137364601Y-114156645D01*
X137364602Y-114156649D01*
X137380172Y-114199194D01*
X137416143Y-114297490D01*
X137503958Y-114428172D01*
X137526183Y-114448395D01*
X137614878Y-114529102D01*
X137614882Y-114529105D01*
X137620410Y-114534135D01*
X137758776Y-114609262D01*
X137861031Y-114636088D01*
X137903841Y-114647319D01*
X137903843Y-114647319D01*
X137911069Y-114649215D01*
X137988127Y-114650425D01*
X138061025Y-114651571D01*
X138061028Y-114651571D01*
X138068495Y-114651688D01*
X138075776Y-114650020D01*
X138075780Y-114650020D01*
X138214681Y-114618207D01*
X138221968Y-114616538D01*
X138362625Y-114545795D01*
X138368306Y-114540943D01*
X138368309Y-114540941D01*
X138476666Y-114448395D01*
X138476667Y-114448394D01*
X138482348Y-114443542D01*
X138494133Y-114427141D01*
X138549237Y-114384187D01*
X138594831Y-114375500D01*
X141402907Y-114375500D01*
X141469946Y-114395185D01*
X141496771Y-114418472D01*
X141499790Y-114421969D01*
X141503958Y-114428172D01*
X141509488Y-114433204D01*
X141509489Y-114433205D01*
X141614878Y-114529102D01*
X141614882Y-114529105D01*
X141620410Y-114534135D01*
X141758776Y-114609262D01*
X141861031Y-114636088D01*
X141903841Y-114647319D01*
X141903843Y-114647319D01*
X141911069Y-114649215D01*
X141988127Y-114650425D01*
X142061025Y-114651571D01*
X142061028Y-114651571D01*
X142068495Y-114651688D01*
X142075776Y-114650020D01*
X142075780Y-114650020D01*
X142214681Y-114618207D01*
X142221968Y-114616538D01*
X142362625Y-114545795D01*
X142368306Y-114540943D01*
X142368309Y-114540941D01*
X142476666Y-114448395D01*
X142476667Y-114448394D01*
X142482348Y-114443542D01*
X142493393Y-114428172D01*
X142531241Y-114375500D01*
X142574224Y-114315683D01*
X142632950Y-114169598D01*
X142635516Y-114151571D01*
X142654562Y-114017744D01*
X142654562Y-114017740D01*
X142655134Y-114013723D01*
X142655278Y-114000000D01*
X142650670Y-113961919D01*
X142637262Y-113851119D01*
X142637261Y-113851115D01*
X142636363Y-113843694D01*
X142623159Y-113808750D01*
X142583354Y-113703408D01*
X142583352Y-113703405D01*
X142580710Y-113696412D01*
X142572337Y-113684229D01*
X142495768Y-113572821D01*
X142495765Y-113572818D01*
X142491531Y-113566657D01*
X142412191Y-113495967D01*
X142379559Y-113466893D01*
X142379558Y-113466892D01*
X142373976Y-113461919D01*
X142234831Y-113388245D01*
X142082128Y-113349889D01*
X142000329Y-113349461D01*
X141932158Y-113349104D01*
X141932157Y-113349104D01*
X141924684Y-113349065D01*
X141917421Y-113350809D01*
X141917418Y-113350809D01*
X141848136Y-113367443D01*
X141771588Y-113385820D01*
X141631679Y-113458032D01*
X141513034Y-113561533D01*
X141508736Y-113567649D01*
X141505820Y-113571798D01*
X141451168Y-113615329D01*
X141404367Y-113624500D01*
X138596525Y-113624500D01*
X138529486Y-113604815D01*
X138501522Y-113577705D01*
X138500707Y-113578424D01*
X138495767Y-113572821D01*
X138491531Y-113566657D01*
X138412191Y-113495967D01*
X138379559Y-113466893D01*
X138379558Y-113466892D01*
X138373976Y-113461919D01*
X138234831Y-113388245D01*
X138082128Y-113349889D01*
X138000329Y-113349461D01*
X137932158Y-113349104D01*
X137932157Y-113349104D01*
X137924684Y-113349065D01*
X137917421Y-113350809D01*
X137917418Y-113350809D01*
X137848136Y-113367443D01*
X137771588Y-113385820D01*
X137631679Y-113458032D01*
X137513034Y-113561533D01*
X137422501Y-113690348D01*
X137365309Y-113837039D01*
X137344758Y-113993138D01*
X136409016Y-113993138D01*
X136379559Y-113966893D01*
X136379558Y-113966892D01*
X136373976Y-113961919D01*
X136234831Y-113888245D01*
X136082128Y-113849889D01*
X136000329Y-113849461D01*
X135932158Y-113849104D01*
X135932157Y-113849104D01*
X135924684Y-113849065D01*
X135917421Y-113850809D01*
X135917418Y-113850809D01*
X135848136Y-113867443D01*
X135771588Y-113885820D01*
X135631679Y-113958032D01*
X135513034Y-114061533D01*
X135508736Y-114067649D01*
X135505820Y-114071798D01*
X135451168Y-114115329D01*
X135404367Y-114124500D01*
X133303285Y-114124500D01*
X133279359Y-114121953D01*
X133277951Y-114121887D01*
X133267934Y-114119730D01*
X133257759Y-114120934D01*
X133257754Y-114120934D01*
X133234891Y-114123640D01*
X133229014Y-114123987D01*
X133229022Y-114124079D01*
X133223927Y-114124500D01*
X133218807Y-114124500D01*
X133213760Y-114125340D01*
X133213749Y-114125341D01*
X133199981Y-114127633D01*
X133194198Y-114128456D01*
X133153970Y-114133217D01*
X133153963Y-114133219D01*
X133143791Y-114134423D01*
X133135622Y-114138346D01*
X133126687Y-114139833D01*
X133117672Y-114144697D01*
X133117667Y-114144699D01*
X133082033Y-114163926D01*
X133076835Y-114166575D01*
X133031101Y-114188537D01*
X133026869Y-114192094D01*
X133024959Y-114194004D01*
X133023057Y-114195749D01*
X133022992Y-114195784D01*
X133022876Y-114195658D01*
X133022326Y-114196143D01*
X133016671Y-114199194D01*
X133009711Y-114206723D01*
X133009710Y-114206724D01*
X132980447Y-114238381D01*
X132977072Y-114241891D01*
X127522161Y-119696802D01*
X127503432Y-119711929D01*
X127502398Y-119712870D01*
X127493790Y-119718428D01*
X127487448Y-119726473D01*
X127473193Y-119744555D01*
X127469280Y-119748958D01*
X127469350Y-119749017D01*
X127466043Y-119752920D01*
X127462425Y-119756538D01*
X127459451Y-119760700D01*
X127451321Y-119772077D01*
X127447830Y-119776728D01*
X127416397Y-119816600D01*
X127413395Y-119825149D01*
X127408128Y-119832519D01*
X127395503Y-119874736D01*
X127393594Y-119881118D01*
X127391788Y-119886676D01*
X127379396Y-119921965D01*
X127374977Y-119934548D01*
X127374500Y-119940055D01*
X127374500Y-119942739D01*
X127374387Y-119945341D01*
X127374365Y-119945415D01*
X127374196Y-119945408D01*
X127374150Y-119946133D01*
X127372310Y-119952287D01*
X127372712Y-119962526D01*
X127372712Y-119962529D01*
X127374404Y-120005581D01*
X127374500Y-120010449D01*
X127374500Y-121157915D01*
X127354815Y-121224954D01*
X127332015Y-121251357D01*
X127263034Y-121311533D01*
X127172501Y-121440348D01*
X127115309Y-121587039D01*
X127094758Y-121743138D01*
X119853387Y-121743138D01*
X119882950Y-121669598D01*
X119884793Y-121656649D01*
X119904562Y-121517744D01*
X119904562Y-121517740D01*
X119905134Y-121513723D01*
X119905278Y-121500000D01*
X119899116Y-121449077D01*
X119910604Y-121380159D01*
X119934537Y-121346500D01*
X122227839Y-119053198D01*
X122246568Y-119038071D01*
X122247602Y-119037130D01*
X122256210Y-119031572D01*
X122276807Y-119005445D01*
X122280720Y-119001042D01*
X122280650Y-119000983D01*
X122283957Y-118997080D01*
X122287575Y-118993462D01*
X122298681Y-118977920D01*
X122302170Y-118973272D01*
X122333603Y-118933400D01*
X122336605Y-118924851D01*
X122341872Y-118917481D01*
X122356405Y-118868885D01*
X122358211Y-118863328D01*
X122372438Y-118822817D01*
X122372440Y-118822807D01*
X122375023Y-118815452D01*
X122375500Y-118809945D01*
X122375500Y-118807262D01*
X122375613Y-118804660D01*
X122375635Y-118804585D01*
X122375804Y-118804592D01*
X122375850Y-118803868D01*
X122377690Y-118797714D01*
X122375596Y-118744420D01*
X122375500Y-118739552D01*
X122375500Y-108706899D01*
X122395185Y-108639860D01*
X122411819Y-108619218D01*
X131095146Y-99935891D01*
X131156469Y-99902406D01*
X131184772Y-99899587D01*
X131252218Y-99900647D01*
X131311025Y-99901571D01*
X131311028Y-99901571D01*
X131318495Y-99901688D01*
X131325776Y-99900020D01*
X131325780Y-99900020D01*
X131464681Y-99868207D01*
X131471968Y-99866538D01*
X131612625Y-99795795D01*
X131618306Y-99790943D01*
X131618309Y-99790941D01*
X131726666Y-99698395D01*
X131726667Y-99698394D01*
X131732348Y-99693542D01*
X131824224Y-99565683D01*
X131882950Y-99419598D01*
X131905134Y-99263723D01*
X131905278Y-99250000D01*
X131886363Y-99093694D01*
X131830710Y-98946412D01*
X131822337Y-98934229D01*
X131745768Y-98822821D01*
X131745765Y-98822818D01*
X131741531Y-98816657D01*
X131623976Y-98711919D01*
X131484831Y-98638245D01*
X131332128Y-98599889D01*
X131250329Y-98599461D01*
X131182158Y-98599104D01*
X131182157Y-98599104D01*
X131174684Y-98599065D01*
X131167421Y-98600809D01*
X131167418Y-98600809D01*
X131098136Y-98617442D01*
X131021588Y-98635820D01*
X130881679Y-98708032D01*
X130763034Y-98811533D01*
X130672501Y-98940348D01*
X130615309Y-99087039D01*
X130594758Y-99243138D01*
X130595578Y-99250566D01*
X130595578Y-99250569D01*
X130601255Y-99301991D01*
X130589046Y-99370785D01*
X130565685Y-99403278D01*
X125087181Y-104881782D01*
X125025858Y-104915267D01*
X124956166Y-104910283D01*
X124900233Y-104868411D01*
X124875816Y-104802947D01*
X124875500Y-104794101D01*
X124875500Y-104231497D01*
X124895185Y-104164458D01*
X124911819Y-104143816D01*
X131312497Y-97743138D01*
X132094758Y-97743138D01*
X132095578Y-97750566D01*
X132095578Y-97750568D01*
X132102767Y-97815683D01*
X132112035Y-97899633D01*
X132114601Y-97906645D01*
X132114602Y-97906649D01*
X132124321Y-97933206D01*
X132166143Y-98047490D01*
X132253958Y-98178172D01*
X132276183Y-98198395D01*
X132364878Y-98279102D01*
X132364882Y-98279105D01*
X132370410Y-98284135D01*
X132508776Y-98359262D01*
X132611031Y-98386088D01*
X132653841Y-98397319D01*
X132653843Y-98397319D01*
X132661069Y-98399215D01*
X132738127Y-98400425D01*
X132811025Y-98401571D01*
X132811028Y-98401571D01*
X132818495Y-98401688D01*
X132825776Y-98400020D01*
X132825780Y-98400020D01*
X132964681Y-98368207D01*
X132971968Y-98366538D01*
X133112625Y-98295795D01*
X133118306Y-98290943D01*
X133118309Y-98290941D01*
X133226666Y-98198395D01*
X133226667Y-98198394D01*
X133232348Y-98193542D01*
X133243393Y-98178172D01*
X133265563Y-98147319D01*
X133324224Y-98065683D01*
X133382950Y-97919598D01*
X133384793Y-97906649D01*
X133404562Y-97767744D01*
X133404562Y-97767740D01*
X133405134Y-97763723D01*
X133405278Y-97750000D01*
X133403551Y-97735727D01*
X133387262Y-97601119D01*
X133387261Y-97601115D01*
X133386363Y-97593694D01*
X133369873Y-97550053D01*
X133333354Y-97453408D01*
X133333352Y-97453405D01*
X133330710Y-97446412D01*
X133299365Y-97400805D01*
X133245768Y-97322821D01*
X133245765Y-97322818D01*
X133241531Y-97316657D01*
X133123976Y-97211919D01*
X132984831Y-97138245D01*
X132832128Y-97099889D01*
X132750329Y-97099461D01*
X132682158Y-97099104D01*
X132682157Y-97099104D01*
X132674684Y-97099065D01*
X132667421Y-97100809D01*
X132667418Y-97100809D01*
X132620743Y-97112015D01*
X132521588Y-97135820D01*
X132381679Y-97208032D01*
X132263034Y-97311533D01*
X132172501Y-97440348D01*
X132115309Y-97587039D01*
X132094758Y-97743138D01*
X131312497Y-97743138D01*
X132357445Y-96698190D01*
X132418768Y-96664705D01*
X132447071Y-96661886D01*
X132514517Y-96662946D01*
X132573324Y-96663870D01*
X132573327Y-96663870D01*
X132580794Y-96663987D01*
X132588075Y-96662319D01*
X132588079Y-96662319D01*
X132726980Y-96630506D01*
X132734267Y-96628837D01*
X132874924Y-96558094D01*
X132880605Y-96553242D01*
X132880608Y-96553240D01*
X132988965Y-96460694D01*
X132988966Y-96460693D01*
X132994647Y-96455841D01*
X133000775Y-96447314D01*
X133074680Y-96344463D01*
X133086523Y-96327982D01*
X133145249Y-96181897D01*
X133146302Y-96174500D01*
X133166861Y-96030043D01*
X133166861Y-96030039D01*
X133167433Y-96026022D01*
X133167577Y-96012299D01*
X133157198Y-95926530D01*
X133149561Y-95863418D01*
X133149560Y-95863414D01*
X133148662Y-95855993D01*
X133112261Y-95759660D01*
X133095653Y-95715707D01*
X133095651Y-95715704D01*
X133093009Y-95708711D01*
X133003830Y-95578956D01*
X133002227Y-95577528D01*
X132973623Y-95516279D01*
X132982977Y-95447038D01*
X132995508Y-95425228D01*
X133036187Y-95368617D01*
X133074224Y-95315683D01*
X133132950Y-95169598D01*
X133134216Y-95160706D01*
X133154562Y-95017744D01*
X133154562Y-95017740D01*
X133155134Y-95013723D01*
X133155278Y-95000000D01*
X133150794Y-94962945D01*
X133137262Y-94851119D01*
X133137261Y-94851115D01*
X133136363Y-94843694D01*
X133123648Y-94810045D01*
X133083354Y-94703408D01*
X133083352Y-94703405D01*
X133080710Y-94696412D01*
X133047208Y-94647667D01*
X132995768Y-94572821D01*
X132995765Y-94572818D01*
X132991531Y-94566657D01*
X132941496Y-94522077D01*
X132879559Y-94466893D01*
X132879558Y-94466892D01*
X132873976Y-94461919D01*
X132734831Y-94388245D01*
X132602428Y-94354988D01*
X132589378Y-94351710D01*
X132582128Y-94349889D01*
X132500329Y-94349461D01*
X132432158Y-94349104D01*
X132432157Y-94349104D01*
X132424684Y-94349065D01*
X132417421Y-94350809D01*
X132417418Y-94350809D01*
X132348136Y-94367443D01*
X132271588Y-94385820D01*
X132131679Y-94458032D01*
X132013034Y-94561533D01*
X131922501Y-94690348D01*
X131919785Y-94697313D01*
X131919785Y-94697314D01*
X131908668Y-94725829D01*
X131865309Y-94837039D01*
X131844758Y-94993138D01*
X131845578Y-95000566D01*
X131845578Y-95000569D01*
X131851255Y-95051991D01*
X131839046Y-95120785D01*
X131815685Y-95153278D01*
X119272161Y-107696802D01*
X119253432Y-107711929D01*
X119252398Y-107712870D01*
X119243790Y-107718428D01*
X119237448Y-107726473D01*
X119223193Y-107744555D01*
X119219280Y-107748958D01*
X119219350Y-107749017D01*
X119216043Y-107752920D01*
X119212425Y-107756538D01*
X119209451Y-107760700D01*
X119201321Y-107772077D01*
X119197830Y-107776728D01*
X119166397Y-107816600D01*
X119163395Y-107825149D01*
X119158128Y-107832519D01*
X119147188Y-107869102D01*
X119143594Y-107881118D01*
X119141788Y-107886676D01*
X119124977Y-107934548D01*
X119124500Y-107940055D01*
X119124500Y-107942739D01*
X119124387Y-107945341D01*
X119124365Y-107945415D01*
X119124196Y-107945408D01*
X119124150Y-107946133D01*
X119122310Y-107952287D01*
X119122712Y-107962526D01*
X119122712Y-107962529D01*
X119124404Y-108005581D01*
X119124500Y-108010449D01*
X119124500Y-116043101D01*
X119104815Y-116110140D01*
X119088181Y-116130782D01*
X118405469Y-116813494D01*
X118344146Y-116846979D01*
X118317143Y-116849811D01*
X118209988Y-116849250D01*
X118182158Y-116849104D01*
X118182157Y-116849104D01*
X118174684Y-116849065D01*
X118167421Y-116850809D01*
X118167418Y-116850809D01*
X118098136Y-116867442D01*
X118021588Y-116885820D01*
X117881679Y-116958032D01*
X117763034Y-117061533D01*
X117672501Y-117190348D01*
X117669785Y-117197313D01*
X117669785Y-117197314D01*
X117643905Y-117263694D01*
X117615309Y-117337039D01*
X117594758Y-117493138D01*
X117595578Y-117500566D01*
X117595578Y-117500568D01*
X117601766Y-117556620D01*
X117612035Y-117649633D01*
X117614601Y-117656645D01*
X117614602Y-117656649D01*
X117629484Y-117697314D01*
X117666143Y-117797490D01*
X117753958Y-117928172D01*
X117776183Y-117948395D01*
X117864878Y-118029102D01*
X117864882Y-118029105D01*
X117870410Y-118034135D01*
X118008776Y-118109262D01*
X118111031Y-118136088D01*
X118153841Y-118147319D01*
X118153843Y-118147319D01*
X118161069Y-118149215D01*
X118238127Y-118150425D01*
X118311025Y-118151571D01*
X118311028Y-118151571D01*
X118318495Y-118151688D01*
X118325776Y-118150020D01*
X118325780Y-118150020D01*
X118464681Y-118118207D01*
X118471968Y-118116538D01*
X118612625Y-118045795D01*
X118618306Y-118040943D01*
X118618309Y-118040941D01*
X118726666Y-117948395D01*
X118726667Y-117948394D01*
X118732348Y-117943542D01*
X118743393Y-117928172D01*
X118763798Y-117899775D01*
X118824224Y-117815683D01*
X118882950Y-117669598D01*
X118884793Y-117656649D01*
X118904562Y-117517744D01*
X118904562Y-117517740D01*
X118905134Y-117513723D01*
X118905278Y-117500000D01*
X118900670Y-117461919D01*
X118899116Y-117449077D01*
X118910604Y-117380159D01*
X118934537Y-117346500D01*
X119727839Y-116553198D01*
X119746568Y-116538071D01*
X119747602Y-116537130D01*
X119756210Y-116531572D01*
X119776807Y-116505445D01*
X119780720Y-116501042D01*
X119780650Y-116500983D01*
X119783957Y-116497080D01*
X119787575Y-116493462D01*
X119798681Y-116477920D01*
X119802170Y-116473272D01*
X119833603Y-116433400D01*
X119836605Y-116424851D01*
X119841872Y-116417481D01*
X119856410Y-116368869D01*
X119858215Y-116363315D01*
X119872438Y-116322814D01*
X119872439Y-116322812D01*
X119875023Y-116315452D01*
X119875500Y-116309945D01*
X119875500Y-116307262D01*
X119875613Y-116304663D01*
X119875636Y-116304585D01*
X119875804Y-116304592D01*
X119875849Y-116303871D01*
X119877691Y-116297713D01*
X119875596Y-116244405D01*
X119875500Y-116239536D01*
X119875500Y-108206899D01*
X119895185Y-108139860D01*
X119911819Y-108119218D01*
X123912819Y-104118218D01*
X123974142Y-104084733D01*
X124043834Y-104089717D01*
X124099767Y-104131589D01*
X124124184Y-104197053D01*
X124124500Y-104205899D01*
X124124500Y-104793101D01*
X124104815Y-104860140D01*
X124088181Y-104880782D01*
X120772161Y-108196802D01*
X120753432Y-108211929D01*
X120752398Y-108212870D01*
X120743790Y-108218428D01*
X120737448Y-108226473D01*
X120723193Y-108244555D01*
X120719280Y-108248958D01*
X120719350Y-108249017D01*
X120716043Y-108252920D01*
X120712425Y-108256538D01*
X120709451Y-108260700D01*
X120701321Y-108272077D01*
X120697830Y-108276728D01*
X120666397Y-108316600D01*
X120663395Y-108325149D01*
X120658128Y-108332519D01*
X120655191Y-108342340D01*
X120643594Y-108381118D01*
X120641788Y-108386676D01*
X120629396Y-108421965D01*
X120624977Y-108434548D01*
X120624500Y-108440055D01*
X120624500Y-108442739D01*
X120624387Y-108445341D01*
X120624365Y-108445415D01*
X120624196Y-108445408D01*
X120624150Y-108446133D01*
X120622310Y-108452287D01*
X120622712Y-108462526D01*
X120622712Y-108462529D01*
X120624404Y-108505581D01*
X120624500Y-108510449D01*
X120624500Y-117043101D01*
X120604815Y-117110140D01*
X120588181Y-117130782D01*
X118775149Y-118943814D01*
X118713826Y-118977299D01*
X118644134Y-118972315D01*
X118624041Y-118961797D01*
X118623976Y-118961919D01*
X118596392Y-118947314D01*
X118484831Y-118888245D01*
X118332128Y-118849889D01*
X118250329Y-118849461D01*
X118182158Y-118849104D01*
X118182157Y-118849104D01*
X118174684Y-118849065D01*
X118167421Y-118850809D01*
X118167418Y-118850809D01*
X118115274Y-118863328D01*
X118021588Y-118885820D01*
X117881679Y-118958032D01*
X117876048Y-118962945D01*
X117876047Y-118962945D01*
X117832376Y-119001042D01*
X117763034Y-119061533D01*
X117672501Y-119190348D01*
X117615309Y-119337039D01*
X117594758Y-119493138D01*
X100225000Y-119493138D01*
X100225000Y-113493138D01*
X112594758Y-113493138D01*
X112595578Y-113500566D01*
X112595578Y-113500568D01*
X112607087Y-113604815D01*
X112612035Y-113649633D01*
X112614601Y-113656645D01*
X112614602Y-113656649D01*
X112629484Y-113697314D01*
X112666143Y-113797490D01*
X112753958Y-113928172D01*
X112791046Y-113961919D01*
X112864878Y-114029102D01*
X112864882Y-114029105D01*
X112870410Y-114034135D01*
X112876980Y-114037702D01*
X112876981Y-114037703D01*
X112939776Y-114071798D01*
X113008776Y-114109262D01*
X113081940Y-114128456D01*
X113153841Y-114147319D01*
X113153843Y-114147319D01*
X113161069Y-114149215D01*
X113238127Y-114150425D01*
X113311025Y-114151571D01*
X113311028Y-114151571D01*
X113318495Y-114151688D01*
X113325776Y-114150020D01*
X113325780Y-114150020D01*
X113464681Y-114118207D01*
X113471968Y-114116538D01*
X113612625Y-114045795D01*
X113618306Y-114040943D01*
X113618309Y-114040941D01*
X113726666Y-113948395D01*
X113726667Y-113948394D01*
X113732348Y-113943542D01*
X113743393Y-113928172D01*
X113798336Y-113851710D01*
X113824224Y-113815683D01*
X113882950Y-113669598D01*
X113884793Y-113656649D01*
X113904562Y-113517744D01*
X113904562Y-113517740D01*
X113905134Y-113513723D01*
X113905278Y-113500000D01*
X113900670Y-113461919D01*
X113887262Y-113351119D01*
X113887261Y-113351115D01*
X113886363Y-113343694D01*
X113830710Y-113196412D01*
X113822337Y-113184229D01*
X113745768Y-113072821D01*
X113745765Y-113072818D01*
X113741531Y-113066657D01*
X113623976Y-112961919D01*
X113484831Y-112888245D01*
X113332128Y-112849889D01*
X113250329Y-112849461D01*
X113182158Y-112849104D01*
X113182157Y-112849104D01*
X113174684Y-112849065D01*
X113167421Y-112850809D01*
X113167418Y-112850809D01*
X113098136Y-112867442D01*
X113021588Y-112885820D01*
X112881679Y-112958032D01*
X112763034Y-113061533D01*
X112672501Y-113190348D01*
X112615309Y-113337039D01*
X112594758Y-113493138D01*
X100225000Y-113493138D01*
X100225000Y-94350000D01*
X113894723Y-94350000D01*
X113913793Y-94567977D01*
X113915195Y-94573209D01*
X113965366Y-94760449D01*
X113970425Y-94779330D01*
X114062898Y-94977638D01*
X114066005Y-94982075D01*
X114066006Y-94982077D01*
X114185296Y-95152442D01*
X114185300Y-95152446D01*
X114188402Y-95156877D01*
X114343123Y-95311598D01*
X114347558Y-95314703D01*
X114351708Y-95318186D01*
X114350796Y-95319273D01*
X114390245Y-95368617D01*
X114399500Y-95415624D01*
X114399500Y-96845696D01*
X114398090Y-96864344D01*
X114394852Y-96885630D01*
X114395436Y-96892811D01*
X114395436Y-96892813D01*
X114399092Y-96937761D01*
X114399500Y-96947813D01*
X114399500Y-96955822D01*
X114401647Y-96974239D01*
X114402759Y-96983774D01*
X114403185Y-96988082D01*
X114406931Y-97034135D01*
X114409039Y-97060059D01*
X114411257Y-97066907D01*
X114412438Y-97072815D01*
X114413823Y-97078672D01*
X114414657Y-97085828D01*
X114439313Y-97153754D01*
X114440715Y-97157841D01*
X114462973Y-97226546D01*
X114466712Y-97232707D01*
X114469214Y-97238172D01*
X114471910Y-97243556D01*
X114474369Y-97250331D01*
X114475064Y-97251391D01*
X114487500Y-97304002D01*
X114487500Y-99671696D01*
X114486090Y-99690344D01*
X114482852Y-99711630D01*
X114483436Y-99718811D01*
X114483436Y-99718813D01*
X114487092Y-99763761D01*
X114487500Y-99773813D01*
X114487500Y-99781822D01*
X114487916Y-99785387D01*
X114490759Y-99809774D01*
X114491185Y-99814078D01*
X114497039Y-99886059D01*
X114499257Y-99892907D01*
X114500438Y-99898815D01*
X114501823Y-99904672D01*
X114502657Y-99911828D01*
X114518714Y-99956065D01*
X114527313Y-99979754D01*
X114528715Y-99983841D01*
X114550973Y-100052546D01*
X114554711Y-100058705D01*
X114557219Y-100064184D01*
X114559912Y-100069562D01*
X114562369Y-100076331D01*
X114566318Y-100082354D01*
X114601977Y-100136744D01*
X114604277Y-100140389D01*
X114641761Y-100202160D01*
X114645416Y-100206298D01*
X114649085Y-100210452D01*
X114649057Y-100210477D01*
X114651618Y-100213366D01*
X114654375Y-100216663D01*
X114658323Y-100222685D01*
X114697071Y-100259391D01*
X114713971Y-100275401D01*
X114716374Y-100277741D01*
X114750304Y-100311671D01*
X114753128Y-100313905D01*
X114753131Y-100313908D01*
X114757829Y-100317625D01*
X114766167Y-100324848D01*
X114780138Y-100338083D01*
X114780144Y-100338088D01*
X114785372Y-100343040D01*
X114794922Y-100348587D01*
X114809567Y-100358558D01*
X114852949Y-100392881D01*
X114936395Y-100431881D01*
X115004966Y-100463930D01*
X115004970Y-100463931D01*
X115011493Y-100466980D01*
X115018543Y-100468446D01*
X115018545Y-100468447D01*
X115175781Y-100501152D01*
X115175784Y-100501152D01*
X115182831Y-100502618D01*
X115285194Y-100499849D01*
X115350571Y-100498080D01*
X115350573Y-100498080D01*
X115357772Y-100497885D01*
X115432993Y-100477940D01*
X115519971Y-100454878D01*
X115519973Y-100454877D01*
X115526932Y-100453032D01*
X115639349Y-100392881D01*
X115674882Y-100373868D01*
X115674883Y-100373867D01*
X115681236Y-100370468D01*
X115812408Y-100254621D01*
X115893130Y-100140403D01*
X115909253Y-100117589D01*
X115909253Y-100117588D01*
X115913412Y-100111704D01*
X115978829Y-99949385D01*
X115983513Y-99918599D01*
X116004065Y-99783493D01*
X116005149Y-99776370D01*
X116004532Y-99768777D01*
X115991545Y-99609119D01*
X115991545Y-99609118D01*
X115990961Y-99601941D01*
X115990313Y-99599942D01*
X115988500Y-99581614D01*
X115988500Y-97066304D01*
X115989910Y-97047656D01*
X115992066Y-97033486D01*
X115992066Y-97033482D01*
X115993148Y-97026370D01*
X115988908Y-96974239D01*
X115988500Y-96964187D01*
X115988500Y-96956178D01*
X115985241Y-96928221D01*
X115984815Y-96923918D01*
X115979545Y-96859116D01*
X115979544Y-96859112D01*
X115978961Y-96851941D01*
X115976743Y-96845093D01*
X115975562Y-96839185D01*
X115974177Y-96833328D01*
X115973343Y-96826172D01*
X115948685Y-96758239D01*
X115947282Y-96754152D01*
X115927248Y-96692310D01*
X115925027Y-96685454D01*
X115921288Y-96679293D01*
X115918786Y-96673828D01*
X115916090Y-96668444D01*
X115913631Y-96661669D01*
X115912936Y-96660609D01*
X115900500Y-96607998D01*
X115900500Y-95415624D01*
X115920185Y-95348585D01*
X115948810Y-95318803D01*
X115948292Y-95318186D01*
X115952442Y-95314703D01*
X115956877Y-95311598D01*
X116111598Y-95156877D01*
X116114700Y-95152446D01*
X116114704Y-95152442D01*
X116233994Y-94982077D01*
X116233995Y-94982075D01*
X116237102Y-94977638D01*
X116329575Y-94779330D01*
X116334635Y-94760449D01*
X116384805Y-94573209D01*
X116386207Y-94567977D01*
X116405277Y-94350000D01*
X116386207Y-94132023D01*
X116358031Y-94026869D01*
X116330976Y-93925897D01*
X116330974Y-93925893D01*
X116329575Y-93920670D01*
X116237102Y-93722362D01*
X116233994Y-93717923D01*
X116114704Y-93547558D01*
X116114700Y-93547554D01*
X116111598Y-93543123D01*
X115956877Y-93388402D01*
X115777639Y-93262898D01*
X115579330Y-93170425D01*
X115574107Y-93169026D01*
X115574103Y-93169024D01*
X115373209Y-93115195D01*
X115373210Y-93115195D01*
X115367977Y-93113793D01*
X115150000Y-93094723D01*
X114932023Y-93113793D01*
X114926790Y-93115195D01*
X114926791Y-93115195D01*
X114725897Y-93169024D01*
X114725893Y-93169026D01*
X114720670Y-93170425D01*
X114522362Y-93262898D01*
X114517925Y-93266005D01*
X114517923Y-93266006D01*
X114347558Y-93385296D01*
X114347557Y-93385297D01*
X114343123Y-93388402D01*
X114188402Y-93543123D01*
X114185300Y-93547554D01*
X114185296Y-93547558D01*
X114066006Y-93717923D01*
X114062898Y-93722362D01*
X113970425Y-93920670D01*
X113969026Y-93925893D01*
X113969024Y-93925897D01*
X113941969Y-94026869D01*
X113913793Y-94132023D01*
X113894723Y-94350000D01*
X100225000Y-94350000D01*
X100225000Y-90750000D01*
X113894723Y-90750000D01*
X113913793Y-90967977D01*
X113915195Y-90973209D01*
X113960354Y-91141744D01*
X113970425Y-91179330D01*
X114062898Y-91377638D01*
X114066005Y-91382075D01*
X114066006Y-91382077D01*
X114185296Y-91552442D01*
X114185300Y-91552446D01*
X114188402Y-91556877D01*
X114343123Y-91711598D01*
X114522361Y-91837102D01*
X114720670Y-91929575D01*
X114725893Y-91930974D01*
X114725897Y-91930976D01*
X114892901Y-91975724D01*
X114932023Y-91986207D01*
X115150000Y-92005277D01*
X115367977Y-91986207D01*
X115407099Y-91975724D01*
X115574103Y-91930976D01*
X115574107Y-91930974D01*
X115579330Y-91929575D01*
X115777639Y-91837102D01*
X115956877Y-91711598D01*
X116111598Y-91556877D01*
X116114700Y-91552446D01*
X116114704Y-91552442D01*
X116233994Y-91382077D01*
X116233995Y-91382075D01*
X116237102Y-91377638D01*
X116329575Y-91179330D01*
X116339647Y-91141744D01*
X116384805Y-90973209D01*
X116386207Y-90967977D01*
X116405277Y-90750000D01*
X116386207Y-90532023D01*
X116329575Y-90320670D01*
X116237102Y-90122362D01*
X116233994Y-90117923D01*
X116114704Y-89947558D01*
X116114700Y-89947554D01*
X116111598Y-89943123D01*
X115956877Y-89788402D01*
X115777639Y-89662898D01*
X115579330Y-89570425D01*
X115574107Y-89569026D01*
X115574103Y-89569024D01*
X115373209Y-89515195D01*
X115373210Y-89515195D01*
X115367977Y-89513793D01*
X115150000Y-89494723D01*
X114932023Y-89513793D01*
X114926790Y-89515195D01*
X114926791Y-89515195D01*
X114725897Y-89569024D01*
X114725893Y-89569026D01*
X114720670Y-89570425D01*
X114522362Y-89662898D01*
X114517925Y-89666005D01*
X114517923Y-89666006D01*
X114347558Y-89785296D01*
X114347557Y-89785297D01*
X114343123Y-89788402D01*
X114188402Y-89943123D01*
X114185300Y-89947554D01*
X114185296Y-89947558D01*
X114066006Y-90117923D01*
X114062898Y-90122362D01*
X113970425Y-90320670D01*
X113913793Y-90532023D01*
X113894723Y-90750000D01*
X100225000Y-90750000D01*
X100225000Y-84493138D01*
X131844758Y-84493138D01*
X131845578Y-84500566D01*
X131845578Y-84500568D01*
X131850571Y-84545795D01*
X131862035Y-84649633D01*
X131864601Y-84656645D01*
X131864602Y-84656649D01*
X131889838Y-84725609D01*
X131916143Y-84797490D01*
X132003958Y-84928172D01*
X132038842Y-84959914D01*
X132114878Y-85029102D01*
X132114882Y-85029105D01*
X132120410Y-85034135D01*
X132126980Y-85037702D01*
X132126981Y-85037703D01*
X132204828Y-85079970D01*
X132258776Y-85109262D01*
X132281966Y-85115346D01*
X132341814Y-85151395D01*
X132372673Y-85214081D01*
X132374500Y-85235286D01*
X132374500Y-86946716D01*
X132371953Y-86970651D01*
X132371887Y-86972052D01*
X132369731Y-86982066D01*
X132370935Y-86992239D01*
X132373641Y-87015102D01*
X132373988Y-87020984D01*
X132374078Y-87020977D01*
X132374500Y-87026082D01*
X132374500Y-87031193D01*
X132375339Y-87036233D01*
X132377639Y-87050053D01*
X132378461Y-87055832D01*
X132383219Y-87096032D01*
X132384424Y-87106210D01*
X132388346Y-87114377D01*
X132389833Y-87123313D01*
X132410816Y-87162201D01*
X132413922Y-87167957D01*
X132416574Y-87173160D01*
X132438537Y-87218900D01*
X132442094Y-87223131D01*
X132443980Y-87225017D01*
X132445751Y-87226947D01*
X132445779Y-87227000D01*
X132445652Y-87227117D01*
X132446143Y-87227674D01*
X132449194Y-87233329D01*
X132456723Y-87240289D01*
X132456724Y-87240290D01*
X132488381Y-87269553D01*
X132491891Y-87272928D01*
X134196805Y-88977843D01*
X134211909Y-88996545D01*
X134212868Y-88997599D01*
X134218428Y-89006210D01*
X134226478Y-89012556D01*
X134244551Y-89026804D01*
X134248962Y-89030724D01*
X134249021Y-89030654D01*
X134252921Y-89033959D01*
X134256538Y-89037576D01*
X134260691Y-89040544D01*
X134260702Y-89040553D01*
X134272100Y-89048697D01*
X134276775Y-89052207D01*
X134304924Y-89074398D01*
X134316600Y-89083603D01*
X134325148Y-89086605D01*
X134332519Y-89091872D01*
X134342336Y-89094808D01*
X134342338Y-89094809D01*
X134381127Y-89106409D01*
X134386685Y-89108215D01*
X134427186Y-89122438D01*
X134427188Y-89122439D01*
X134434548Y-89125023D01*
X134440055Y-89125500D01*
X134442738Y-89125500D01*
X134445337Y-89125613D01*
X134445415Y-89125636D01*
X134445408Y-89125804D01*
X134446129Y-89125849D01*
X134452287Y-89127691D01*
X134462525Y-89127289D01*
X134462527Y-89127289D01*
X134505606Y-89125596D01*
X134510474Y-89125500D01*
X136446716Y-89125500D01*
X136470651Y-89128047D01*
X136472052Y-89128113D01*
X136482066Y-89130269D01*
X136492239Y-89129065D01*
X136515102Y-89126359D01*
X136520984Y-89126012D01*
X136520977Y-89125922D01*
X136526082Y-89125500D01*
X136531193Y-89125500D01*
X136550053Y-89122361D01*
X136555832Y-89121539D01*
X136596032Y-89116781D01*
X136596034Y-89116780D01*
X136606210Y-89115576D01*
X136614377Y-89111654D01*
X136623313Y-89110167D01*
X136667958Y-89086077D01*
X136673163Y-89083425D01*
X136711867Y-89064840D01*
X136711866Y-89064840D01*
X136718900Y-89061463D01*
X136723131Y-89057906D01*
X136725017Y-89056020D01*
X136726947Y-89054249D01*
X136727000Y-89054221D01*
X136727117Y-89054348D01*
X136727674Y-89053857D01*
X136733329Y-89050806D01*
X136751334Y-89031329D01*
X136769552Y-89011620D01*
X136772927Y-89008110D01*
X136978954Y-88802084D01*
X137040277Y-88768599D01*
X137109969Y-88773583D01*
X137165902Y-88815455D01*
X137190319Y-88880919D01*
X137182165Y-88934807D01*
X137127608Y-89074740D01*
X137107057Y-89230839D01*
X137107877Y-89238267D01*
X137107877Y-89238269D01*
X137109773Y-89255445D01*
X137124334Y-89387334D01*
X137126900Y-89394346D01*
X137126901Y-89394350D01*
X137141784Y-89435018D01*
X137178442Y-89535191D01*
X137266257Y-89665873D01*
X137271787Y-89670905D01*
X137276671Y-89676563D01*
X137275571Y-89677512D01*
X137307589Y-89730096D01*
X137311799Y-89762133D01*
X137311799Y-97228196D01*
X137310940Y-97242770D01*
X137306935Y-97276609D01*
X137311938Y-97304002D01*
X137317475Y-97334321D01*
X137318115Y-97338163D01*
X137320062Y-97351114D01*
X137326850Y-97396261D01*
X137329978Y-97402774D01*
X137331274Y-97409872D01*
X137335547Y-97418098D01*
X137358332Y-97461962D01*
X137360068Y-97465436D01*
X137378617Y-97504064D01*
X137381108Y-97509252D01*
X137392383Y-97578206D01*
X137364589Y-97642310D01*
X137306550Y-97681210D01*
X137236694Y-97682558D01*
X137181647Y-97650610D01*
X136911819Y-97380782D01*
X136878334Y-97319459D01*
X136875500Y-97293101D01*
X136875500Y-94303284D01*
X136878047Y-94279349D01*
X136878113Y-94277948D01*
X136880269Y-94267934D01*
X136876359Y-94234898D01*
X136876012Y-94229010D01*
X136875921Y-94229018D01*
X136875500Y-94223923D01*
X136875500Y-94218807D01*
X136874661Y-94213764D01*
X136874660Y-94213756D01*
X136872359Y-94199928D01*
X136871537Y-94194150D01*
X136866781Y-94153973D01*
X136865576Y-94143791D01*
X136861655Y-94135625D01*
X136860167Y-94126687D01*
X136855302Y-94117671D01*
X136855301Y-94117667D01*
X136836069Y-94082023D01*
X136833417Y-94076818D01*
X136814842Y-94038135D01*
X136814839Y-94038130D01*
X136811463Y-94031100D01*
X136807906Y-94026869D01*
X136806021Y-94024984D01*
X136804249Y-94023053D01*
X136804221Y-94023000D01*
X136804348Y-94022883D01*
X136803857Y-94022326D01*
X136800806Y-94016671D01*
X136761619Y-93980447D01*
X136758109Y-93977072D01*
X134685195Y-91904158D01*
X134651710Y-91842835D01*
X134650113Y-91799007D01*
X134654561Y-91767748D01*
X134655134Y-91763723D01*
X134655278Y-91750000D01*
X134650631Y-91711598D01*
X134637262Y-91601119D01*
X134637261Y-91601115D01*
X134636363Y-91593694D01*
X134580710Y-91446412D01*
X134572337Y-91434229D01*
X134495768Y-91322821D01*
X134495765Y-91322818D01*
X134491531Y-91316657D01*
X134373976Y-91211919D01*
X134234831Y-91138245D01*
X134082128Y-91099889D01*
X134000329Y-91099461D01*
X133932158Y-91099104D01*
X133932157Y-91099104D01*
X133924684Y-91099065D01*
X133917421Y-91100809D01*
X133917418Y-91100809D01*
X133848136Y-91117442D01*
X133771588Y-91135820D01*
X133631679Y-91208032D01*
X133513034Y-91311533D01*
X133422501Y-91440348D01*
X133365309Y-91587039D01*
X133344758Y-91743138D01*
X133345578Y-91750566D01*
X133345578Y-91750568D01*
X133357698Y-91860346D01*
X133362035Y-91899633D01*
X133364601Y-91906645D01*
X133364602Y-91906649D01*
X133379484Y-91947314D01*
X133416143Y-92047490D01*
X133503958Y-92178172D01*
X133558693Y-92227977D01*
X133614878Y-92279102D01*
X133614882Y-92279105D01*
X133620410Y-92284135D01*
X133758776Y-92359262D01*
X133861031Y-92386088D01*
X133903841Y-92397319D01*
X133903843Y-92397319D01*
X133911069Y-92399215D01*
X134068495Y-92401688D01*
X134068453Y-92404357D01*
X134124801Y-92414671D01*
X134156696Y-92437733D01*
X136088181Y-94369218D01*
X136121666Y-94430541D01*
X136124500Y-94456899D01*
X136124500Y-97446716D01*
X136121953Y-97470651D01*
X136121887Y-97472052D01*
X136119731Y-97482066D01*
X136123109Y-97510603D01*
X136123641Y-97515102D01*
X136123988Y-97520984D01*
X136124078Y-97520977D01*
X136124500Y-97526082D01*
X136124500Y-97531193D01*
X136125339Y-97536233D01*
X136127639Y-97550053D01*
X136128461Y-97555832D01*
X136133219Y-97596032D01*
X136134424Y-97606210D01*
X136138346Y-97614377D01*
X136139833Y-97623313D01*
X136160816Y-97662201D01*
X136163922Y-97667957D01*
X136166574Y-97673160D01*
X136188537Y-97718900D01*
X136192094Y-97723131D01*
X136193980Y-97725017D01*
X136195751Y-97726947D01*
X136195779Y-97727000D01*
X136195652Y-97727117D01*
X136196143Y-97727674D01*
X136199194Y-97733329D01*
X136206723Y-97740289D01*
X136206724Y-97740290D01*
X136238381Y-97769553D01*
X136241891Y-97772928D01*
X143088181Y-104619218D01*
X143121666Y-104680541D01*
X143124500Y-104706899D01*
X143124500Y-107696716D01*
X143121953Y-107720651D01*
X143121887Y-107722052D01*
X143119731Y-107732066D01*
X143120935Y-107742239D01*
X143123641Y-107765102D01*
X143123988Y-107770984D01*
X143124078Y-107770977D01*
X143124500Y-107776082D01*
X143124500Y-107781193D01*
X143125339Y-107786233D01*
X143127639Y-107800053D01*
X143128461Y-107805832D01*
X143133219Y-107846032D01*
X143134424Y-107856210D01*
X143138346Y-107864377D01*
X143139833Y-107873313D01*
X143163922Y-107917957D01*
X143166574Y-107923160D01*
X143188537Y-107968900D01*
X143192094Y-107973131D01*
X143193980Y-107975017D01*
X143195751Y-107976947D01*
X143195779Y-107977000D01*
X143195652Y-107977117D01*
X143196143Y-107977674D01*
X143199194Y-107983329D01*
X143206723Y-107990289D01*
X143206724Y-107990290D01*
X143238381Y-108019553D01*
X143241891Y-108022928D01*
X146446802Y-111227839D01*
X146461929Y-111246568D01*
X146462870Y-111247602D01*
X146468428Y-111256210D01*
X146476473Y-111262552D01*
X146494555Y-111276807D01*
X146498958Y-111280720D01*
X146499017Y-111280650D01*
X146502920Y-111283957D01*
X146506538Y-111287575D01*
X146510700Y-111290549D01*
X146522077Y-111298679D01*
X146526728Y-111302170D01*
X146566600Y-111333603D01*
X146575149Y-111336605D01*
X146582519Y-111341872D01*
X146592340Y-111344809D01*
X146631118Y-111356406D01*
X146636676Y-111358212D01*
X146677183Y-111372437D01*
X146677186Y-111372438D01*
X146684548Y-111375023D01*
X146690055Y-111375500D01*
X146692739Y-111375500D01*
X146695341Y-111375613D01*
X146695415Y-111375635D01*
X146695408Y-111375804D01*
X146696133Y-111375850D01*
X146702287Y-111377690D01*
X146712526Y-111377288D01*
X146712529Y-111377288D01*
X146755581Y-111375596D01*
X146760449Y-111375500D01*
X149043101Y-111375500D01*
X149110140Y-111395185D01*
X149130782Y-111411819D01*
X154588181Y-116869218D01*
X154621666Y-116930541D01*
X154624500Y-116956899D01*
X154624500Y-120157915D01*
X154604815Y-120224954D01*
X154582015Y-120251357D01*
X154513034Y-120311533D01*
X154422501Y-120440348D01*
X154365309Y-120587039D01*
X154344758Y-120743138D01*
X154345578Y-120750566D01*
X154345578Y-120750568D01*
X154352525Y-120813494D01*
X154362035Y-120899633D01*
X154364601Y-120906645D01*
X154364602Y-120906649D01*
X154383406Y-120958032D01*
X154416143Y-121047490D01*
X154503958Y-121178172D01*
X154524004Y-121196412D01*
X154614878Y-121279102D01*
X154614882Y-121279105D01*
X154620410Y-121284135D01*
X154626980Y-121287702D01*
X154626981Y-121287703D01*
X154752208Y-121355696D01*
X154758776Y-121359262D01*
X154861031Y-121386088D01*
X154903841Y-121397319D01*
X154903843Y-121397319D01*
X154911069Y-121399215D01*
X154988127Y-121400425D01*
X155061025Y-121401571D01*
X155061028Y-121401571D01*
X155068495Y-121401688D01*
X155075776Y-121400020D01*
X155075780Y-121400020D01*
X155214681Y-121368207D01*
X155221968Y-121366538D01*
X155362625Y-121295795D01*
X155368306Y-121290943D01*
X155368309Y-121290941D01*
X155476666Y-121198395D01*
X155476667Y-121198394D01*
X155482348Y-121193542D01*
X155493393Y-121178172D01*
X155515563Y-121147319D01*
X155574224Y-121065683D01*
X155632950Y-120919598D01*
X155634793Y-120906649D01*
X155654562Y-120767744D01*
X155654562Y-120767740D01*
X155655134Y-120763723D01*
X155655278Y-120750000D01*
X155646387Y-120676530D01*
X155637262Y-120601119D01*
X155637261Y-120601115D01*
X155636363Y-120593694D01*
X155606145Y-120513723D01*
X155583354Y-120453408D01*
X155583352Y-120453405D01*
X155580710Y-120446412D01*
X155572337Y-120434229D01*
X155495768Y-120322821D01*
X155495765Y-120322818D01*
X155491531Y-120316657D01*
X155417011Y-120250262D01*
X155380052Y-120190968D01*
X155375500Y-120157679D01*
X155375500Y-116803284D01*
X155378047Y-116779349D01*
X155378113Y-116777948D01*
X155380269Y-116767934D01*
X155376359Y-116734898D01*
X155376012Y-116729016D01*
X155375922Y-116729023D01*
X155375500Y-116723918D01*
X155375500Y-116718807D01*
X155372361Y-116699947D01*
X155371539Y-116694168D01*
X155366781Y-116653968D01*
X155366780Y-116653966D01*
X155365576Y-116643790D01*
X155361654Y-116635623D01*
X155360167Y-116626687D01*
X155336077Y-116582042D01*
X155333425Y-116576837D01*
X155314840Y-116538133D01*
X155311463Y-116531100D01*
X155307906Y-116526869D01*
X155306020Y-116524983D01*
X155304249Y-116523053D01*
X155304221Y-116523000D01*
X155304348Y-116522883D01*
X155303857Y-116522326D01*
X155300806Y-116516671D01*
X155261619Y-116480447D01*
X155258109Y-116477072D01*
X150524175Y-111743138D01*
X152844758Y-111743138D01*
X152845578Y-111750566D01*
X152845578Y-111750568D01*
X152847474Y-111767744D01*
X152862035Y-111899633D01*
X152916143Y-112047490D01*
X153003958Y-112178172D01*
X153026183Y-112198395D01*
X153114878Y-112279102D01*
X153114882Y-112279105D01*
X153120410Y-112284135D01*
X153258776Y-112359262D01*
X153361031Y-112386088D01*
X153403841Y-112397319D01*
X153403843Y-112397319D01*
X153411069Y-112399215D01*
X153488127Y-112400425D01*
X153561025Y-112401571D01*
X153561028Y-112401571D01*
X153568495Y-112401688D01*
X153575776Y-112400020D01*
X153575780Y-112400020D01*
X153714681Y-112368207D01*
X153721968Y-112366538D01*
X153862625Y-112295795D01*
X153868306Y-112290943D01*
X153868309Y-112290941D01*
X153976666Y-112198395D01*
X153976667Y-112198394D01*
X153982348Y-112193542D01*
X153993393Y-112178172D01*
X154013798Y-112149775D01*
X154074224Y-112065683D01*
X154132950Y-111919598D01*
X154134793Y-111906649D01*
X154154562Y-111767744D01*
X154154562Y-111767740D01*
X154155134Y-111763723D01*
X154155278Y-111750000D01*
X154136363Y-111593694D01*
X154080710Y-111446412D01*
X154056935Y-111411819D01*
X153995768Y-111322821D01*
X153995765Y-111322818D01*
X153991531Y-111316657D01*
X153912865Y-111246568D01*
X153879559Y-111216893D01*
X153879558Y-111216892D01*
X153873976Y-111211919D01*
X153734831Y-111138245D01*
X153582128Y-111099889D01*
X153500329Y-111099461D01*
X153432158Y-111099104D01*
X153432157Y-111099104D01*
X153424684Y-111099065D01*
X153417421Y-111100809D01*
X153417418Y-111100809D01*
X153348136Y-111117442D01*
X153271588Y-111135820D01*
X153131679Y-111208032D01*
X153126048Y-111212945D01*
X153126047Y-111212945D01*
X153076452Y-111256210D01*
X153013034Y-111311533D01*
X152922501Y-111440348D01*
X152865309Y-111587039D01*
X152844758Y-111743138D01*
X150524175Y-111743138D01*
X149893043Y-111112006D01*
X149859558Y-111050683D01*
X149864542Y-110980991D01*
X149906414Y-110925058D01*
X149971878Y-110900641D01*
X149982671Y-110900340D01*
X150061025Y-110901571D01*
X150061028Y-110901571D01*
X150068495Y-110901688D01*
X150075776Y-110900020D01*
X150075780Y-110900020D01*
X150214681Y-110868207D01*
X150221968Y-110866538D01*
X150362625Y-110795795D01*
X150368306Y-110790943D01*
X150368309Y-110790941D01*
X150476666Y-110698395D01*
X150476667Y-110698394D01*
X150482348Y-110693542D01*
X150493393Y-110678172D01*
X150534642Y-110620767D01*
X150574224Y-110565683D01*
X150632950Y-110419598D01*
X150634792Y-110406656D01*
X150654562Y-110267744D01*
X150654562Y-110267740D01*
X150655134Y-110263723D01*
X150655278Y-110250000D01*
X150636363Y-110093694D01*
X150580710Y-109946412D01*
X150572337Y-109934229D01*
X150495768Y-109822821D01*
X150495765Y-109822818D01*
X150491531Y-109816657D01*
X150485945Y-109811680D01*
X150481488Y-109806625D01*
X150451918Y-109743321D01*
X150450500Y-109724620D01*
X150450500Y-109291123D01*
X156522501Y-109291123D01*
X156522502Y-110585876D01*
X156529150Y-110647080D01*
X156579475Y-110781324D01*
X156584770Y-110788389D01*
X156584771Y-110788391D01*
X156590320Y-110795795D01*
X156665455Y-110896046D01*
X156672520Y-110901341D01*
X156773110Y-110976730D01*
X156773112Y-110976731D01*
X156780177Y-110982026D01*
X156914421Y-111032351D01*
X156975624Y-111039000D01*
X157772882Y-111039000D01*
X158570377Y-111038999D01*
X158631581Y-111032351D01*
X158765825Y-110982026D01*
X158772890Y-110976731D01*
X158772892Y-110976730D01*
X158873482Y-110901341D01*
X158880547Y-110896046D01*
X158955682Y-110795795D01*
X158961231Y-110788391D01*
X158961232Y-110788389D01*
X158966527Y-110781324D01*
X159016852Y-110647080D01*
X159023501Y-110585877D01*
X159023500Y-109291124D01*
X159016852Y-109229920D01*
X158966527Y-109095676D01*
X158880547Y-108980954D01*
X158873482Y-108975659D01*
X158772892Y-108900270D01*
X158772890Y-108900269D01*
X158765825Y-108894974D01*
X158631581Y-108844649D01*
X158570378Y-108838000D01*
X157773120Y-108838000D01*
X156975625Y-108838001D01*
X156914421Y-108844649D01*
X156780177Y-108894974D01*
X156773112Y-108900269D01*
X156773110Y-108900270D01*
X156672520Y-108975659D01*
X156665455Y-108980954D01*
X156579475Y-109095676D01*
X156529150Y-109229920D01*
X156522501Y-109291123D01*
X150450500Y-109291123D01*
X150450500Y-107487965D01*
X150470185Y-107420926D01*
X150486819Y-107400284D01*
X152544441Y-105342663D01*
X152555354Y-105332965D01*
X152574830Y-105317611D01*
X152582110Y-105311872D01*
X152615473Y-105263600D01*
X152617737Y-105260432D01*
X152647127Y-105220640D01*
X152652635Y-105213183D01*
X152655029Y-105206366D01*
X152659131Y-105200431D01*
X152676826Y-105144481D01*
X152678041Y-105140838D01*
X152697520Y-105085369D01*
X152697799Y-105078267D01*
X152697851Y-105078005D01*
X152699980Y-105071270D01*
X152700500Y-105064663D01*
X152700500Y-105011957D01*
X152700596Y-105007088D01*
X152702475Y-104959269D01*
X152702839Y-104950006D01*
X152700960Y-104942922D01*
X152700500Y-104934557D01*
X152700500Y-104275195D01*
X152720185Y-104208156D01*
X152729756Y-104195756D01*
X152732348Y-104193542D01*
X152824224Y-104065683D01*
X152882950Y-103919598D01*
X152884003Y-103912201D01*
X152904562Y-103767744D01*
X152904562Y-103767740D01*
X152905134Y-103763723D01*
X152905278Y-103750000D01*
X152900670Y-103711919D01*
X152887262Y-103601119D01*
X152887261Y-103601115D01*
X152886363Y-103593694D01*
X152830710Y-103446412D01*
X152822337Y-103434229D01*
X152745768Y-103322821D01*
X152745765Y-103322818D01*
X152741531Y-103316657D01*
X152623976Y-103211919D01*
X152484831Y-103138245D01*
X152332128Y-103099889D01*
X152250329Y-103099461D01*
X152182158Y-103099104D01*
X152182157Y-103099104D01*
X152174684Y-103099065D01*
X152167421Y-103100809D01*
X152167418Y-103100809D01*
X152098136Y-103117442D01*
X152021588Y-103135820D01*
X151881679Y-103208032D01*
X151763034Y-103311533D01*
X151672501Y-103440348D01*
X151615309Y-103587039D01*
X151594758Y-103743138D01*
X151595578Y-103750566D01*
X151595578Y-103750568D01*
X151597474Y-103767744D01*
X151612035Y-103899633D01*
X151614601Y-103906645D01*
X151614602Y-103906649D01*
X151633814Y-103959146D01*
X151666143Y-104047490D01*
X151670314Y-104053697D01*
X151744743Y-104164458D01*
X151753958Y-104178172D01*
X151759488Y-104183204D01*
X151764372Y-104188862D01*
X151763272Y-104189811D01*
X151795290Y-104242395D01*
X151799500Y-104274432D01*
X151799500Y-104762034D01*
X151779815Y-104829073D01*
X151763181Y-104849715D01*
X149705565Y-106907331D01*
X149694654Y-106917028D01*
X149667890Y-106938128D01*
X149662621Y-106945752D01*
X149634510Y-106986426D01*
X149632281Y-106989546D01*
X149597366Y-107036816D01*
X149594973Y-107043632D01*
X149590869Y-107049569D01*
X149588074Y-107058408D01*
X149573175Y-107105516D01*
X149571943Y-107109209D01*
X149555552Y-107155884D01*
X149555551Y-107155888D01*
X149552481Y-107164631D01*
X149552202Y-107171735D01*
X149552153Y-107171986D01*
X149550020Y-107178730D01*
X149549500Y-107185337D01*
X149549500Y-107238068D01*
X149549404Y-107242937D01*
X149547162Y-107299994D01*
X149549040Y-107307078D01*
X149549500Y-107315438D01*
X149549500Y-109724777D01*
X149529815Y-109791816D01*
X149518204Y-109807023D01*
X149513034Y-109811533D01*
X149422501Y-109940348D01*
X149365309Y-110087039D01*
X149344758Y-110243138D01*
X149345578Y-110250566D01*
X149345578Y-110250568D01*
X149347474Y-110267744D01*
X149362035Y-110399633D01*
X149364602Y-110406648D01*
X149364604Y-110406656D01*
X149382964Y-110456826D01*
X149387518Y-110526547D01*
X149353654Y-110587662D01*
X149292125Y-110620767D01*
X149271388Y-110623344D01*
X149250710Y-110624157D01*
X149244417Y-110624404D01*
X149239551Y-110624500D01*
X146956899Y-110624500D01*
X146889860Y-110604815D01*
X146869218Y-110588181D01*
X143911819Y-107630782D01*
X143878334Y-107569459D01*
X143875500Y-107543101D01*
X143875500Y-104553284D01*
X143878047Y-104529349D01*
X143878113Y-104527948D01*
X143880269Y-104517934D01*
X143876359Y-104484898D01*
X143876012Y-104479016D01*
X143875922Y-104479023D01*
X143875500Y-104473918D01*
X143875500Y-104468807D01*
X143874660Y-104463763D01*
X143874239Y-104458665D01*
X143876683Y-104458463D01*
X143881288Y-104420667D01*
X143868109Y-104404407D01*
X143865942Y-104396880D01*
X143865576Y-104393790D01*
X143861654Y-104385623D01*
X143860167Y-104376687D01*
X143836077Y-104332042D01*
X143833426Y-104326838D01*
X143819116Y-104297038D01*
X143807841Y-104228084D01*
X143835635Y-104163980D01*
X143893673Y-104125080D01*
X143963530Y-104123732D01*
X144018577Y-104155680D01*
X144062567Y-104199670D01*
X144096052Y-104260993D01*
X144098137Y-104273742D01*
X144104573Y-104332043D01*
X144105785Y-104343020D01*
X144098773Y-104382531D01*
X144109443Y-104394322D01*
X144114230Y-104405632D01*
X144129394Y-104447069D01*
X144163434Y-104540086D01*
X144166143Y-104547490D01*
X144253958Y-104678172D01*
X144285529Y-104706899D01*
X144364878Y-104779102D01*
X144364882Y-104779105D01*
X144370410Y-104784135D01*
X144376980Y-104787702D01*
X144376981Y-104787703D01*
X144502208Y-104855696D01*
X144508776Y-104859262D01*
X144590806Y-104880782D01*
X144653841Y-104897319D01*
X144653843Y-104897319D01*
X144661069Y-104899215D01*
X144738127Y-104900425D01*
X144811025Y-104901571D01*
X144811028Y-104901571D01*
X144818495Y-104901688D01*
X144825776Y-104900020D01*
X144825780Y-104900020D01*
X144964681Y-104868207D01*
X144971968Y-104866538D01*
X145112625Y-104795795D01*
X145169968Y-104746819D01*
X145233730Y-104718249D01*
X145302816Y-104728687D01*
X145355292Y-104774818D01*
X145374500Y-104841110D01*
X145374500Y-107407915D01*
X145354815Y-107474954D01*
X145332015Y-107501357D01*
X145263034Y-107561533D01*
X145172501Y-107690348D01*
X145169785Y-107697313D01*
X145169785Y-107697314D01*
X145164873Y-107709914D01*
X145115309Y-107837039D01*
X145094758Y-107993138D01*
X145095578Y-108000566D01*
X145095578Y-108000568D01*
X145097474Y-108017744D01*
X145112035Y-108149633D01*
X145166143Y-108297490D01*
X145253958Y-108428172D01*
X145291716Y-108462529D01*
X145364878Y-108529102D01*
X145364882Y-108529105D01*
X145370410Y-108534135D01*
X145376980Y-108537702D01*
X145376981Y-108537703D01*
X145502208Y-108605696D01*
X145508776Y-108609262D01*
X145593882Y-108631589D01*
X145653841Y-108647319D01*
X145653843Y-108647319D01*
X145661069Y-108649215D01*
X145738127Y-108650425D01*
X145811025Y-108651571D01*
X145811028Y-108651571D01*
X145818495Y-108651688D01*
X145825776Y-108650020D01*
X145825780Y-108650020D01*
X145964681Y-108618207D01*
X145971968Y-108616538D01*
X146112625Y-108545795D01*
X146118306Y-108540943D01*
X146118309Y-108540941D01*
X146226666Y-108448395D01*
X146226667Y-108448394D01*
X146232348Y-108443542D01*
X146243393Y-108428172D01*
X146273210Y-108386676D01*
X146324224Y-108315683D01*
X146382950Y-108169598D01*
X146384951Y-108155537D01*
X146404562Y-108017744D01*
X146404562Y-108017740D01*
X146405134Y-108013723D01*
X146405278Y-108000000D01*
X146403551Y-107985727D01*
X146387262Y-107851119D01*
X146387261Y-107851115D01*
X146386363Y-107843694D01*
X146369873Y-107800053D01*
X146333354Y-107703408D01*
X146333352Y-107703405D01*
X146330710Y-107696412D01*
X146322337Y-107684229D01*
X146245768Y-107572821D01*
X146245765Y-107572818D01*
X146241531Y-107566657D01*
X146167011Y-107500262D01*
X146130052Y-107440968D01*
X146125500Y-107407679D01*
X146125500Y-102985024D01*
X146145185Y-102917985D01*
X146197989Y-102872230D01*
X146267147Y-102862286D01*
X146280959Y-102865082D01*
X146360222Y-102885876D01*
X146403841Y-102897319D01*
X146403843Y-102897319D01*
X146411069Y-102899215D01*
X146488127Y-102900425D01*
X146561025Y-102901571D01*
X146561028Y-102901571D01*
X146568495Y-102901688D01*
X146575776Y-102900020D01*
X146575780Y-102900020D01*
X146714681Y-102868207D01*
X146721968Y-102866538D01*
X146862625Y-102795795D01*
X146868306Y-102790943D01*
X146868309Y-102790941D01*
X146976666Y-102698395D01*
X146976667Y-102698394D01*
X146982348Y-102693542D01*
X147074224Y-102565683D01*
X147132950Y-102419598D01*
X147155134Y-102263723D01*
X147155278Y-102250000D01*
X147136363Y-102093694D01*
X147080710Y-101946412D01*
X147076473Y-101940247D01*
X146995768Y-101822821D01*
X146995765Y-101822818D01*
X146991531Y-101816657D01*
X146917011Y-101750262D01*
X146880052Y-101690968D01*
X146875500Y-101657679D01*
X146875500Y-96341964D01*
X146895185Y-96274925D01*
X146918968Y-96247674D01*
X146976666Y-96198395D01*
X146982348Y-96193542D01*
X147074224Y-96065683D01*
X147132950Y-95919598D01*
X147137270Y-95889247D01*
X147154562Y-95767744D01*
X147154562Y-95767740D01*
X147155134Y-95763723D01*
X147155278Y-95750000D01*
X147149583Y-95702940D01*
X147137262Y-95601119D01*
X147137261Y-95601115D01*
X147136363Y-95593694D01*
X147112337Y-95530111D01*
X147083354Y-95453408D01*
X147083352Y-95453405D01*
X147080710Y-95446412D01*
X147068248Y-95428280D01*
X146995768Y-95322821D01*
X146995765Y-95322818D01*
X146991531Y-95316657D01*
X146873976Y-95211919D01*
X146734831Y-95138245D01*
X146582128Y-95099889D01*
X146500329Y-95099461D01*
X146432158Y-95099104D01*
X146432157Y-95099104D01*
X146424684Y-95099065D01*
X146417421Y-95100809D01*
X146417418Y-95100809D01*
X146374246Y-95111174D01*
X146271588Y-95135820D01*
X146131679Y-95208032D01*
X146013034Y-95311533D01*
X145922501Y-95440348D01*
X145865309Y-95587039D01*
X145864333Y-95594453D01*
X145844974Y-95741497D01*
X145816707Y-95805393D01*
X145758383Y-95843864D01*
X145721387Y-95849309D01*
X145682159Y-95849104D01*
X145682158Y-95849104D01*
X145674684Y-95849065D01*
X145667421Y-95850809D01*
X145667418Y-95850809D01*
X145614899Y-95863418D01*
X145521588Y-95885820D01*
X145381679Y-95958032D01*
X145263034Y-96061533D01*
X145172501Y-96190348D01*
X145115309Y-96337039D01*
X145094758Y-96493138D01*
X145095578Y-96500566D01*
X145095578Y-96500568D01*
X145107616Y-96609602D01*
X145112035Y-96649633D01*
X145114601Y-96656645D01*
X145114602Y-96656649D01*
X145129804Y-96698190D01*
X145166143Y-96797490D01*
X145180867Y-96819401D01*
X145234781Y-96899633D01*
X145253958Y-96928172D01*
X145333955Y-97000963D01*
X145370290Y-97060640D01*
X145374500Y-97092676D01*
X145374500Y-103658570D01*
X145354815Y-103725609D01*
X145302011Y-103771364D01*
X145232853Y-103781308D01*
X145168011Y-103751153D01*
X145167355Y-103750568D01*
X145123976Y-103711919D01*
X144984831Y-103638245D01*
X144832128Y-103599889D01*
X144798526Y-103599713D01*
X144787472Y-103599655D01*
X144720537Y-103579620D01*
X144700441Y-103563338D01*
X138249118Y-97112015D01*
X138215633Y-97050692D01*
X138212799Y-97024334D01*
X138212799Y-89762896D01*
X138232484Y-89695857D01*
X138242055Y-89683457D01*
X138244647Y-89681243D01*
X138336523Y-89553384D01*
X138395249Y-89407299D01*
X138396412Y-89399130D01*
X138416861Y-89255445D01*
X138416861Y-89255441D01*
X138417433Y-89251424D01*
X138417577Y-89237701D01*
X138415850Y-89223428D01*
X138399561Y-89088820D01*
X138399560Y-89088816D01*
X138398662Y-89081395D01*
X138372650Y-89012556D01*
X138345653Y-88941109D01*
X138345651Y-88941106D01*
X138343009Y-88934113D01*
X138264398Y-88819734D01*
X138242648Y-88753337D01*
X138260249Y-88685720D01*
X138311612Y-88638354D01*
X138366589Y-88625500D01*
X138543101Y-88625500D01*
X138610140Y-88645185D01*
X138630782Y-88661819D01*
X139065169Y-89096207D01*
X139098654Y-89157530D01*
X139100427Y-89200072D01*
X139097353Y-89223428D01*
X139094758Y-89243138D01*
X139095578Y-89250566D01*
X139095578Y-89250568D01*
X139107052Y-89354500D01*
X139112035Y-89399633D01*
X139114601Y-89406645D01*
X139114602Y-89406649D01*
X139144206Y-89487544D01*
X139166143Y-89547490D01*
X139253958Y-89678172D01*
X139273394Y-89695857D01*
X139364878Y-89779102D01*
X139364882Y-89779105D01*
X139370410Y-89784135D01*
X139376980Y-89787702D01*
X139376981Y-89787703D01*
X139418130Y-89810045D01*
X139508776Y-89859262D01*
X139611031Y-89886088D01*
X139653841Y-89897319D01*
X139653843Y-89897319D01*
X139661069Y-89899215D01*
X139736313Y-89900397D01*
X139811025Y-89901571D01*
X139811028Y-89901571D01*
X139818495Y-89901688D01*
X139825776Y-89900020D01*
X139825780Y-89900020D01*
X139971968Y-89866538D01*
X139972667Y-89869589D01*
X140028198Y-89866235D01*
X140089146Y-89900397D01*
X140121951Y-89962087D01*
X140124500Y-89987102D01*
X140124500Y-93293101D01*
X140104815Y-93360140D01*
X140088181Y-93380782D01*
X139022161Y-94446802D01*
X139003432Y-94461929D01*
X139002398Y-94462870D01*
X138993790Y-94468428D01*
X138987448Y-94476473D01*
X138973193Y-94494555D01*
X138969280Y-94498958D01*
X138969350Y-94499017D01*
X138966043Y-94502920D01*
X138962425Y-94506538D01*
X138959451Y-94510700D01*
X138951321Y-94522077D01*
X138947830Y-94526728D01*
X138916397Y-94566600D01*
X138913395Y-94575149D01*
X138908128Y-94582519D01*
X138905191Y-94592340D01*
X138893594Y-94631118D01*
X138891788Y-94636676D01*
X138887929Y-94647667D01*
X138874977Y-94684548D01*
X138874500Y-94690055D01*
X138874500Y-94692739D01*
X138874387Y-94695341D01*
X138874365Y-94695415D01*
X138874196Y-94695408D01*
X138874150Y-94696133D01*
X138872310Y-94702287D01*
X138872712Y-94712526D01*
X138872712Y-94712529D01*
X138874404Y-94755581D01*
X138874500Y-94760449D01*
X138874500Y-96446716D01*
X138871953Y-96470651D01*
X138871887Y-96472052D01*
X138869731Y-96482066D01*
X138870935Y-96492239D01*
X138873641Y-96515102D01*
X138873988Y-96520984D01*
X138874078Y-96520977D01*
X138874500Y-96526082D01*
X138874500Y-96531193D01*
X138875339Y-96536233D01*
X138877639Y-96550053D01*
X138878461Y-96555832D01*
X138883219Y-96596032D01*
X138884424Y-96606210D01*
X138888346Y-96614377D01*
X138889833Y-96623313D01*
X138910529Y-96661669D01*
X138913922Y-96667957D01*
X138916574Y-96673160D01*
X138938537Y-96718900D01*
X138942094Y-96723131D01*
X138943980Y-96725017D01*
X138945751Y-96726947D01*
X138945779Y-96727000D01*
X138945652Y-96727117D01*
X138946143Y-96727674D01*
X138949194Y-96733329D01*
X138956722Y-96740288D01*
X138988379Y-96769552D01*
X138991888Y-96772926D01*
X139565169Y-97346207D01*
X139598654Y-97407530D01*
X139600427Y-97450072D01*
X139597718Y-97470651D01*
X139594758Y-97493138D01*
X139595578Y-97500566D01*
X139595578Y-97500568D01*
X139601041Y-97550053D01*
X139612035Y-97649633D01*
X139614601Y-97656645D01*
X139614602Y-97656649D01*
X139624084Y-97682558D01*
X139666143Y-97797490D01*
X139670314Y-97803697D01*
X139734781Y-97899633D01*
X139753958Y-97928172D01*
X139776183Y-97948395D01*
X139864878Y-98029102D01*
X139864882Y-98029105D01*
X139870410Y-98034135D01*
X139876980Y-98037702D01*
X139876981Y-98037703D01*
X139915745Y-98058750D01*
X140008776Y-98109262D01*
X140111031Y-98136088D01*
X140153841Y-98147319D01*
X140153843Y-98147319D01*
X140161069Y-98149215D01*
X140238127Y-98150425D01*
X140311025Y-98151571D01*
X140311028Y-98151571D01*
X140318495Y-98151688D01*
X140325776Y-98150020D01*
X140325780Y-98150020D01*
X140464681Y-98118207D01*
X140471968Y-98116538D01*
X140612625Y-98045795D01*
X140618306Y-98040943D01*
X140618309Y-98040941D01*
X140726666Y-97948395D01*
X140726667Y-97948394D01*
X140732348Y-97943542D01*
X140743393Y-97928172D01*
X140769237Y-97892205D01*
X140824224Y-97815683D01*
X140882950Y-97669598D01*
X140884793Y-97656649D01*
X140904562Y-97517744D01*
X140904562Y-97517740D01*
X140905134Y-97513723D01*
X140905278Y-97500000D01*
X140905141Y-97498868D01*
X140920954Y-97431508D01*
X140971163Y-97382919D01*
X141039670Y-97369189D01*
X141060263Y-97372770D01*
X141149809Y-97396261D01*
X141161069Y-97399215D01*
X141225383Y-97400225D01*
X141292104Y-97420960D01*
X141337024Y-97474476D01*
X141346686Y-97510603D01*
X141349516Y-97536233D01*
X141362035Y-97649633D01*
X141364601Y-97656645D01*
X141364602Y-97656649D01*
X141374084Y-97682558D01*
X141416143Y-97797490D01*
X141420314Y-97803697D01*
X141484781Y-97899633D01*
X141503958Y-97928172D01*
X141526183Y-97948395D01*
X141614878Y-98029102D01*
X141614882Y-98029105D01*
X141620410Y-98034135D01*
X141626980Y-98037702D01*
X141626981Y-98037703D01*
X141665745Y-98058750D01*
X141758776Y-98109262D01*
X141861031Y-98136088D01*
X141903841Y-98147319D01*
X141903843Y-98147319D01*
X141911069Y-98149215D01*
X141988127Y-98150425D01*
X142061025Y-98151571D01*
X142061028Y-98151571D01*
X142068495Y-98151688D01*
X142075776Y-98150020D01*
X142075780Y-98150020D01*
X142214681Y-98118207D01*
X142221968Y-98116538D01*
X142362625Y-98045795D01*
X142368306Y-98040943D01*
X142368309Y-98040941D01*
X142476666Y-97948395D01*
X142476667Y-97948394D01*
X142482348Y-97943542D01*
X142493393Y-97928172D01*
X142519237Y-97892205D01*
X142574224Y-97815683D01*
X142632950Y-97669598D01*
X142634793Y-97656649D01*
X142654562Y-97517744D01*
X142654562Y-97517740D01*
X142655134Y-97513723D01*
X142655278Y-97500000D01*
X142651096Y-97465445D01*
X142637261Y-97351114D01*
X142637261Y-97351113D01*
X142636363Y-97343694D01*
X142633721Y-97336703D01*
X142631938Y-97329442D01*
X142633774Y-97328991D01*
X142630061Y-97297621D01*
X142627690Y-97297714D01*
X142625596Y-97244420D01*
X142625500Y-97239552D01*
X142625500Y-94963830D01*
X156965624Y-94963830D01*
X156975944Y-95127860D01*
X156978354Y-95135278D01*
X156978355Y-95135282D01*
X157004149Y-95214666D01*
X157026732Y-95284171D01*
X157047979Y-95317650D01*
X157110617Y-95416353D01*
X157110620Y-95416357D01*
X157114798Y-95422940D01*
X157120485Y-95428280D01*
X157228923Y-95530111D01*
X157228926Y-95530113D01*
X157234607Y-95535448D01*
X157241435Y-95539202D01*
X157241438Y-95539204D01*
X157371797Y-95610870D01*
X157371801Y-95610872D01*
X157378632Y-95614627D01*
X157537823Y-95655500D01*
X157660925Y-95655500D01*
X157664785Y-95655012D01*
X157664791Y-95655012D01*
X157775317Y-95641049D01*
X157775318Y-95641049D01*
X157783058Y-95640071D01*
X157790310Y-95637200D01*
X157790313Y-95637199D01*
X157881439Y-95601119D01*
X157935871Y-95579568D01*
X158068837Y-95482963D01*
X158119027Y-95422293D01*
X158168631Y-95362333D01*
X158168632Y-95362331D01*
X158173600Y-95356326D01*
X158243579Y-95207613D01*
X158246873Y-95190348D01*
X158263953Y-95100809D01*
X158274376Y-95046170D01*
X158264056Y-94882140D01*
X158261646Y-94874722D01*
X158261645Y-94874718D01*
X158215679Y-94733250D01*
X158213268Y-94725829D01*
X158163665Y-94647667D01*
X158129383Y-94593647D01*
X158129380Y-94593643D01*
X158125202Y-94587060D01*
X158061284Y-94527037D01*
X158011077Y-94479889D01*
X158011074Y-94479887D01*
X158005393Y-94474552D01*
X157998565Y-94470798D01*
X157998562Y-94470796D01*
X157868203Y-94399130D01*
X157868199Y-94399128D01*
X157861368Y-94395373D01*
X157702177Y-94354500D01*
X157579075Y-94354500D01*
X157575215Y-94354988D01*
X157575209Y-94354988D01*
X157464683Y-94368951D01*
X157464682Y-94368951D01*
X157456942Y-94369929D01*
X157449690Y-94372800D01*
X157449687Y-94372801D01*
X157392678Y-94395373D01*
X157304129Y-94430432D01*
X157171163Y-94527037D01*
X157142502Y-94561682D01*
X157116059Y-94593647D01*
X157066400Y-94653674D01*
X157063082Y-94660725D01*
X157052022Y-94684229D01*
X156996421Y-94802387D01*
X156994960Y-94810044D01*
X156994960Y-94810045D01*
X156987517Y-94849065D01*
X156965624Y-94963830D01*
X142625500Y-94963830D01*
X142625500Y-92243138D01*
X146344758Y-92243138D01*
X146345578Y-92250566D01*
X146345578Y-92250568D01*
X146347474Y-92267744D01*
X146362035Y-92399633D01*
X146364601Y-92406645D01*
X146364602Y-92406649D01*
X146394206Y-92487544D01*
X146416143Y-92547490D01*
X146503958Y-92678172D01*
X146526183Y-92698395D01*
X146614878Y-92779102D01*
X146614882Y-92779105D01*
X146620410Y-92784135D01*
X146758776Y-92859262D01*
X146861031Y-92886088D01*
X146903841Y-92897319D01*
X146903843Y-92897319D01*
X146911069Y-92899215D01*
X146988127Y-92900425D01*
X147061025Y-92901571D01*
X147061028Y-92901571D01*
X147068495Y-92901688D01*
X147075776Y-92900020D01*
X147075780Y-92900020D01*
X147214681Y-92868207D01*
X147221968Y-92866538D01*
X147362625Y-92795795D01*
X147368306Y-92790943D01*
X147368309Y-92790941D01*
X147476666Y-92698395D01*
X147476667Y-92698394D01*
X147482348Y-92693542D01*
X147493393Y-92678172D01*
X147513798Y-92649775D01*
X147574224Y-92565683D01*
X147632950Y-92419598D01*
X147635499Y-92401688D01*
X147654562Y-92267744D01*
X147654562Y-92267740D01*
X147655134Y-92263723D01*
X147655278Y-92250000D01*
X147636363Y-92093694D01*
X147627276Y-92069646D01*
X147583354Y-91953408D01*
X147583352Y-91953405D01*
X147580710Y-91946412D01*
X147567566Y-91927287D01*
X147495768Y-91822821D01*
X147495765Y-91822818D01*
X147491531Y-91816657D01*
X147412191Y-91745967D01*
X147379559Y-91716893D01*
X147379558Y-91716892D01*
X147373976Y-91711919D01*
X147234831Y-91638245D01*
X147082128Y-91599889D01*
X147000329Y-91599461D01*
X146932158Y-91599104D01*
X146932157Y-91599104D01*
X146924684Y-91599065D01*
X146917421Y-91600809D01*
X146917418Y-91600809D01*
X146848136Y-91617443D01*
X146771588Y-91635820D01*
X146631679Y-91708032D01*
X146513034Y-91811533D01*
X146422501Y-91940348D01*
X146365309Y-92087039D01*
X146344758Y-92243138D01*
X142625500Y-92243138D01*
X142625500Y-89963830D01*
X156965624Y-89963830D01*
X156975944Y-90127860D01*
X156978354Y-90135278D01*
X156978355Y-90135282D01*
X156999369Y-90199955D01*
X157026732Y-90284171D01*
X157030914Y-90290760D01*
X157110617Y-90416353D01*
X157110620Y-90416357D01*
X157114798Y-90422940D01*
X157120485Y-90428280D01*
X157228923Y-90530111D01*
X157228926Y-90530113D01*
X157234607Y-90535448D01*
X157241435Y-90539202D01*
X157241438Y-90539204D01*
X157371797Y-90610870D01*
X157371801Y-90610872D01*
X157378632Y-90614627D01*
X157537823Y-90655500D01*
X157660925Y-90655500D01*
X157664785Y-90655012D01*
X157664791Y-90655012D01*
X157775317Y-90641049D01*
X157775318Y-90641049D01*
X157783058Y-90640071D01*
X157790310Y-90637200D01*
X157790313Y-90637199D01*
X157859465Y-90609819D01*
X157935871Y-90579568D01*
X158068837Y-90482963D01*
X158119027Y-90422293D01*
X158168631Y-90362333D01*
X158168632Y-90362331D01*
X158173600Y-90356326D01*
X158243579Y-90207613D01*
X158274376Y-90046170D01*
X158264056Y-89882140D01*
X158261646Y-89874722D01*
X158261645Y-89874718D01*
X158215679Y-89733250D01*
X158213268Y-89725829D01*
X158171877Y-89660608D01*
X158129383Y-89593647D01*
X158129380Y-89593643D01*
X158125202Y-89587060D01*
X158067687Y-89533050D01*
X158011077Y-89479889D01*
X158011074Y-89479887D01*
X158005393Y-89474552D01*
X157998565Y-89470798D01*
X157998562Y-89470796D01*
X157868203Y-89399130D01*
X157868199Y-89399128D01*
X157861368Y-89395373D01*
X157702177Y-89354500D01*
X157579075Y-89354500D01*
X157575215Y-89354988D01*
X157575209Y-89354988D01*
X157464683Y-89368951D01*
X157464682Y-89368951D01*
X157456942Y-89369929D01*
X157449690Y-89372800D01*
X157449687Y-89372801D01*
X157392678Y-89395373D01*
X157304129Y-89430432D01*
X157171163Y-89527037D01*
X157133377Y-89572713D01*
X157116059Y-89593647D01*
X157066400Y-89653674D01*
X157063082Y-89660725D01*
X157060660Y-89665873D01*
X156996421Y-89802387D01*
X156994960Y-89810044D01*
X156994960Y-89810045D01*
X156983601Y-89869589D01*
X156965624Y-89963830D01*
X142625500Y-89963830D01*
X142625500Y-87202940D01*
X142645185Y-87135901D01*
X142697989Y-87090146D01*
X142767147Y-87080202D01*
X142830703Y-87109227D01*
X142865948Y-87160326D01*
X142916143Y-87297490D01*
X143003958Y-87428172D01*
X143026183Y-87448395D01*
X143114878Y-87529102D01*
X143114882Y-87529105D01*
X143120410Y-87534135D01*
X143258776Y-87609262D01*
X143361031Y-87636088D01*
X143403841Y-87647319D01*
X143403843Y-87647319D01*
X143411069Y-87649215D01*
X143488127Y-87650425D01*
X143561025Y-87651571D01*
X143561028Y-87651571D01*
X143568495Y-87651688D01*
X143575776Y-87650020D01*
X143575780Y-87650020D01*
X143714681Y-87618207D01*
X143721968Y-87616538D01*
X143862625Y-87545795D01*
X143868306Y-87540943D01*
X143868309Y-87540941D01*
X143976666Y-87448395D01*
X143976667Y-87448394D01*
X143982348Y-87443542D01*
X143993393Y-87428172D01*
X144033880Y-87371827D01*
X144074224Y-87315683D01*
X144132950Y-87169598D01*
X144134270Y-87160326D01*
X144154562Y-87017744D01*
X144154562Y-87017740D01*
X144155134Y-87013723D01*
X144155278Y-87000000D01*
X144152978Y-86980991D01*
X144137262Y-86851119D01*
X144137261Y-86851115D01*
X144136363Y-86843694D01*
X144080710Y-86696412D01*
X144056935Y-86661819D01*
X143995768Y-86572821D01*
X143995765Y-86572818D01*
X143991531Y-86566657D01*
X143873976Y-86461919D01*
X143734831Y-86388245D01*
X143582128Y-86349889D01*
X143500329Y-86349461D01*
X143432158Y-86349104D01*
X143432157Y-86349104D01*
X143424684Y-86349065D01*
X143417421Y-86350809D01*
X143417418Y-86350809D01*
X143348136Y-86367442D01*
X143271588Y-86385820D01*
X143131679Y-86458032D01*
X143013034Y-86561533D01*
X142922501Y-86690348D01*
X142865309Y-86837039D01*
X142862456Y-86835927D01*
X142833874Y-86883952D01*
X142771352Y-86915142D01*
X142701893Y-86907580D01*
X142647549Y-86863666D01*
X142625500Y-86793083D01*
X142625500Y-86053281D01*
X142628046Y-86029356D01*
X142628112Y-86027952D01*
X142630269Y-86017934D01*
X142627412Y-85993790D01*
X142626359Y-85984898D01*
X142626012Y-85979016D01*
X142625922Y-85979023D01*
X142625500Y-85973918D01*
X142625500Y-85968807D01*
X142622361Y-85949947D01*
X142621539Y-85944168D01*
X142616781Y-85903968D01*
X142616780Y-85903966D01*
X142615576Y-85893790D01*
X142611654Y-85885623D01*
X142610167Y-85876687D01*
X142586077Y-85832042D01*
X142583425Y-85826837D01*
X142564840Y-85788133D01*
X142561463Y-85781100D01*
X142557906Y-85776869D01*
X142556020Y-85774983D01*
X142554249Y-85773053D01*
X142554221Y-85773000D01*
X142554348Y-85772883D01*
X142553857Y-85772326D01*
X142550806Y-85766671D01*
X142511619Y-85730447D01*
X142508109Y-85727072D01*
X141803198Y-85022161D01*
X141788071Y-85003432D01*
X141787130Y-85002398D01*
X141781572Y-84993790D01*
X141755445Y-84973193D01*
X141751042Y-84969280D01*
X141750983Y-84969350D01*
X141747080Y-84966043D01*
X141743462Y-84962425D01*
X141727920Y-84951319D01*
X141723272Y-84947830D01*
X141683400Y-84916397D01*
X141674851Y-84913395D01*
X141667481Y-84908128D01*
X141618877Y-84893592D01*
X141613324Y-84891788D01*
X141572817Y-84877563D01*
X141572814Y-84877562D01*
X141565452Y-84874977D01*
X141559945Y-84874500D01*
X141557261Y-84874500D01*
X141554659Y-84874387D01*
X141554585Y-84874365D01*
X141554592Y-84874196D01*
X141553867Y-84874150D01*
X141547713Y-84872310D01*
X141537474Y-84872712D01*
X141537471Y-84872712D01*
X141494419Y-84874404D01*
X141489551Y-84874500D01*
X141346525Y-84874500D01*
X141279486Y-84854815D01*
X141251522Y-84827705D01*
X141250707Y-84828424D01*
X141245768Y-84822822D01*
X141241531Y-84816657D01*
X141186845Y-84767933D01*
X141129559Y-84716893D01*
X141129558Y-84716892D01*
X141123976Y-84711919D01*
X141117369Y-84708421D01*
X141117365Y-84708418D01*
X141003824Y-84648301D01*
X140953787Y-84599534D01*
X140938059Y-84531458D01*
X140961633Y-84465685D01*
X140972111Y-84454368D01*
X140971603Y-84453901D01*
X140976666Y-84448395D01*
X140982348Y-84443542D01*
X141074224Y-84315683D01*
X141132950Y-84169598D01*
X141147459Y-84067650D01*
X141154562Y-84017744D01*
X141154562Y-84017740D01*
X141155134Y-84013723D01*
X141155278Y-84000000D01*
X141150670Y-83961919D01*
X141137262Y-83851119D01*
X141137261Y-83851115D01*
X141136363Y-83843694D01*
X141094660Y-83733329D01*
X141083354Y-83703408D01*
X141083352Y-83703405D01*
X141080710Y-83696412D01*
X141061153Y-83667957D01*
X140995768Y-83572821D01*
X140995765Y-83572818D01*
X140991531Y-83566657D01*
X140933667Y-83515102D01*
X140879559Y-83466893D01*
X140879558Y-83466892D01*
X140873976Y-83461919D01*
X140734831Y-83388245D01*
X140582128Y-83349889D01*
X140500329Y-83349461D01*
X140432158Y-83349104D01*
X140432157Y-83349104D01*
X140424684Y-83349065D01*
X140417421Y-83350809D01*
X140417418Y-83350809D01*
X140348136Y-83367443D01*
X140271588Y-83385820D01*
X140131679Y-83458032D01*
X140013034Y-83561533D01*
X139922501Y-83690348D01*
X139919785Y-83697313D01*
X139919785Y-83697314D01*
X139905022Y-83735179D01*
X139865309Y-83837039D01*
X139844758Y-83993138D01*
X139845578Y-84000566D01*
X139845578Y-84000569D01*
X139851255Y-84051991D01*
X139839046Y-84120785D01*
X139815685Y-84153278D01*
X139772161Y-84196802D01*
X139753432Y-84211929D01*
X139752398Y-84212870D01*
X139743790Y-84218428D01*
X139737448Y-84226473D01*
X139723193Y-84244555D01*
X139719280Y-84248958D01*
X139719350Y-84249017D01*
X139716043Y-84252920D01*
X139712425Y-84256538D01*
X139709451Y-84260700D01*
X139701321Y-84272077D01*
X139697830Y-84276728D01*
X139666397Y-84316600D01*
X139663395Y-84325149D01*
X139658128Y-84332519D01*
X139652566Y-84351119D01*
X139643594Y-84381118D01*
X139641788Y-84386676D01*
X139624977Y-84434548D01*
X139624500Y-84440055D01*
X139624500Y-84442739D01*
X139624387Y-84445341D01*
X139624365Y-84445415D01*
X139624196Y-84445408D01*
X139624150Y-84446133D01*
X139622310Y-84452287D01*
X139622712Y-84462526D01*
X139622712Y-84462529D01*
X139624404Y-84505581D01*
X139624500Y-84510449D01*
X139624500Y-85544101D01*
X139604815Y-85611140D01*
X139552011Y-85656895D01*
X139482853Y-85666839D01*
X139419297Y-85637814D01*
X139412819Y-85631782D01*
X138661819Y-84880782D01*
X138628334Y-84819459D01*
X138625500Y-84793101D01*
X138625500Y-82053284D01*
X138628047Y-82029349D01*
X138628113Y-82027948D01*
X138630269Y-82017934D01*
X138626359Y-81984898D01*
X138626012Y-81979010D01*
X138625921Y-81979018D01*
X138625500Y-81973923D01*
X138625500Y-81968807D01*
X138624661Y-81963764D01*
X138624660Y-81963756D01*
X138622359Y-81949928D01*
X138621537Y-81944150D01*
X138616781Y-81903973D01*
X138615576Y-81893791D01*
X138611655Y-81885625D01*
X138610167Y-81876687D01*
X138605302Y-81867671D01*
X138605301Y-81867667D01*
X138586069Y-81832023D01*
X138583417Y-81826818D01*
X138564842Y-81788135D01*
X138564839Y-81788130D01*
X138561463Y-81781100D01*
X138557906Y-81776869D01*
X138556021Y-81774984D01*
X138554249Y-81773053D01*
X138554221Y-81773000D01*
X138554348Y-81772883D01*
X138553857Y-81772326D01*
X138550806Y-81766671D01*
X138511619Y-81730447D01*
X138508109Y-81727072D01*
X136435195Y-79654158D01*
X136401710Y-79592835D01*
X136400113Y-79549007D01*
X136404561Y-79517748D01*
X136405134Y-79513723D01*
X136405278Y-79500000D01*
X136386363Y-79343694D01*
X136330710Y-79196412D01*
X136322337Y-79184229D01*
X136245768Y-79072821D01*
X136245765Y-79072818D01*
X136241531Y-79066657D01*
X136123976Y-78961919D01*
X135984831Y-78888245D01*
X135832128Y-78849889D01*
X135750329Y-78849461D01*
X135682158Y-78849104D01*
X135682157Y-78849104D01*
X135674684Y-78849065D01*
X135667421Y-78850809D01*
X135667418Y-78850809D01*
X135598136Y-78867443D01*
X135521588Y-78885820D01*
X135381679Y-78958032D01*
X135263034Y-79061533D01*
X135172501Y-79190348D01*
X135115309Y-79337039D01*
X135112323Y-79335875D01*
X135084012Y-79383467D01*
X135021497Y-79414671D01*
X134952036Y-79407123D01*
X134897683Y-79363220D01*
X134883625Y-79336447D01*
X134833354Y-79203409D01*
X134830710Y-79196412D01*
X134822337Y-79184229D01*
X134745768Y-79072821D01*
X134745765Y-79072818D01*
X134741531Y-79066657D01*
X134623976Y-78961919D01*
X134484831Y-78888245D01*
X134332128Y-78849889D01*
X134250329Y-78849461D01*
X134182158Y-78849104D01*
X134182157Y-78849104D01*
X134174684Y-78849065D01*
X134167421Y-78850809D01*
X134167418Y-78850809D01*
X134098136Y-78867443D01*
X134021588Y-78885820D01*
X133881679Y-78958032D01*
X133763034Y-79061533D01*
X133672501Y-79190348D01*
X133615309Y-79337039D01*
X133594758Y-79493138D01*
X133595578Y-79500566D01*
X133595578Y-79500568D01*
X133607698Y-79610346D01*
X133612035Y-79649633D01*
X133666143Y-79797490D01*
X133753958Y-79928172D01*
X133776183Y-79948395D01*
X133864878Y-80029102D01*
X133864882Y-80029105D01*
X133870410Y-80034135D01*
X134008776Y-80109262D01*
X134111031Y-80136088D01*
X134153841Y-80147319D01*
X134153843Y-80147319D01*
X134161069Y-80149215D01*
X134318495Y-80151688D01*
X134318453Y-80154357D01*
X134374801Y-80164671D01*
X134406696Y-80187733D01*
X135088181Y-80869218D01*
X135121666Y-80930541D01*
X135124500Y-80956899D01*
X135124500Y-83446716D01*
X135121953Y-83470651D01*
X135121887Y-83472052D01*
X135119731Y-83482066D01*
X135120935Y-83492239D01*
X135123641Y-83515102D01*
X135123988Y-83520984D01*
X135124078Y-83520977D01*
X135124500Y-83526082D01*
X135124500Y-83531193D01*
X135125339Y-83536233D01*
X135127639Y-83550053D01*
X135128461Y-83555832D01*
X135129860Y-83567650D01*
X135134424Y-83606210D01*
X135138346Y-83614377D01*
X135139833Y-83623313D01*
X135163922Y-83667957D01*
X135166574Y-83673160D01*
X135188537Y-83718900D01*
X135192094Y-83723131D01*
X135193980Y-83725017D01*
X135195751Y-83726947D01*
X135195779Y-83727000D01*
X135195652Y-83727117D01*
X135196143Y-83727674D01*
X135199194Y-83733329D01*
X135206723Y-83740289D01*
X135206724Y-83740290D01*
X135238381Y-83769553D01*
X135241891Y-83772928D01*
X136565169Y-85096207D01*
X136598654Y-85157530D01*
X136600427Y-85200072D01*
X136598583Y-85214081D01*
X136594758Y-85243138D01*
X136595578Y-85250566D01*
X136595578Y-85250568D01*
X136605764Y-85342830D01*
X136612035Y-85399633D01*
X136614601Y-85406645D01*
X136614602Y-85406649D01*
X136621219Y-85424730D01*
X136666143Y-85547490D01*
X136670314Y-85553697D01*
X136746343Y-85666839D01*
X136753958Y-85678172D01*
X136796512Y-85716893D01*
X136864878Y-85779102D01*
X136864882Y-85779105D01*
X136870410Y-85784135D01*
X136876980Y-85787702D01*
X136876981Y-85787703D01*
X137002208Y-85855696D01*
X137008776Y-85859262D01*
X137098834Y-85882888D01*
X137153841Y-85897319D01*
X137153843Y-85897319D01*
X137161069Y-85899215D01*
X137238127Y-85900425D01*
X137311025Y-85901571D01*
X137311028Y-85901571D01*
X137318495Y-85901688D01*
X137325776Y-85900020D01*
X137325780Y-85900020D01*
X137464681Y-85868207D01*
X137471968Y-85866538D01*
X137612625Y-85795795D01*
X137618306Y-85790943D01*
X137618309Y-85790941D01*
X137726666Y-85698395D01*
X137726667Y-85698394D01*
X137732348Y-85693542D01*
X137743393Y-85678172D01*
X137799644Y-85599889D01*
X137824224Y-85565683D01*
X137882950Y-85419598D01*
X137883611Y-85419864D01*
X137917008Y-85365069D01*
X137979854Y-85334538D01*
X138049230Y-85342830D01*
X138088102Y-85369139D01*
X138856840Y-86137877D01*
X138890325Y-86199200D01*
X138885341Y-86268892D01*
X138843469Y-86324825D01*
X138778005Y-86349242D01*
X138768510Y-86349556D01*
X138682158Y-86349104D01*
X138682157Y-86349104D01*
X138674684Y-86349065D01*
X138667421Y-86350809D01*
X138667418Y-86350809D01*
X138598136Y-86367442D01*
X138521588Y-86385820D01*
X138381679Y-86458032D01*
X138263034Y-86561533D01*
X138172501Y-86690348D01*
X138115309Y-86837039D01*
X138094758Y-86993138D01*
X138095578Y-87000566D01*
X138095578Y-87000568D01*
X138101041Y-87050053D01*
X138112035Y-87149633D01*
X138114601Y-87156646D01*
X138114603Y-87156653D01*
X138133352Y-87207885D01*
X138137906Y-87277607D01*
X138104043Y-87338722D01*
X138042514Y-87371827D01*
X138016905Y-87374500D01*
X136706899Y-87374500D01*
X136639860Y-87354815D01*
X136619218Y-87338181D01*
X135303198Y-86022161D01*
X135288071Y-86003432D01*
X135287130Y-86002398D01*
X135281572Y-85993790D01*
X135255445Y-85973193D01*
X135251042Y-85969280D01*
X135250983Y-85969350D01*
X135247080Y-85966043D01*
X135243462Y-85962425D01*
X135227920Y-85951319D01*
X135223272Y-85947830D01*
X135183400Y-85916397D01*
X135174851Y-85913395D01*
X135167481Y-85908128D01*
X135118877Y-85893592D01*
X135113324Y-85891788D01*
X135072817Y-85877563D01*
X135072814Y-85877562D01*
X135065452Y-85874977D01*
X135059945Y-85874500D01*
X135057261Y-85874500D01*
X135054659Y-85874387D01*
X135054585Y-85874365D01*
X135054592Y-85874196D01*
X135053867Y-85874150D01*
X135047713Y-85872310D01*
X135037474Y-85872712D01*
X135037471Y-85872712D01*
X134994419Y-85874404D01*
X134989551Y-85874500D01*
X134096525Y-85874500D01*
X134029486Y-85854815D01*
X134001522Y-85827705D01*
X134000707Y-85828424D01*
X133995768Y-85822822D01*
X133991531Y-85816657D01*
X133927615Y-85759710D01*
X133879559Y-85716893D01*
X133879558Y-85716892D01*
X133873976Y-85711919D01*
X133734831Y-85638245D01*
X133582128Y-85599889D01*
X133500329Y-85599461D01*
X133432158Y-85599104D01*
X133432157Y-85599104D01*
X133424684Y-85599065D01*
X133417421Y-85600809D01*
X133417418Y-85600809D01*
X133278447Y-85634173D01*
X133208664Y-85630682D01*
X133151847Y-85590018D01*
X133126034Y-85525092D01*
X133125500Y-85513599D01*
X133125500Y-84803280D01*
X133128046Y-84779355D01*
X133128112Y-84777951D01*
X133130269Y-84767933D01*
X133126359Y-84734897D01*
X133126012Y-84729014D01*
X133125921Y-84729022D01*
X133125500Y-84723929D01*
X133125500Y-84721166D01*
X133125530Y-84720832D01*
X133125500Y-84720323D01*
X133125500Y-84718807D01*
X133125712Y-84718807D01*
X133129185Y-84680182D01*
X133130164Y-84676528D01*
X133132950Y-84669598D01*
X133134003Y-84662201D01*
X133154562Y-84517744D01*
X133154562Y-84517740D01*
X133155134Y-84513723D01*
X133155278Y-84500000D01*
X133153551Y-84485727D01*
X133137262Y-84351119D01*
X133137261Y-84351115D01*
X133136363Y-84343694D01*
X133109301Y-84272077D01*
X133083354Y-84203408D01*
X133083352Y-84203405D01*
X133080710Y-84196412D01*
X133072337Y-84184229D01*
X132995768Y-84072821D01*
X132995765Y-84072818D01*
X132991531Y-84066657D01*
X132912191Y-83995967D01*
X132879559Y-83966893D01*
X132879558Y-83966892D01*
X132873976Y-83961919D01*
X132734831Y-83888245D01*
X132582128Y-83849889D01*
X132500329Y-83849461D01*
X132432158Y-83849104D01*
X132432157Y-83849104D01*
X132424684Y-83849065D01*
X132417421Y-83850809D01*
X132417418Y-83850809D01*
X132348136Y-83867442D01*
X132271588Y-83885820D01*
X132131679Y-83958032D01*
X132013034Y-84061533D01*
X131922501Y-84190348D01*
X131919785Y-84197313D01*
X131919785Y-84197314D01*
X131914087Y-84211929D01*
X131865309Y-84337039D01*
X131844758Y-84493138D01*
X100225000Y-84493138D01*
X100225000Y-79493138D01*
X122844758Y-79493138D01*
X122845578Y-79500566D01*
X122845578Y-79500568D01*
X122857698Y-79610346D01*
X122862035Y-79649633D01*
X122916143Y-79797490D01*
X123003958Y-79928172D01*
X123026183Y-79948395D01*
X123114878Y-80029102D01*
X123114882Y-80029105D01*
X123120410Y-80034135D01*
X123258776Y-80109262D01*
X123361031Y-80136088D01*
X123403841Y-80147319D01*
X123403843Y-80147319D01*
X123411069Y-80149215D01*
X123488127Y-80150425D01*
X123561025Y-80151571D01*
X123561028Y-80151571D01*
X123568495Y-80151688D01*
X123575776Y-80150020D01*
X123575780Y-80150020D01*
X123714681Y-80118207D01*
X123721968Y-80116538D01*
X123862625Y-80045795D01*
X123868306Y-80040943D01*
X123868309Y-80040941D01*
X123976666Y-79948395D01*
X123976667Y-79948394D01*
X123982348Y-79943542D01*
X123993393Y-79928172D01*
X124013798Y-79899775D01*
X124074224Y-79815683D01*
X124132950Y-79669598D01*
X124134793Y-79656649D01*
X124154562Y-79517744D01*
X124154562Y-79517740D01*
X124155134Y-79513723D01*
X124155278Y-79500000D01*
X124136363Y-79343694D01*
X124080710Y-79196412D01*
X124072337Y-79184229D01*
X123995768Y-79072821D01*
X123995765Y-79072818D01*
X123991531Y-79066657D01*
X123873976Y-78961919D01*
X123734831Y-78888245D01*
X123582128Y-78849889D01*
X123500329Y-78849461D01*
X123432158Y-78849104D01*
X123432157Y-78849104D01*
X123424684Y-78849065D01*
X123417421Y-78850809D01*
X123417418Y-78850809D01*
X123348136Y-78867443D01*
X123271588Y-78885820D01*
X123131679Y-78958032D01*
X123013034Y-79061533D01*
X122922501Y-79190348D01*
X122865309Y-79337039D01*
X122844758Y-79493138D01*
X100225000Y-79493138D01*
X100225000Y-76702469D01*
X137899498Y-76702469D01*
X137914437Y-76859046D01*
X137973551Y-77060549D01*
X137976254Y-77065797D01*
X138067002Y-77241996D01*
X138067005Y-77242001D01*
X138069703Y-77247239D01*
X138199422Y-77412379D01*
X138203876Y-77416244D01*
X138203877Y-77416245D01*
X138289195Y-77490280D01*
X138358027Y-77550010D01*
X138363132Y-77552963D01*
X138363133Y-77552964D01*
X138463111Y-77610802D01*
X138539797Y-77655166D01*
X138738172Y-77724053D01*
X138945994Y-77754186D01*
X139155765Y-77744477D01*
X139161504Y-77743094D01*
X139354183Y-77696658D01*
X139354186Y-77696657D01*
X139359916Y-77695276D01*
X139365284Y-77692836D01*
X139365288Y-77692834D01*
X139545708Y-77610802D01*
X139551079Y-77608360D01*
X139722358Y-77486863D01*
X139798102Y-77407740D01*
X139863489Y-77339436D01*
X139863493Y-77339432D01*
X139867573Y-77335169D01*
X139981483Y-77158754D01*
X140021061Y-77060549D01*
X140057771Y-76969461D01*
X140057772Y-76969456D01*
X140059979Y-76963981D01*
X140100228Y-76757878D01*
X140100498Y-76752357D01*
X140100498Y-76702469D01*
X140399498Y-76702469D01*
X140414437Y-76859046D01*
X140473551Y-77060549D01*
X140476254Y-77065797D01*
X140567002Y-77241996D01*
X140567005Y-77242001D01*
X140569703Y-77247239D01*
X140699422Y-77412379D01*
X140703876Y-77416244D01*
X140703877Y-77416245D01*
X140789195Y-77490280D01*
X140858027Y-77550010D01*
X140863132Y-77552963D01*
X140863133Y-77552964D01*
X140963111Y-77610802D01*
X141039797Y-77655166D01*
X141238172Y-77724053D01*
X141445994Y-77754186D01*
X141655765Y-77744477D01*
X141661504Y-77743094D01*
X141854183Y-77696658D01*
X141854186Y-77696657D01*
X141859916Y-77695276D01*
X141865284Y-77692836D01*
X141865288Y-77692834D01*
X142045708Y-77610802D01*
X142051079Y-77608360D01*
X142222358Y-77486863D01*
X142298102Y-77407740D01*
X142363489Y-77339436D01*
X142363493Y-77339432D01*
X142367573Y-77335169D01*
X142481483Y-77158754D01*
X142521061Y-77060549D01*
X142557771Y-76969461D01*
X142557772Y-76969456D01*
X142559979Y-76963981D01*
X142600228Y-76757878D01*
X142600498Y-76752357D01*
X142600498Y-76702469D01*
X142899498Y-76702469D01*
X142914437Y-76859046D01*
X142973551Y-77060549D01*
X142976254Y-77065797D01*
X143067002Y-77241996D01*
X143067005Y-77242001D01*
X143069703Y-77247239D01*
X143199422Y-77412379D01*
X143203876Y-77416244D01*
X143203877Y-77416245D01*
X143289195Y-77490280D01*
X143358027Y-77550010D01*
X143363132Y-77552963D01*
X143363133Y-77552964D01*
X143463111Y-77610802D01*
X143539797Y-77655166D01*
X143738172Y-77724053D01*
X143945994Y-77754186D01*
X144155765Y-77744477D01*
X144161504Y-77743094D01*
X144354183Y-77696658D01*
X144354186Y-77696657D01*
X144359916Y-77695276D01*
X144365284Y-77692836D01*
X144365288Y-77692834D01*
X144545708Y-77610802D01*
X144551079Y-77608360D01*
X144722358Y-77486863D01*
X144798102Y-77407740D01*
X144863489Y-77339436D01*
X144863493Y-77339432D01*
X144867573Y-77335169D01*
X144981483Y-77158754D01*
X145021061Y-77060549D01*
X145057771Y-76969461D01*
X145057772Y-76969456D01*
X145059979Y-76963981D01*
X145100228Y-76757878D01*
X145100498Y-76752357D01*
X145100498Y-76702469D01*
X145399498Y-76702469D01*
X145414437Y-76859046D01*
X145473551Y-77060549D01*
X145476254Y-77065797D01*
X145567002Y-77241996D01*
X145567005Y-77242001D01*
X145569703Y-77247239D01*
X145699422Y-77412379D01*
X145703876Y-77416244D01*
X145703877Y-77416245D01*
X145789195Y-77490280D01*
X145858027Y-77550010D01*
X145863132Y-77552963D01*
X145863133Y-77552964D01*
X145963111Y-77610802D01*
X146039797Y-77655166D01*
X146238172Y-77724053D01*
X146445994Y-77754186D01*
X146655765Y-77744477D01*
X146661504Y-77743094D01*
X146854183Y-77696658D01*
X146854186Y-77696657D01*
X146859916Y-77695276D01*
X146865284Y-77692836D01*
X146865288Y-77692834D01*
X147045708Y-77610802D01*
X147051079Y-77608360D01*
X147222358Y-77486863D01*
X147298102Y-77407740D01*
X147363489Y-77339436D01*
X147363493Y-77339432D01*
X147367573Y-77335169D01*
X147481483Y-77158754D01*
X147521061Y-77060549D01*
X147557771Y-76969461D01*
X147557772Y-76969456D01*
X147559979Y-76963981D01*
X147600228Y-76757878D01*
X147600498Y-76752357D01*
X147600498Y-76347531D01*
X147585559Y-76190954D01*
X147526445Y-75989451D01*
X147512649Y-75962664D01*
X147432994Y-75808004D01*
X147432991Y-75807999D01*
X147430293Y-75802761D01*
X147300574Y-75637621D01*
X147214739Y-75563137D01*
X147146422Y-75503854D01*
X147146421Y-75503853D01*
X147141969Y-75499990D01*
X147041107Y-75441640D01*
X146965309Y-75397790D01*
X146965307Y-75397789D01*
X146960199Y-75394834D01*
X146761824Y-75325947D01*
X146554002Y-75295814D01*
X146344231Y-75305523D01*
X146338493Y-75306906D01*
X146338492Y-75306906D01*
X146145813Y-75353342D01*
X146145810Y-75353343D01*
X146140080Y-75354724D01*
X146134712Y-75357164D01*
X146134708Y-75357166D01*
X145964894Y-75434376D01*
X145948917Y-75441640D01*
X145777638Y-75563137D01*
X145773554Y-75567404D01*
X145773552Y-75567405D01*
X145636507Y-75710564D01*
X145636503Y-75710568D01*
X145632423Y-75714831D01*
X145518513Y-75891246D01*
X145516306Y-75896721D01*
X145516305Y-75896724D01*
X145442225Y-76080539D01*
X145442224Y-76080544D01*
X145440017Y-76086019D01*
X145399768Y-76292122D01*
X145399498Y-76297643D01*
X145399498Y-76702469D01*
X145100498Y-76702469D01*
X145100498Y-76347531D01*
X145085559Y-76190954D01*
X145026445Y-75989451D01*
X145012649Y-75962664D01*
X144932994Y-75808004D01*
X144932991Y-75807999D01*
X144930293Y-75802761D01*
X144800574Y-75637621D01*
X144714739Y-75563137D01*
X144646422Y-75503854D01*
X144646421Y-75503853D01*
X144641969Y-75499990D01*
X144541107Y-75441640D01*
X144465309Y-75397790D01*
X144465307Y-75397789D01*
X144460199Y-75394834D01*
X144261824Y-75325947D01*
X144054002Y-75295814D01*
X143844231Y-75305523D01*
X143838493Y-75306906D01*
X143838492Y-75306906D01*
X143645813Y-75353342D01*
X143645810Y-75353343D01*
X143640080Y-75354724D01*
X143634712Y-75357164D01*
X143634708Y-75357166D01*
X143464894Y-75434376D01*
X143448917Y-75441640D01*
X143277638Y-75563137D01*
X143273554Y-75567404D01*
X143273552Y-75567405D01*
X143136507Y-75710564D01*
X143136503Y-75710568D01*
X143132423Y-75714831D01*
X143018513Y-75891246D01*
X143016306Y-75896721D01*
X143016305Y-75896724D01*
X142942225Y-76080539D01*
X142942224Y-76080544D01*
X142940017Y-76086019D01*
X142899768Y-76292122D01*
X142899498Y-76297643D01*
X142899498Y-76702469D01*
X142600498Y-76702469D01*
X142600498Y-76347531D01*
X142585559Y-76190954D01*
X142526445Y-75989451D01*
X142512649Y-75962664D01*
X142432994Y-75808004D01*
X142432991Y-75807999D01*
X142430293Y-75802761D01*
X142300574Y-75637621D01*
X142214739Y-75563137D01*
X142146422Y-75503854D01*
X142146421Y-75503853D01*
X142141969Y-75499990D01*
X142041107Y-75441640D01*
X141965309Y-75397790D01*
X141965307Y-75397789D01*
X141960199Y-75394834D01*
X141761824Y-75325947D01*
X141554002Y-75295814D01*
X141344231Y-75305523D01*
X141338493Y-75306906D01*
X141338492Y-75306906D01*
X141145813Y-75353342D01*
X141145810Y-75353343D01*
X141140080Y-75354724D01*
X141134712Y-75357164D01*
X141134708Y-75357166D01*
X140964894Y-75434376D01*
X140948917Y-75441640D01*
X140777638Y-75563137D01*
X140773554Y-75567404D01*
X140773552Y-75567405D01*
X140636507Y-75710564D01*
X140636503Y-75710568D01*
X140632423Y-75714831D01*
X140518513Y-75891246D01*
X140516306Y-75896721D01*
X140516305Y-75896724D01*
X140442225Y-76080539D01*
X140442224Y-76080544D01*
X140440017Y-76086019D01*
X140399768Y-76292122D01*
X140399498Y-76297643D01*
X140399498Y-76702469D01*
X140100498Y-76702469D01*
X140100498Y-76347531D01*
X140085559Y-76190954D01*
X140026445Y-75989451D01*
X140012649Y-75962664D01*
X139932994Y-75808004D01*
X139932991Y-75807999D01*
X139930293Y-75802761D01*
X139800574Y-75637621D01*
X139714739Y-75563137D01*
X139646422Y-75503854D01*
X139646421Y-75503853D01*
X139641969Y-75499990D01*
X139541107Y-75441640D01*
X139465309Y-75397790D01*
X139465307Y-75397789D01*
X139460199Y-75394834D01*
X139261824Y-75325947D01*
X139054002Y-75295814D01*
X138844231Y-75305523D01*
X138838493Y-75306906D01*
X138838492Y-75306906D01*
X138645813Y-75353342D01*
X138645810Y-75353343D01*
X138640080Y-75354724D01*
X138634712Y-75357164D01*
X138634708Y-75357166D01*
X138464894Y-75434376D01*
X138448917Y-75441640D01*
X138277638Y-75563137D01*
X138273554Y-75567404D01*
X138273552Y-75567405D01*
X138136507Y-75710564D01*
X138136503Y-75710568D01*
X138132423Y-75714831D01*
X138018513Y-75891246D01*
X138016306Y-75896721D01*
X138016305Y-75896724D01*
X137942225Y-76080539D01*
X137942224Y-76080544D01*
X137940017Y-76086019D01*
X137899768Y-76292122D01*
X137899498Y-76297643D01*
X137899498Y-76702469D01*
X100225000Y-76702469D01*
X100225000Y-72374000D01*
X100244685Y-72306961D01*
X100297489Y-72261206D01*
X100349000Y-72250000D01*
X161626000Y-72250000D01*
X161693039Y-72269685D01*
G37*
G04 #@! TD.AperFunction*
G04 #@! TA.AperFunction,Conductor*
G36*
X141360202Y-85660274D02*
G01*
X141409449Y-85690486D01*
X141838181Y-86119218D01*
X141871666Y-86180541D01*
X141874500Y-86206899D01*
X141874500Y-88044101D01*
X141854815Y-88111140D01*
X141802011Y-88156895D01*
X141732853Y-88166839D01*
X141669297Y-88137814D01*
X141662819Y-88131782D01*
X140777709Y-87246672D01*
X140762582Y-87227943D01*
X140761641Y-87226909D01*
X140756083Y-87218301D01*
X140729956Y-87197704D01*
X140725553Y-87193791D01*
X140725494Y-87193861D01*
X140721591Y-87190554D01*
X140717973Y-87186936D01*
X140702431Y-87175830D01*
X140697783Y-87172341D01*
X140657911Y-87140908D01*
X140650777Y-87138403D01*
X140644756Y-87134614D01*
X140641992Y-87132639D01*
X140641991Y-87132639D01*
X140641979Y-87132630D01*
X140642843Y-87131421D01*
X140625329Y-87118906D01*
X140411819Y-86905396D01*
X140378334Y-86844073D01*
X140375500Y-86817715D01*
X140375500Y-85985024D01*
X140395185Y-85917985D01*
X140447989Y-85872230D01*
X140517147Y-85862286D01*
X140530959Y-85865082D01*
X140598834Y-85882888D01*
X140653841Y-85897319D01*
X140653843Y-85897319D01*
X140661069Y-85899215D01*
X140738127Y-85900425D01*
X140811025Y-85901571D01*
X140811028Y-85901571D01*
X140818495Y-85901688D01*
X140825776Y-85900020D01*
X140825780Y-85900020D01*
X140964681Y-85868207D01*
X140971968Y-85866538D01*
X141112625Y-85795795D01*
X141118306Y-85790943D01*
X141118309Y-85790941D01*
X141166523Y-85749762D01*
X141232348Y-85693542D01*
X141232887Y-85692792D01*
X141290363Y-85658210D01*
X141360202Y-85660274D01*
G37*
G04 #@! TD.AperFunction*
G04 #@! TD*
M02*
