G04 #@! TF.GenerationSoftware,KiCad,Pcbnew,6.0.2-378541a8eb~116~ubuntu20.04.1*
G04 #@! TF.CreationDate,2022-03-07T01:05:26+01:00*
G04 #@! TF.ProjectId,lora_sensor,6c6f7261-5f73-4656-9e73-6f722e6b6963,rev?*
G04 #@! TF.SameCoordinates,Original*
G04 #@! TF.FileFunction,Legend,Bot*
G04 #@! TF.FilePolarity,Positive*
%FSLAX46Y46*%
G04 Gerber Fmt 4.6, Leading zero omitted, Abs format (unit mm)*
G04 Created by KiCad (PCBNEW 6.0.2-378541a8eb~116~ubuntu20.04.1) date 2022-03-07 01:05:26*
%MOMM*%
%LPD*%
G01*
G04 APERTURE LIST*
G04 Aperture macros list*
%AMRoundRect*
0 Rectangle with rounded corners*
0 $1 Rounding radius*
0 $2 $3 $4 $5 $6 $7 $8 $9 X,Y pos of 4 corners*
0 Add a 4 corners polygon primitive as box body*
4,1,4,$2,$3,$4,$5,$6,$7,$8,$9,$2,$3,0*
0 Add four circle primitives for the rounded corners*
1,1,$1+$1,$2,$3*
1,1,$1+$1,$4,$5*
1,1,$1+$1,$6,$7*
1,1,$1+$1,$8,$9*
0 Add four rect primitives between the rounded corners*
20,1,$1+$1,$2,$3,$4,$5,0*
20,1,$1+$1,$4,$5,$6,$7,0*
20,1,$1+$1,$6,$7,$8,$9,0*
20,1,$1+$1,$8,$9,$2,$3,0*%
G04 Aperture macros list end*
%ADD10C,0.114300*%
%ADD11C,0.127000*%
%ADD12C,5.000000*%
%ADD13R,0.635000X1.143000*%
%ADD14RoundRect,0.250000X0.600000X0.725000X-0.600000X0.725000X-0.600000X-0.725000X0.600000X-0.725000X0*%
%ADD15O,1.700000X1.950000*%
%ADD16R,1.524000X1.524000*%
%ADD17C,1.524000*%
%ADD18RoundRect,0.250000X0.750000X-0.600000X0.750000X0.600000X-0.750000X0.600000X-0.750000X-0.600000X0*%
%ADD19O,2.000000X1.700000*%
%ADD20C,0.800000*%
%ADD21C,2.000000*%
%ADD22C,1.800000*%
G04 APERTURE END LIST*
D10*
G04 #@! TO.C,C110*
X116511628Y-97411428D02*
X116533400Y-97435619D01*
X116598714Y-97459809D01*
X116642257Y-97459809D01*
X116707571Y-97435619D01*
X116751114Y-97387238D01*
X116772885Y-97338857D01*
X116794657Y-97242095D01*
X116794657Y-97169523D01*
X116772885Y-97072761D01*
X116751114Y-97024380D01*
X116707571Y-96976000D01*
X116642257Y-96951809D01*
X116598714Y-96951809D01*
X116533400Y-96976000D01*
X116511628Y-97000190D01*
X116076200Y-97459809D02*
X116337457Y-97459809D01*
X116206828Y-97459809D02*
X116206828Y-96951809D01*
X116250371Y-97024380D01*
X116293914Y-97072761D01*
X116337457Y-97096952D01*
X115640771Y-97459809D02*
X115902028Y-97459809D01*
X115771400Y-97459809D02*
X115771400Y-96951809D01*
X115814942Y-97024380D01*
X115858485Y-97072761D01*
X115902028Y-97096952D01*
X115357742Y-96951809D02*
X115314200Y-96951809D01*
X115270657Y-96976000D01*
X115248885Y-97000190D01*
X115227114Y-97048571D01*
X115205342Y-97145333D01*
X115205342Y-97266285D01*
X115227114Y-97363047D01*
X115248885Y-97411428D01*
X115270657Y-97435619D01*
X115314200Y-97459809D01*
X115357742Y-97459809D01*
X115401285Y-97435619D01*
X115423057Y-97411428D01*
X115444828Y-97363047D01*
X115466600Y-97266285D01*
X115466600Y-97145333D01*
X115444828Y-97048571D01*
X115423057Y-97000190D01*
X115401285Y-96976000D01*
X115357742Y-96951809D01*
G04 #@! TO.C,C107*
X116511628Y-95911428D02*
X116533400Y-95935619D01*
X116598714Y-95959809D01*
X116642257Y-95959809D01*
X116707571Y-95935619D01*
X116751114Y-95887238D01*
X116772885Y-95838857D01*
X116794657Y-95742095D01*
X116794657Y-95669523D01*
X116772885Y-95572761D01*
X116751114Y-95524380D01*
X116707571Y-95476000D01*
X116642257Y-95451809D01*
X116598714Y-95451809D01*
X116533400Y-95476000D01*
X116511628Y-95500190D01*
X116076200Y-95959809D02*
X116337457Y-95959809D01*
X116206828Y-95959809D02*
X116206828Y-95451809D01*
X116250371Y-95524380D01*
X116293914Y-95572761D01*
X116337457Y-95596952D01*
X115793171Y-95451809D02*
X115749628Y-95451809D01*
X115706085Y-95476000D01*
X115684314Y-95500190D01*
X115662542Y-95548571D01*
X115640771Y-95645333D01*
X115640771Y-95766285D01*
X115662542Y-95863047D01*
X115684314Y-95911428D01*
X115706085Y-95935619D01*
X115749628Y-95959809D01*
X115793171Y-95959809D01*
X115836714Y-95935619D01*
X115858485Y-95911428D01*
X115880257Y-95863047D01*
X115902028Y-95766285D01*
X115902028Y-95645333D01*
X115880257Y-95548571D01*
X115858485Y-95500190D01*
X115836714Y-95476000D01*
X115793171Y-95451809D01*
X115488371Y-95451809D02*
X115183571Y-95451809D01*
X115379514Y-95959809D01*
D11*
G04 #@! TO.C,C110*
X117143000Y-97865000D02*
X114857000Y-97865000D01*
X114857000Y-97865000D02*
X114857000Y-99135000D01*
X114857000Y-99135000D02*
X117143000Y-99135000D01*
X117143000Y-99135000D02*
X117143000Y-97865000D01*
G04 #@! TO.C,C107*
X117143000Y-96365000D02*
X114857000Y-96365000D01*
X114857000Y-96365000D02*
X114857000Y-97635000D01*
X114857000Y-97635000D02*
X117143000Y-97635000D01*
X117143000Y-97635000D02*
X117143000Y-96365000D01*
G04 #@! TD*
%LPC*%
D12*
G04 #@! TO.C,REF\u002A\u002A*
X154000000Y-126500000D03*
G04 #@! TD*
G04 #@! TO.C,REF\u002A\u002A*
X108000000Y-126500000D03*
G04 #@! TD*
G04 #@! TO.C,REF\u002A\u002A*
X108000000Y-80000000D03*
G04 #@! TD*
D13*
G04 #@! TO.C,C110*
X116762000Y-98500000D03*
X115238000Y-98500000D03*
G04 #@! TD*
G04 #@! TO.C,C107*
X116762000Y-97000000D03*
X115238000Y-97000000D03*
G04 #@! TD*
D14*
G04 #@! TO.C,J105*
X148999998Y-76525000D03*
D15*
X146499998Y-76525000D03*
X143999998Y-76525000D03*
X141499998Y-76525000D03*
X138999998Y-76525000D03*
G04 #@! TD*
D16*
G04 #@! TO.C,J103*
X146350000Y-130000000D03*
D17*
X143810000Y-130000000D03*
X141270000Y-130000000D03*
X138730000Y-130000000D03*
X136190000Y-130000000D03*
X133650000Y-130000000D03*
G04 #@! TD*
D18*
G04 #@! TO.C,J102*
X157773001Y-109938500D03*
D19*
X157773001Y-107438500D03*
G04 #@! TD*
D20*
G04 #@! TO.C,J101*
X157620000Y-95005000D03*
X157620000Y-90005000D03*
D21*
X156570000Y-96230000D03*
D22*
X160370000Y-96380000D03*
D21*
X156570000Y-88780000D03*
D22*
X160370000Y-88630000D03*
G04 #@! TD*
D21*
G04 #@! TO.C,U105*
X115150000Y-94350000D03*
X115150000Y-90750000D03*
X111550000Y-90750000D03*
G04 #@! TD*
M02*
