M48
; DRILL file {KiCad 6.0.2-378541a8eb~116~ubuntu20.04.1} date lun. 07 mars 2022 01:05:28
; FORMAT={3:3/ absolute / metric / suppress leading zeros}
; #@! TF.CreationDate,2022-03-07T01:05:28+01:00
; #@! TF.GenerationSoftware,Kicad,Pcbnew,6.0.2-378541a8eb~116~ubuntu20.04.1
; #@! TF.FileFunction,Plated,1,4,PTH
FMAT,2
METRIC,TZ
; #@! TA.AperFunction,Plated,PTH,ViaDrill
T1C0.400
; #@! TA.AperFunction,Plated,PTH,ComponentDrill
T2C0.750
; #@! TA.AperFunction,Plated,PTH,ComponentDrill
T3C0.950
; #@! TA.AperFunction,Plated,PTH,ComponentDrill
T4C1.000
; #@! TA.AperFunction,Plated,PTH,ComponentDrill
T5C1.016
; #@! TA.AperFunction,Plated,PTH,ComponentDrill
T6C1.200
; #@! TA.AperFunction,Plated,PTH,ComponentDrill
T7C1.400
; #@! TA.AperFunction,Plated,PTH,ComponentDrill
T8C3.200
%
G90
G05
T1
X102250Y-85000
X102500Y-74000
X102500Y-117750
X102500Y-127000
X102750Y-98750
X102750Y-111000
X106000Y-93500
X106750Y-88250
X107250Y-100500
X109500Y-102000
X109500Y-132000
X112250Y-87250
X113000Y-73500
X113250Y-113500
X115250Y-99750
X117500Y-109500
X117500Y-111500
X117750Y-97000
X117750Y-98500
X118250Y-117500
X118250Y-119500
X119250Y-121500
X123500Y-74000
X123500Y-79500
X123500Y-80750
X123500Y-82000
X124500Y-112750
X124500Y-115250
X126000Y-87750
X127750Y-121750
X128250Y-87000
X128500Y-109500
X128500Y-123500
X128750Y-106000
X129250Y-129250
X131000Y-87000
X131250Y-99250
X131750Y-103750
X132500Y-84500
X132500Y-95000
X132512Y-96012
X132750Y-97750
X132750Y-121500
X133000Y-74000
X133500Y-86250
X133500Y-116250
X133750Y-100250
X134000Y-82750
X134000Y-91750
X134000Y-123750
X134250Y-79500
X134250Y-102750
X135750Y-79500
X136000Y-114500
X137250Y-85250
X137250Y-86750
X137500Y-123750
X137750Y-102250
X137750Y-104750
X137750Y-108500
X137750Y-111750
X137762Y-89238
X138000Y-114000
X138750Y-87000
X139000Y-84000
X139250Y-92750
X139750Y-89250
X140250Y-97500
X140500Y-84000
X140500Y-95500
X140750Y-85250
X140750Y-86750
X141250Y-96750
X141750Y-123750
X142000Y-97500
X142000Y-114000
X142000Y-121500
X142500Y-105750
X143000Y-118000
X143000Y-119250
X143000Y-120500
X143500Y-87000
X144250Y-90500
X144250Y-99750
X144750Y-104250
X144750Y-115000
X144750Y-122500
X145000Y-84000
X145250Y-88500
X145750Y-96500
X145750Y-108000
X145750Y-114000
X146000Y-89750
X146500Y-95750
X146500Y-102250
X147000Y-92250
X148000Y-99500
X148000Y-115500
X148500Y-108000
X149000Y-87750
X149250Y-123500
X150000Y-110250
X150500Y-104500
X150750Y-95500
X151000Y-122250
X151750Y-117750
X152000Y-84000
X152250Y-103750
X153500Y-111750
X155000Y-120750
X155250Y-91250
X155500Y-100750
X155750Y-116000
X157000Y-130750
X158000Y-74250
X158750Y-77500
X158750Y-81500
X158750Y-99750
X159000Y-119000
X159000Y-120750
X159250Y-102250
X159250Y-122500
T2
X111550Y-90750
X115150Y-90750
X115150Y-94350
T3
X139000Y-76525
X141500Y-76525
X144000Y-76525
X146500Y-76525
X149000Y-76525
T4
X157773Y-107439
X157773Y-109939
T5
X133650Y-130000
X136190Y-130000
X138730Y-130000
X141270Y-130000
X143810Y-130000
X146350Y-130000
T6
X160370Y-88630
X160370Y-96380
T7
X156570Y-88780
X156570Y-96230
T8
X108000Y-80000
X108000Y-126500
X154000Y-126500
T0
M30
