%FSLAX45Y45*%
G04 Gerber Fmt 4.5, Leading zero omitted, Abs format (unit mm)*
G04 Created by KiCad (PCBNEW 6.0.2-378541a8eb~116~ubuntu20.04.1) date 2022-03-07 01:05:29*
%MOMM*%
%LPD*%
G01*
G04 APERTURE LIST*
%TA.AperFunction,Profile*%
%ADD10C,0.100000*%
%TD*%
%ADD11C,0.200000*%
%ADD12C,0.080000*%
G04 APERTURE END LIST*
D10*
X9997500Y-7200000D02*
X16200000Y-7200000D01*
X16200000Y-7200000D02*
X16200000Y-13452500D01*
X16200000Y-13452500D02*
X9997500Y-13452500D01*
X9997500Y-13452500D02*
X9997500Y-7200000D01*
D11*
D12*
X15722000Y-8960500D02*
X15802000Y-9040500D01*
X15802000Y-8960500D02*
X15722000Y-9040500D01*
X15722000Y-9460500D02*
X15802000Y-9540500D01*
X15802000Y-9460500D02*
X15722000Y-9540500D01*
D11*
X10250119Y-13767976D02*
X10250119Y-13567976D01*
X10297738Y-13567976D01*
X10326310Y-13577500D01*
X10345357Y-13596548D01*
X10354881Y-13615595D01*
X10364405Y-13653690D01*
X10364405Y-13682262D01*
X10354881Y-13720357D01*
X10345357Y-13739405D01*
X10326310Y-13758452D01*
X10297738Y-13767976D01*
X10250119Y-13767976D01*
X10450119Y-13767976D02*
X10450119Y-13634643D01*
X10450119Y-13672738D02*
X10459643Y-13653690D01*
X10469167Y-13644167D01*
X10488214Y-13634643D01*
X10507262Y-13634643D01*
X10573929Y-13767976D02*
X10573929Y-13634643D01*
X10573929Y-13567976D02*
X10564405Y-13577500D01*
X10573929Y-13587024D01*
X10583452Y-13577500D01*
X10573929Y-13567976D01*
X10573929Y-13587024D01*
X10697738Y-13767976D02*
X10678690Y-13758452D01*
X10669167Y-13739405D01*
X10669167Y-13567976D01*
X10802500Y-13767976D02*
X10783452Y-13758452D01*
X10773929Y-13739405D01*
X10773929Y-13567976D01*
X11031071Y-13767976D02*
X11031071Y-13567976D01*
X11097738Y-13710833D01*
X11164405Y-13567976D01*
X11164405Y-13767976D01*
X11345357Y-13767976D02*
X11345357Y-13663214D01*
X11335833Y-13644167D01*
X11316786Y-13634643D01*
X11278690Y-13634643D01*
X11259643Y-13644167D01*
X11345357Y-13758452D02*
X11326309Y-13767976D01*
X11278690Y-13767976D01*
X11259643Y-13758452D01*
X11250119Y-13739405D01*
X11250119Y-13720357D01*
X11259643Y-13701309D01*
X11278690Y-13691786D01*
X11326309Y-13691786D01*
X11345357Y-13682262D01*
X11440595Y-13634643D02*
X11440595Y-13834643D01*
X11440595Y-13644167D02*
X11459643Y-13634643D01*
X11497738Y-13634643D01*
X11516786Y-13644167D01*
X11526309Y-13653690D01*
X11535833Y-13672738D01*
X11535833Y-13729881D01*
X11526309Y-13748928D01*
X11516786Y-13758452D01*
X11497738Y-13767976D01*
X11459643Y-13767976D01*
X11440595Y-13758452D01*
X11621548Y-13748928D02*
X11631071Y-13758452D01*
X11621548Y-13767976D01*
X11612024Y-13758452D01*
X11621548Y-13748928D01*
X11621548Y-13767976D01*
X11621548Y-13644167D02*
X11631071Y-13653690D01*
X11621548Y-13663214D01*
X11612024Y-13653690D01*
X11621548Y-13644167D01*
X11621548Y-13663214D01*
D12*
X9912500Y-14057500D02*
X9992500Y-14137500D01*
X9992500Y-14057500D02*
X9912500Y-14137500D01*
D11*
X10288214Y-13987976D02*
X10307262Y-13987976D01*
X10326310Y-13997500D01*
X10335833Y-14007024D01*
X10345357Y-14026071D01*
X10354881Y-14064167D01*
X10354881Y-14111786D01*
X10345357Y-14149881D01*
X10335833Y-14168928D01*
X10326310Y-14178452D01*
X10307262Y-14187976D01*
X10288214Y-14187976D01*
X10269167Y-14178452D01*
X10259643Y-14168928D01*
X10250119Y-14149881D01*
X10240595Y-14111786D01*
X10240595Y-14064167D01*
X10250119Y-14026071D01*
X10259643Y-14007024D01*
X10269167Y-13997500D01*
X10288214Y-13987976D01*
X10440595Y-14168928D02*
X10450119Y-14178452D01*
X10440595Y-14187976D01*
X10431071Y-14178452D01*
X10440595Y-14168928D01*
X10440595Y-14187976D01*
X10564405Y-14073690D02*
X10545357Y-14064167D01*
X10535833Y-14054643D01*
X10526310Y-14035595D01*
X10526310Y-14026071D01*
X10535833Y-14007024D01*
X10545357Y-13997500D01*
X10564405Y-13987976D01*
X10602500Y-13987976D01*
X10621548Y-13997500D01*
X10631071Y-14007024D01*
X10640595Y-14026071D01*
X10640595Y-14035595D01*
X10631071Y-14054643D01*
X10621548Y-14064167D01*
X10602500Y-14073690D01*
X10564405Y-14073690D01*
X10545357Y-14083214D01*
X10535833Y-14092738D01*
X10526310Y-14111786D01*
X10526310Y-14149881D01*
X10535833Y-14168928D01*
X10545357Y-14178452D01*
X10564405Y-14187976D01*
X10602500Y-14187976D01*
X10621548Y-14178452D01*
X10631071Y-14168928D01*
X10640595Y-14149881D01*
X10640595Y-14111786D01*
X10631071Y-14092738D01*
X10621548Y-14083214D01*
X10602500Y-14073690D01*
X10764405Y-13987976D02*
X10783452Y-13987976D01*
X10802500Y-13997500D01*
X10812024Y-14007024D01*
X10821548Y-14026071D01*
X10831071Y-14064167D01*
X10831071Y-14111786D01*
X10821548Y-14149881D01*
X10812024Y-14168928D01*
X10802500Y-14178452D01*
X10783452Y-14187976D01*
X10764405Y-14187976D01*
X10745357Y-14178452D01*
X10735833Y-14168928D01*
X10726310Y-14149881D01*
X10716786Y-14111786D01*
X10716786Y-14064167D01*
X10726310Y-14026071D01*
X10735833Y-14007024D01*
X10745357Y-13997500D01*
X10764405Y-13987976D01*
X10954881Y-13987976D02*
X10973929Y-13987976D01*
X10992976Y-13997500D01*
X11002500Y-14007024D01*
X11012024Y-14026071D01*
X11021548Y-14064167D01*
X11021548Y-14111786D01*
X11012024Y-14149881D01*
X11002500Y-14168928D01*
X10992976Y-14178452D01*
X10973929Y-14187976D01*
X10954881Y-14187976D01*
X10935833Y-14178452D01*
X10926310Y-14168928D01*
X10916786Y-14149881D01*
X10907262Y-14111786D01*
X10907262Y-14064167D01*
X10916786Y-14026071D01*
X10926310Y-14007024D01*
X10935833Y-13997500D01*
X10954881Y-13987976D01*
X11107262Y-14187976D02*
X11107262Y-14054643D01*
X11107262Y-14073690D02*
X11116786Y-14064167D01*
X11135833Y-14054643D01*
X11164405Y-14054643D01*
X11183452Y-14064167D01*
X11192976Y-14083214D01*
X11192976Y-14187976D01*
X11192976Y-14083214D02*
X11202500Y-14064167D01*
X11221548Y-14054643D01*
X11250119Y-14054643D01*
X11269167Y-14064167D01*
X11278690Y-14083214D01*
X11278690Y-14187976D01*
X11373928Y-14187976D02*
X11373928Y-14054643D01*
X11373928Y-14073690D02*
X11383452Y-14064167D01*
X11402500Y-14054643D01*
X11431071Y-14054643D01*
X11450119Y-14064167D01*
X11459643Y-14083214D01*
X11459643Y-14187976D01*
X11459643Y-14083214D02*
X11469167Y-14064167D01*
X11488214Y-14054643D01*
X11516786Y-14054643D01*
X11535833Y-14064167D01*
X11545357Y-14083214D01*
X11545357Y-14187976D01*
X11935833Y-13978452D02*
X11764405Y-14235595D01*
X12192976Y-13987976D02*
X12212024Y-13987976D01*
X12231071Y-13997500D01*
X12240595Y-14007024D01*
X12250119Y-14026071D01*
X12259643Y-14064167D01*
X12259643Y-14111786D01*
X12250119Y-14149881D01*
X12240595Y-14168928D01*
X12231071Y-14178452D01*
X12212024Y-14187976D01*
X12192976Y-14187976D01*
X12173928Y-14178452D01*
X12164405Y-14168928D01*
X12154881Y-14149881D01*
X12145357Y-14111786D01*
X12145357Y-14064167D01*
X12154881Y-14026071D01*
X12164405Y-14007024D01*
X12173928Y-13997500D01*
X12192976Y-13987976D01*
X12345357Y-14168928D02*
X12354881Y-14178452D01*
X12345357Y-14187976D01*
X12335833Y-14178452D01*
X12345357Y-14168928D01*
X12345357Y-14187976D01*
X12478690Y-13987976D02*
X12497738Y-13987976D01*
X12516786Y-13997500D01*
X12526309Y-14007024D01*
X12535833Y-14026071D01*
X12545357Y-14064167D01*
X12545357Y-14111786D01*
X12535833Y-14149881D01*
X12526309Y-14168928D01*
X12516786Y-14178452D01*
X12497738Y-14187976D01*
X12478690Y-14187976D01*
X12459643Y-14178452D01*
X12450119Y-14168928D01*
X12440595Y-14149881D01*
X12431071Y-14111786D01*
X12431071Y-14064167D01*
X12440595Y-14026071D01*
X12450119Y-14007024D01*
X12459643Y-13997500D01*
X12478690Y-13987976D01*
X12612024Y-13987976D02*
X12735833Y-13987976D01*
X12669167Y-14064167D01*
X12697738Y-14064167D01*
X12716786Y-14073690D01*
X12726309Y-14083214D01*
X12735833Y-14102262D01*
X12735833Y-14149881D01*
X12726309Y-14168928D01*
X12716786Y-14178452D01*
X12697738Y-14187976D01*
X12640595Y-14187976D01*
X12621548Y-14178452D01*
X12612024Y-14168928D01*
X12926309Y-14187976D02*
X12812024Y-14187976D01*
X12869167Y-14187976D02*
X12869167Y-13987976D01*
X12850119Y-14016548D01*
X12831071Y-14035595D01*
X12812024Y-14045119D01*
X13107262Y-13987976D02*
X13012024Y-13987976D01*
X13002500Y-14083214D01*
X13012024Y-14073690D01*
X13031071Y-14064167D01*
X13078690Y-14064167D01*
X13097738Y-14073690D01*
X13107262Y-14083214D01*
X13116786Y-14102262D01*
X13116786Y-14149881D01*
X13107262Y-14168928D01*
X13097738Y-14178452D01*
X13078690Y-14187976D01*
X13031071Y-14187976D01*
X13012024Y-14178452D01*
X13002500Y-14168928D01*
X13192976Y-13987976D02*
X13192976Y-14026071D01*
X13269167Y-13987976D02*
X13269167Y-14026071D01*
X13564405Y-14264167D02*
X13554881Y-14254643D01*
X13535833Y-14226071D01*
X13526309Y-14207024D01*
X13516786Y-14178452D01*
X13507262Y-14130833D01*
X13507262Y-14092738D01*
X13516786Y-14045119D01*
X13526309Y-14016548D01*
X13535833Y-13997500D01*
X13554881Y-13968928D01*
X13564405Y-13959405D01*
X13631071Y-14007024D02*
X13640595Y-13997500D01*
X13659643Y-13987976D01*
X13707262Y-13987976D01*
X13726309Y-13997500D01*
X13735833Y-14007024D01*
X13745357Y-14026071D01*
X13745357Y-14045119D01*
X13735833Y-14073690D01*
X13621548Y-14187976D01*
X13745357Y-14187976D01*
X13983452Y-14187976D02*
X13983452Y-13987976D01*
X14069167Y-14187976D02*
X14069167Y-14083214D01*
X14059643Y-14064167D01*
X14040595Y-14054643D01*
X14012024Y-14054643D01*
X13992976Y-14064167D01*
X13983452Y-14073690D01*
X14192976Y-14187976D02*
X14173928Y-14178452D01*
X14164405Y-14168928D01*
X14154881Y-14149881D01*
X14154881Y-14092738D01*
X14164405Y-14073690D01*
X14173928Y-14064167D01*
X14192976Y-14054643D01*
X14221548Y-14054643D01*
X14240595Y-14064167D01*
X14250119Y-14073690D01*
X14259643Y-14092738D01*
X14259643Y-14149881D01*
X14250119Y-14168928D01*
X14240595Y-14178452D01*
X14221548Y-14187976D01*
X14192976Y-14187976D01*
X14373928Y-14187976D02*
X14354881Y-14178452D01*
X14345357Y-14159405D01*
X14345357Y-13987976D01*
X14526309Y-14178452D02*
X14507262Y-14187976D01*
X14469167Y-14187976D01*
X14450119Y-14178452D01*
X14440595Y-14159405D01*
X14440595Y-14083214D01*
X14450119Y-14064167D01*
X14469167Y-14054643D01*
X14507262Y-14054643D01*
X14526309Y-14064167D01*
X14535833Y-14083214D01*
X14535833Y-14102262D01*
X14440595Y-14121309D01*
X14612024Y-14178452D02*
X14631071Y-14187976D01*
X14669167Y-14187976D01*
X14688214Y-14178452D01*
X14697738Y-14159405D01*
X14697738Y-14149881D01*
X14688214Y-14130833D01*
X14669167Y-14121309D01*
X14640595Y-14121309D01*
X14621548Y-14111786D01*
X14612024Y-14092738D01*
X14612024Y-14083214D01*
X14621548Y-14064167D01*
X14640595Y-14054643D01*
X14669167Y-14054643D01*
X14688214Y-14064167D01*
X14764405Y-14264167D02*
X14773928Y-14254643D01*
X14792976Y-14226071D01*
X14802500Y-14207024D01*
X14812024Y-14178452D01*
X14821548Y-14130833D01*
X14821548Y-14092738D01*
X14812024Y-14045119D01*
X14802500Y-14016548D01*
X14792976Y-13997500D01*
X14773928Y-13968928D01*
X14764405Y-13959405D01*
X15126309Y-14264167D02*
X15116786Y-14254643D01*
X15097738Y-14226071D01*
X15088214Y-14207024D01*
X15078690Y-14178452D01*
X15069167Y-14130833D01*
X15069167Y-14092738D01*
X15078690Y-14045119D01*
X15088214Y-14016548D01*
X15097738Y-13997500D01*
X15116786Y-13968928D01*
X15126309Y-13959405D01*
X15202500Y-14054643D02*
X15202500Y-14187976D01*
X15202500Y-14073690D02*
X15212024Y-14064167D01*
X15231071Y-14054643D01*
X15259643Y-14054643D01*
X15278690Y-14064167D01*
X15288214Y-14083214D01*
X15288214Y-14187976D01*
X15412024Y-14187976D02*
X15392976Y-14178452D01*
X15383452Y-14168928D01*
X15373928Y-14149881D01*
X15373928Y-14092738D01*
X15383452Y-14073690D01*
X15392976Y-14064167D01*
X15412024Y-14054643D01*
X15440595Y-14054643D01*
X15459643Y-14064167D01*
X15469167Y-14073690D01*
X15478690Y-14092738D01*
X15478690Y-14149881D01*
X15469167Y-14168928D01*
X15459643Y-14178452D01*
X15440595Y-14187976D01*
X15412024Y-14187976D01*
X15535833Y-14054643D02*
X15612024Y-14054643D01*
X15564405Y-13987976D02*
X15564405Y-14159405D01*
X15573928Y-14178452D01*
X15592976Y-14187976D01*
X15612024Y-14187976D01*
X15831071Y-14054643D02*
X15831071Y-14254643D01*
X15831071Y-14064167D02*
X15850119Y-14054643D01*
X15888214Y-14054643D01*
X15907262Y-14064167D01*
X15916786Y-14073690D01*
X15926309Y-14092738D01*
X15926309Y-14149881D01*
X15916786Y-14168928D01*
X15907262Y-14178452D01*
X15888214Y-14187976D01*
X15850119Y-14187976D01*
X15831071Y-14178452D01*
X16040595Y-14187976D02*
X16021548Y-14178452D01*
X16012024Y-14159405D01*
X16012024Y-13987976D01*
X16202500Y-14187976D02*
X16202500Y-14083214D01*
X16192976Y-14064167D01*
X16173928Y-14054643D01*
X16135833Y-14054643D01*
X16116786Y-14064167D01*
X16202500Y-14178452D02*
X16183452Y-14187976D01*
X16135833Y-14187976D01*
X16116786Y-14178452D01*
X16107262Y-14159405D01*
X16107262Y-14140357D01*
X16116786Y-14121309D01*
X16135833Y-14111786D01*
X16183452Y-14111786D01*
X16202500Y-14102262D01*
X16269167Y-14054643D02*
X16345357Y-14054643D01*
X16297738Y-13987976D02*
X16297738Y-14159405D01*
X16307262Y-14178452D01*
X16326309Y-14187976D01*
X16345357Y-14187976D01*
X16488214Y-14178452D02*
X16469167Y-14187976D01*
X16431071Y-14187976D01*
X16412024Y-14178452D01*
X16402500Y-14159405D01*
X16402500Y-14083214D01*
X16412024Y-14064167D01*
X16431071Y-14054643D01*
X16469167Y-14054643D01*
X16488214Y-14064167D01*
X16497738Y-14083214D01*
X16497738Y-14102262D01*
X16402500Y-14121309D01*
X16669167Y-14187976D02*
X16669167Y-13987976D01*
X16669167Y-14178452D02*
X16650119Y-14187976D01*
X16612024Y-14187976D01*
X16592976Y-14178452D01*
X16583452Y-14168928D01*
X16573928Y-14149881D01*
X16573928Y-14092738D01*
X16583452Y-14073690D01*
X16592976Y-14064167D01*
X16612024Y-14054643D01*
X16650119Y-14054643D01*
X16669167Y-14064167D01*
X16745357Y-14264167D02*
X16754881Y-14254643D01*
X16773928Y-14226071D01*
X16783452Y-14207024D01*
X16792976Y-14178452D01*
X16802500Y-14130833D01*
X16802500Y-14092738D01*
X16792976Y-14045119D01*
X16783452Y-14016548D01*
X16773928Y-13997500D01*
X16754881Y-13968928D01*
X16745357Y-13959405D01*
M02*
