G04 #@! TF.GenerationSoftware,KiCad,Pcbnew,6.0.2-378541a8eb~116~ubuntu20.04.1*
G04 #@! TF.CreationDate,2022-03-07T01:05:26+01:00*
G04 #@! TF.ProjectId,lora_sensor,6c6f7261-5f73-4656-9e73-6f722e6b6963,rev?*
G04 #@! TF.SameCoordinates,Original*
G04 #@! TF.FileFunction,Copper,L2,Inr*
G04 #@! TF.FilePolarity,Positive*
%FSLAX46Y46*%
G04 Gerber Fmt 4.6, Leading zero omitted, Abs format (unit mm)*
G04 Created by KiCad (PCBNEW 6.0.2-378541a8eb~116~ubuntu20.04.1) date 2022-03-07 01:05:26*
%MOMM*%
%LPD*%
G01*
G04 APERTURE LIST*
G04 Aperture macros list*
%AMRoundRect*
0 Rectangle with rounded corners*
0 $1 Rounding radius*
0 $2 $3 $4 $5 $6 $7 $8 $9 X,Y pos of 4 corners*
0 Add a 4 corners polygon primitive as box body*
4,1,4,$2,$3,$4,$5,$6,$7,$8,$9,$2,$3,0*
0 Add four circle primitives for the rounded corners*
1,1,$1+$1,$2,$3*
1,1,$1+$1,$4,$5*
1,1,$1+$1,$6,$7*
1,1,$1+$1,$8,$9*
0 Add four rect primitives between the rounded corners*
20,1,$1+$1,$2,$3,$4,$5,0*
20,1,$1+$1,$4,$5,$6,$7,0*
20,1,$1+$1,$6,$7,$8,$9,0*
20,1,$1+$1,$8,$9,$2,$3,0*%
G04 Aperture macros list end*
G04 #@! TA.AperFunction,ComponentPad*
%ADD10C,5.000000*%
G04 #@! TD*
G04 #@! TA.AperFunction,ComponentPad*
%ADD11RoundRect,0.250000X0.600000X0.725000X-0.600000X0.725000X-0.600000X-0.725000X0.600000X-0.725000X0*%
G04 #@! TD*
G04 #@! TA.AperFunction,ComponentPad*
%ADD12O,1.700000X1.950000*%
G04 #@! TD*
G04 #@! TA.AperFunction,ComponentPad*
%ADD13R,1.524000X1.524000*%
G04 #@! TD*
G04 #@! TA.AperFunction,ComponentPad*
%ADD14C,1.524000*%
G04 #@! TD*
G04 #@! TA.AperFunction,ComponentPad*
%ADD15RoundRect,0.250000X0.750000X-0.600000X0.750000X0.600000X-0.750000X0.600000X-0.750000X-0.600000X0*%
G04 #@! TD*
G04 #@! TA.AperFunction,ComponentPad*
%ADD16O,2.000000X1.700000*%
G04 #@! TD*
G04 #@! TA.AperFunction,ComponentPad*
%ADD17C,2.000000*%
G04 #@! TD*
G04 #@! TA.AperFunction,ComponentPad*
%ADD18C,1.800000*%
G04 #@! TD*
G04 #@! TA.AperFunction,ViaPad*
%ADD19C,0.800000*%
G04 #@! TD*
G04 APERTURE END LIST*
D10*
G04 #@! TO.N,GND*
G04 #@! TO.C,REF\u002A\u002A*
X154000000Y-126500000D03*
G04 #@! TD*
G04 #@! TO.N,GND*
G04 #@! TO.C,REF\u002A\u002A*
X108000000Y-126500000D03*
G04 #@! TD*
G04 #@! TO.N,GND*
G04 #@! TO.C,REF\u002A\u002A*
X108000000Y-80000000D03*
G04 #@! TD*
D11*
G04 #@! TO.N,GND*
G04 #@! TO.C,J105*
X148999998Y-76525000D03*
D12*
G04 #@! TO.N,/OUT1*
X146499998Y-76525000D03*
G04 #@! TO.N,/OUT2*
X143999998Y-76525000D03*
G04 #@! TO.N,/OUT3*
X141499998Y-76525000D03*
G04 #@! TO.N,VCC*
X138999998Y-76525000D03*
G04 #@! TD*
D13*
G04 #@! TO.N,GND*
G04 #@! TO.C,J103*
X146350000Y-130000000D03*
D14*
G04 #@! TO.N,/~{CTS}*
X143810000Y-130000000D03*
G04 #@! TO.N,/5V*
X141270000Y-130000000D03*
G04 #@! TO.N,/RX*
X138730000Y-130000000D03*
G04 #@! TO.N,/TX*
X136190000Y-130000000D03*
G04 #@! TO.N,/~{RTS}*
X133650000Y-130000000D03*
G04 #@! TD*
D15*
G04 #@! TO.N,Net-(C102-Pad2)*
G04 #@! TO.C,J102*
X157773001Y-109938500D03*
D16*
G04 #@! TO.N,GND*
X157773001Y-107438500D03*
G04 #@! TD*
D17*
G04 #@! TO.N,GND*
G04 #@! TO.C,J101*
X156570000Y-96230000D03*
D18*
X160370000Y-96380000D03*
D17*
X156570000Y-88780000D03*
D18*
X160370000Y-88630000D03*
G04 #@! TD*
D17*
G04 #@! TO.N,+3V3*
G04 #@! TO.C,U105*
X115150000Y-94350000D03*
G04 #@! TO.N,Net-(U106-Pad10)*
X115150000Y-90750000D03*
G04 #@! TO.N,GND*
X111550000Y-90750000D03*
G04 #@! TD*
D19*
G04 #@! TO.N,GND*
X151750000Y-117750000D03*
X144250000Y-90500000D03*
X144250000Y-99750000D03*
X159250000Y-102250000D03*
X158750000Y-99750000D03*
X158750000Y-77500000D03*
X158750000Y-81500000D03*
X158000000Y-74250000D03*
X113000000Y-73500000D03*
X102500000Y-74000000D03*
X102250000Y-85000000D03*
X102750000Y-98750000D03*
X157000000Y-130750000D03*
X129250000Y-129250000D03*
X109500000Y-132000000D03*
X102500000Y-127000000D03*
X102500000Y-117750000D03*
X102750000Y-111000000D03*
X149250000Y-123500000D03*
X159000000Y-119000000D03*
X159250000Y-122500000D03*
X109500000Y-102000000D03*
X107250000Y-100500000D03*
X106000000Y-93500000D03*
X106750000Y-88250000D03*
X112250000Y-87250000D03*
X123500000Y-74000000D03*
X133000000Y-74000000D03*
X134000000Y-82750000D03*
X128250000Y-87000000D03*
X131000000Y-87000000D03*
X141750000Y-123750000D03*
X137500000Y-123750000D03*
X134000000Y-123750000D03*
X124500000Y-112750000D03*
X124500000Y-115250000D03*
X133500000Y-116250000D03*
X131750000Y-103750000D03*
X128750000Y-106000000D03*
X134250000Y-102750000D03*
X137750000Y-111750000D03*
X137750000Y-108500000D03*
X137750000Y-104750000D03*
X137750000Y-102250000D03*
G04 #@! TO.N,/IO2*
X131250000Y-99250000D03*
X119250000Y-121500000D03*
G04 #@! TO.N,/IO1*
X118250000Y-119500000D03*
X132512299Y-96012299D03*
G04 #@! TO.N,/IO0*
X118250000Y-117500000D03*
X132500000Y-95000000D03*
G04 #@! TO.N,/IO3*
X127750000Y-121750000D03*
X136000000Y-114500000D03*
G04 #@! TO.N,/OUT3_D*
X133500000Y-86250000D03*
X140250000Y-97500000D03*
G04 #@! TO.N,GND*
X159000000Y-120750000D03*
X128500000Y-109500000D03*
X133750000Y-100250000D03*
G04 #@! TO.N,/DIO4*
X142000000Y-121500000D03*
X145750000Y-96500000D03*
X145750000Y-108000000D03*
X132750000Y-121500000D03*
G04 #@! TO.N,/DIO5*
X138000000Y-114000000D03*
X146500000Y-102250000D03*
X142000000Y-114000000D03*
X146500000Y-95750000D03*
G04 #@! TO.N,/~{RST}*
X132500000Y-84500000D03*
X139750000Y-89250000D03*
G04 #@! TO.N,GND*
X139250000Y-92750000D03*
G04 #@! TO.N,/SWCLK*
X140500000Y-95500000D03*
X135750000Y-79500000D03*
G04 #@! TO.N,/OUT2_D*
X140500000Y-84000000D03*
X141250000Y-96750000D03*
G04 #@! TO.N,/SWDIO*
X142000000Y-97500000D03*
X134250000Y-79500000D03*
X140750000Y-85250000D03*
X137250000Y-85250000D03*
G04 #@! TO.N,+3V3*
X113250000Y-113500000D03*
G04 #@! TO.N,/5V*
X152250000Y-103750000D03*
X150000000Y-110250000D03*
G04 #@! TO.N,GND*
X155500000Y-100750000D03*
X148000000Y-99500000D03*
X128500000Y-123500000D03*
X117500000Y-111500000D03*
X117500000Y-109500000D03*
X117750000Y-98500000D03*
X117750000Y-97000000D03*
X123500000Y-80750000D03*
X123500000Y-82000000D03*
X126000000Y-87750000D03*
X137250000Y-86750000D03*
X140750000Y-86750000D03*
X139000000Y-84000000D03*
X145000000Y-84000000D03*
X152000000Y-84000000D03*
X149000000Y-87750000D03*
X146000000Y-89750000D03*
X145250000Y-88500000D03*
X150750000Y-95500000D03*
X142500000Y-105750000D03*
X150500000Y-104500000D03*
X148500000Y-108000000D03*
X145750000Y-114000000D03*
X144750000Y-115000000D03*
X155750000Y-116000000D03*
X151000000Y-122250000D03*
X144750000Y-122500000D03*
G04 #@! TO.N,+3V3*
X115250000Y-99750000D03*
G04 #@! TO.N,/BMON*
X155000000Y-120750000D03*
X134000000Y-91750000D03*
G04 #@! TO.N,/BATV*
X137762299Y-89237701D03*
X144750000Y-104250000D03*
G04 #@! TO.N,GND*
X155250000Y-91250000D03*
G04 #@! TO.N,+3V3*
X147000000Y-92250000D03*
X143500000Y-87000000D03*
X132750000Y-97750000D03*
X138750000Y-87000000D03*
X123500000Y-79500000D03*
X143000000Y-120500000D03*
X143000000Y-118000000D03*
X143000000Y-119250000D03*
G04 #@! TO.N,/5V*
X148000000Y-115500000D03*
G04 #@! TO.N,VCC*
X153500000Y-111750000D03*
G04 #@! TD*
G04 #@! TA.AperFunction,Conductor*
G04 #@! TO.N,GND*
G36*
X161693039Y-72269685D02*
G01*
X161738794Y-72322489D01*
X161750000Y-72374000D01*
X161750000Y-134151000D01*
X161730315Y-134218039D01*
X161677511Y-134263794D01*
X161626000Y-134275000D01*
X100349000Y-134275000D01*
X100281961Y-134255315D01*
X100236206Y-134202511D01*
X100225000Y-134151000D01*
X100225000Y-129985795D01*
X132632700Y-129985795D01*
X132649315Y-130183660D01*
X132704046Y-130374530D01*
X132794808Y-130551133D01*
X132918144Y-130706745D01*
X133069357Y-130835436D01*
X133074653Y-130838396D01*
X133074656Y-130838398D01*
X133104865Y-130855281D01*
X133242685Y-130932307D01*
X133431528Y-130993665D01*
X133437549Y-130994383D01*
X133504839Y-131002407D01*
X133628693Y-131017176D01*
X133634736Y-131016711D01*
X133634738Y-131016711D01*
X133820631Y-131002407D01*
X133820635Y-131002406D01*
X133826669Y-131001942D01*
X133832501Y-131000314D01*
X133832505Y-131000313D01*
X134012075Y-130950176D01*
X134012077Y-130950175D01*
X134017916Y-130948545D01*
X134195150Y-130859018D01*
X134199929Y-130855284D01*
X134199934Y-130855281D01*
X134346838Y-130740507D01*
X134346841Y-130740504D01*
X134351618Y-130736772D01*
X134481362Y-130586462D01*
X134579440Y-130413813D01*
X134642116Y-130225403D01*
X134647390Y-130183660D01*
X134666567Y-130031852D01*
X134666567Y-130031848D01*
X134667002Y-130028407D01*
X134667399Y-130000000D01*
X134666006Y-129985795D01*
X135172700Y-129985795D01*
X135189315Y-130183660D01*
X135244046Y-130374530D01*
X135334808Y-130551133D01*
X135458144Y-130706745D01*
X135609357Y-130835436D01*
X135614653Y-130838396D01*
X135614656Y-130838398D01*
X135644865Y-130855281D01*
X135782685Y-130932307D01*
X135971528Y-130993665D01*
X135977549Y-130994383D01*
X136044839Y-131002407D01*
X136168693Y-131017176D01*
X136174736Y-131016711D01*
X136174738Y-131016711D01*
X136360631Y-131002407D01*
X136360635Y-131002406D01*
X136366669Y-131001942D01*
X136372501Y-131000314D01*
X136372505Y-131000313D01*
X136552075Y-130950176D01*
X136552077Y-130950175D01*
X136557916Y-130948545D01*
X136735150Y-130859018D01*
X136739929Y-130855284D01*
X136739934Y-130855281D01*
X136886838Y-130740507D01*
X136886841Y-130740504D01*
X136891618Y-130736772D01*
X137021362Y-130586462D01*
X137119440Y-130413813D01*
X137182116Y-130225403D01*
X137187390Y-130183660D01*
X137206567Y-130031852D01*
X137206567Y-130031848D01*
X137207002Y-130028407D01*
X137207399Y-130000000D01*
X137206006Y-129985795D01*
X137712700Y-129985795D01*
X137729315Y-130183660D01*
X137784046Y-130374530D01*
X137874808Y-130551133D01*
X137998144Y-130706745D01*
X138149357Y-130835436D01*
X138154653Y-130838396D01*
X138154656Y-130838398D01*
X138184865Y-130855281D01*
X138322685Y-130932307D01*
X138511528Y-130993665D01*
X138517549Y-130994383D01*
X138584839Y-131002407D01*
X138708693Y-131017176D01*
X138714736Y-131016711D01*
X138714738Y-131016711D01*
X138900631Y-131002407D01*
X138900635Y-131002406D01*
X138906669Y-131001942D01*
X138912501Y-131000314D01*
X138912505Y-131000313D01*
X139092075Y-130950176D01*
X139092077Y-130950175D01*
X139097916Y-130948545D01*
X139275150Y-130859018D01*
X139279929Y-130855284D01*
X139279934Y-130855281D01*
X139426838Y-130740507D01*
X139426841Y-130740504D01*
X139431618Y-130736772D01*
X139561362Y-130586462D01*
X139659440Y-130413813D01*
X139722116Y-130225403D01*
X139727390Y-130183660D01*
X139746567Y-130031852D01*
X139746567Y-130031848D01*
X139747002Y-130028407D01*
X139747399Y-130000000D01*
X139746006Y-129985795D01*
X140252700Y-129985795D01*
X140269315Y-130183660D01*
X140324046Y-130374530D01*
X140414808Y-130551133D01*
X140538144Y-130706745D01*
X140689357Y-130835436D01*
X140694653Y-130838396D01*
X140694656Y-130838398D01*
X140724865Y-130855281D01*
X140862685Y-130932307D01*
X141051528Y-130993665D01*
X141057549Y-130994383D01*
X141124839Y-131002407D01*
X141248693Y-131017176D01*
X141254736Y-131016711D01*
X141254738Y-131016711D01*
X141440631Y-131002407D01*
X141440635Y-131002406D01*
X141446669Y-131001942D01*
X141452501Y-131000314D01*
X141452505Y-131000313D01*
X141632075Y-130950176D01*
X141632077Y-130950175D01*
X141637916Y-130948545D01*
X141815150Y-130859018D01*
X141819929Y-130855284D01*
X141819934Y-130855281D01*
X141966838Y-130740507D01*
X141966841Y-130740504D01*
X141971618Y-130736772D01*
X142101362Y-130586462D01*
X142199440Y-130413813D01*
X142262116Y-130225403D01*
X142267390Y-130183660D01*
X142286567Y-130031852D01*
X142286567Y-130031848D01*
X142287002Y-130028407D01*
X142287399Y-130000000D01*
X142286006Y-129985795D01*
X142792700Y-129985795D01*
X142809315Y-130183660D01*
X142864046Y-130374530D01*
X142954808Y-130551133D01*
X143078144Y-130706745D01*
X143229357Y-130835436D01*
X143234653Y-130838396D01*
X143234656Y-130838398D01*
X143264865Y-130855281D01*
X143402685Y-130932307D01*
X143591528Y-130993665D01*
X143597549Y-130994383D01*
X143664839Y-131002407D01*
X143788693Y-131017176D01*
X143794736Y-131016711D01*
X143794738Y-131016711D01*
X143980631Y-131002407D01*
X143980635Y-131002406D01*
X143986669Y-131001942D01*
X143992501Y-131000314D01*
X143992505Y-131000313D01*
X144172075Y-130950176D01*
X144172077Y-130950175D01*
X144177916Y-130948545D01*
X144355150Y-130859018D01*
X144359929Y-130855284D01*
X144359934Y-130855281D01*
X144506838Y-130740507D01*
X144506841Y-130740504D01*
X144511618Y-130736772D01*
X144641362Y-130586462D01*
X144739440Y-130413813D01*
X144802116Y-130225403D01*
X144807390Y-130183660D01*
X144826567Y-130031852D01*
X144826567Y-130031848D01*
X144827002Y-130028407D01*
X144827399Y-130000000D01*
X144808023Y-129802386D01*
X144750632Y-129612299D01*
X144657413Y-129436980D01*
X144531917Y-129283106D01*
X144378922Y-129156538D01*
X144204258Y-129062097D01*
X144195853Y-129059495D01*
X144020368Y-129005174D01*
X144020369Y-129005174D01*
X144014576Y-129003381D01*
X143817103Y-128982626D01*
X143811070Y-128983175D01*
X143811066Y-128983175D01*
X143691218Y-128994082D01*
X143619358Y-129000622D01*
X143613546Y-129002333D01*
X143613544Y-129002333D01*
X143434696Y-129054971D01*
X143428876Y-129056684D01*
X143252910Y-129148677D01*
X143098163Y-129273096D01*
X142970530Y-129425203D01*
X142874873Y-129599204D01*
X142814834Y-129788471D01*
X142792700Y-129985795D01*
X142286006Y-129985795D01*
X142268023Y-129802386D01*
X142210632Y-129612299D01*
X142117413Y-129436980D01*
X141991917Y-129283106D01*
X141838922Y-129156538D01*
X141664258Y-129062097D01*
X141655853Y-129059495D01*
X141480368Y-129005174D01*
X141480369Y-129005174D01*
X141474576Y-129003381D01*
X141277103Y-128982626D01*
X141271070Y-128983175D01*
X141271066Y-128983175D01*
X141151218Y-128994082D01*
X141079358Y-129000622D01*
X141073546Y-129002333D01*
X141073544Y-129002333D01*
X140894696Y-129054971D01*
X140888876Y-129056684D01*
X140712910Y-129148677D01*
X140558163Y-129273096D01*
X140430530Y-129425203D01*
X140334873Y-129599204D01*
X140274834Y-129788471D01*
X140252700Y-129985795D01*
X139746006Y-129985795D01*
X139728023Y-129802386D01*
X139670632Y-129612299D01*
X139577413Y-129436980D01*
X139451917Y-129283106D01*
X139298922Y-129156538D01*
X139124258Y-129062097D01*
X139115853Y-129059495D01*
X138940368Y-129005174D01*
X138940369Y-129005174D01*
X138934576Y-129003381D01*
X138737103Y-128982626D01*
X138731070Y-128983175D01*
X138731066Y-128983175D01*
X138611218Y-128994082D01*
X138539358Y-129000622D01*
X138533546Y-129002333D01*
X138533544Y-129002333D01*
X138354696Y-129054971D01*
X138348876Y-129056684D01*
X138172910Y-129148677D01*
X138018163Y-129273096D01*
X137890530Y-129425203D01*
X137794873Y-129599204D01*
X137734834Y-129788471D01*
X137712700Y-129985795D01*
X137206006Y-129985795D01*
X137188023Y-129802386D01*
X137130632Y-129612299D01*
X137037413Y-129436980D01*
X136911917Y-129283106D01*
X136758922Y-129156538D01*
X136584258Y-129062097D01*
X136575853Y-129059495D01*
X136400368Y-129005174D01*
X136400369Y-129005174D01*
X136394576Y-129003381D01*
X136197103Y-128982626D01*
X136191070Y-128983175D01*
X136191066Y-128983175D01*
X136071218Y-128994082D01*
X135999358Y-129000622D01*
X135993546Y-129002333D01*
X135993544Y-129002333D01*
X135814696Y-129054971D01*
X135808876Y-129056684D01*
X135632910Y-129148677D01*
X135478163Y-129273096D01*
X135350530Y-129425203D01*
X135254873Y-129599204D01*
X135194834Y-129788471D01*
X135172700Y-129985795D01*
X134666006Y-129985795D01*
X134648023Y-129802386D01*
X134590632Y-129612299D01*
X134497413Y-129436980D01*
X134371917Y-129283106D01*
X134218922Y-129156538D01*
X134044258Y-129062097D01*
X134035853Y-129059495D01*
X133860368Y-129005174D01*
X133860369Y-129005174D01*
X133854576Y-129003381D01*
X133657103Y-128982626D01*
X133651070Y-128983175D01*
X133651066Y-128983175D01*
X133531218Y-128994082D01*
X133459358Y-129000622D01*
X133453546Y-129002333D01*
X133453544Y-129002333D01*
X133274696Y-129054971D01*
X133268876Y-129056684D01*
X133092910Y-129148677D01*
X132938163Y-129273096D01*
X132810530Y-129425203D01*
X132714873Y-129599204D01*
X132654834Y-129788471D01*
X132632700Y-129985795D01*
X100225000Y-129985795D01*
X100225000Y-121493138D01*
X118594758Y-121493138D01*
X118595578Y-121500566D01*
X118595578Y-121500568D01*
X118597474Y-121517744D01*
X118612035Y-121649633D01*
X118666143Y-121797490D01*
X118670314Y-121803697D01*
X118734781Y-121899633D01*
X118753958Y-121928172D01*
X118776183Y-121948395D01*
X118864878Y-122029102D01*
X118864882Y-122029105D01*
X118870410Y-122034135D01*
X118876980Y-122037702D01*
X118876981Y-122037703D01*
X118915745Y-122058750D01*
X119008776Y-122109262D01*
X119111031Y-122136088D01*
X119153841Y-122147319D01*
X119153843Y-122147319D01*
X119161069Y-122149215D01*
X119238127Y-122150425D01*
X119311025Y-122151571D01*
X119311028Y-122151571D01*
X119318495Y-122151688D01*
X119325776Y-122150020D01*
X119325780Y-122150020D01*
X119464681Y-122118207D01*
X119471968Y-122116538D01*
X119612625Y-122045795D01*
X119618306Y-122040943D01*
X119618309Y-122040941D01*
X119726666Y-121948395D01*
X119726667Y-121948394D01*
X119732348Y-121943542D01*
X119743393Y-121928172D01*
X119769237Y-121892205D01*
X119824224Y-121815683D01*
X119853387Y-121743138D01*
X127094758Y-121743138D01*
X127095578Y-121750566D01*
X127095578Y-121750568D01*
X127102767Y-121815683D01*
X127112035Y-121899633D01*
X127114601Y-121906645D01*
X127114602Y-121906649D01*
X127124321Y-121933206D01*
X127166143Y-122047490D01*
X127253958Y-122178172D01*
X127276183Y-122198395D01*
X127364878Y-122279102D01*
X127364882Y-122279105D01*
X127370410Y-122284135D01*
X127508776Y-122359262D01*
X127611031Y-122386088D01*
X127653841Y-122397319D01*
X127653843Y-122397319D01*
X127661069Y-122399215D01*
X127738127Y-122400425D01*
X127811025Y-122401571D01*
X127811028Y-122401571D01*
X127818495Y-122401688D01*
X127825776Y-122400020D01*
X127825780Y-122400020D01*
X127964681Y-122368207D01*
X127971968Y-122366538D01*
X128112625Y-122295795D01*
X128118306Y-122290943D01*
X128118309Y-122290941D01*
X128226666Y-122198395D01*
X128226667Y-122198394D01*
X128232348Y-122193542D01*
X128243393Y-122178172D01*
X128265563Y-122147319D01*
X128324224Y-122065683D01*
X128382950Y-121919598D01*
X128384793Y-121906649D01*
X128404562Y-121767744D01*
X128404562Y-121767740D01*
X128405134Y-121763723D01*
X128405278Y-121750000D01*
X128396387Y-121676530D01*
X128387262Y-121601119D01*
X128387261Y-121601115D01*
X128386363Y-121593694D01*
X128356145Y-121513723D01*
X128348367Y-121493138D01*
X132094758Y-121493138D01*
X132095578Y-121500566D01*
X132095578Y-121500568D01*
X132097474Y-121517744D01*
X132112035Y-121649633D01*
X132166143Y-121797490D01*
X132170314Y-121803697D01*
X132234781Y-121899633D01*
X132253958Y-121928172D01*
X132276183Y-121948395D01*
X132364878Y-122029102D01*
X132364882Y-122029105D01*
X132370410Y-122034135D01*
X132376980Y-122037702D01*
X132376981Y-122037703D01*
X132415745Y-122058750D01*
X132508776Y-122109262D01*
X132611031Y-122136088D01*
X132653841Y-122147319D01*
X132653843Y-122147319D01*
X132661069Y-122149215D01*
X132738127Y-122150425D01*
X132811025Y-122151571D01*
X132811028Y-122151571D01*
X132818495Y-122151688D01*
X132825776Y-122150020D01*
X132825780Y-122150020D01*
X132964681Y-122118207D01*
X132971968Y-122116538D01*
X133112625Y-122045795D01*
X133118306Y-122040943D01*
X133118309Y-122040941D01*
X133226666Y-121948395D01*
X133226667Y-121948394D01*
X133232348Y-121943542D01*
X133243393Y-121928172D01*
X133269237Y-121892205D01*
X133324224Y-121815683D01*
X133382950Y-121669598D01*
X133384793Y-121656649D01*
X133404562Y-121517744D01*
X133404562Y-121517740D01*
X133405134Y-121513723D01*
X133405278Y-121500000D01*
X133404448Y-121493138D01*
X141344758Y-121493138D01*
X141345578Y-121500566D01*
X141345578Y-121500568D01*
X141347474Y-121517744D01*
X141362035Y-121649633D01*
X141416143Y-121797490D01*
X141420314Y-121803697D01*
X141484781Y-121899633D01*
X141503958Y-121928172D01*
X141526183Y-121948395D01*
X141614878Y-122029102D01*
X141614882Y-122029105D01*
X141620410Y-122034135D01*
X141626980Y-122037702D01*
X141626981Y-122037703D01*
X141665745Y-122058750D01*
X141758776Y-122109262D01*
X141861031Y-122136088D01*
X141903841Y-122147319D01*
X141903843Y-122147319D01*
X141911069Y-122149215D01*
X141988127Y-122150425D01*
X142061025Y-122151571D01*
X142061028Y-122151571D01*
X142068495Y-122151688D01*
X142075776Y-122150020D01*
X142075780Y-122150020D01*
X142214681Y-122118207D01*
X142221968Y-122116538D01*
X142362625Y-122045795D01*
X142368306Y-122040943D01*
X142368309Y-122040941D01*
X142476666Y-121948395D01*
X142476667Y-121948394D01*
X142482348Y-121943542D01*
X142493393Y-121928172D01*
X142519237Y-121892205D01*
X142574224Y-121815683D01*
X142632950Y-121669598D01*
X142634793Y-121656649D01*
X142654562Y-121517744D01*
X142654562Y-121517740D01*
X142655134Y-121513723D01*
X142655278Y-121500000D01*
X142649640Y-121453408D01*
X142637262Y-121351119D01*
X142637261Y-121351115D01*
X142636363Y-121343694D01*
X142609372Y-121272264D01*
X142604089Y-121202596D01*
X142637311Y-121141129D01*
X142698490Y-121107382D01*
X142758030Y-121112107D01*
X142758776Y-121109262D01*
X142903841Y-121147319D01*
X142903843Y-121147319D01*
X142911069Y-121149215D01*
X142988127Y-121150425D01*
X143061025Y-121151571D01*
X143061028Y-121151571D01*
X143068495Y-121151688D01*
X143075776Y-121150020D01*
X143075780Y-121150020D01*
X143214681Y-121118207D01*
X143221968Y-121116538D01*
X143362625Y-121045795D01*
X143368306Y-121040943D01*
X143368309Y-121040941D01*
X143476666Y-120948395D01*
X143476667Y-120948394D01*
X143482348Y-120943542D01*
X143493393Y-120928172D01*
X143513900Y-120899633D01*
X143574224Y-120815683D01*
X143603387Y-120743138D01*
X154344758Y-120743138D01*
X154345578Y-120750566D01*
X154345578Y-120750568D01*
X154352767Y-120815683D01*
X154362035Y-120899633D01*
X154364601Y-120906645D01*
X154364602Y-120906649D01*
X154383406Y-120958032D01*
X154416143Y-121047490D01*
X154503958Y-121178172D01*
X154541046Y-121211919D01*
X154614878Y-121279102D01*
X154614882Y-121279105D01*
X154620410Y-121284135D01*
X154626980Y-121287702D01*
X154626981Y-121287703D01*
X154752208Y-121355696D01*
X154758776Y-121359262D01*
X154861031Y-121386088D01*
X154903841Y-121397319D01*
X154903843Y-121397319D01*
X154911069Y-121399215D01*
X154988127Y-121400425D01*
X155061025Y-121401571D01*
X155061028Y-121401571D01*
X155068495Y-121401688D01*
X155075776Y-121400020D01*
X155075780Y-121400020D01*
X155214681Y-121368207D01*
X155221968Y-121366538D01*
X155362625Y-121295795D01*
X155368306Y-121290943D01*
X155368309Y-121290941D01*
X155476666Y-121198395D01*
X155476667Y-121198394D01*
X155482348Y-121193542D01*
X155493393Y-121178172D01*
X155519569Y-121141744D01*
X155574224Y-121065683D01*
X155632950Y-120919598D01*
X155634793Y-120906649D01*
X155654562Y-120767744D01*
X155654562Y-120767740D01*
X155655134Y-120763723D01*
X155655278Y-120750000D01*
X155646387Y-120676530D01*
X155637262Y-120601119D01*
X155637261Y-120601115D01*
X155636363Y-120593694D01*
X155606145Y-120513723D01*
X155583354Y-120453408D01*
X155583352Y-120453405D01*
X155580710Y-120446412D01*
X155572337Y-120434229D01*
X155495768Y-120322821D01*
X155495765Y-120322818D01*
X155491531Y-120316657D01*
X155373976Y-120211919D01*
X155234831Y-120138245D01*
X155082128Y-120099889D01*
X155000329Y-120099461D01*
X154932158Y-120099104D01*
X154932157Y-120099104D01*
X154924684Y-120099065D01*
X154917421Y-120100809D01*
X154917418Y-120100809D01*
X154848136Y-120117443D01*
X154771588Y-120135820D01*
X154631679Y-120208032D01*
X154513034Y-120311533D01*
X154422501Y-120440348D01*
X154365309Y-120587039D01*
X154344758Y-120743138D01*
X143603387Y-120743138D01*
X143632950Y-120669598D01*
X143634793Y-120656649D01*
X143654562Y-120517744D01*
X143654562Y-120517740D01*
X143655134Y-120513723D01*
X143655278Y-120500000D01*
X143649640Y-120453408D01*
X143637262Y-120351119D01*
X143637261Y-120351115D01*
X143636363Y-120343694D01*
X143588449Y-120216893D01*
X143583354Y-120203408D01*
X143583352Y-120203405D01*
X143580710Y-120196412D01*
X143549972Y-120151688D01*
X143495768Y-120072821D01*
X143495765Y-120072818D01*
X143491531Y-120066657D01*
X143379353Y-119966709D01*
X143342394Y-119907416D01*
X143343358Y-119837553D01*
X143381310Y-119779837D01*
X143476666Y-119698395D01*
X143476667Y-119698394D01*
X143482348Y-119693542D01*
X143493393Y-119678172D01*
X143519237Y-119642205D01*
X143574224Y-119565683D01*
X143632950Y-119419598D01*
X143634793Y-119406649D01*
X143654562Y-119267744D01*
X143654562Y-119267740D01*
X143655134Y-119263723D01*
X143655278Y-119250000D01*
X143649640Y-119203408D01*
X143637262Y-119101119D01*
X143637261Y-119101115D01*
X143636363Y-119093694D01*
X143588449Y-118966893D01*
X143583354Y-118953408D01*
X143583352Y-118953405D01*
X143580710Y-118946412D01*
X143572337Y-118934229D01*
X143495768Y-118822821D01*
X143495765Y-118822818D01*
X143491531Y-118816657D01*
X143379353Y-118716709D01*
X143342394Y-118657416D01*
X143343358Y-118587553D01*
X143381310Y-118529837D01*
X143476666Y-118448395D01*
X143476667Y-118448394D01*
X143482348Y-118443542D01*
X143493393Y-118428172D01*
X143513798Y-118399775D01*
X143574224Y-118315683D01*
X143632950Y-118169598D01*
X143635516Y-118151571D01*
X143654562Y-118017744D01*
X143654562Y-118017740D01*
X143655134Y-118013723D01*
X143655278Y-118000000D01*
X143648446Y-117943542D01*
X143637262Y-117851119D01*
X143637261Y-117851115D01*
X143636363Y-117843694D01*
X143623159Y-117808750D01*
X143583354Y-117703408D01*
X143583352Y-117703405D01*
X143580710Y-117696412D01*
X143572337Y-117684229D01*
X143495768Y-117572821D01*
X143495765Y-117572818D01*
X143491531Y-117566657D01*
X143412191Y-117495967D01*
X143379559Y-117466893D01*
X143379558Y-117466892D01*
X143373976Y-117461919D01*
X143234831Y-117388245D01*
X143082128Y-117349889D01*
X143000329Y-117349461D01*
X142932158Y-117349104D01*
X142932157Y-117349104D01*
X142924684Y-117349065D01*
X142917421Y-117350809D01*
X142917418Y-117350809D01*
X142848136Y-117367442D01*
X142771588Y-117385820D01*
X142631679Y-117458032D01*
X142513034Y-117561533D01*
X142422501Y-117690348D01*
X142365309Y-117837039D01*
X142344758Y-117993138D01*
X142345578Y-118000566D01*
X142345578Y-118000568D01*
X142347474Y-118017744D01*
X142362035Y-118149633D01*
X142416143Y-118297490D01*
X142503958Y-118428172D01*
X142526183Y-118448395D01*
X142620410Y-118534135D01*
X142618175Y-118536591D01*
X142652202Y-118579785D01*
X142658902Y-118649333D01*
X142626937Y-118711462D01*
X142618637Y-118719409D01*
X142518669Y-118806616D01*
X142518664Y-118806622D01*
X142513034Y-118811533D01*
X142422501Y-118940348D01*
X142365309Y-119087039D01*
X142344758Y-119243138D01*
X142345578Y-119250566D01*
X142345578Y-119250568D01*
X142347474Y-119267744D01*
X142362035Y-119399633D01*
X142416143Y-119547490D01*
X142420314Y-119553697D01*
X142484781Y-119649633D01*
X142503958Y-119678172D01*
X142526183Y-119698395D01*
X142620410Y-119784135D01*
X142618175Y-119786591D01*
X142652202Y-119829785D01*
X142658902Y-119899333D01*
X142626937Y-119961462D01*
X142618637Y-119969409D01*
X142518669Y-120056616D01*
X142518664Y-120056622D01*
X142513034Y-120061533D01*
X142422501Y-120190348D01*
X142365309Y-120337039D01*
X142344758Y-120493138D01*
X142345578Y-120500566D01*
X142345578Y-120500568D01*
X142347474Y-120517744D01*
X142362035Y-120649633D01*
X142364601Y-120656645D01*
X142364602Y-120656649D01*
X142391100Y-120729057D01*
X142395653Y-120798778D01*
X142361789Y-120859893D01*
X142300260Y-120892998D01*
X142234940Y-120887810D01*
X142234831Y-120888245D01*
X142082128Y-120849889D01*
X142000329Y-120849461D01*
X141932158Y-120849104D01*
X141932157Y-120849104D01*
X141924684Y-120849065D01*
X141917421Y-120850809D01*
X141917418Y-120850809D01*
X141848136Y-120867443D01*
X141771588Y-120885820D01*
X141631679Y-120958032D01*
X141513034Y-121061533D01*
X141422501Y-121190348D01*
X141365309Y-121337039D01*
X141344758Y-121493138D01*
X133404448Y-121493138D01*
X133399640Y-121453408D01*
X133387262Y-121351119D01*
X133387261Y-121351115D01*
X133386363Y-121343694D01*
X133361956Y-121279102D01*
X133333354Y-121203408D01*
X133333352Y-121203405D01*
X133330710Y-121196412D01*
X133299972Y-121151688D01*
X133245768Y-121072821D01*
X133245765Y-121072818D01*
X133241531Y-121066657D01*
X133123976Y-120961919D01*
X132984831Y-120888245D01*
X132832128Y-120849889D01*
X132750329Y-120849461D01*
X132682158Y-120849104D01*
X132682157Y-120849104D01*
X132674684Y-120849065D01*
X132667421Y-120850809D01*
X132667418Y-120850809D01*
X132598136Y-120867443D01*
X132521588Y-120885820D01*
X132381679Y-120958032D01*
X132263034Y-121061533D01*
X132172501Y-121190348D01*
X132115309Y-121337039D01*
X132094758Y-121493138D01*
X128348367Y-121493138D01*
X128333354Y-121453408D01*
X128333352Y-121453405D01*
X128330710Y-121446412D01*
X128299972Y-121401688D01*
X128245768Y-121322821D01*
X128245765Y-121322818D01*
X128241531Y-121316657D01*
X128123976Y-121211919D01*
X127984831Y-121138245D01*
X127832128Y-121099889D01*
X127750329Y-121099461D01*
X127682158Y-121099104D01*
X127682157Y-121099104D01*
X127674684Y-121099065D01*
X127667421Y-121100809D01*
X127667418Y-121100809D01*
X127598136Y-121117443D01*
X127521588Y-121135820D01*
X127381679Y-121208032D01*
X127263034Y-121311533D01*
X127172501Y-121440348D01*
X127115309Y-121587039D01*
X127094758Y-121743138D01*
X119853387Y-121743138D01*
X119882950Y-121669598D01*
X119884793Y-121656649D01*
X119904562Y-121517744D01*
X119904562Y-121517740D01*
X119905134Y-121513723D01*
X119905278Y-121500000D01*
X119899640Y-121453408D01*
X119887262Y-121351119D01*
X119887261Y-121351115D01*
X119886363Y-121343694D01*
X119861956Y-121279102D01*
X119833354Y-121203408D01*
X119833352Y-121203405D01*
X119830710Y-121196412D01*
X119799972Y-121151688D01*
X119745768Y-121072821D01*
X119745765Y-121072818D01*
X119741531Y-121066657D01*
X119623976Y-120961919D01*
X119484831Y-120888245D01*
X119332128Y-120849889D01*
X119250329Y-120849461D01*
X119182158Y-120849104D01*
X119182157Y-120849104D01*
X119174684Y-120849065D01*
X119167421Y-120850809D01*
X119167418Y-120850809D01*
X119098136Y-120867443D01*
X119021588Y-120885820D01*
X118881679Y-120958032D01*
X118763034Y-121061533D01*
X118672501Y-121190348D01*
X118615309Y-121337039D01*
X118594758Y-121493138D01*
X100225000Y-121493138D01*
X100225000Y-119493138D01*
X117594758Y-119493138D01*
X117595578Y-119500566D01*
X117595578Y-119500568D01*
X117602767Y-119565683D01*
X117612035Y-119649633D01*
X117614601Y-119656645D01*
X117614602Y-119656649D01*
X117624321Y-119683206D01*
X117666143Y-119797490D01*
X117753958Y-119928172D01*
X117791046Y-119961919D01*
X117864878Y-120029102D01*
X117864882Y-120029105D01*
X117870410Y-120034135D01*
X117876980Y-120037702D01*
X117876981Y-120037703D01*
X117994867Y-120101710D01*
X118008776Y-120109262D01*
X118103362Y-120134076D01*
X118153841Y-120147319D01*
X118153843Y-120147319D01*
X118161069Y-120149215D01*
X118238127Y-120150425D01*
X118311025Y-120151571D01*
X118311028Y-120151571D01*
X118318495Y-120151688D01*
X118325776Y-120150020D01*
X118325780Y-120150020D01*
X118464681Y-120118207D01*
X118471968Y-120116538D01*
X118612625Y-120045795D01*
X118618306Y-120040943D01*
X118618309Y-120040941D01*
X118726666Y-119948395D01*
X118726667Y-119948394D01*
X118732348Y-119943542D01*
X118743393Y-119928172D01*
X118792909Y-119859262D01*
X118824224Y-119815683D01*
X118882950Y-119669598D01*
X118884793Y-119656649D01*
X118904562Y-119517744D01*
X118904562Y-119517740D01*
X118905134Y-119513723D01*
X118905278Y-119500000D01*
X118896387Y-119426530D01*
X118887262Y-119351119D01*
X118887261Y-119351115D01*
X118886363Y-119343694D01*
X118856145Y-119263723D01*
X118833354Y-119203408D01*
X118833352Y-119203405D01*
X118830710Y-119196412D01*
X118822337Y-119184229D01*
X118745768Y-119072821D01*
X118745765Y-119072818D01*
X118741531Y-119066657D01*
X118623976Y-118961919D01*
X118484831Y-118888245D01*
X118332128Y-118849889D01*
X118250329Y-118849461D01*
X118182158Y-118849104D01*
X118182157Y-118849104D01*
X118174684Y-118849065D01*
X118167421Y-118850809D01*
X118167418Y-118850809D01*
X118098136Y-118867443D01*
X118021588Y-118885820D01*
X117881679Y-118958032D01*
X117763034Y-119061533D01*
X117672501Y-119190348D01*
X117615309Y-119337039D01*
X117594758Y-119493138D01*
X100225000Y-119493138D01*
X100225000Y-117493138D01*
X117594758Y-117493138D01*
X117595578Y-117500566D01*
X117595578Y-117500568D01*
X117597474Y-117517744D01*
X117612035Y-117649633D01*
X117614601Y-117656645D01*
X117614602Y-117656649D01*
X117629484Y-117697314D01*
X117666143Y-117797490D01*
X117753958Y-117928172D01*
X117776183Y-117948395D01*
X117864878Y-118029102D01*
X117864882Y-118029105D01*
X117870410Y-118034135D01*
X118008776Y-118109262D01*
X118111031Y-118136088D01*
X118153841Y-118147319D01*
X118153843Y-118147319D01*
X118161069Y-118149215D01*
X118238127Y-118150425D01*
X118311025Y-118151571D01*
X118311028Y-118151571D01*
X118318495Y-118151688D01*
X118325776Y-118150020D01*
X118325780Y-118150020D01*
X118464681Y-118118207D01*
X118471968Y-118116538D01*
X118612625Y-118045795D01*
X118618306Y-118040943D01*
X118618309Y-118040941D01*
X118726666Y-117948395D01*
X118726667Y-117948394D01*
X118732348Y-117943542D01*
X118743393Y-117928172D01*
X118763798Y-117899775D01*
X118824224Y-117815683D01*
X118882950Y-117669598D01*
X118884793Y-117656649D01*
X118904562Y-117517744D01*
X118904562Y-117517740D01*
X118905134Y-117513723D01*
X118905278Y-117500000D01*
X118900670Y-117461919D01*
X118887262Y-117351119D01*
X118887261Y-117351115D01*
X118886363Y-117343694D01*
X118830710Y-117196412D01*
X118822337Y-117184229D01*
X118745768Y-117072821D01*
X118745765Y-117072818D01*
X118741531Y-117066657D01*
X118623976Y-116961919D01*
X118484831Y-116888245D01*
X118332128Y-116849889D01*
X118250329Y-116849461D01*
X118182158Y-116849104D01*
X118182157Y-116849104D01*
X118174684Y-116849065D01*
X118167421Y-116850809D01*
X118167418Y-116850809D01*
X118098136Y-116867442D01*
X118021588Y-116885820D01*
X117881679Y-116958032D01*
X117763034Y-117061533D01*
X117672501Y-117190348D01*
X117615309Y-117337039D01*
X117594758Y-117493138D01*
X100225000Y-117493138D01*
X100225000Y-115493138D01*
X147344758Y-115493138D01*
X147345578Y-115500566D01*
X147345578Y-115500568D01*
X147347474Y-115517744D01*
X147362035Y-115649633D01*
X147416143Y-115797490D01*
X147503958Y-115928172D01*
X147526183Y-115948395D01*
X147614878Y-116029102D01*
X147614882Y-116029105D01*
X147620410Y-116034135D01*
X147758776Y-116109262D01*
X147861031Y-116136088D01*
X147903841Y-116147319D01*
X147903843Y-116147319D01*
X147911069Y-116149215D01*
X147988127Y-116150425D01*
X148061025Y-116151571D01*
X148061028Y-116151571D01*
X148068495Y-116151688D01*
X148075776Y-116150020D01*
X148075780Y-116150020D01*
X148214681Y-116118207D01*
X148221968Y-116116538D01*
X148362625Y-116045795D01*
X148368306Y-116040943D01*
X148368309Y-116040941D01*
X148476666Y-115948395D01*
X148476667Y-115948394D01*
X148482348Y-115943542D01*
X148493393Y-115928172D01*
X148513798Y-115899775D01*
X148574224Y-115815683D01*
X148632950Y-115669598D01*
X148634793Y-115656649D01*
X148654562Y-115517744D01*
X148654562Y-115517740D01*
X148655134Y-115513723D01*
X148655278Y-115500000D01*
X148636363Y-115343694D01*
X148580710Y-115196412D01*
X148549972Y-115151688D01*
X148495768Y-115072821D01*
X148495765Y-115072818D01*
X148491531Y-115066657D01*
X148373976Y-114961919D01*
X148234831Y-114888245D01*
X148082128Y-114849889D01*
X148000329Y-114849461D01*
X147932158Y-114849104D01*
X147932157Y-114849104D01*
X147924684Y-114849065D01*
X147917421Y-114850809D01*
X147917418Y-114850809D01*
X147848136Y-114867443D01*
X147771588Y-114885820D01*
X147631679Y-114958032D01*
X147513034Y-115061533D01*
X147422501Y-115190348D01*
X147365309Y-115337039D01*
X147344758Y-115493138D01*
X100225000Y-115493138D01*
X100225000Y-114493138D01*
X135344758Y-114493138D01*
X135345578Y-114500566D01*
X135345578Y-114500568D01*
X135347474Y-114517744D01*
X135362035Y-114649633D01*
X135416143Y-114797490D01*
X135503958Y-114928172D01*
X135541046Y-114961919D01*
X135614878Y-115029102D01*
X135614882Y-115029105D01*
X135620410Y-115034135D01*
X135626980Y-115037702D01*
X135626981Y-115037703D01*
X135691660Y-115072821D01*
X135758776Y-115109262D01*
X135861031Y-115136088D01*
X135903841Y-115147319D01*
X135903843Y-115147319D01*
X135911069Y-115149215D01*
X135988127Y-115150425D01*
X136061025Y-115151571D01*
X136061028Y-115151571D01*
X136068495Y-115151688D01*
X136075776Y-115150020D01*
X136075780Y-115150020D01*
X136214681Y-115118207D01*
X136221968Y-115116538D01*
X136362625Y-115045795D01*
X136368306Y-115040943D01*
X136368309Y-115040941D01*
X136476666Y-114948395D01*
X136476667Y-114948394D01*
X136482348Y-114943542D01*
X136493393Y-114928172D01*
X136549644Y-114849889D01*
X136574224Y-114815683D01*
X136632950Y-114669598D01*
X136635516Y-114651571D01*
X136654562Y-114517744D01*
X136654562Y-114517740D01*
X136655134Y-114513723D01*
X136655278Y-114500000D01*
X136648446Y-114443542D01*
X136637262Y-114351119D01*
X136637261Y-114351115D01*
X136636363Y-114343694D01*
X136623159Y-114308750D01*
X136583354Y-114203408D01*
X136583352Y-114203405D01*
X136580710Y-114196412D01*
X136572337Y-114184229D01*
X136495768Y-114072821D01*
X136495765Y-114072818D01*
X136491531Y-114066657D01*
X136412191Y-113995967D01*
X136409016Y-113993138D01*
X137344758Y-113993138D01*
X137345578Y-114000566D01*
X137345578Y-114000568D01*
X137347474Y-114017744D01*
X137362035Y-114149633D01*
X137364601Y-114156645D01*
X137364602Y-114156649D01*
X137379484Y-114197314D01*
X137416143Y-114297490D01*
X137503958Y-114428172D01*
X137526183Y-114448395D01*
X137614878Y-114529102D01*
X137614882Y-114529105D01*
X137620410Y-114534135D01*
X137758776Y-114609262D01*
X137861031Y-114636088D01*
X137903841Y-114647319D01*
X137903843Y-114647319D01*
X137911069Y-114649215D01*
X137988127Y-114650425D01*
X138061025Y-114651571D01*
X138061028Y-114651571D01*
X138068495Y-114651688D01*
X138075776Y-114650020D01*
X138075780Y-114650020D01*
X138214681Y-114618207D01*
X138221968Y-114616538D01*
X138362625Y-114545795D01*
X138368306Y-114540943D01*
X138368309Y-114540941D01*
X138476666Y-114448395D01*
X138476667Y-114448394D01*
X138482348Y-114443542D01*
X138493393Y-114428172D01*
X138513798Y-114399775D01*
X138574224Y-114315683D01*
X138632950Y-114169598D01*
X138635516Y-114151571D01*
X138654562Y-114017744D01*
X138654562Y-114017740D01*
X138655134Y-114013723D01*
X138655278Y-114000000D01*
X138654448Y-113993138D01*
X141344758Y-113993138D01*
X141345578Y-114000566D01*
X141345578Y-114000568D01*
X141347474Y-114017744D01*
X141362035Y-114149633D01*
X141364601Y-114156645D01*
X141364602Y-114156649D01*
X141379484Y-114197314D01*
X141416143Y-114297490D01*
X141503958Y-114428172D01*
X141526183Y-114448395D01*
X141614878Y-114529102D01*
X141614882Y-114529105D01*
X141620410Y-114534135D01*
X141758776Y-114609262D01*
X141861031Y-114636088D01*
X141903841Y-114647319D01*
X141903843Y-114647319D01*
X141911069Y-114649215D01*
X141988127Y-114650425D01*
X142061025Y-114651571D01*
X142061028Y-114651571D01*
X142068495Y-114651688D01*
X142075776Y-114650020D01*
X142075780Y-114650020D01*
X142214681Y-114618207D01*
X142221968Y-114616538D01*
X142362625Y-114545795D01*
X142368306Y-114540943D01*
X142368309Y-114540941D01*
X142476666Y-114448395D01*
X142476667Y-114448394D01*
X142482348Y-114443542D01*
X142493393Y-114428172D01*
X142513798Y-114399775D01*
X142574224Y-114315683D01*
X142632950Y-114169598D01*
X142635516Y-114151571D01*
X142654562Y-114017744D01*
X142654562Y-114017740D01*
X142655134Y-114013723D01*
X142655278Y-114000000D01*
X142650670Y-113961919D01*
X142637262Y-113851119D01*
X142637261Y-113851115D01*
X142636363Y-113843694D01*
X142623159Y-113808750D01*
X142583354Y-113703408D01*
X142583352Y-113703405D01*
X142580710Y-113696412D01*
X142572337Y-113684229D01*
X142495768Y-113572821D01*
X142495765Y-113572818D01*
X142491531Y-113566657D01*
X142412191Y-113495967D01*
X142379559Y-113466893D01*
X142379558Y-113466892D01*
X142373976Y-113461919D01*
X142234831Y-113388245D01*
X142082128Y-113349889D01*
X142000329Y-113349461D01*
X141932158Y-113349104D01*
X141932157Y-113349104D01*
X141924684Y-113349065D01*
X141917421Y-113350809D01*
X141917418Y-113350809D01*
X141848136Y-113367443D01*
X141771588Y-113385820D01*
X141631679Y-113458032D01*
X141513034Y-113561533D01*
X141422501Y-113690348D01*
X141365309Y-113837039D01*
X141344758Y-113993138D01*
X138654448Y-113993138D01*
X138650670Y-113961919D01*
X138637262Y-113851119D01*
X138637261Y-113851115D01*
X138636363Y-113843694D01*
X138623159Y-113808750D01*
X138583354Y-113703408D01*
X138583352Y-113703405D01*
X138580710Y-113696412D01*
X138572337Y-113684229D01*
X138495768Y-113572821D01*
X138495765Y-113572818D01*
X138491531Y-113566657D01*
X138412191Y-113495967D01*
X138379559Y-113466893D01*
X138379558Y-113466892D01*
X138373976Y-113461919D01*
X138234831Y-113388245D01*
X138082128Y-113349889D01*
X138000329Y-113349461D01*
X137932158Y-113349104D01*
X137932157Y-113349104D01*
X137924684Y-113349065D01*
X137917421Y-113350809D01*
X137917418Y-113350809D01*
X137848136Y-113367443D01*
X137771588Y-113385820D01*
X137631679Y-113458032D01*
X137513034Y-113561533D01*
X137422501Y-113690348D01*
X137365309Y-113837039D01*
X137344758Y-113993138D01*
X136409016Y-113993138D01*
X136379559Y-113966893D01*
X136379558Y-113966892D01*
X136373976Y-113961919D01*
X136234831Y-113888245D01*
X136082128Y-113849889D01*
X136000329Y-113849461D01*
X135932158Y-113849104D01*
X135932157Y-113849104D01*
X135924684Y-113849065D01*
X135917421Y-113850809D01*
X135917418Y-113850809D01*
X135848136Y-113867443D01*
X135771588Y-113885820D01*
X135631679Y-113958032D01*
X135513034Y-114061533D01*
X135422501Y-114190348D01*
X135365309Y-114337039D01*
X135344758Y-114493138D01*
X100225000Y-114493138D01*
X100225000Y-113493138D01*
X112594758Y-113493138D01*
X112595578Y-113500566D01*
X112595578Y-113500568D01*
X112597474Y-113517744D01*
X112612035Y-113649633D01*
X112614601Y-113656645D01*
X112614602Y-113656649D01*
X112629484Y-113697314D01*
X112666143Y-113797490D01*
X112753958Y-113928172D01*
X112791046Y-113961919D01*
X112864878Y-114029102D01*
X112864882Y-114029105D01*
X112870410Y-114034135D01*
X112876980Y-114037702D01*
X112876981Y-114037703D01*
X112941660Y-114072821D01*
X113008776Y-114109262D01*
X113111031Y-114136088D01*
X113153841Y-114147319D01*
X113153843Y-114147319D01*
X113161069Y-114149215D01*
X113238127Y-114150425D01*
X113311025Y-114151571D01*
X113311028Y-114151571D01*
X113318495Y-114151688D01*
X113325776Y-114150020D01*
X113325780Y-114150020D01*
X113464681Y-114118207D01*
X113471968Y-114116538D01*
X113612625Y-114045795D01*
X113618306Y-114040943D01*
X113618309Y-114040941D01*
X113726666Y-113948395D01*
X113726667Y-113948394D01*
X113732348Y-113943542D01*
X113743393Y-113928172D01*
X113798336Y-113851710D01*
X113824224Y-113815683D01*
X113882950Y-113669598D01*
X113884793Y-113656649D01*
X113904562Y-113517744D01*
X113904562Y-113517740D01*
X113905134Y-113513723D01*
X113905278Y-113500000D01*
X113900670Y-113461919D01*
X113887262Y-113351119D01*
X113887261Y-113351115D01*
X113886363Y-113343694D01*
X113830710Y-113196412D01*
X113822337Y-113184229D01*
X113745768Y-113072821D01*
X113745765Y-113072818D01*
X113741531Y-113066657D01*
X113623976Y-112961919D01*
X113484831Y-112888245D01*
X113332128Y-112849889D01*
X113250329Y-112849461D01*
X113182158Y-112849104D01*
X113182157Y-112849104D01*
X113174684Y-112849065D01*
X113167421Y-112850809D01*
X113167418Y-112850809D01*
X113098136Y-112867442D01*
X113021588Y-112885820D01*
X112881679Y-112958032D01*
X112763034Y-113061533D01*
X112672501Y-113190348D01*
X112615309Y-113337039D01*
X112594758Y-113493138D01*
X100225000Y-113493138D01*
X100225000Y-111743138D01*
X152844758Y-111743138D01*
X152845578Y-111750566D01*
X152845578Y-111750568D01*
X152847474Y-111767744D01*
X152862035Y-111899633D01*
X152916143Y-112047490D01*
X153003958Y-112178172D01*
X153026183Y-112198395D01*
X153114878Y-112279102D01*
X153114882Y-112279105D01*
X153120410Y-112284135D01*
X153258776Y-112359262D01*
X153361031Y-112386088D01*
X153403841Y-112397319D01*
X153403843Y-112397319D01*
X153411069Y-112399215D01*
X153488127Y-112400425D01*
X153561025Y-112401571D01*
X153561028Y-112401571D01*
X153568495Y-112401688D01*
X153575776Y-112400020D01*
X153575780Y-112400020D01*
X153714681Y-112368207D01*
X153721968Y-112366538D01*
X153862625Y-112295795D01*
X153868306Y-112290943D01*
X153868309Y-112290941D01*
X153976666Y-112198395D01*
X153976667Y-112198394D01*
X153982348Y-112193542D01*
X153993393Y-112178172D01*
X154013798Y-112149775D01*
X154074224Y-112065683D01*
X154132950Y-111919598D01*
X154134793Y-111906649D01*
X154154562Y-111767744D01*
X154154562Y-111767740D01*
X154155134Y-111763723D01*
X154155278Y-111750000D01*
X154136363Y-111593694D01*
X154080710Y-111446412D01*
X154072337Y-111434229D01*
X153995768Y-111322821D01*
X153995765Y-111322818D01*
X153991531Y-111316657D01*
X153873976Y-111211919D01*
X153734831Y-111138245D01*
X153582128Y-111099889D01*
X153500329Y-111099461D01*
X153432158Y-111099104D01*
X153432157Y-111099104D01*
X153424684Y-111099065D01*
X153417421Y-111100809D01*
X153417418Y-111100809D01*
X153348136Y-111117442D01*
X153271588Y-111135820D01*
X153131679Y-111208032D01*
X153013034Y-111311533D01*
X152922501Y-111440348D01*
X152865309Y-111587039D01*
X152844758Y-111743138D01*
X100225000Y-111743138D01*
X100225000Y-110243138D01*
X149344758Y-110243138D01*
X149345578Y-110250566D01*
X149345578Y-110250568D01*
X149347474Y-110267744D01*
X149362035Y-110399633D01*
X149416143Y-110547490D01*
X149503958Y-110678172D01*
X149526183Y-110698395D01*
X149614878Y-110779102D01*
X149614882Y-110779105D01*
X149620410Y-110784135D01*
X149626980Y-110787702D01*
X149626981Y-110787703D01*
X149632945Y-110790941D01*
X149758776Y-110859262D01*
X149861031Y-110886088D01*
X149903841Y-110897319D01*
X149903843Y-110897319D01*
X149911069Y-110899215D01*
X149988127Y-110900425D01*
X150061025Y-110901571D01*
X150061028Y-110901571D01*
X150068495Y-110901688D01*
X150075776Y-110900020D01*
X150075780Y-110900020D01*
X150214681Y-110868207D01*
X150221968Y-110866538D01*
X150362625Y-110795795D01*
X150368306Y-110790943D01*
X150368309Y-110790941D01*
X150476666Y-110698395D01*
X150476667Y-110698394D01*
X150482348Y-110693542D01*
X150493393Y-110678172D01*
X150559713Y-110585877D01*
X150574224Y-110565683D01*
X150632950Y-110419598D01*
X150634793Y-110406649D01*
X150654562Y-110267744D01*
X150654562Y-110267740D01*
X150655134Y-110263723D01*
X150655278Y-110250000D01*
X150636363Y-110093694D01*
X150580710Y-109946412D01*
X150572337Y-109934229D01*
X150495768Y-109822821D01*
X150495765Y-109822818D01*
X150491531Y-109816657D01*
X150373976Y-109711919D01*
X150234831Y-109638245D01*
X150082128Y-109599889D01*
X150000329Y-109599461D01*
X149932158Y-109599104D01*
X149932157Y-109599104D01*
X149924684Y-109599065D01*
X149917421Y-109600809D01*
X149917418Y-109600809D01*
X149848136Y-109617443D01*
X149771588Y-109635820D01*
X149631679Y-109708032D01*
X149513034Y-109811533D01*
X149422501Y-109940348D01*
X149365309Y-110087039D01*
X149344758Y-110243138D01*
X100225000Y-110243138D01*
X100225000Y-109291123D01*
X156522501Y-109291123D01*
X156522502Y-110585876D01*
X156529150Y-110647080D01*
X156579475Y-110781324D01*
X156584770Y-110788389D01*
X156584771Y-110788391D01*
X156590320Y-110795795D01*
X156665455Y-110896046D01*
X156672520Y-110901341D01*
X156773110Y-110976730D01*
X156773112Y-110976731D01*
X156780177Y-110982026D01*
X156914421Y-111032351D01*
X156975624Y-111039000D01*
X157772882Y-111039000D01*
X158570377Y-111038999D01*
X158631581Y-111032351D01*
X158765825Y-110982026D01*
X158772890Y-110976731D01*
X158772892Y-110976730D01*
X158873482Y-110901341D01*
X158880547Y-110896046D01*
X158955682Y-110795795D01*
X158961231Y-110788391D01*
X158961232Y-110788389D01*
X158966527Y-110781324D01*
X159016852Y-110647080D01*
X159023501Y-110585877D01*
X159023500Y-109291124D01*
X159016852Y-109229920D01*
X158966527Y-109095676D01*
X158880547Y-108980954D01*
X158873482Y-108975659D01*
X158772892Y-108900270D01*
X158772890Y-108900269D01*
X158765825Y-108894974D01*
X158631581Y-108844649D01*
X158570378Y-108838000D01*
X157773120Y-108838000D01*
X156975625Y-108838001D01*
X156914421Y-108844649D01*
X156780177Y-108894974D01*
X156773112Y-108900269D01*
X156773110Y-108900270D01*
X156672520Y-108975659D01*
X156665455Y-108980954D01*
X156579475Y-109095676D01*
X156529150Y-109229920D01*
X156522501Y-109291123D01*
X100225000Y-109291123D01*
X100225000Y-107993138D01*
X145094758Y-107993138D01*
X145095578Y-108000566D01*
X145095578Y-108000568D01*
X145097474Y-108017744D01*
X145112035Y-108149633D01*
X145166143Y-108297490D01*
X145253958Y-108428172D01*
X145276183Y-108448395D01*
X145364878Y-108529102D01*
X145364882Y-108529105D01*
X145370410Y-108534135D01*
X145508776Y-108609262D01*
X145611031Y-108636088D01*
X145653841Y-108647319D01*
X145653843Y-108647319D01*
X145661069Y-108649215D01*
X145738127Y-108650425D01*
X145811025Y-108651571D01*
X145811028Y-108651571D01*
X145818495Y-108651688D01*
X145825776Y-108650020D01*
X145825780Y-108650020D01*
X145964681Y-108618207D01*
X145971968Y-108616538D01*
X146112625Y-108545795D01*
X146118306Y-108540943D01*
X146118309Y-108540941D01*
X146226666Y-108448395D01*
X146226667Y-108448394D01*
X146232348Y-108443542D01*
X146243393Y-108428172D01*
X146263798Y-108399775D01*
X146324224Y-108315683D01*
X146382950Y-108169598D01*
X146384793Y-108156649D01*
X146404562Y-108017744D01*
X146404562Y-108017740D01*
X146405134Y-108013723D01*
X146405278Y-108000000D01*
X146386363Y-107843694D01*
X146330710Y-107696412D01*
X146322337Y-107684229D01*
X146245768Y-107572821D01*
X146245765Y-107572818D01*
X146241531Y-107566657D01*
X146123976Y-107461919D01*
X145984831Y-107388245D01*
X145832128Y-107349889D01*
X145750329Y-107349461D01*
X145682158Y-107349104D01*
X145682157Y-107349104D01*
X145674684Y-107349065D01*
X145667421Y-107350809D01*
X145667418Y-107350809D01*
X145598136Y-107367442D01*
X145521588Y-107385820D01*
X145381679Y-107458032D01*
X145263034Y-107561533D01*
X145172501Y-107690348D01*
X145115309Y-107837039D01*
X145094758Y-107993138D01*
X100225000Y-107993138D01*
X100225000Y-104243138D01*
X144094758Y-104243138D01*
X144095578Y-104250566D01*
X144095578Y-104250568D01*
X144097474Y-104267744D01*
X144112035Y-104399633D01*
X144166143Y-104547490D01*
X144253958Y-104678172D01*
X144276183Y-104698395D01*
X144364878Y-104779102D01*
X144364882Y-104779105D01*
X144370410Y-104784135D01*
X144508776Y-104859262D01*
X144611031Y-104886088D01*
X144653841Y-104897319D01*
X144653843Y-104897319D01*
X144661069Y-104899215D01*
X144738127Y-104900425D01*
X144811025Y-104901571D01*
X144811028Y-104901571D01*
X144818495Y-104901688D01*
X144825776Y-104900020D01*
X144825780Y-104900020D01*
X144964681Y-104868207D01*
X144971968Y-104866538D01*
X145112625Y-104795795D01*
X145118306Y-104790943D01*
X145118309Y-104790941D01*
X145226666Y-104698395D01*
X145226667Y-104698394D01*
X145232348Y-104693542D01*
X145243393Y-104678172D01*
X145263798Y-104649775D01*
X145324224Y-104565683D01*
X145382950Y-104419598D01*
X145385516Y-104401571D01*
X145404562Y-104267744D01*
X145404562Y-104267740D01*
X145405134Y-104263723D01*
X145405278Y-104250000D01*
X145398446Y-104193542D01*
X145387262Y-104101119D01*
X145387261Y-104101115D01*
X145386363Y-104093694D01*
X145373159Y-104058750D01*
X145333354Y-103953408D01*
X145333352Y-103953405D01*
X145330710Y-103946412D01*
X145322337Y-103934229D01*
X145245768Y-103822821D01*
X145245765Y-103822818D01*
X145241531Y-103816657D01*
X145162191Y-103745967D01*
X145159016Y-103743138D01*
X151594758Y-103743138D01*
X151595578Y-103750566D01*
X151595578Y-103750568D01*
X151597474Y-103767744D01*
X151612035Y-103899633D01*
X151614601Y-103906645D01*
X151614602Y-103906649D01*
X151629484Y-103947314D01*
X151666143Y-104047490D01*
X151753958Y-104178172D01*
X151776183Y-104198395D01*
X151864878Y-104279102D01*
X151864882Y-104279105D01*
X151870410Y-104284135D01*
X152008776Y-104359262D01*
X152111031Y-104386088D01*
X152153841Y-104397319D01*
X152153843Y-104397319D01*
X152161069Y-104399215D01*
X152238127Y-104400425D01*
X152311025Y-104401571D01*
X152311028Y-104401571D01*
X152318495Y-104401688D01*
X152325776Y-104400020D01*
X152325780Y-104400020D01*
X152464681Y-104368207D01*
X152471968Y-104366538D01*
X152612625Y-104295795D01*
X152618306Y-104290943D01*
X152618309Y-104290941D01*
X152726666Y-104198395D01*
X152726667Y-104198394D01*
X152732348Y-104193542D01*
X152743393Y-104178172D01*
X152763798Y-104149775D01*
X152824224Y-104065683D01*
X152882950Y-103919598D01*
X152884793Y-103906649D01*
X152904562Y-103767744D01*
X152904562Y-103767740D01*
X152905134Y-103763723D01*
X152905278Y-103750000D01*
X152900670Y-103711919D01*
X152887262Y-103601119D01*
X152887261Y-103601115D01*
X152886363Y-103593694D01*
X152830710Y-103446412D01*
X152822337Y-103434229D01*
X152745768Y-103322821D01*
X152745765Y-103322818D01*
X152741531Y-103316657D01*
X152623976Y-103211919D01*
X152484831Y-103138245D01*
X152332128Y-103099889D01*
X152250329Y-103099461D01*
X152182158Y-103099104D01*
X152182157Y-103099104D01*
X152174684Y-103099065D01*
X152167421Y-103100809D01*
X152167418Y-103100809D01*
X152098136Y-103117442D01*
X152021588Y-103135820D01*
X151881679Y-103208032D01*
X151763034Y-103311533D01*
X151672501Y-103440348D01*
X151615309Y-103587039D01*
X151594758Y-103743138D01*
X145159016Y-103743138D01*
X145129559Y-103716893D01*
X145129558Y-103716892D01*
X145123976Y-103711919D01*
X144984831Y-103638245D01*
X144832128Y-103599889D01*
X144750329Y-103599461D01*
X144682158Y-103599104D01*
X144682157Y-103599104D01*
X144674684Y-103599065D01*
X144667421Y-103600809D01*
X144667418Y-103600809D01*
X144598136Y-103617442D01*
X144521588Y-103635820D01*
X144381679Y-103708032D01*
X144263034Y-103811533D01*
X144172501Y-103940348D01*
X144115309Y-104087039D01*
X144094758Y-104243138D01*
X100225000Y-104243138D01*
X100225000Y-102243138D01*
X145844758Y-102243138D01*
X145845578Y-102250566D01*
X145845578Y-102250568D01*
X145847474Y-102267744D01*
X145862035Y-102399633D01*
X145916143Y-102547490D01*
X146003958Y-102678172D01*
X146026183Y-102698395D01*
X146114878Y-102779102D01*
X146114882Y-102779105D01*
X146120410Y-102784135D01*
X146258776Y-102859262D01*
X146361031Y-102886088D01*
X146403841Y-102897319D01*
X146403843Y-102897319D01*
X146411069Y-102899215D01*
X146488127Y-102900425D01*
X146561025Y-102901571D01*
X146561028Y-102901571D01*
X146568495Y-102901688D01*
X146575776Y-102900020D01*
X146575780Y-102900020D01*
X146714681Y-102868207D01*
X146721968Y-102866538D01*
X146862625Y-102795795D01*
X146868306Y-102790943D01*
X146868309Y-102790941D01*
X146976666Y-102698395D01*
X146976667Y-102698394D01*
X146982348Y-102693542D01*
X146993393Y-102678172D01*
X147013798Y-102649775D01*
X147074224Y-102565683D01*
X147132950Y-102419598D01*
X147134793Y-102406649D01*
X147154562Y-102267744D01*
X147154562Y-102267740D01*
X147155134Y-102263723D01*
X147155278Y-102250000D01*
X147136363Y-102093694D01*
X147080710Y-101946412D01*
X147072337Y-101934229D01*
X146995768Y-101822821D01*
X146995765Y-101822818D01*
X146991531Y-101816657D01*
X146873976Y-101711919D01*
X146734831Y-101638245D01*
X146582128Y-101599889D01*
X146500329Y-101599461D01*
X146432158Y-101599104D01*
X146432157Y-101599104D01*
X146424684Y-101599065D01*
X146417421Y-101600809D01*
X146417418Y-101600809D01*
X146348136Y-101617442D01*
X146271588Y-101635820D01*
X146131679Y-101708032D01*
X146013034Y-101811533D01*
X145922501Y-101940348D01*
X145865309Y-102087039D01*
X145844758Y-102243138D01*
X100225000Y-102243138D01*
X100225000Y-99743138D01*
X114594758Y-99743138D01*
X114595578Y-99750566D01*
X114595578Y-99750568D01*
X114597474Y-99767744D01*
X114612035Y-99899633D01*
X114666143Y-100047490D01*
X114753958Y-100178172D01*
X114776183Y-100198395D01*
X114864878Y-100279102D01*
X114864882Y-100279105D01*
X114870410Y-100284135D01*
X115008776Y-100359262D01*
X115111031Y-100386088D01*
X115153841Y-100397319D01*
X115153843Y-100397319D01*
X115161069Y-100399215D01*
X115238127Y-100400425D01*
X115311025Y-100401571D01*
X115311028Y-100401571D01*
X115318495Y-100401688D01*
X115325776Y-100400020D01*
X115325780Y-100400020D01*
X115464681Y-100368207D01*
X115471968Y-100366538D01*
X115612625Y-100295795D01*
X115618306Y-100290943D01*
X115618309Y-100290941D01*
X115726666Y-100198395D01*
X115726667Y-100198394D01*
X115732348Y-100193542D01*
X115743393Y-100178172D01*
X115763798Y-100149775D01*
X115824224Y-100065683D01*
X115882950Y-99919598D01*
X115885516Y-99901571D01*
X115904562Y-99767744D01*
X115904562Y-99767740D01*
X115905134Y-99763723D01*
X115905278Y-99750000D01*
X115898446Y-99693542D01*
X115887262Y-99601119D01*
X115887261Y-99601115D01*
X115886363Y-99593694D01*
X115873159Y-99558750D01*
X115833354Y-99453408D01*
X115833352Y-99453405D01*
X115830710Y-99446412D01*
X115822337Y-99434229D01*
X115745768Y-99322821D01*
X115745765Y-99322818D01*
X115741531Y-99316657D01*
X115662191Y-99245967D01*
X115659016Y-99243138D01*
X130594758Y-99243138D01*
X130595578Y-99250566D01*
X130595578Y-99250568D01*
X130597474Y-99267744D01*
X130612035Y-99399633D01*
X130614601Y-99406645D01*
X130614602Y-99406649D01*
X130629484Y-99447314D01*
X130666143Y-99547490D01*
X130753958Y-99678172D01*
X130776183Y-99698395D01*
X130864878Y-99779102D01*
X130864882Y-99779105D01*
X130870410Y-99784135D01*
X131008776Y-99859262D01*
X131111031Y-99886088D01*
X131153841Y-99897319D01*
X131153843Y-99897319D01*
X131161069Y-99899215D01*
X131238127Y-99900425D01*
X131311025Y-99901571D01*
X131311028Y-99901571D01*
X131318495Y-99901688D01*
X131325776Y-99900020D01*
X131325780Y-99900020D01*
X131464681Y-99868207D01*
X131471968Y-99866538D01*
X131612625Y-99795795D01*
X131618306Y-99790943D01*
X131618309Y-99790941D01*
X131726666Y-99698395D01*
X131726667Y-99698394D01*
X131732348Y-99693542D01*
X131743393Y-99678172D01*
X131763798Y-99649775D01*
X131824224Y-99565683D01*
X131882950Y-99419598D01*
X131884793Y-99406649D01*
X131904562Y-99267744D01*
X131904562Y-99267740D01*
X131905134Y-99263723D01*
X131905278Y-99250000D01*
X131900670Y-99211919D01*
X131887262Y-99101119D01*
X131887261Y-99101115D01*
X131886363Y-99093694D01*
X131830710Y-98946412D01*
X131822337Y-98934229D01*
X131745768Y-98822821D01*
X131745765Y-98822818D01*
X131741531Y-98816657D01*
X131623976Y-98711919D01*
X131484831Y-98638245D01*
X131332128Y-98599889D01*
X131250329Y-98599461D01*
X131182158Y-98599104D01*
X131182157Y-98599104D01*
X131174684Y-98599065D01*
X131167421Y-98600809D01*
X131167418Y-98600809D01*
X131098136Y-98617442D01*
X131021588Y-98635820D01*
X130881679Y-98708032D01*
X130763034Y-98811533D01*
X130672501Y-98940348D01*
X130615309Y-99087039D01*
X130594758Y-99243138D01*
X115659016Y-99243138D01*
X115629559Y-99216893D01*
X115629558Y-99216892D01*
X115623976Y-99211919D01*
X115484831Y-99138245D01*
X115332128Y-99099889D01*
X115250329Y-99099461D01*
X115182158Y-99099104D01*
X115182157Y-99099104D01*
X115174684Y-99099065D01*
X115167421Y-99100809D01*
X115167418Y-99100809D01*
X115098136Y-99117443D01*
X115021588Y-99135820D01*
X114881679Y-99208032D01*
X114763034Y-99311533D01*
X114672501Y-99440348D01*
X114615309Y-99587039D01*
X114594758Y-99743138D01*
X100225000Y-99743138D01*
X100225000Y-97743138D01*
X132094758Y-97743138D01*
X132095578Y-97750566D01*
X132095578Y-97750568D01*
X132102767Y-97815683D01*
X132112035Y-97899633D01*
X132114601Y-97906645D01*
X132114602Y-97906649D01*
X132124321Y-97933206D01*
X132166143Y-98047490D01*
X132253958Y-98178172D01*
X132276183Y-98198395D01*
X132364878Y-98279102D01*
X132364882Y-98279105D01*
X132370410Y-98284135D01*
X132508776Y-98359262D01*
X132611031Y-98386088D01*
X132653841Y-98397319D01*
X132653843Y-98397319D01*
X132661069Y-98399215D01*
X132738127Y-98400425D01*
X132811025Y-98401571D01*
X132811028Y-98401571D01*
X132818495Y-98401688D01*
X132825776Y-98400020D01*
X132825780Y-98400020D01*
X132964681Y-98368207D01*
X132971968Y-98366538D01*
X133112625Y-98295795D01*
X133118306Y-98290943D01*
X133118309Y-98290941D01*
X133226666Y-98198395D01*
X133226667Y-98198394D01*
X133232348Y-98193542D01*
X133243393Y-98178172D01*
X133265563Y-98147319D01*
X133324224Y-98065683D01*
X133382950Y-97919598D01*
X133384793Y-97906649D01*
X133404562Y-97767744D01*
X133404562Y-97767740D01*
X133405134Y-97763723D01*
X133405278Y-97750000D01*
X133396387Y-97676530D01*
X133387262Y-97601119D01*
X133387261Y-97601115D01*
X133386363Y-97593694D01*
X133354966Y-97510603D01*
X133348367Y-97493138D01*
X139594758Y-97493138D01*
X139595578Y-97500566D01*
X139595578Y-97500568D01*
X139597474Y-97517744D01*
X139612035Y-97649633D01*
X139666143Y-97797490D01*
X139670314Y-97803697D01*
X139734781Y-97899633D01*
X139753958Y-97928172D01*
X139776183Y-97948395D01*
X139864878Y-98029102D01*
X139864882Y-98029105D01*
X139870410Y-98034135D01*
X139876980Y-98037702D01*
X139876981Y-98037703D01*
X139915745Y-98058750D01*
X140008776Y-98109262D01*
X140111031Y-98136088D01*
X140153841Y-98147319D01*
X140153843Y-98147319D01*
X140161069Y-98149215D01*
X140238127Y-98150425D01*
X140311025Y-98151571D01*
X140311028Y-98151571D01*
X140318495Y-98151688D01*
X140325776Y-98150020D01*
X140325780Y-98150020D01*
X140464681Y-98118207D01*
X140471968Y-98116538D01*
X140612625Y-98045795D01*
X140618306Y-98040943D01*
X140618309Y-98040941D01*
X140726666Y-97948395D01*
X140726667Y-97948394D01*
X140732348Y-97943542D01*
X140743393Y-97928172D01*
X140769237Y-97892205D01*
X140824224Y-97815683D01*
X140882950Y-97669598D01*
X140884793Y-97656649D01*
X140904562Y-97517744D01*
X140904562Y-97517740D01*
X140905134Y-97513723D01*
X140905278Y-97500000D01*
X140905141Y-97498868D01*
X140920954Y-97431508D01*
X140971163Y-97382919D01*
X141039670Y-97369189D01*
X141060263Y-97372770D01*
X141153838Y-97397318D01*
X141161069Y-97399215D01*
X141225383Y-97400225D01*
X141292104Y-97420960D01*
X141337024Y-97474476D01*
X141346686Y-97510603D01*
X141347474Y-97517744D01*
X141362035Y-97649633D01*
X141416143Y-97797490D01*
X141420314Y-97803697D01*
X141484781Y-97899633D01*
X141503958Y-97928172D01*
X141526183Y-97948395D01*
X141614878Y-98029102D01*
X141614882Y-98029105D01*
X141620410Y-98034135D01*
X141626980Y-98037702D01*
X141626981Y-98037703D01*
X141665745Y-98058750D01*
X141758776Y-98109262D01*
X141861031Y-98136088D01*
X141903841Y-98147319D01*
X141903843Y-98147319D01*
X141911069Y-98149215D01*
X141988127Y-98150425D01*
X142061025Y-98151571D01*
X142061028Y-98151571D01*
X142068495Y-98151688D01*
X142075776Y-98150020D01*
X142075780Y-98150020D01*
X142214681Y-98118207D01*
X142221968Y-98116538D01*
X142362625Y-98045795D01*
X142368306Y-98040943D01*
X142368309Y-98040941D01*
X142476666Y-97948395D01*
X142476667Y-97948394D01*
X142482348Y-97943542D01*
X142493393Y-97928172D01*
X142519237Y-97892205D01*
X142574224Y-97815683D01*
X142632950Y-97669598D01*
X142634793Y-97656649D01*
X142654562Y-97517744D01*
X142654562Y-97517740D01*
X142655134Y-97513723D01*
X142655278Y-97500000D01*
X142649640Y-97453408D01*
X142637262Y-97351119D01*
X142637261Y-97351115D01*
X142636363Y-97343694D01*
X142588449Y-97216893D01*
X142583354Y-97203408D01*
X142583352Y-97203405D01*
X142580710Y-97196412D01*
X142549972Y-97151688D01*
X142495768Y-97072821D01*
X142495765Y-97072818D01*
X142491531Y-97066657D01*
X142373976Y-96961919D01*
X142234831Y-96888245D01*
X142136559Y-96863561D01*
X142089378Y-96851710D01*
X142082128Y-96849889D01*
X142059828Y-96849772D01*
X142026580Y-96849598D01*
X141959645Y-96829563D01*
X141914167Y-96776520D01*
X141904128Y-96740497D01*
X141887262Y-96601119D01*
X141887261Y-96601115D01*
X141886363Y-96593694D01*
X141850959Y-96500000D01*
X141848366Y-96493138D01*
X145094758Y-96493138D01*
X145095578Y-96500566D01*
X145095578Y-96500568D01*
X145097473Y-96517733D01*
X145112035Y-96649633D01*
X145114601Y-96656645D01*
X145114602Y-96656649D01*
X145119341Y-96669598D01*
X145166143Y-96797490D01*
X145170314Y-96803697D01*
X145234781Y-96899633D01*
X145253958Y-96928172D01*
X145291046Y-96961919D01*
X145364878Y-97029102D01*
X145364882Y-97029105D01*
X145370410Y-97034135D01*
X145376980Y-97037702D01*
X145376981Y-97037703D01*
X145494867Y-97101710D01*
X145508776Y-97109262D01*
X145603362Y-97134076D01*
X145653841Y-97147319D01*
X145653843Y-97147319D01*
X145661069Y-97149215D01*
X145738127Y-97150425D01*
X145811025Y-97151571D01*
X145811028Y-97151571D01*
X145818495Y-97151688D01*
X145825776Y-97150020D01*
X145825780Y-97150020D01*
X145964681Y-97118207D01*
X145971968Y-97116538D01*
X146112625Y-97045795D01*
X146118306Y-97040943D01*
X146118309Y-97040941D01*
X146226666Y-96948395D01*
X146226667Y-96948394D01*
X146232348Y-96943542D01*
X146243393Y-96928172D01*
X146299644Y-96849889D01*
X146324224Y-96815683D01*
X146382950Y-96669598D01*
X146384371Y-96659618D01*
X146399971Y-96550002D01*
X146405134Y-96513723D01*
X146405438Y-96513766D01*
X146429437Y-96450309D01*
X146485561Y-96408694D01*
X146530310Y-96401088D01*
X146540381Y-96401246D01*
X146561025Y-96401571D01*
X146561028Y-96401571D01*
X146568495Y-96401688D01*
X146575776Y-96400020D01*
X146575780Y-96400020D01*
X146714681Y-96368207D01*
X146721968Y-96366538D01*
X146862625Y-96295795D01*
X146868306Y-96290943D01*
X146868309Y-96290941D01*
X146976666Y-96198395D01*
X146976667Y-96198394D01*
X146982348Y-96193542D01*
X147074224Y-96065683D01*
X147132950Y-95919598D01*
X147137270Y-95889247D01*
X147154562Y-95767744D01*
X147154562Y-95767740D01*
X147155134Y-95763723D01*
X147155278Y-95750000D01*
X147149548Y-95702647D01*
X147137262Y-95601119D01*
X147137261Y-95601115D01*
X147136363Y-95593694D01*
X147107664Y-95517744D01*
X147083354Y-95453408D01*
X147083352Y-95453405D01*
X147080710Y-95446412D01*
X147076473Y-95440247D01*
X146995768Y-95322821D01*
X146995765Y-95322818D01*
X146991531Y-95316657D01*
X146873976Y-95211919D01*
X146734831Y-95138245D01*
X146582128Y-95099889D01*
X146500329Y-95099461D01*
X146432158Y-95099104D01*
X146432157Y-95099104D01*
X146424684Y-95099065D01*
X146417421Y-95100809D01*
X146417418Y-95100809D01*
X146348136Y-95117442D01*
X146271588Y-95135820D01*
X146131679Y-95208032D01*
X146013034Y-95311533D01*
X145922501Y-95440348D01*
X145865309Y-95587039D01*
X145864333Y-95594453D01*
X145844974Y-95741497D01*
X145816707Y-95805393D01*
X145758383Y-95843864D01*
X145721387Y-95849309D01*
X145682159Y-95849104D01*
X145682158Y-95849104D01*
X145674684Y-95849065D01*
X145667421Y-95850809D01*
X145667418Y-95850809D01*
X145614899Y-95863418D01*
X145521588Y-95885820D01*
X145381679Y-95958032D01*
X145263034Y-96061533D01*
X145172501Y-96190348D01*
X145115309Y-96337039D01*
X145094758Y-96493138D01*
X141848366Y-96493138D01*
X141833354Y-96453408D01*
X141833352Y-96453405D01*
X141830710Y-96446412D01*
X141799972Y-96401688D01*
X141745768Y-96322821D01*
X141745765Y-96322818D01*
X141741531Y-96316657D01*
X141623976Y-96211919D01*
X141484831Y-96138245D01*
X141332128Y-96099889D01*
X141250329Y-96099461D01*
X141182158Y-96099104D01*
X141182157Y-96099104D01*
X141174684Y-96099065D01*
X141167415Y-96100810D01*
X141167416Y-96100810D01*
X141131408Y-96109454D01*
X141061626Y-96105963D01*
X141004809Y-96065299D01*
X140978996Y-96000372D01*
X140992382Y-95931797D01*
X141001761Y-95916526D01*
X141074224Y-95815683D01*
X141132950Y-95669598D01*
X141134793Y-95656649D01*
X141154562Y-95517744D01*
X141154562Y-95517740D01*
X141155134Y-95513723D01*
X141155278Y-95500000D01*
X141149640Y-95453408D01*
X141137262Y-95351119D01*
X141137261Y-95351115D01*
X141136363Y-95343694D01*
X141122354Y-95306620D01*
X141083354Y-95203408D01*
X141083352Y-95203405D01*
X141080710Y-95196412D01*
X141072337Y-95184229D01*
X140995768Y-95072821D01*
X140995765Y-95072818D01*
X140991531Y-95066657D01*
X140912191Y-94995967D01*
X140879559Y-94966893D01*
X140879558Y-94966892D01*
X140876121Y-94963830D01*
X156965624Y-94963830D01*
X156975944Y-95127860D01*
X156978354Y-95135278D01*
X156978355Y-95135282D01*
X157004149Y-95214666D01*
X157026732Y-95284171D01*
X157060066Y-95336697D01*
X157110617Y-95416353D01*
X157110620Y-95416357D01*
X157114798Y-95422940D01*
X157133228Y-95440247D01*
X157228923Y-95530111D01*
X157228926Y-95530113D01*
X157234607Y-95535448D01*
X157241435Y-95539202D01*
X157241438Y-95539204D01*
X157371797Y-95610870D01*
X157371801Y-95610872D01*
X157378632Y-95614627D01*
X157537823Y-95655500D01*
X157660925Y-95655500D01*
X157664785Y-95655012D01*
X157664791Y-95655012D01*
X157775317Y-95641049D01*
X157775318Y-95641049D01*
X157783058Y-95640071D01*
X157790310Y-95637200D01*
X157790313Y-95637199D01*
X157859464Y-95609820D01*
X157935871Y-95579568D01*
X158068837Y-95482963D01*
X158119295Y-95421970D01*
X158168631Y-95362333D01*
X158168632Y-95362331D01*
X158173600Y-95356326D01*
X158243579Y-95207613D01*
X158246873Y-95190348D01*
X158263953Y-95100809D01*
X158274376Y-95046170D01*
X158264056Y-94882140D01*
X158261646Y-94874722D01*
X158261645Y-94874718D01*
X158215679Y-94733250D01*
X158213268Y-94725829D01*
X158163665Y-94647667D01*
X158129383Y-94593647D01*
X158129380Y-94593643D01*
X158125202Y-94587060D01*
X158056399Y-94522450D01*
X158011077Y-94479889D01*
X158011074Y-94479887D01*
X158005393Y-94474552D01*
X157998565Y-94470798D01*
X157998562Y-94470796D01*
X157868203Y-94399130D01*
X157868199Y-94399128D01*
X157861368Y-94395373D01*
X157702177Y-94354500D01*
X157579075Y-94354500D01*
X157575215Y-94354988D01*
X157575209Y-94354988D01*
X157464683Y-94368951D01*
X157464682Y-94368951D01*
X157456942Y-94369929D01*
X157449690Y-94372800D01*
X157449687Y-94372801D01*
X157392678Y-94395373D01*
X157304129Y-94430432D01*
X157171163Y-94527037D01*
X157142502Y-94561682D01*
X157116059Y-94593647D01*
X157066400Y-94653674D01*
X156996421Y-94802387D01*
X156994960Y-94810044D01*
X156994960Y-94810045D01*
X156989876Y-94836697D01*
X156965624Y-94963830D01*
X140876121Y-94963830D01*
X140873976Y-94961919D01*
X140734831Y-94888245D01*
X140582128Y-94849889D01*
X140500329Y-94849461D01*
X140432158Y-94849104D01*
X140432157Y-94849104D01*
X140424684Y-94849065D01*
X140417421Y-94850809D01*
X140417418Y-94850809D01*
X140348136Y-94867443D01*
X140271588Y-94885820D01*
X140131679Y-94958032D01*
X140013034Y-95061533D01*
X139922501Y-95190348D01*
X139865309Y-95337039D01*
X139844758Y-95493138D01*
X139845578Y-95500566D01*
X139845578Y-95500568D01*
X139854232Y-95578956D01*
X139862035Y-95649633D01*
X139864601Y-95656645D01*
X139864602Y-95656649D01*
X139886215Y-95715707D01*
X139916143Y-95797490D01*
X140003958Y-95928172D01*
X140036774Y-95958032D01*
X140114878Y-96029102D01*
X140114882Y-96029105D01*
X140120410Y-96034135D01*
X140126980Y-96037702D01*
X140126981Y-96037703D01*
X140240067Y-96099104D01*
X140258776Y-96109262D01*
X140360010Y-96135820D01*
X140403841Y-96147319D01*
X140403843Y-96147319D01*
X140411069Y-96149215D01*
X140488127Y-96150425D01*
X140561025Y-96151571D01*
X140561028Y-96151571D01*
X140568495Y-96151688D01*
X140611913Y-96141744D01*
X140619371Y-96140036D01*
X140689113Y-96144257D01*
X140745502Y-96185514D01*
X140770634Y-96250707D01*
X140756530Y-96319138D01*
X140748504Y-96332207D01*
X140672501Y-96440348D01*
X140669785Y-96447313D01*
X140669785Y-96447314D01*
X140664568Y-96460694D01*
X140615309Y-96587039D01*
X140594758Y-96743138D01*
X140595578Y-96750569D01*
X140595500Y-96758044D01*
X140592223Y-96758010D01*
X140582544Y-96812322D01*
X140535043Y-96863561D01*
X140467380Y-96880985D01*
X140441333Y-96877319D01*
X140339378Y-96851710D01*
X140332128Y-96849889D01*
X140250329Y-96849461D01*
X140182158Y-96849104D01*
X140182157Y-96849104D01*
X140174684Y-96849065D01*
X140167421Y-96850809D01*
X140167418Y-96850809D01*
X140098136Y-96867442D01*
X140021588Y-96885820D01*
X139881679Y-96958032D01*
X139763034Y-97061533D01*
X139672501Y-97190348D01*
X139615309Y-97337039D01*
X139594758Y-97493138D01*
X133348367Y-97493138D01*
X133333354Y-97453408D01*
X133333352Y-97453405D01*
X133330710Y-97446412D01*
X133299972Y-97401688D01*
X133245768Y-97322821D01*
X133245765Y-97322818D01*
X133241531Y-97316657D01*
X133123976Y-97211919D01*
X132984831Y-97138245D01*
X132832128Y-97099889D01*
X132750329Y-97099461D01*
X132682158Y-97099104D01*
X132682157Y-97099104D01*
X132674684Y-97099065D01*
X132667421Y-97100809D01*
X132667418Y-97100809D01*
X132598136Y-97117443D01*
X132521588Y-97135820D01*
X132381679Y-97208032D01*
X132263034Y-97311533D01*
X132172501Y-97440348D01*
X132115309Y-97587039D01*
X132094758Y-97743138D01*
X100225000Y-97743138D01*
X100225000Y-94350000D01*
X113894723Y-94350000D01*
X113913793Y-94567977D01*
X113915195Y-94573209D01*
X113950082Y-94703408D01*
X113970425Y-94779330D01*
X114062898Y-94977638D01*
X114066005Y-94982075D01*
X114066006Y-94982077D01*
X114185296Y-95152442D01*
X114185300Y-95152446D01*
X114188402Y-95156877D01*
X114343123Y-95311598D01*
X114522361Y-95437102D01*
X114720670Y-95529575D01*
X114725893Y-95530974D01*
X114725897Y-95530976D01*
X114856550Y-95565984D01*
X114932023Y-95586207D01*
X115150000Y-95605277D01*
X115367977Y-95586207D01*
X115443450Y-95565984D01*
X115574103Y-95530976D01*
X115574107Y-95530974D01*
X115579330Y-95529575D01*
X115777639Y-95437102D01*
X115956877Y-95311598D01*
X116111598Y-95156877D01*
X116114700Y-95152446D01*
X116114704Y-95152442D01*
X116226249Y-94993138D01*
X131844758Y-94993138D01*
X131845578Y-95000566D01*
X131845578Y-95000568D01*
X131847474Y-95017744D01*
X131862035Y-95149633D01*
X131864601Y-95156645D01*
X131864602Y-95156649D01*
X131883406Y-95208032D01*
X131916143Y-95297490D01*
X132003958Y-95428172D01*
X132009483Y-95433199D01*
X132009512Y-95433233D01*
X132038415Y-95496845D01*
X132028338Y-95565984D01*
X132017098Y-95585550D01*
X131934800Y-95702647D01*
X131932084Y-95709612D01*
X131932084Y-95709613D01*
X131912572Y-95759660D01*
X131877608Y-95849338D01*
X131857057Y-96005437D01*
X131857877Y-96012865D01*
X131857877Y-96012867D01*
X131871113Y-96132758D01*
X131874334Y-96161932D01*
X131876900Y-96168944D01*
X131876901Y-96168948D01*
X131894447Y-96216893D01*
X131928442Y-96309789D01*
X131932613Y-96315996D01*
X132012063Y-96434229D01*
X132016257Y-96440471D01*
X132038482Y-96460694D01*
X132127177Y-96541401D01*
X132127181Y-96541404D01*
X132132709Y-96546434D01*
X132139279Y-96550001D01*
X132139280Y-96550002D01*
X132264507Y-96617995D01*
X132271075Y-96621561D01*
X132349766Y-96642205D01*
X132416140Y-96659618D01*
X132416142Y-96659618D01*
X132423368Y-96661514D01*
X132500426Y-96662724D01*
X132573324Y-96663870D01*
X132573327Y-96663870D01*
X132580794Y-96663987D01*
X132588075Y-96662319D01*
X132588079Y-96662319D01*
X132726980Y-96630506D01*
X132734267Y-96628837D01*
X132874924Y-96558094D01*
X132880605Y-96553242D01*
X132880608Y-96553240D01*
X132988965Y-96460694D01*
X132988966Y-96460693D01*
X132994647Y-96455841D01*
X133000775Y-96447314D01*
X133057618Y-96368207D01*
X133086523Y-96327982D01*
X133145249Y-96181897D01*
X133147092Y-96168948D01*
X133166861Y-96030043D01*
X133166861Y-96030039D01*
X133167433Y-96026022D01*
X133167577Y-96012299D01*
X133158006Y-95933206D01*
X133149561Y-95863418D01*
X133149560Y-95863414D01*
X133148662Y-95855993D01*
X133133430Y-95815683D01*
X133095653Y-95715707D01*
X133095651Y-95715704D01*
X133093009Y-95708711D01*
X133003830Y-95578956D01*
X133002227Y-95577528D01*
X132973623Y-95516279D01*
X132982977Y-95447038D01*
X132995508Y-95425228D01*
X133002631Y-95415316D01*
X133074224Y-95315683D01*
X133132950Y-95169598D01*
X133134216Y-95160706D01*
X133154562Y-95017744D01*
X133154562Y-95017740D01*
X133155134Y-95013723D01*
X133155278Y-95000000D01*
X133150670Y-94961919D01*
X133137262Y-94851119D01*
X133137261Y-94851115D01*
X133136363Y-94843694D01*
X133123648Y-94810045D01*
X133083354Y-94703408D01*
X133083352Y-94703405D01*
X133080710Y-94696412D01*
X133001884Y-94581720D01*
X132995768Y-94572821D01*
X132995765Y-94572818D01*
X132991531Y-94566657D01*
X132888155Y-94474552D01*
X132879559Y-94466893D01*
X132879558Y-94466892D01*
X132873976Y-94461919D01*
X132734831Y-94388245D01*
X132602428Y-94354988D01*
X132589378Y-94351710D01*
X132582128Y-94349889D01*
X132500329Y-94349461D01*
X132432158Y-94349104D01*
X132432157Y-94349104D01*
X132424684Y-94349065D01*
X132417421Y-94350809D01*
X132417418Y-94350809D01*
X132348136Y-94367443D01*
X132271588Y-94385820D01*
X132131679Y-94458032D01*
X132013034Y-94561533D01*
X131922501Y-94690348D01*
X131865309Y-94837039D01*
X131844758Y-94993138D01*
X116226249Y-94993138D01*
X116233994Y-94982077D01*
X116233995Y-94982075D01*
X116237102Y-94977638D01*
X116329575Y-94779330D01*
X116349919Y-94703408D01*
X116384805Y-94573209D01*
X116386207Y-94567977D01*
X116405277Y-94350000D01*
X116386207Y-94132023D01*
X116329575Y-93920670D01*
X116237102Y-93722362D01*
X116233994Y-93717923D01*
X116114704Y-93547558D01*
X116114700Y-93547554D01*
X116111598Y-93543123D01*
X115956877Y-93388402D01*
X115777639Y-93262898D01*
X115579330Y-93170425D01*
X115574107Y-93169026D01*
X115574103Y-93169024D01*
X115373209Y-93115195D01*
X115373210Y-93115195D01*
X115367977Y-93113793D01*
X115150000Y-93094723D01*
X114932023Y-93113793D01*
X114926790Y-93115195D01*
X114926791Y-93115195D01*
X114725897Y-93169024D01*
X114725893Y-93169026D01*
X114720670Y-93170425D01*
X114522362Y-93262898D01*
X114517925Y-93266005D01*
X114517923Y-93266006D01*
X114347558Y-93385296D01*
X114347557Y-93385297D01*
X114343123Y-93388402D01*
X114188402Y-93543123D01*
X114185300Y-93547554D01*
X114185296Y-93547558D01*
X114066006Y-93717923D01*
X114062898Y-93722362D01*
X113970425Y-93920670D01*
X113913793Y-94132023D01*
X113894723Y-94350000D01*
X100225000Y-94350000D01*
X100225000Y-90750000D01*
X113894723Y-90750000D01*
X113913793Y-90967977D01*
X113915195Y-90973209D01*
X113960354Y-91141744D01*
X113970425Y-91179330D01*
X114062898Y-91377638D01*
X114066005Y-91382075D01*
X114066006Y-91382077D01*
X114185296Y-91552442D01*
X114185300Y-91552446D01*
X114188402Y-91556877D01*
X114343123Y-91711598D01*
X114522361Y-91837102D01*
X114720670Y-91929575D01*
X114725893Y-91930974D01*
X114725897Y-91930976D01*
X114892901Y-91975724D01*
X114932023Y-91986207D01*
X115150000Y-92005277D01*
X115367977Y-91986207D01*
X115407099Y-91975724D01*
X115574103Y-91930976D01*
X115574107Y-91930974D01*
X115579330Y-91929575D01*
X115777639Y-91837102D01*
X115911833Y-91743138D01*
X133344758Y-91743138D01*
X133345578Y-91750566D01*
X133345578Y-91750568D01*
X133347474Y-91767744D01*
X133362035Y-91899633D01*
X133364601Y-91906645D01*
X133364602Y-91906649D01*
X133379484Y-91947314D01*
X133416143Y-92047490D01*
X133503958Y-92178172D01*
X133526183Y-92198395D01*
X133614878Y-92279102D01*
X133614882Y-92279105D01*
X133620410Y-92284135D01*
X133758776Y-92359262D01*
X133861031Y-92386088D01*
X133903841Y-92397319D01*
X133903843Y-92397319D01*
X133911069Y-92399215D01*
X133988127Y-92400425D01*
X134061025Y-92401571D01*
X134061028Y-92401571D01*
X134068495Y-92401688D01*
X134075776Y-92400020D01*
X134075780Y-92400020D01*
X134214681Y-92368207D01*
X134221968Y-92366538D01*
X134362625Y-92295795D01*
X134368306Y-92290943D01*
X134368309Y-92290941D01*
X134424279Y-92243138D01*
X146344758Y-92243138D01*
X146345578Y-92250566D01*
X146345578Y-92250568D01*
X146347474Y-92267744D01*
X146362035Y-92399633D01*
X146416143Y-92547490D01*
X146503958Y-92678172D01*
X146526183Y-92698395D01*
X146614878Y-92779102D01*
X146614882Y-92779105D01*
X146620410Y-92784135D01*
X146758776Y-92859262D01*
X146861031Y-92886088D01*
X146903841Y-92897319D01*
X146903843Y-92897319D01*
X146911069Y-92899215D01*
X146988127Y-92900425D01*
X147061025Y-92901571D01*
X147061028Y-92901571D01*
X147068495Y-92901688D01*
X147075776Y-92900020D01*
X147075780Y-92900020D01*
X147214681Y-92868207D01*
X147221968Y-92866538D01*
X147362625Y-92795795D01*
X147368306Y-92790943D01*
X147368309Y-92790941D01*
X147476666Y-92698395D01*
X147476667Y-92698394D01*
X147482348Y-92693542D01*
X147493393Y-92678172D01*
X147513798Y-92649775D01*
X147574224Y-92565683D01*
X147632950Y-92419598D01*
X147635516Y-92401571D01*
X147654562Y-92267744D01*
X147654562Y-92267740D01*
X147655134Y-92263723D01*
X147655278Y-92250000D01*
X147648446Y-92193542D01*
X147637262Y-92101119D01*
X147637261Y-92101115D01*
X147636363Y-92093694D01*
X147623159Y-92058750D01*
X147583354Y-91953408D01*
X147583352Y-91953405D01*
X147580710Y-91946412D01*
X147567566Y-91927287D01*
X147495768Y-91822821D01*
X147495765Y-91822818D01*
X147491531Y-91816657D01*
X147412191Y-91745967D01*
X147379559Y-91716893D01*
X147379558Y-91716892D01*
X147373976Y-91711919D01*
X147234831Y-91638245D01*
X147082128Y-91599889D01*
X147000329Y-91599461D01*
X146932158Y-91599104D01*
X146932157Y-91599104D01*
X146924684Y-91599065D01*
X146917421Y-91600809D01*
X146917418Y-91600809D01*
X146848136Y-91617443D01*
X146771588Y-91635820D01*
X146631679Y-91708032D01*
X146513034Y-91811533D01*
X146422501Y-91940348D01*
X146365309Y-92087039D01*
X146344758Y-92243138D01*
X134424279Y-92243138D01*
X134476666Y-92198395D01*
X134476667Y-92198394D01*
X134482348Y-92193542D01*
X134493393Y-92178172D01*
X134513798Y-92149775D01*
X134574224Y-92065683D01*
X134632950Y-91919598D01*
X134634793Y-91906649D01*
X134654562Y-91767744D01*
X134654562Y-91767740D01*
X134655134Y-91763723D01*
X134655278Y-91750000D01*
X134650631Y-91711598D01*
X134637262Y-91601119D01*
X134637261Y-91601115D01*
X134636363Y-91593694D01*
X134580710Y-91446412D01*
X134572337Y-91434229D01*
X134495768Y-91322821D01*
X134495765Y-91322818D01*
X134491531Y-91316657D01*
X134373976Y-91211919D01*
X134234831Y-91138245D01*
X134082128Y-91099889D01*
X134000329Y-91099461D01*
X133932158Y-91099104D01*
X133932157Y-91099104D01*
X133924684Y-91099065D01*
X133917421Y-91100809D01*
X133917418Y-91100809D01*
X133848136Y-91117442D01*
X133771588Y-91135820D01*
X133631679Y-91208032D01*
X133513034Y-91311533D01*
X133422501Y-91440348D01*
X133365309Y-91587039D01*
X133344758Y-91743138D01*
X115911833Y-91743138D01*
X115956877Y-91711598D01*
X116111598Y-91556877D01*
X116114700Y-91552446D01*
X116114704Y-91552442D01*
X116233994Y-91382077D01*
X116233995Y-91382075D01*
X116237102Y-91377638D01*
X116329575Y-91179330D01*
X116339647Y-91141744D01*
X116384805Y-90973209D01*
X116386207Y-90967977D01*
X116405277Y-90750000D01*
X116386207Y-90532023D01*
X116329575Y-90320670D01*
X116237102Y-90122362D01*
X116233994Y-90117923D01*
X116126098Y-89963830D01*
X156965624Y-89963830D01*
X156975944Y-90127860D01*
X156978354Y-90135278D01*
X156978355Y-90135282D01*
X156999369Y-90199955D01*
X157026732Y-90284171D01*
X157030914Y-90290760D01*
X157110617Y-90416353D01*
X157110620Y-90416357D01*
X157114798Y-90422940D01*
X157120485Y-90428280D01*
X157228923Y-90530111D01*
X157228926Y-90530113D01*
X157234607Y-90535448D01*
X157241435Y-90539202D01*
X157241438Y-90539204D01*
X157371797Y-90610870D01*
X157371801Y-90610872D01*
X157378632Y-90614627D01*
X157537823Y-90655500D01*
X157660925Y-90655500D01*
X157664785Y-90655012D01*
X157664791Y-90655012D01*
X157775317Y-90641049D01*
X157775318Y-90641049D01*
X157783058Y-90640071D01*
X157790310Y-90637200D01*
X157790313Y-90637199D01*
X157859465Y-90609819D01*
X157935871Y-90579568D01*
X158068837Y-90482963D01*
X158119027Y-90422293D01*
X158168631Y-90362333D01*
X158168632Y-90362331D01*
X158173600Y-90356326D01*
X158243579Y-90207613D01*
X158274376Y-90046170D01*
X158264056Y-89882140D01*
X158261646Y-89874722D01*
X158261645Y-89874718D01*
X158215679Y-89733250D01*
X158213268Y-89725829D01*
X158171877Y-89660608D01*
X158129383Y-89593647D01*
X158129380Y-89593643D01*
X158125202Y-89587060D01*
X158067687Y-89533050D01*
X158011077Y-89479889D01*
X158011074Y-89479887D01*
X158005393Y-89474552D01*
X157998565Y-89470798D01*
X157998562Y-89470796D01*
X157868203Y-89399130D01*
X157868199Y-89399128D01*
X157861368Y-89395373D01*
X157702177Y-89354500D01*
X157579075Y-89354500D01*
X157575215Y-89354988D01*
X157575209Y-89354988D01*
X157464683Y-89368951D01*
X157464682Y-89368951D01*
X157456942Y-89369929D01*
X157449690Y-89372800D01*
X157449687Y-89372801D01*
X157392678Y-89395373D01*
X157304129Y-89430432D01*
X157171163Y-89527037D01*
X157134170Y-89571754D01*
X157116059Y-89593647D01*
X157066400Y-89653674D01*
X157063082Y-89660725D01*
X157060660Y-89665873D01*
X156996421Y-89802387D01*
X156994960Y-89810044D01*
X156994960Y-89810045D01*
X156983865Y-89868207D01*
X156965624Y-89963830D01*
X116126098Y-89963830D01*
X116114704Y-89947558D01*
X116114700Y-89947554D01*
X116111598Y-89943123D01*
X115956877Y-89788402D01*
X115777639Y-89662898D01*
X115579330Y-89570425D01*
X115574107Y-89569026D01*
X115574103Y-89569024D01*
X115373209Y-89515195D01*
X115373210Y-89515195D01*
X115367977Y-89513793D01*
X115150000Y-89494723D01*
X114932023Y-89513793D01*
X114926790Y-89515195D01*
X114926791Y-89515195D01*
X114725897Y-89569024D01*
X114725893Y-89569026D01*
X114720670Y-89570425D01*
X114522362Y-89662898D01*
X114517925Y-89666005D01*
X114517923Y-89666006D01*
X114347558Y-89785296D01*
X114347557Y-89785297D01*
X114343123Y-89788402D01*
X114188402Y-89943123D01*
X114185300Y-89947554D01*
X114185296Y-89947558D01*
X114066006Y-90117923D01*
X114062898Y-90122362D01*
X113970425Y-90320670D01*
X113913793Y-90532023D01*
X113894723Y-90750000D01*
X100225000Y-90750000D01*
X100225000Y-89230839D01*
X137107057Y-89230839D01*
X137107877Y-89238267D01*
X137107877Y-89238269D01*
X137109621Y-89254064D01*
X137124334Y-89387334D01*
X137126900Y-89394346D01*
X137126901Y-89394350D01*
X137141784Y-89435018D01*
X137178442Y-89535191D01*
X137266257Y-89665873D01*
X137320992Y-89715678D01*
X137377177Y-89766803D01*
X137377181Y-89766806D01*
X137382709Y-89771836D01*
X137389279Y-89775403D01*
X137389280Y-89775404D01*
X137453081Y-89810045D01*
X137521075Y-89846963D01*
X137602053Y-89868207D01*
X137666140Y-89885020D01*
X137666142Y-89885020D01*
X137673368Y-89886916D01*
X137750426Y-89888126D01*
X137823324Y-89889272D01*
X137823327Y-89889272D01*
X137830794Y-89889389D01*
X137838075Y-89887721D01*
X137838079Y-89887721D01*
X137976980Y-89855908D01*
X137984267Y-89854239D01*
X138124924Y-89783496D01*
X138130605Y-89778644D01*
X138130608Y-89778642D01*
X138238965Y-89686096D01*
X138238966Y-89686095D01*
X138244647Y-89681243D01*
X138255692Y-89665873D01*
X138312324Y-89587060D01*
X138336523Y-89553384D01*
X138395249Y-89407299D01*
X138396412Y-89399130D01*
X138416861Y-89255445D01*
X138416861Y-89255441D01*
X138417433Y-89251424D01*
X138417520Y-89243138D01*
X139094758Y-89243138D01*
X139095578Y-89250566D01*
X139095578Y-89250568D01*
X139097474Y-89267744D01*
X139112035Y-89399633D01*
X139114601Y-89406645D01*
X139114602Y-89406649D01*
X139144206Y-89487544D01*
X139166143Y-89547490D01*
X139253958Y-89678172D01*
X139276183Y-89698395D01*
X139364878Y-89779102D01*
X139364882Y-89779105D01*
X139370410Y-89784135D01*
X139376980Y-89787702D01*
X139376981Y-89787703D01*
X139418130Y-89810045D01*
X139508776Y-89859262D01*
X139611031Y-89886088D01*
X139653841Y-89897319D01*
X139653843Y-89897319D01*
X139661069Y-89899215D01*
X139738127Y-89900425D01*
X139811025Y-89901571D01*
X139811028Y-89901571D01*
X139818495Y-89901688D01*
X139825776Y-89900020D01*
X139825780Y-89900020D01*
X139964681Y-89868207D01*
X139971968Y-89866538D01*
X140112625Y-89795795D01*
X140118306Y-89790943D01*
X140118309Y-89790941D01*
X140226666Y-89698395D01*
X140226667Y-89698394D01*
X140232348Y-89693542D01*
X140237699Y-89686096D01*
X140265313Y-89647667D01*
X140324224Y-89565683D01*
X140382950Y-89419598D01*
X140384003Y-89412201D01*
X140404562Y-89267744D01*
X140404562Y-89267740D01*
X140405134Y-89263723D01*
X140405278Y-89250000D01*
X140404448Y-89243138D01*
X140387262Y-89101119D01*
X140387261Y-89101115D01*
X140386363Y-89093694D01*
X140330710Y-88946412D01*
X140322257Y-88934113D01*
X140245768Y-88822821D01*
X140245765Y-88822818D01*
X140241531Y-88816657D01*
X140123976Y-88711919D01*
X139984831Y-88638245D01*
X139832128Y-88599889D01*
X139750329Y-88599461D01*
X139682158Y-88599104D01*
X139682157Y-88599104D01*
X139674684Y-88599065D01*
X139667421Y-88600809D01*
X139667418Y-88600809D01*
X139598136Y-88617442D01*
X139521588Y-88635820D01*
X139381679Y-88708032D01*
X139263034Y-88811533D01*
X139172501Y-88940348D01*
X139115309Y-89087039D01*
X139094758Y-89243138D01*
X138417520Y-89243138D01*
X138417577Y-89237701D01*
X138401049Y-89101119D01*
X138399561Y-89088820D01*
X138399560Y-89088816D01*
X138398662Y-89081395D01*
X138350300Y-88953408D01*
X138345653Y-88941109D01*
X138345651Y-88941106D01*
X138343009Y-88934113D01*
X138334636Y-88921930D01*
X138258067Y-88810522D01*
X138258064Y-88810519D01*
X138253830Y-88804358D01*
X138146153Y-88708421D01*
X138141858Y-88704594D01*
X138141857Y-88704593D01*
X138136275Y-88699620D01*
X137997130Y-88625946D01*
X137844427Y-88587590D01*
X137762628Y-88587162D01*
X137694457Y-88586805D01*
X137694456Y-88586805D01*
X137686983Y-88586766D01*
X137679720Y-88588510D01*
X137679717Y-88588510D01*
X137610435Y-88605144D01*
X137533887Y-88623521D01*
X137393978Y-88695733D01*
X137388347Y-88700646D01*
X137388346Y-88700646D01*
X137369722Y-88716893D01*
X137275333Y-88799234D01*
X137184800Y-88928049D01*
X137127608Y-89074740D01*
X137107057Y-89230839D01*
X100225000Y-89230839D01*
X100225000Y-86993138D01*
X138094758Y-86993138D01*
X138095578Y-87000566D01*
X138095578Y-87000568D01*
X138097474Y-87017744D01*
X138112035Y-87149633D01*
X138166143Y-87297490D01*
X138253958Y-87428172D01*
X138276183Y-87448395D01*
X138364878Y-87529102D01*
X138364882Y-87529105D01*
X138370410Y-87534135D01*
X138508776Y-87609262D01*
X138611031Y-87636088D01*
X138653841Y-87647319D01*
X138653843Y-87647319D01*
X138661069Y-87649215D01*
X138738127Y-87650425D01*
X138811025Y-87651571D01*
X138811028Y-87651571D01*
X138818495Y-87651688D01*
X138825776Y-87650020D01*
X138825780Y-87650020D01*
X138964681Y-87618207D01*
X138971968Y-87616538D01*
X139112625Y-87545795D01*
X139118306Y-87540943D01*
X139118309Y-87540941D01*
X139226666Y-87448395D01*
X139226667Y-87448394D01*
X139232348Y-87443542D01*
X139243393Y-87428172D01*
X139263798Y-87399775D01*
X139324224Y-87315683D01*
X139382950Y-87169598D01*
X139384793Y-87156649D01*
X139404562Y-87017744D01*
X139404562Y-87017740D01*
X139405134Y-87013723D01*
X139405278Y-87000000D01*
X139404448Y-86993138D01*
X142844758Y-86993138D01*
X142845578Y-87000566D01*
X142845578Y-87000568D01*
X142847474Y-87017744D01*
X142862035Y-87149633D01*
X142916143Y-87297490D01*
X143003958Y-87428172D01*
X143026183Y-87448395D01*
X143114878Y-87529102D01*
X143114882Y-87529105D01*
X143120410Y-87534135D01*
X143258776Y-87609262D01*
X143361031Y-87636088D01*
X143403841Y-87647319D01*
X143403843Y-87647319D01*
X143411069Y-87649215D01*
X143488127Y-87650425D01*
X143561025Y-87651571D01*
X143561028Y-87651571D01*
X143568495Y-87651688D01*
X143575776Y-87650020D01*
X143575780Y-87650020D01*
X143714681Y-87618207D01*
X143721968Y-87616538D01*
X143862625Y-87545795D01*
X143868306Y-87540943D01*
X143868309Y-87540941D01*
X143976666Y-87448395D01*
X143976667Y-87448394D01*
X143982348Y-87443542D01*
X143993393Y-87428172D01*
X144013798Y-87399775D01*
X144074224Y-87315683D01*
X144132950Y-87169598D01*
X144134793Y-87156649D01*
X144154562Y-87017744D01*
X144154562Y-87017740D01*
X144155134Y-87013723D01*
X144155278Y-87000000D01*
X144143082Y-86899215D01*
X144137262Y-86851119D01*
X144137261Y-86851115D01*
X144136363Y-86843694D01*
X144080710Y-86696412D01*
X144063908Y-86671965D01*
X143995768Y-86572821D01*
X143995765Y-86572818D01*
X143991531Y-86566657D01*
X143873976Y-86461919D01*
X143734831Y-86388245D01*
X143582128Y-86349889D01*
X143500329Y-86349461D01*
X143432158Y-86349104D01*
X143432157Y-86349104D01*
X143424684Y-86349065D01*
X143417421Y-86350809D01*
X143417418Y-86350809D01*
X143348136Y-86367442D01*
X143271588Y-86385820D01*
X143131679Y-86458032D01*
X143013034Y-86561533D01*
X142922501Y-86690348D01*
X142865309Y-86837039D01*
X142844758Y-86993138D01*
X139404448Y-86993138D01*
X139393082Y-86899215D01*
X139387262Y-86851119D01*
X139387261Y-86851115D01*
X139386363Y-86843694D01*
X139330710Y-86696412D01*
X139313908Y-86671965D01*
X139245768Y-86572821D01*
X139245765Y-86572818D01*
X139241531Y-86566657D01*
X139123976Y-86461919D01*
X138984831Y-86388245D01*
X138832128Y-86349889D01*
X138750329Y-86349461D01*
X138682158Y-86349104D01*
X138682157Y-86349104D01*
X138674684Y-86349065D01*
X138667421Y-86350809D01*
X138667418Y-86350809D01*
X138598136Y-86367442D01*
X138521588Y-86385820D01*
X138381679Y-86458032D01*
X138263034Y-86561533D01*
X138172501Y-86690348D01*
X138115309Y-86837039D01*
X138094758Y-86993138D01*
X100225000Y-86993138D01*
X100225000Y-86243138D01*
X132844758Y-86243138D01*
X132845578Y-86250566D01*
X132845578Y-86250568D01*
X132847474Y-86267744D01*
X132862035Y-86399633D01*
X132864601Y-86406645D01*
X132864602Y-86406649D01*
X132883406Y-86458032D01*
X132916143Y-86547490D01*
X133003958Y-86678172D01*
X133024004Y-86696412D01*
X133114878Y-86779102D01*
X133114882Y-86779105D01*
X133120410Y-86784135D01*
X133126980Y-86787702D01*
X133126981Y-86787703D01*
X133252208Y-86855696D01*
X133258776Y-86859262D01*
X133361031Y-86886088D01*
X133403841Y-86897319D01*
X133403843Y-86897319D01*
X133411069Y-86899215D01*
X133488127Y-86900425D01*
X133561025Y-86901571D01*
X133561028Y-86901571D01*
X133568495Y-86901688D01*
X133575776Y-86900020D01*
X133575780Y-86900020D01*
X133714681Y-86868207D01*
X133721968Y-86866538D01*
X133862625Y-86795795D01*
X133868306Y-86790943D01*
X133868309Y-86790941D01*
X133976666Y-86698395D01*
X133976667Y-86698394D01*
X133982348Y-86693542D01*
X133993393Y-86678172D01*
X134013798Y-86649775D01*
X134074224Y-86565683D01*
X134132950Y-86419598D01*
X134134793Y-86406649D01*
X134154562Y-86267744D01*
X134154562Y-86267740D01*
X134155134Y-86263723D01*
X134155278Y-86250000D01*
X134136363Y-86093694D01*
X134080710Y-85946412D01*
X134049972Y-85901688D01*
X133995768Y-85822821D01*
X133995765Y-85822818D01*
X133991531Y-85816657D01*
X133873976Y-85711919D01*
X133734831Y-85638245D01*
X133582128Y-85599889D01*
X133500329Y-85599461D01*
X133432158Y-85599104D01*
X133432157Y-85599104D01*
X133424684Y-85599065D01*
X133417421Y-85600809D01*
X133417418Y-85600809D01*
X133348136Y-85617442D01*
X133271588Y-85635820D01*
X133131679Y-85708032D01*
X133013034Y-85811533D01*
X132922501Y-85940348D01*
X132865309Y-86087039D01*
X132844758Y-86243138D01*
X100225000Y-86243138D01*
X100225000Y-85243138D01*
X136594758Y-85243138D01*
X136595578Y-85250566D01*
X136595578Y-85250568D01*
X136597474Y-85267744D01*
X136612035Y-85399633D01*
X136666143Y-85547490D01*
X136753958Y-85678172D01*
X136791046Y-85711919D01*
X136864878Y-85779102D01*
X136864882Y-85779105D01*
X136870410Y-85784135D01*
X136876980Y-85787702D01*
X136876981Y-85787703D01*
X136941660Y-85822821D01*
X137008776Y-85859262D01*
X137111031Y-85886088D01*
X137153841Y-85897319D01*
X137153843Y-85897319D01*
X137161069Y-85899215D01*
X137238127Y-85900425D01*
X137311025Y-85901571D01*
X137311028Y-85901571D01*
X137318495Y-85901688D01*
X137325776Y-85900020D01*
X137325780Y-85900020D01*
X137464681Y-85868207D01*
X137471968Y-85866538D01*
X137612625Y-85795795D01*
X137618306Y-85790943D01*
X137618309Y-85790941D01*
X137726666Y-85698395D01*
X137726667Y-85698394D01*
X137732348Y-85693542D01*
X137743393Y-85678172D01*
X137799644Y-85599889D01*
X137824224Y-85565683D01*
X137882950Y-85419598D01*
X137884793Y-85406649D01*
X137904562Y-85267744D01*
X137904562Y-85267740D01*
X137905134Y-85263723D01*
X137905278Y-85250000D01*
X137893082Y-85149215D01*
X137887262Y-85101119D01*
X137887261Y-85101115D01*
X137886363Y-85093694D01*
X137830710Y-84946412D01*
X137813908Y-84921965D01*
X137745768Y-84822821D01*
X137745765Y-84822818D01*
X137741531Y-84816657D01*
X137623976Y-84711919D01*
X137484831Y-84638245D01*
X137332128Y-84599889D01*
X137250329Y-84599461D01*
X137182158Y-84599104D01*
X137182157Y-84599104D01*
X137174684Y-84599065D01*
X137167421Y-84600809D01*
X137167418Y-84600809D01*
X137098136Y-84617443D01*
X137021588Y-84635820D01*
X136881679Y-84708032D01*
X136763034Y-84811533D01*
X136672501Y-84940348D01*
X136615309Y-85087039D01*
X136594758Y-85243138D01*
X100225000Y-85243138D01*
X100225000Y-84493138D01*
X131844758Y-84493138D01*
X131845578Y-84500566D01*
X131845578Y-84500568D01*
X131849284Y-84534135D01*
X131862035Y-84649633D01*
X131864601Y-84656645D01*
X131864602Y-84656649D01*
X131883406Y-84708032D01*
X131916143Y-84797490D01*
X132003958Y-84928172D01*
X132024004Y-84946412D01*
X132114878Y-85029102D01*
X132114882Y-85029105D01*
X132120410Y-85034135D01*
X132126980Y-85037702D01*
X132126981Y-85037703D01*
X132252208Y-85105696D01*
X132258776Y-85109262D01*
X132361031Y-85136088D01*
X132403841Y-85147319D01*
X132403843Y-85147319D01*
X132411069Y-85149215D01*
X132488127Y-85150425D01*
X132561025Y-85151571D01*
X132561028Y-85151571D01*
X132568495Y-85151688D01*
X132575776Y-85150020D01*
X132575780Y-85150020D01*
X132714681Y-85118207D01*
X132721968Y-85116538D01*
X132862625Y-85045795D01*
X132868306Y-85040943D01*
X132868309Y-85040941D01*
X132976666Y-84948395D01*
X132976667Y-84948394D01*
X132982348Y-84943542D01*
X132993393Y-84928172D01*
X133013798Y-84899775D01*
X133074224Y-84815683D01*
X133132950Y-84669598D01*
X133135392Y-84652440D01*
X133154562Y-84517744D01*
X133154562Y-84517740D01*
X133155134Y-84513723D01*
X133155278Y-84500000D01*
X133153551Y-84485727D01*
X133137262Y-84351119D01*
X133137261Y-84351115D01*
X133136363Y-84343694D01*
X133123159Y-84308750D01*
X133083354Y-84203408D01*
X133083352Y-84203405D01*
X133080710Y-84196412D01*
X133072337Y-84184229D01*
X132995768Y-84072821D01*
X132995765Y-84072818D01*
X132991531Y-84066657D01*
X132912191Y-83995967D01*
X132909016Y-83993138D01*
X139844758Y-83993138D01*
X139845578Y-84000566D01*
X139845578Y-84000568D01*
X139847474Y-84017744D01*
X139862035Y-84149633D01*
X139864601Y-84156645D01*
X139864602Y-84156649D01*
X139879484Y-84197314D01*
X139916143Y-84297490D01*
X140003958Y-84428172D01*
X140058693Y-84477977D01*
X140114878Y-84529102D01*
X140114882Y-84529105D01*
X140120410Y-84534135D01*
X140241442Y-84599850D01*
X140247525Y-84603153D01*
X140297048Y-84652440D01*
X140312062Y-84720678D01*
X140287801Y-84786200D01*
X140269870Y-84805569D01*
X140268668Y-84806617D01*
X140268663Y-84806622D01*
X140263034Y-84811533D01*
X140172501Y-84940348D01*
X140115309Y-85087039D01*
X140094758Y-85243138D01*
X140095578Y-85250566D01*
X140095578Y-85250568D01*
X140097474Y-85267744D01*
X140112035Y-85399633D01*
X140166143Y-85547490D01*
X140253958Y-85678172D01*
X140291046Y-85711919D01*
X140364878Y-85779102D01*
X140364882Y-85779105D01*
X140370410Y-85784135D01*
X140376980Y-85787702D01*
X140376981Y-85787703D01*
X140441660Y-85822821D01*
X140508776Y-85859262D01*
X140611031Y-85886088D01*
X140653841Y-85897319D01*
X140653843Y-85897319D01*
X140661069Y-85899215D01*
X140738127Y-85900425D01*
X140811025Y-85901571D01*
X140811028Y-85901571D01*
X140818495Y-85901688D01*
X140825776Y-85900020D01*
X140825780Y-85900020D01*
X140964681Y-85868207D01*
X140971968Y-85866538D01*
X141112625Y-85795795D01*
X141118306Y-85790943D01*
X141118309Y-85790941D01*
X141226666Y-85698395D01*
X141226667Y-85698394D01*
X141232348Y-85693542D01*
X141243393Y-85678172D01*
X141299644Y-85599889D01*
X141324224Y-85565683D01*
X141382950Y-85419598D01*
X141384793Y-85406649D01*
X141404562Y-85267744D01*
X141404562Y-85267740D01*
X141405134Y-85263723D01*
X141405278Y-85250000D01*
X141393082Y-85149215D01*
X141387262Y-85101119D01*
X141387261Y-85101115D01*
X141386363Y-85093694D01*
X141330710Y-84946412D01*
X141313908Y-84921965D01*
X141245768Y-84822821D01*
X141245765Y-84822818D01*
X141241531Y-84816657D01*
X141123976Y-84711919D01*
X141117369Y-84708421D01*
X141117365Y-84708418D01*
X141003824Y-84648301D01*
X140953787Y-84599534D01*
X140938059Y-84531458D01*
X140961633Y-84465685D01*
X140972111Y-84454368D01*
X140971603Y-84453901D01*
X140976666Y-84448395D01*
X140982348Y-84443542D01*
X140993393Y-84428172D01*
X141013798Y-84399775D01*
X141074224Y-84315683D01*
X141132950Y-84169598D01*
X141134793Y-84156649D01*
X141154562Y-84017744D01*
X141154562Y-84017740D01*
X141155134Y-84013723D01*
X141155278Y-84000000D01*
X141150670Y-83961919D01*
X141137262Y-83851119D01*
X141137261Y-83851115D01*
X141136363Y-83843694D01*
X141080710Y-83696412D01*
X141072337Y-83684229D01*
X140995768Y-83572821D01*
X140995765Y-83572818D01*
X140991531Y-83566657D01*
X140873976Y-83461919D01*
X140734831Y-83388245D01*
X140582128Y-83349889D01*
X140500329Y-83349461D01*
X140432158Y-83349104D01*
X140432157Y-83349104D01*
X140424684Y-83349065D01*
X140417421Y-83350809D01*
X140417418Y-83350809D01*
X140348136Y-83367443D01*
X140271588Y-83385820D01*
X140131679Y-83458032D01*
X140013034Y-83561533D01*
X139922501Y-83690348D01*
X139865309Y-83837039D01*
X139844758Y-83993138D01*
X132909016Y-83993138D01*
X132879559Y-83966893D01*
X132879558Y-83966892D01*
X132873976Y-83961919D01*
X132734831Y-83888245D01*
X132582128Y-83849889D01*
X132500329Y-83849461D01*
X132432158Y-83849104D01*
X132432157Y-83849104D01*
X132424684Y-83849065D01*
X132417421Y-83850809D01*
X132417418Y-83850809D01*
X132348136Y-83867442D01*
X132271588Y-83885820D01*
X132131679Y-83958032D01*
X132013034Y-84061533D01*
X131922501Y-84190348D01*
X131865309Y-84337039D01*
X131844758Y-84493138D01*
X100225000Y-84493138D01*
X100225000Y-79493138D01*
X122844758Y-79493138D01*
X122845578Y-79500566D01*
X122845578Y-79500568D01*
X122855677Y-79592044D01*
X122862035Y-79649633D01*
X122864601Y-79656645D01*
X122864602Y-79656649D01*
X122871877Y-79676528D01*
X122916143Y-79797490D01*
X123003958Y-79928172D01*
X123026183Y-79948395D01*
X123114878Y-80029102D01*
X123114882Y-80029105D01*
X123120410Y-80034135D01*
X123258776Y-80109262D01*
X123361031Y-80136088D01*
X123403841Y-80147319D01*
X123403843Y-80147319D01*
X123411069Y-80149215D01*
X123488127Y-80150425D01*
X123561025Y-80151571D01*
X123561028Y-80151571D01*
X123568495Y-80151688D01*
X123575776Y-80150020D01*
X123575780Y-80150020D01*
X123714681Y-80118207D01*
X123721968Y-80116538D01*
X123862625Y-80045795D01*
X123868306Y-80040943D01*
X123868309Y-80040941D01*
X123976666Y-79948395D01*
X123976667Y-79948394D01*
X123982348Y-79943542D01*
X123993393Y-79928172D01*
X124013798Y-79899775D01*
X124074224Y-79815683D01*
X124132950Y-79669598D01*
X124134793Y-79656649D01*
X124154562Y-79517744D01*
X124154562Y-79517740D01*
X124155134Y-79513723D01*
X124155278Y-79500000D01*
X124154448Y-79493138D01*
X133594758Y-79493138D01*
X133595578Y-79500566D01*
X133595578Y-79500568D01*
X133605677Y-79592044D01*
X133612035Y-79649633D01*
X133614601Y-79656645D01*
X133614602Y-79656649D01*
X133621877Y-79676528D01*
X133666143Y-79797490D01*
X133753958Y-79928172D01*
X133776183Y-79948395D01*
X133864878Y-80029102D01*
X133864882Y-80029105D01*
X133870410Y-80034135D01*
X134008776Y-80109262D01*
X134111031Y-80136088D01*
X134153841Y-80147319D01*
X134153843Y-80147319D01*
X134161069Y-80149215D01*
X134238127Y-80150425D01*
X134311025Y-80151571D01*
X134311028Y-80151571D01*
X134318495Y-80151688D01*
X134325776Y-80150020D01*
X134325780Y-80150020D01*
X134464681Y-80118207D01*
X134471968Y-80116538D01*
X134612625Y-80045795D01*
X134618306Y-80040943D01*
X134618309Y-80040941D01*
X134726666Y-79948395D01*
X134726667Y-79948394D01*
X134732348Y-79943542D01*
X134743393Y-79928172D01*
X134763798Y-79899775D01*
X134824224Y-79815683D01*
X134882950Y-79669598D01*
X134883395Y-79669777D01*
X134917220Y-79614281D01*
X134980067Y-79583750D01*
X135049443Y-79592044D01*
X135103321Y-79636528D01*
X135117080Y-79663419D01*
X135166143Y-79797490D01*
X135253958Y-79928172D01*
X135276183Y-79948395D01*
X135364878Y-80029102D01*
X135364882Y-80029105D01*
X135370410Y-80034135D01*
X135508776Y-80109262D01*
X135611031Y-80136088D01*
X135653841Y-80147319D01*
X135653843Y-80147319D01*
X135661069Y-80149215D01*
X135738127Y-80150425D01*
X135811025Y-80151571D01*
X135811028Y-80151571D01*
X135818495Y-80151688D01*
X135825776Y-80150020D01*
X135825780Y-80150020D01*
X135964681Y-80118207D01*
X135971968Y-80116538D01*
X136112625Y-80045795D01*
X136118306Y-80040943D01*
X136118309Y-80040941D01*
X136226666Y-79948395D01*
X136226667Y-79948394D01*
X136232348Y-79943542D01*
X136243393Y-79928172D01*
X136263798Y-79899775D01*
X136324224Y-79815683D01*
X136382950Y-79669598D01*
X136384793Y-79656649D01*
X136404562Y-79517744D01*
X136404562Y-79517740D01*
X136405134Y-79513723D01*
X136405278Y-79500000D01*
X136386363Y-79343694D01*
X136330710Y-79196412D01*
X136322337Y-79184229D01*
X136245768Y-79072821D01*
X136245765Y-79072818D01*
X136241531Y-79066657D01*
X136123976Y-78961919D01*
X135984831Y-78888245D01*
X135832128Y-78849889D01*
X135750329Y-78849461D01*
X135682158Y-78849104D01*
X135682157Y-78849104D01*
X135674684Y-78849065D01*
X135667421Y-78850809D01*
X135667418Y-78850809D01*
X135598136Y-78867443D01*
X135521588Y-78885820D01*
X135381679Y-78958032D01*
X135263034Y-79061533D01*
X135172501Y-79190348D01*
X135115309Y-79337039D01*
X135112323Y-79335875D01*
X135084012Y-79383467D01*
X135021497Y-79414671D01*
X134952036Y-79407123D01*
X134897683Y-79363220D01*
X134883625Y-79336447D01*
X134833354Y-79203409D01*
X134830710Y-79196412D01*
X134822337Y-79184229D01*
X134745768Y-79072821D01*
X134745765Y-79072818D01*
X134741531Y-79066657D01*
X134623976Y-78961919D01*
X134484831Y-78888245D01*
X134332128Y-78849889D01*
X134250329Y-78849461D01*
X134182158Y-78849104D01*
X134182157Y-78849104D01*
X134174684Y-78849065D01*
X134167421Y-78850809D01*
X134167418Y-78850809D01*
X134098136Y-78867443D01*
X134021588Y-78885820D01*
X133881679Y-78958032D01*
X133763034Y-79061533D01*
X133672501Y-79190348D01*
X133615309Y-79337039D01*
X133594758Y-79493138D01*
X124154448Y-79493138D01*
X124136363Y-79343694D01*
X124080710Y-79196412D01*
X124072337Y-79184229D01*
X123995768Y-79072821D01*
X123995765Y-79072818D01*
X123991531Y-79066657D01*
X123873976Y-78961919D01*
X123734831Y-78888245D01*
X123582128Y-78849889D01*
X123500329Y-78849461D01*
X123432158Y-78849104D01*
X123432157Y-78849104D01*
X123424684Y-78849065D01*
X123417421Y-78850809D01*
X123417418Y-78850809D01*
X123348136Y-78867443D01*
X123271588Y-78885820D01*
X123131679Y-78958032D01*
X123013034Y-79061533D01*
X122922501Y-79190348D01*
X122865309Y-79337039D01*
X122844758Y-79493138D01*
X100225000Y-79493138D01*
X100225000Y-76702469D01*
X137899498Y-76702469D01*
X137914437Y-76859046D01*
X137973551Y-77060549D01*
X137976254Y-77065797D01*
X138067002Y-77241996D01*
X138067005Y-77242001D01*
X138069703Y-77247239D01*
X138199422Y-77412379D01*
X138203876Y-77416244D01*
X138203877Y-77416245D01*
X138289195Y-77490280D01*
X138358027Y-77550010D01*
X138363132Y-77552963D01*
X138363133Y-77552964D01*
X138463111Y-77610802D01*
X138539797Y-77655166D01*
X138738172Y-77724053D01*
X138945994Y-77754186D01*
X139155765Y-77744477D01*
X139161504Y-77743094D01*
X139354183Y-77696658D01*
X139354186Y-77696657D01*
X139359916Y-77695276D01*
X139365284Y-77692836D01*
X139365288Y-77692834D01*
X139545708Y-77610802D01*
X139551079Y-77608360D01*
X139722358Y-77486863D01*
X139798102Y-77407740D01*
X139863489Y-77339436D01*
X139863493Y-77339432D01*
X139867573Y-77335169D01*
X139981483Y-77158754D01*
X140021061Y-77060549D01*
X140057771Y-76969461D01*
X140057772Y-76969456D01*
X140059979Y-76963981D01*
X140100228Y-76757878D01*
X140100498Y-76752357D01*
X140100498Y-76702469D01*
X140399498Y-76702469D01*
X140414437Y-76859046D01*
X140473551Y-77060549D01*
X140476254Y-77065797D01*
X140567002Y-77241996D01*
X140567005Y-77242001D01*
X140569703Y-77247239D01*
X140699422Y-77412379D01*
X140703876Y-77416244D01*
X140703877Y-77416245D01*
X140789195Y-77490280D01*
X140858027Y-77550010D01*
X140863132Y-77552963D01*
X140863133Y-77552964D01*
X140963111Y-77610802D01*
X141039797Y-77655166D01*
X141238172Y-77724053D01*
X141445994Y-77754186D01*
X141655765Y-77744477D01*
X141661504Y-77743094D01*
X141854183Y-77696658D01*
X141854186Y-77696657D01*
X141859916Y-77695276D01*
X141865284Y-77692836D01*
X141865288Y-77692834D01*
X142045708Y-77610802D01*
X142051079Y-77608360D01*
X142222358Y-77486863D01*
X142298102Y-77407740D01*
X142363489Y-77339436D01*
X142363493Y-77339432D01*
X142367573Y-77335169D01*
X142481483Y-77158754D01*
X142521061Y-77060549D01*
X142557771Y-76969461D01*
X142557772Y-76969456D01*
X142559979Y-76963981D01*
X142600228Y-76757878D01*
X142600498Y-76752357D01*
X142600498Y-76702469D01*
X142899498Y-76702469D01*
X142914437Y-76859046D01*
X142973551Y-77060549D01*
X142976254Y-77065797D01*
X143067002Y-77241996D01*
X143067005Y-77242001D01*
X143069703Y-77247239D01*
X143199422Y-77412379D01*
X143203876Y-77416244D01*
X143203877Y-77416245D01*
X143289195Y-77490280D01*
X143358027Y-77550010D01*
X143363132Y-77552963D01*
X143363133Y-77552964D01*
X143463111Y-77610802D01*
X143539797Y-77655166D01*
X143738172Y-77724053D01*
X143945994Y-77754186D01*
X144155765Y-77744477D01*
X144161504Y-77743094D01*
X144354183Y-77696658D01*
X144354186Y-77696657D01*
X144359916Y-77695276D01*
X144365284Y-77692836D01*
X144365288Y-77692834D01*
X144545708Y-77610802D01*
X144551079Y-77608360D01*
X144722358Y-77486863D01*
X144798102Y-77407740D01*
X144863489Y-77339436D01*
X144863493Y-77339432D01*
X144867573Y-77335169D01*
X144981483Y-77158754D01*
X145021061Y-77060549D01*
X145057771Y-76969461D01*
X145057772Y-76969456D01*
X145059979Y-76963981D01*
X145100228Y-76757878D01*
X145100498Y-76752357D01*
X145100498Y-76702469D01*
X145399498Y-76702469D01*
X145414437Y-76859046D01*
X145473551Y-77060549D01*
X145476254Y-77065797D01*
X145567002Y-77241996D01*
X145567005Y-77242001D01*
X145569703Y-77247239D01*
X145699422Y-77412379D01*
X145703876Y-77416244D01*
X145703877Y-77416245D01*
X145789195Y-77490280D01*
X145858027Y-77550010D01*
X145863132Y-77552963D01*
X145863133Y-77552964D01*
X145963111Y-77610802D01*
X146039797Y-77655166D01*
X146238172Y-77724053D01*
X146445994Y-77754186D01*
X146655765Y-77744477D01*
X146661504Y-77743094D01*
X146854183Y-77696658D01*
X146854186Y-77696657D01*
X146859916Y-77695276D01*
X146865284Y-77692836D01*
X146865288Y-77692834D01*
X147045708Y-77610802D01*
X147051079Y-77608360D01*
X147222358Y-77486863D01*
X147298102Y-77407740D01*
X147363489Y-77339436D01*
X147363493Y-77339432D01*
X147367573Y-77335169D01*
X147481483Y-77158754D01*
X147521061Y-77060549D01*
X147557771Y-76969461D01*
X147557772Y-76969456D01*
X147559979Y-76963981D01*
X147600228Y-76757878D01*
X147600498Y-76752357D01*
X147600498Y-76347531D01*
X147585559Y-76190954D01*
X147526445Y-75989451D01*
X147512649Y-75962664D01*
X147432994Y-75808004D01*
X147432991Y-75807999D01*
X147430293Y-75802761D01*
X147300574Y-75637621D01*
X147214739Y-75563137D01*
X147146422Y-75503854D01*
X147146421Y-75503853D01*
X147141969Y-75499990D01*
X147041107Y-75441640D01*
X146965309Y-75397790D01*
X146965307Y-75397789D01*
X146960199Y-75394834D01*
X146761824Y-75325947D01*
X146554002Y-75295814D01*
X146344231Y-75305523D01*
X146338493Y-75306906D01*
X146338492Y-75306906D01*
X146145813Y-75353342D01*
X146145810Y-75353343D01*
X146140080Y-75354724D01*
X146134712Y-75357164D01*
X146134708Y-75357166D01*
X145964894Y-75434376D01*
X145948917Y-75441640D01*
X145777638Y-75563137D01*
X145773554Y-75567404D01*
X145773552Y-75567405D01*
X145636507Y-75710564D01*
X145636503Y-75710568D01*
X145632423Y-75714831D01*
X145518513Y-75891246D01*
X145516306Y-75896721D01*
X145516305Y-75896724D01*
X145442225Y-76080539D01*
X145442224Y-76080544D01*
X145440017Y-76086019D01*
X145399768Y-76292122D01*
X145399498Y-76297643D01*
X145399498Y-76702469D01*
X145100498Y-76702469D01*
X145100498Y-76347531D01*
X145085559Y-76190954D01*
X145026445Y-75989451D01*
X145012649Y-75962664D01*
X144932994Y-75808004D01*
X144932991Y-75807999D01*
X144930293Y-75802761D01*
X144800574Y-75637621D01*
X144714739Y-75563137D01*
X144646422Y-75503854D01*
X144646421Y-75503853D01*
X144641969Y-75499990D01*
X144541107Y-75441640D01*
X144465309Y-75397790D01*
X144465307Y-75397789D01*
X144460199Y-75394834D01*
X144261824Y-75325947D01*
X144054002Y-75295814D01*
X143844231Y-75305523D01*
X143838493Y-75306906D01*
X143838492Y-75306906D01*
X143645813Y-75353342D01*
X143645810Y-75353343D01*
X143640080Y-75354724D01*
X143634712Y-75357164D01*
X143634708Y-75357166D01*
X143464894Y-75434376D01*
X143448917Y-75441640D01*
X143277638Y-75563137D01*
X143273554Y-75567404D01*
X143273552Y-75567405D01*
X143136507Y-75710564D01*
X143136503Y-75710568D01*
X143132423Y-75714831D01*
X143018513Y-75891246D01*
X143016306Y-75896721D01*
X143016305Y-75896724D01*
X142942225Y-76080539D01*
X142942224Y-76080544D01*
X142940017Y-76086019D01*
X142899768Y-76292122D01*
X142899498Y-76297643D01*
X142899498Y-76702469D01*
X142600498Y-76702469D01*
X142600498Y-76347531D01*
X142585559Y-76190954D01*
X142526445Y-75989451D01*
X142512649Y-75962664D01*
X142432994Y-75808004D01*
X142432991Y-75807999D01*
X142430293Y-75802761D01*
X142300574Y-75637621D01*
X142214739Y-75563137D01*
X142146422Y-75503854D01*
X142146421Y-75503853D01*
X142141969Y-75499990D01*
X142041107Y-75441640D01*
X141965309Y-75397790D01*
X141965307Y-75397789D01*
X141960199Y-75394834D01*
X141761824Y-75325947D01*
X141554002Y-75295814D01*
X141344231Y-75305523D01*
X141338493Y-75306906D01*
X141338492Y-75306906D01*
X141145813Y-75353342D01*
X141145810Y-75353343D01*
X141140080Y-75354724D01*
X141134712Y-75357164D01*
X141134708Y-75357166D01*
X140964894Y-75434376D01*
X140948917Y-75441640D01*
X140777638Y-75563137D01*
X140773554Y-75567404D01*
X140773552Y-75567405D01*
X140636507Y-75710564D01*
X140636503Y-75710568D01*
X140632423Y-75714831D01*
X140518513Y-75891246D01*
X140516306Y-75896721D01*
X140516305Y-75896724D01*
X140442225Y-76080539D01*
X140442224Y-76080544D01*
X140440017Y-76086019D01*
X140399768Y-76292122D01*
X140399498Y-76297643D01*
X140399498Y-76702469D01*
X140100498Y-76702469D01*
X140100498Y-76347531D01*
X140085559Y-76190954D01*
X140026445Y-75989451D01*
X140012649Y-75962664D01*
X139932994Y-75808004D01*
X139932991Y-75807999D01*
X139930293Y-75802761D01*
X139800574Y-75637621D01*
X139714739Y-75563137D01*
X139646422Y-75503854D01*
X139646421Y-75503853D01*
X139641969Y-75499990D01*
X139541107Y-75441640D01*
X139465309Y-75397790D01*
X139465307Y-75397789D01*
X139460199Y-75394834D01*
X139261824Y-75325947D01*
X139054002Y-75295814D01*
X138844231Y-75305523D01*
X138838493Y-75306906D01*
X138838492Y-75306906D01*
X138645813Y-75353342D01*
X138645810Y-75353343D01*
X138640080Y-75354724D01*
X138634712Y-75357164D01*
X138634708Y-75357166D01*
X138464894Y-75434376D01*
X138448917Y-75441640D01*
X138277638Y-75563137D01*
X138273554Y-75567404D01*
X138273552Y-75567405D01*
X138136507Y-75710564D01*
X138136503Y-75710568D01*
X138132423Y-75714831D01*
X138018513Y-75891246D01*
X138016306Y-75896721D01*
X138016305Y-75896724D01*
X137942225Y-76080539D01*
X137942224Y-76080544D01*
X137940017Y-76086019D01*
X137899768Y-76292122D01*
X137899498Y-76297643D01*
X137899498Y-76702469D01*
X100225000Y-76702469D01*
X100225000Y-72374000D01*
X100244685Y-72306961D01*
X100297489Y-72261206D01*
X100349000Y-72250000D01*
X161626000Y-72250000D01*
X161693039Y-72269685D01*
G37*
G04 #@! TD.AperFunction*
G04 #@! TD*
M02*
