G04 #@! TF.GenerationSoftware,KiCad,Pcbnew,6.0.2-378541a8eb~116~ubuntu20.04.1*
G04 #@! TF.CreationDate,2022-03-07T01:05:26+01:00*
G04 #@! TF.ProjectId,lora_sensor,6c6f7261-5f73-4656-9e73-6f722e6b6963,rev?*
G04 #@! TF.SameCoordinates,Original*
G04 #@! TF.FileFunction,Legend,Top*
G04 #@! TF.FilePolarity,Positive*
%FSLAX46Y46*%
G04 Gerber Fmt 4.6, Leading zero omitted, Abs format (unit mm)*
G04 Created by KiCad (PCBNEW 6.0.2-378541a8eb~116~ubuntu20.04.1) date 2022-03-07 01:05:26*
%MOMM*%
%LPD*%
G01*
G04 APERTURE LIST*
G04 Aperture macros list*
%AMRoundRect*
0 Rectangle with rounded corners*
0 $1 Rounding radius*
0 $2 $3 $4 $5 $6 $7 $8 $9 X,Y pos of 4 corners*
0 Add a 4 corners polygon primitive as box body*
4,1,4,$2,$3,$4,$5,$6,$7,$8,$9,$2,$3,0*
0 Add four circle primitives for the rounded corners*
1,1,$1+$1,$2,$3*
1,1,$1+$1,$4,$5*
1,1,$1+$1,$6,$7*
1,1,$1+$1,$8,$9*
0 Add four rect primitives between the rounded corners*
20,1,$1+$1,$2,$3,$4,$5,0*
20,1,$1+$1,$4,$5,$6,$7,0*
20,1,$1+$1,$6,$7,$8,$9,0*
20,1,$1+$1,$8,$9,$2,$3,0*%
G04 Aperture macros list end*
%ADD10C,0.300000*%
%ADD11C,0.114300*%
%ADD12C,0.109220*%
%ADD13C,0.150000*%
%ADD14C,0.152000*%
%ADD15C,0.200000*%
%ADD16C,0.127000*%
%ADD17C,0.099060*%
%ADD18C,0.120000*%
%ADD19C,0.304800*%
%ADD20C,0.066040*%
%ADD21C,0.101600*%
%ADD22C,0.050800*%
%ADD23R,1.524000X1.524000*%
%ADD24C,1.524000*%
%ADD25C,5.000000*%
%ADD26R,1.143000X0.635000*%
%ADD27R,0.635000X1.143000*%
%ADD28R,1.397000X0.889000*%
%ADD29R,0.889000X1.397000*%
%ADD30R,0.800000X0.900000*%
%ADD31RoundRect,0.250000X0.600000X0.725000X-0.600000X0.725000X-0.600000X-0.725000X0.600000X-0.725000X0*%
%ADD32O,1.700000X1.950000*%
%ADD33RoundRect,0.250000X0.750000X-0.600000X0.750000X0.600000X-0.750000X0.600000X-0.750000X-0.600000X0*%
%ADD34O,2.000000X1.700000*%
%ADD35R,0.910000X1.220000*%
%ADD36C,0.800000*%
%ADD37R,1.300000X0.450000*%
%ADD38C,2.000000*%
%ADD39C,1.800000*%
%ADD40R,3.000000X0.600000*%
%ADD41R,1.198880X1.198880*%
%ADD42R,1.100000X0.600000*%
%ADD43R,0.600000X1.100000*%
%ADD44RoundRect,0.250000X-1.050000X-0.250000X1.050000X-0.250000X1.050000X0.250000X-1.050000X0.250000X0*%
%ADD45RoundRect,0.075000X-0.075000X0.662500X-0.075000X-0.662500X0.075000X-0.662500X0.075000X0.662500X0*%
%ADD46RoundRect,0.075000X-0.662500X0.075000X-0.662500X-0.075000X0.662500X-0.075000X0.662500X0.075000X0*%
G04 APERTURE END LIST*
D10*
X120392857Y-128935357D02*
X119892857Y-128935357D01*
X119892857Y-129721071D02*
X119892857Y-128221071D01*
X120607142Y-128221071D01*
X121821428Y-128721071D02*
X121821428Y-129721071D01*
X121464285Y-128149642D02*
X121107142Y-129221071D01*
X122035714Y-129221071D01*
X122607142Y-129721071D02*
X122607142Y-128221071D01*
X123321428Y-129721071D02*
X123321428Y-128221071D01*
X123321428Y-128935357D02*
X124178571Y-128935357D01*
X124178571Y-129721071D02*
X124178571Y-128221071D01*
X124750000Y-128221071D02*
X125750000Y-129721071D01*
X125750000Y-128221071D02*
X124750000Y-129721071D01*
X116750000Y-132136071D02*
X116035714Y-132136071D01*
X116035714Y-130636071D01*
X117464285Y-132136071D02*
X117321428Y-132064642D01*
X117250000Y-131993214D01*
X117178571Y-131850357D01*
X117178571Y-131421785D01*
X117250000Y-131278928D01*
X117321428Y-131207500D01*
X117464285Y-131136071D01*
X117678571Y-131136071D01*
X117821428Y-131207500D01*
X117892857Y-131278928D01*
X117964285Y-131421785D01*
X117964285Y-131850357D01*
X117892857Y-131993214D01*
X117821428Y-132064642D01*
X117678571Y-132136071D01*
X117464285Y-132136071D01*
X119464285Y-132136071D02*
X118964285Y-131421785D01*
X118607142Y-132136071D02*
X118607142Y-130636071D01*
X119178571Y-130636071D01*
X119321428Y-130707500D01*
X119392857Y-130778928D01*
X119464285Y-130921785D01*
X119464285Y-131136071D01*
X119392857Y-131278928D01*
X119321428Y-131350357D01*
X119178571Y-131421785D01*
X118607142Y-131421785D01*
X120750000Y-132136071D02*
X120750000Y-131350357D01*
X120678571Y-131207500D01*
X120535714Y-131136071D01*
X120250000Y-131136071D01*
X120107142Y-131207500D01*
X120750000Y-132064642D02*
X120607142Y-132136071D01*
X120250000Y-132136071D01*
X120107142Y-132064642D01*
X120035714Y-131921785D01*
X120035714Y-131778928D01*
X120107142Y-131636071D01*
X120250000Y-131564642D01*
X120607142Y-131564642D01*
X120750000Y-131493214D01*
X122535714Y-132064642D02*
X122750000Y-132136071D01*
X123107142Y-132136071D01*
X123250000Y-132064642D01*
X123321428Y-131993214D01*
X123392857Y-131850357D01*
X123392857Y-131707500D01*
X123321428Y-131564642D01*
X123250000Y-131493214D01*
X123107142Y-131421785D01*
X122821428Y-131350357D01*
X122678571Y-131278928D01*
X122607142Y-131207500D01*
X122535714Y-131064642D01*
X122535714Y-130921785D01*
X122607142Y-130778928D01*
X122678571Y-130707500D01*
X122821428Y-130636071D01*
X123178571Y-130636071D01*
X123392857Y-130707500D01*
X124607142Y-132064642D02*
X124464285Y-132136071D01*
X124178571Y-132136071D01*
X124035714Y-132064642D01*
X123964285Y-131921785D01*
X123964285Y-131350357D01*
X124035714Y-131207500D01*
X124178571Y-131136071D01*
X124464285Y-131136071D01*
X124607142Y-131207500D01*
X124678571Y-131350357D01*
X124678571Y-131493214D01*
X123964285Y-131636071D01*
X125321428Y-131136071D02*
X125321428Y-132136071D01*
X125321428Y-131278928D02*
X125392857Y-131207500D01*
X125535714Y-131136071D01*
X125750000Y-131136071D01*
X125892857Y-131207500D01*
X125964285Y-131350357D01*
X125964285Y-132136071D01*
X126607142Y-132064642D02*
X126750000Y-132136071D01*
X127035714Y-132136071D01*
X127178571Y-132064642D01*
X127250000Y-131921785D01*
X127250000Y-131850357D01*
X127178571Y-131707500D01*
X127035714Y-131636071D01*
X126821428Y-131636071D01*
X126678571Y-131564642D01*
X126607142Y-131421785D01*
X126607142Y-131350357D01*
X126678571Y-131207500D01*
X126821428Y-131136071D01*
X127035714Y-131136071D01*
X127178571Y-131207500D01*
X128107142Y-132136071D02*
X127964285Y-132064642D01*
X127892857Y-131993214D01*
X127821428Y-131850357D01*
X127821428Y-131421785D01*
X127892857Y-131278928D01*
X127964285Y-131207500D01*
X128107142Y-131136071D01*
X128321428Y-131136071D01*
X128464285Y-131207500D01*
X128535714Y-131278928D01*
X128607142Y-131421785D01*
X128607142Y-131850357D01*
X128535714Y-131993214D01*
X128464285Y-132064642D01*
X128321428Y-132136071D01*
X128107142Y-132136071D01*
X129250000Y-132136071D02*
X129250000Y-131136071D01*
X129250000Y-131421785D02*
X129321428Y-131278928D01*
X129392857Y-131207500D01*
X129535714Y-131136071D01*
X129678571Y-131136071D01*
X152678571Y-76607142D02*
X153821428Y-76607142D01*
X134678571Y-76607142D02*
X135821428Y-76607142D01*
X135250000Y-77178571D02*
X135250000Y-76035714D01*
X157178571Y-101607142D02*
X158321428Y-101607142D01*
X157178571Y-114607142D02*
X158321428Y-114607142D01*
X157750000Y-115178571D02*
X157750000Y-114035714D01*
D11*
G04 #@! TO.C,R112*
X150499809Y-86511628D02*
X150257904Y-86664028D01*
X150499809Y-86772885D02*
X149991809Y-86772885D01*
X149991809Y-86598714D01*
X150016000Y-86555171D01*
X150040190Y-86533400D01*
X150088571Y-86511628D01*
X150161142Y-86511628D01*
X150209523Y-86533400D01*
X150233714Y-86555171D01*
X150257904Y-86598714D01*
X150257904Y-86772885D01*
X150499809Y-86076200D02*
X150499809Y-86337457D01*
X150499809Y-86206828D02*
X149991809Y-86206828D01*
X150064380Y-86250371D01*
X150112761Y-86293914D01*
X150136952Y-86337457D01*
X150499809Y-85640771D02*
X150499809Y-85902028D01*
X150499809Y-85771400D02*
X149991809Y-85771400D01*
X150064380Y-85814942D01*
X150112761Y-85858485D01*
X150136952Y-85902028D01*
X150040190Y-85466600D02*
X150016000Y-85444828D01*
X149991809Y-85401285D01*
X149991809Y-85292428D01*
X150016000Y-85248885D01*
X150040190Y-85227114D01*
X150088571Y-85205342D01*
X150136952Y-85205342D01*
X150209523Y-85227114D01*
X150499809Y-85488371D01*
X150499809Y-85205342D01*
G04 #@! TO.C,R111*
X143499806Y-86511627D02*
X143257901Y-86664027D01*
X143499806Y-86772884D02*
X142991806Y-86772884D01*
X142991806Y-86598713D01*
X143015997Y-86555170D01*
X143040187Y-86533399D01*
X143088568Y-86511627D01*
X143161139Y-86511627D01*
X143209520Y-86533399D01*
X143233711Y-86555170D01*
X143257901Y-86598713D01*
X143257901Y-86772884D01*
X143499806Y-86076199D02*
X143499806Y-86337456D01*
X143499806Y-86206827D02*
X142991806Y-86206827D01*
X143064377Y-86250370D01*
X143112758Y-86293913D01*
X143136949Y-86337456D01*
X143499806Y-85640770D02*
X143499806Y-85902027D01*
X143499806Y-85771399D02*
X142991806Y-85771399D01*
X143064377Y-85814941D01*
X143112758Y-85858484D01*
X143136949Y-85902027D01*
X143499806Y-85205341D02*
X143499806Y-85466599D01*
X143499806Y-85335970D02*
X142991806Y-85335970D01*
X143064377Y-85379513D01*
X143112758Y-85423056D01*
X143136949Y-85466599D01*
G04 #@! TO.C,R110*
X136499809Y-87511628D02*
X136257904Y-87664028D01*
X136499809Y-87772885D02*
X135991809Y-87772885D01*
X135991809Y-87598714D01*
X136016000Y-87555171D01*
X136040190Y-87533400D01*
X136088571Y-87511628D01*
X136161142Y-87511628D01*
X136209523Y-87533400D01*
X136233714Y-87555171D01*
X136257904Y-87598714D01*
X136257904Y-87772885D01*
X136499809Y-87076200D02*
X136499809Y-87337457D01*
X136499809Y-87206828D02*
X135991809Y-87206828D01*
X136064380Y-87250371D01*
X136112761Y-87293914D01*
X136136952Y-87337457D01*
X136499809Y-86640771D02*
X136499809Y-86902028D01*
X136499809Y-86771400D02*
X135991809Y-86771400D01*
X136064380Y-86814942D01*
X136112761Y-86858485D01*
X136136952Y-86902028D01*
X135991809Y-86357742D02*
X135991809Y-86314200D01*
X136016000Y-86270657D01*
X136040190Y-86248885D01*
X136088571Y-86227114D01*
X136185333Y-86205342D01*
X136306285Y-86205342D01*
X136403047Y-86227114D01*
X136451428Y-86248885D01*
X136475619Y-86270657D01*
X136499809Y-86314200D01*
X136499809Y-86357742D01*
X136475619Y-86401285D01*
X136451428Y-86423057D01*
X136403047Y-86444828D01*
X136306285Y-86466600D01*
X136185333Y-86466600D01*
X136088571Y-86444828D01*
X136040190Y-86423057D01*
X136016000Y-86401285D01*
X135991809Y-86357742D01*
G04 #@! TO.C,R109*
X151238371Y-96479809D02*
X151085971Y-96237904D01*
X150977114Y-96479809D02*
X150977114Y-95971809D01*
X151151285Y-95971809D01*
X151194828Y-95996000D01*
X151216600Y-96020190D01*
X151238371Y-96068571D01*
X151238371Y-96141142D01*
X151216600Y-96189523D01*
X151194828Y-96213714D01*
X151151285Y-96237904D01*
X150977114Y-96237904D01*
X151673800Y-96479809D02*
X151412542Y-96479809D01*
X151543171Y-96479809D02*
X151543171Y-95971809D01*
X151499628Y-96044380D01*
X151456085Y-96092761D01*
X151412542Y-96116952D01*
X151956828Y-95971809D02*
X152000371Y-95971809D01*
X152043914Y-95996000D01*
X152065685Y-96020190D01*
X152087457Y-96068571D01*
X152109228Y-96165333D01*
X152109228Y-96286285D01*
X152087457Y-96383047D01*
X152065685Y-96431428D01*
X152043914Y-96455619D01*
X152000371Y-96479809D01*
X151956828Y-96479809D01*
X151913285Y-96455619D01*
X151891514Y-96431428D01*
X151869742Y-96383047D01*
X151847971Y-96286285D01*
X151847971Y-96165333D01*
X151869742Y-96068571D01*
X151891514Y-96020190D01*
X151913285Y-95996000D01*
X151956828Y-95971809D01*
X152326942Y-96479809D02*
X152414028Y-96479809D01*
X152457571Y-96455619D01*
X152479342Y-96431428D01*
X152522885Y-96358857D01*
X152544657Y-96262095D01*
X152544657Y-96068571D01*
X152522885Y-96020190D01*
X152501114Y-95996000D01*
X152457571Y-95971809D01*
X152370485Y-95971809D01*
X152326942Y-95996000D01*
X152305171Y-96020190D01*
X152283400Y-96068571D01*
X152283400Y-96189523D01*
X152305171Y-96237904D01*
X152326942Y-96262095D01*
X152370485Y-96286285D01*
X152457571Y-96286285D01*
X152501114Y-96262095D01*
X152522885Y-96237904D01*
X152544657Y-96189523D01*
G04 #@! TO.C,R108*
X151238371Y-93979809D02*
X151085971Y-93737904D01*
X150977114Y-93979809D02*
X150977114Y-93471809D01*
X151151285Y-93471809D01*
X151194828Y-93496000D01*
X151216600Y-93520190D01*
X151238371Y-93568571D01*
X151238371Y-93641142D01*
X151216600Y-93689523D01*
X151194828Y-93713714D01*
X151151285Y-93737904D01*
X150977114Y-93737904D01*
X151673800Y-93979809D02*
X151412542Y-93979809D01*
X151543171Y-93979809D02*
X151543171Y-93471809D01*
X151499628Y-93544380D01*
X151456085Y-93592761D01*
X151412542Y-93616952D01*
X151956828Y-93471809D02*
X152000371Y-93471809D01*
X152043914Y-93496000D01*
X152065685Y-93520190D01*
X152087457Y-93568571D01*
X152109228Y-93665333D01*
X152109228Y-93786285D01*
X152087457Y-93883047D01*
X152065685Y-93931428D01*
X152043914Y-93955619D01*
X152000371Y-93979809D01*
X151956828Y-93979809D01*
X151913285Y-93955619D01*
X151891514Y-93931428D01*
X151869742Y-93883047D01*
X151847971Y-93786285D01*
X151847971Y-93665333D01*
X151869742Y-93568571D01*
X151891514Y-93520190D01*
X151913285Y-93496000D01*
X151956828Y-93471809D01*
X152370485Y-93689523D02*
X152326942Y-93665333D01*
X152305171Y-93641142D01*
X152283400Y-93592761D01*
X152283400Y-93568571D01*
X152305171Y-93520190D01*
X152326942Y-93496000D01*
X152370485Y-93471809D01*
X152457571Y-93471809D01*
X152501114Y-93496000D01*
X152522885Y-93520190D01*
X152544657Y-93568571D01*
X152544657Y-93592761D01*
X152522885Y-93641142D01*
X152501114Y-93665333D01*
X152457571Y-93689523D01*
X152370485Y-93689523D01*
X152326942Y-93713714D01*
X152305171Y-93737904D01*
X152283400Y-93786285D01*
X152283400Y-93883047D01*
X152305171Y-93931428D01*
X152326942Y-93955619D01*
X152370485Y-93979809D01*
X152457571Y-93979809D01*
X152501114Y-93955619D01*
X152522885Y-93931428D01*
X152544657Y-93883047D01*
X152544657Y-93786285D01*
X152522885Y-93737904D01*
X152501114Y-93713714D01*
X152457571Y-93689523D01*
G04 #@! TO.C,R107*
X156738371Y-122249809D02*
X156585971Y-122007904D01*
X156477114Y-122249809D02*
X156477114Y-121741809D01*
X156651285Y-121741809D01*
X156694828Y-121766000D01*
X156716600Y-121790190D01*
X156738371Y-121838571D01*
X156738371Y-121911142D01*
X156716600Y-121959523D01*
X156694828Y-121983714D01*
X156651285Y-122007904D01*
X156477114Y-122007904D01*
X157173800Y-122249809D02*
X156912542Y-122249809D01*
X157043171Y-122249809D02*
X157043171Y-121741809D01*
X156999628Y-121814380D01*
X156956085Y-121862761D01*
X156912542Y-121886952D01*
X157456828Y-121741809D02*
X157500371Y-121741809D01*
X157543914Y-121766000D01*
X157565685Y-121790190D01*
X157587457Y-121838571D01*
X157609228Y-121935333D01*
X157609228Y-122056285D01*
X157587457Y-122153047D01*
X157565685Y-122201428D01*
X157543914Y-122225619D01*
X157500371Y-122249809D01*
X157456828Y-122249809D01*
X157413285Y-122225619D01*
X157391514Y-122201428D01*
X157369742Y-122153047D01*
X157347971Y-122056285D01*
X157347971Y-121935333D01*
X157369742Y-121838571D01*
X157391514Y-121790190D01*
X157413285Y-121766000D01*
X157456828Y-121741809D01*
X157761628Y-121741809D02*
X158066428Y-121741809D01*
X157870485Y-122249809D01*
G04 #@! TO.C,R106*
X155479809Y-119261628D02*
X155237904Y-119414028D01*
X155479809Y-119522885D02*
X154971809Y-119522885D01*
X154971809Y-119348714D01*
X154996000Y-119305171D01*
X155020190Y-119283400D01*
X155068571Y-119261628D01*
X155141142Y-119261628D01*
X155189523Y-119283400D01*
X155213714Y-119305171D01*
X155237904Y-119348714D01*
X155237904Y-119522885D01*
X155479809Y-118826200D02*
X155479809Y-119087457D01*
X155479809Y-118956828D02*
X154971809Y-118956828D01*
X155044380Y-119000371D01*
X155092761Y-119043914D01*
X155116952Y-119087457D01*
X154971809Y-118543171D02*
X154971809Y-118499628D01*
X154996000Y-118456085D01*
X155020190Y-118434314D01*
X155068571Y-118412542D01*
X155165333Y-118390771D01*
X155286285Y-118390771D01*
X155383047Y-118412542D01*
X155431428Y-118434314D01*
X155455619Y-118456085D01*
X155479809Y-118499628D01*
X155479809Y-118543171D01*
X155455619Y-118586714D01*
X155431428Y-118608485D01*
X155383047Y-118630257D01*
X155286285Y-118652028D01*
X155165333Y-118652028D01*
X155068571Y-118630257D01*
X155020190Y-118608485D01*
X154996000Y-118586714D01*
X154971809Y-118543171D01*
X154971809Y-117998885D02*
X154971809Y-118085971D01*
X154996000Y-118129514D01*
X155020190Y-118151285D01*
X155092761Y-118194828D01*
X155189523Y-118216600D01*
X155383047Y-118216600D01*
X155431428Y-118194828D01*
X155455619Y-118173057D01*
X155479809Y-118129514D01*
X155479809Y-118042428D01*
X155455619Y-117998885D01*
X155431428Y-117977114D01*
X155383047Y-117955342D01*
X155262095Y-117955342D01*
X155213714Y-117977114D01*
X155189523Y-117998885D01*
X155165333Y-118042428D01*
X155165333Y-118129514D01*
X155189523Y-118173057D01*
X155213714Y-118194828D01*
X155262095Y-118216600D01*
G04 #@! TO.C,R105*
X126287391Y-87959809D02*
X126134991Y-87717904D01*
X126026134Y-87959809D02*
X126026134Y-87451809D01*
X126200305Y-87451809D01*
X126243848Y-87476000D01*
X126265620Y-87500190D01*
X126287391Y-87548571D01*
X126287391Y-87621142D01*
X126265620Y-87669523D01*
X126243848Y-87693714D01*
X126200305Y-87717904D01*
X126026134Y-87717904D01*
X126722820Y-87959809D02*
X126461562Y-87959809D01*
X126592191Y-87959809D02*
X126592191Y-87451809D01*
X126548648Y-87524380D01*
X126505105Y-87572761D01*
X126461562Y-87596952D01*
X127005848Y-87451809D02*
X127049391Y-87451809D01*
X127092934Y-87476000D01*
X127114705Y-87500190D01*
X127136477Y-87548571D01*
X127158248Y-87645333D01*
X127158248Y-87766285D01*
X127136477Y-87863047D01*
X127114705Y-87911428D01*
X127092934Y-87935619D01*
X127049391Y-87959809D01*
X127005848Y-87959809D01*
X126962305Y-87935619D01*
X126940534Y-87911428D01*
X126918762Y-87863047D01*
X126896991Y-87766285D01*
X126896991Y-87645333D01*
X126918762Y-87548571D01*
X126940534Y-87500190D01*
X126962305Y-87476000D01*
X127005848Y-87451809D01*
X127571905Y-87451809D02*
X127354191Y-87451809D01*
X127332420Y-87693714D01*
X127354191Y-87669523D01*
X127397734Y-87645333D01*
X127506591Y-87645333D01*
X127550134Y-87669523D01*
X127571905Y-87693714D01*
X127593677Y-87742095D01*
X127593677Y-87863047D01*
X127571905Y-87911428D01*
X127550134Y-87935619D01*
X127506591Y-87959809D01*
X127397734Y-87959809D01*
X127354191Y-87935619D01*
X127332420Y-87911428D01*
G04 #@! TO.C,R104*
X143488371Y-104659809D02*
X143335971Y-104417904D01*
X143227114Y-104659809D02*
X143227114Y-104151809D01*
X143401285Y-104151809D01*
X143444828Y-104176000D01*
X143466600Y-104200190D01*
X143488371Y-104248571D01*
X143488371Y-104321142D01*
X143466600Y-104369523D01*
X143444828Y-104393714D01*
X143401285Y-104417904D01*
X143227114Y-104417904D01*
X143923800Y-104659809D02*
X143662542Y-104659809D01*
X143793171Y-104659809D02*
X143793171Y-104151809D01*
X143749628Y-104224380D01*
X143706085Y-104272761D01*
X143662542Y-104296952D01*
X144206828Y-104151809D02*
X144250371Y-104151809D01*
X144293914Y-104176000D01*
X144315685Y-104200190D01*
X144337457Y-104248571D01*
X144359228Y-104345333D01*
X144359228Y-104466285D01*
X144337457Y-104563047D01*
X144315685Y-104611428D01*
X144293914Y-104635619D01*
X144250371Y-104659809D01*
X144206828Y-104659809D01*
X144163285Y-104635619D01*
X144141514Y-104611428D01*
X144119742Y-104563047D01*
X144097971Y-104466285D01*
X144097971Y-104345333D01*
X144119742Y-104248571D01*
X144141514Y-104200190D01*
X144163285Y-104176000D01*
X144206828Y-104151809D01*
X144751114Y-104321142D02*
X144751114Y-104659809D01*
X144642257Y-104127619D02*
X144533400Y-104490476D01*
X144816428Y-104490476D01*
G04 #@! TO.C,R103*
X146088371Y-104659809D02*
X145935971Y-104417904D01*
X145827114Y-104659809D02*
X145827114Y-104151809D01*
X146001285Y-104151809D01*
X146044828Y-104176000D01*
X146066600Y-104200190D01*
X146088371Y-104248571D01*
X146088371Y-104321142D01*
X146066600Y-104369523D01*
X146044828Y-104393714D01*
X146001285Y-104417904D01*
X145827114Y-104417904D01*
X146523800Y-104659809D02*
X146262542Y-104659809D01*
X146393171Y-104659809D02*
X146393171Y-104151809D01*
X146349628Y-104224380D01*
X146306085Y-104272761D01*
X146262542Y-104296952D01*
X146806828Y-104151809D02*
X146850371Y-104151809D01*
X146893914Y-104176000D01*
X146915685Y-104200190D01*
X146937457Y-104248571D01*
X146959228Y-104345333D01*
X146959228Y-104466285D01*
X146937457Y-104563047D01*
X146915685Y-104611428D01*
X146893914Y-104635619D01*
X146850371Y-104659809D01*
X146806828Y-104659809D01*
X146763285Y-104635619D01*
X146741514Y-104611428D01*
X146719742Y-104563047D01*
X146697971Y-104466285D01*
X146697971Y-104345333D01*
X146719742Y-104248571D01*
X146741514Y-104200190D01*
X146763285Y-104176000D01*
X146806828Y-104151809D01*
X147111628Y-104151809D02*
X147394657Y-104151809D01*
X147242257Y-104345333D01*
X147307571Y-104345333D01*
X147351114Y-104369523D01*
X147372885Y-104393714D01*
X147394657Y-104442095D01*
X147394657Y-104563047D01*
X147372885Y-104611428D01*
X147351114Y-104635619D01*
X147307571Y-104659809D01*
X147176942Y-104659809D01*
X147133400Y-104635619D01*
X147111628Y-104611428D01*
G04 #@! TO.C,R102*
X145720371Y-112729809D02*
X145567971Y-112487904D01*
X145459114Y-112729809D02*
X145459114Y-112221809D01*
X145633285Y-112221809D01*
X145676828Y-112246000D01*
X145698600Y-112270190D01*
X145720371Y-112318571D01*
X145720371Y-112391142D01*
X145698600Y-112439523D01*
X145676828Y-112463714D01*
X145633285Y-112487904D01*
X145459114Y-112487904D01*
X146155800Y-112729809D02*
X145894542Y-112729809D01*
X146025171Y-112729809D02*
X146025171Y-112221809D01*
X145981628Y-112294380D01*
X145938085Y-112342761D01*
X145894542Y-112366952D01*
X146438828Y-112221809D02*
X146482371Y-112221809D01*
X146525914Y-112246000D01*
X146547685Y-112270190D01*
X146569457Y-112318571D01*
X146591228Y-112415333D01*
X146591228Y-112536285D01*
X146569457Y-112633047D01*
X146547685Y-112681428D01*
X146525914Y-112705619D01*
X146482371Y-112729809D01*
X146438828Y-112729809D01*
X146395285Y-112705619D01*
X146373514Y-112681428D01*
X146351742Y-112633047D01*
X146329971Y-112536285D01*
X146329971Y-112415333D01*
X146351742Y-112318571D01*
X146373514Y-112270190D01*
X146395285Y-112246000D01*
X146438828Y-112221809D01*
X146765400Y-112270190D02*
X146787171Y-112246000D01*
X146830714Y-112221809D01*
X146939571Y-112221809D01*
X146983114Y-112246000D01*
X147004885Y-112270190D01*
X147026657Y-112318571D01*
X147026657Y-112366952D01*
X147004885Y-112439523D01*
X146743628Y-112729809D01*
X147026657Y-112729809D01*
G04 #@! TO.C,R101*
X148161371Y-99798309D02*
X148008971Y-99556404D01*
X147900114Y-99798309D02*
X147900114Y-99290309D01*
X148074285Y-99290309D01*
X148117828Y-99314500D01*
X148139600Y-99338690D01*
X148161371Y-99387071D01*
X148161371Y-99459642D01*
X148139600Y-99508023D01*
X148117828Y-99532214D01*
X148074285Y-99556404D01*
X147900114Y-99556404D01*
X148596800Y-99798309D02*
X148335542Y-99798309D01*
X148466171Y-99798309D02*
X148466171Y-99290309D01*
X148422628Y-99362880D01*
X148379085Y-99411261D01*
X148335542Y-99435452D01*
X148879828Y-99290309D02*
X148923371Y-99290309D01*
X148966914Y-99314500D01*
X148988685Y-99338690D01*
X149010457Y-99387071D01*
X149032228Y-99483833D01*
X149032228Y-99604785D01*
X149010457Y-99701547D01*
X148988685Y-99749928D01*
X148966914Y-99774119D01*
X148923371Y-99798309D01*
X148879828Y-99798309D01*
X148836285Y-99774119D01*
X148814514Y-99749928D01*
X148792742Y-99701547D01*
X148770971Y-99604785D01*
X148770971Y-99483833D01*
X148792742Y-99387071D01*
X148814514Y-99338690D01*
X148836285Y-99314500D01*
X148879828Y-99290309D01*
X149467657Y-99798309D02*
X149206400Y-99798309D01*
X149337028Y-99798309D02*
X149337028Y-99290309D01*
X149293485Y-99362880D01*
X149249942Y-99411261D01*
X149206400Y-99435452D01*
G04 #@! TO.C,C114*
X137488371Y-86911428D02*
X137466600Y-86935619D01*
X137401285Y-86959809D01*
X137357742Y-86959809D01*
X137292428Y-86935619D01*
X137248885Y-86887238D01*
X137227114Y-86838857D01*
X137205342Y-86742095D01*
X137205342Y-86669523D01*
X137227114Y-86572761D01*
X137248885Y-86524380D01*
X137292428Y-86476000D01*
X137357742Y-86451809D01*
X137401285Y-86451809D01*
X137466600Y-86476000D01*
X137488371Y-86500190D01*
X137923800Y-86959809D02*
X137662542Y-86959809D01*
X137793171Y-86959809D02*
X137793171Y-86451809D01*
X137749628Y-86524380D01*
X137706085Y-86572761D01*
X137662542Y-86596952D01*
X138359228Y-86959809D02*
X138097971Y-86959809D01*
X138228600Y-86959809D02*
X138228600Y-86451809D01*
X138185057Y-86524380D01*
X138141514Y-86572761D01*
X138097971Y-86596952D01*
X138751114Y-86621142D02*
X138751114Y-86959809D01*
X138642257Y-86427619D02*
X138533400Y-86790476D01*
X138816428Y-86790476D01*
G04 #@! TO.C,C113*
X132661428Y-99011628D02*
X132685619Y-99033400D01*
X132709809Y-99098714D01*
X132709809Y-99142257D01*
X132685619Y-99207571D01*
X132637238Y-99251114D01*
X132588857Y-99272885D01*
X132492095Y-99294657D01*
X132419523Y-99294657D01*
X132322761Y-99272885D01*
X132274380Y-99251114D01*
X132226000Y-99207571D01*
X132201809Y-99142257D01*
X132201809Y-99098714D01*
X132226000Y-99033400D01*
X132250190Y-99011628D01*
X132709809Y-98576200D02*
X132709809Y-98837457D01*
X132709809Y-98706828D02*
X132201809Y-98706828D01*
X132274380Y-98750371D01*
X132322761Y-98793914D01*
X132346952Y-98837457D01*
X132709809Y-98140771D02*
X132709809Y-98402028D01*
X132709809Y-98271400D02*
X132201809Y-98271400D01*
X132274380Y-98314942D01*
X132322761Y-98358485D01*
X132346952Y-98402028D01*
X132201809Y-97988371D02*
X132201809Y-97705342D01*
X132395333Y-97857742D01*
X132395333Y-97792428D01*
X132419523Y-97748885D01*
X132443714Y-97727114D01*
X132492095Y-97705342D01*
X132613047Y-97705342D01*
X132661428Y-97727114D01*
X132685619Y-97748885D01*
X132709809Y-97792428D01*
X132709809Y-97923057D01*
X132685619Y-97966600D01*
X132661428Y-97988371D01*
G04 #@! TO.C,C112*
X147451428Y-92011628D02*
X147475619Y-92033400D01*
X147499809Y-92098714D01*
X147499809Y-92142257D01*
X147475619Y-92207571D01*
X147427238Y-92251114D01*
X147378857Y-92272885D01*
X147282095Y-92294657D01*
X147209523Y-92294657D01*
X147112761Y-92272885D01*
X147064380Y-92251114D01*
X147016000Y-92207571D01*
X146991809Y-92142257D01*
X146991809Y-92098714D01*
X147016000Y-92033400D01*
X147040190Y-92011628D01*
X147499809Y-91576200D02*
X147499809Y-91837457D01*
X147499809Y-91706828D02*
X146991809Y-91706828D01*
X147064380Y-91750371D01*
X147112761Y-91793914D01*
X147136952Y-91837457D01*
X147499809Y-91140771D02*
X147499809Y-91402028D01*
X147499809Y-91271400D02*
X146991809Y-91271400D01*
X147064380Y-91314942D01*
X147112761Y-91358485D01*
X147136952Y-91402028D01*
X147040190Y-90966600D02*
X147016000Y-90944828D01*
X146991809Y-90901285D01*
X146991809Y-90792428D01*
X147016000Y-90748885D01*
X147040190Y-90727114D01*
X147088571Y-90705342D01*
X147136952Y-90705342D01*
X147209523Y-90727114D01*
X147499809Y-90988371D01*
X147499809Y-90705342D01*
G04 #@! TO.C,C111*
X145488371Y-87431428D02*
X145466600Y-87455619D01*
X145401285Y-87479809D01*
X145357742Y-87479809D01*
X145292428Y-87455619D01*
X145248885Y-87407238D01*
X145227114Y-87358857D01*
X145205342Y-87262095D01*
X145205342Y-87189523D01*
X145227114Y-87092761D01*
X145248885Y-87044380D01*
X145292428Y-86996000D01*
X145357742Y-86971809D01*
X145401285Y-86971809D01*
X145466600Y-86996000D01*
X145488371Y-87020190D01*
X145923800Y-87479809D02*
X145662542Y-87479809D01*
X145793171Y-87479809D02*
X145793171Y-86971809D01*
X145749628Y-87044380D01*
X145706085Y-87092761D01*
X145662542Y-87116952D01*
X146359228Y-87479809D02*
X146097971Y-87479809D01*
X146228600Y-87479809D02*
X146228600Y-86971809D01*
X146185057Y-87044380D01*
X146141514Y-87092761D01*
X146097971Y-87116952D01*
X146794657Y-87479809D02*
X146533400Y-87479809D01*
X146664028Y-87479809D02*
X146664028Y-86971809D01*
X146620485Y-87044380D01*
X146576942Y-87092761D01*
X146533400Y-87116952D01*
D12*
G04 #@! TO.C,C106*
X143428707Y-120809949D02*
X143452534Y-120833776D01*
X143476362Y-120905259D01*
X143476362Y-120952914D01*
X143452534Y-121024397D01*
X143404879Y-121072052D01*
X143357224Y-121095880D01*
X143261913Y-121119708D01*
X143190430Y-121119708D01*
X143095120Y-121095880D01*
X143047465Y-121072052D01*
X142999810Y-121024397D01*
X142975982Y-120952914D01*
X142975982Y-120905259D01*
X142999810Y-120833776D01*
X143023637Y-120809949D01*
X143476362Y-120333396D02*
X143476362Y-120619328D01*
X143476362Y-120476362D02*
X142975982Y-120476362D01*
X143047465Y-120524017D01*
X143095120Y-120571672D01*
X143118948Y-120619328D01*
X142975982Y-120023637D02*
X142975982Y-119975982D01*
X142999810Y-119928327D01*
X143023637Y-119904499D01*
X143071292Y-119880671D01*
X143166603Y-119856844D01*
X143285741Y-119856844D01*
X143381051Y-119880671D01*
X143428707Y-119904499D01*
X143452534Y-119928327D01*
X143476362Y-119975982D01*
X143476362Y-120023637D01*
X143452534Y-120071292D01*
X143428707Y-120095120D01*
X143381051Y-120118948D01*
X143285741Y-120142775D01*
X143166603Y-120142775D01*
X143071292Y-120118948D01*
X143023637Y-120095120D01*
X142999810Y-120071292D01*
X142975982Y-120023637D01*
X142975982Y-119427947D02*
X142975982Y-119523257D01*
X142999810Y-119570912D01*
X143023637Y-119594740D01*
X143095120Y-119642395D01*
X143190430Y-119666223D01*
X143381051Y-119666223D01*
X143428707Y-119642395D01*
X143452534Y-119618568D01*
X143476362Y-119570912D01*
X143476362Y-119475602D01*
X143452534Y-119427947D01*
X143428707Y-119404119D01*
X143381051Y-119380291D01*
X143261913Y-119380291D01*
X143214258Y-119404119D01*
X143190430Y-119427947D01*
X143166603Y-119475602D01*
X143166603Y-119570912D01*
X143190430Y-119618568D01*
X143214258Y-119642395D01*
X143261913Y-119666223D01*
D11*
G04 #@! TO.C,C105*
X143431428Y-117011628D02*
X143455619Y-117033400D01*
X143479809Y-117098714D01*
X143479809Y-117142257D01*
X143455619Y-117207571D01*
X143407238Y-117251114D01*
X143358857Y-117272885D01*
X143262095Y-117294657D01*
X143189523Y-117294657D01*
X143092761Y-117272885D01*
X143044380Y-117251114D01*
X142996000Y-117207571D01*
X142971809Y-117142257D01*
X142971809Y-117098714D01*
X142996000Y-117033400D01*
X143020190Y-117011628D01*
X143479809Y-116576200D02*
X143479809Y-116837457D01*
X143479809Y-116706828D02*
X142971809Y-116706828D01*
X143044380Y-116750371D01*
X143092761Y-116793914D01*
X143116952Y-116837457D01*
X142971809Y-116293171D02*
X142971809Y-116249628D01*
X142996000Y-116206085D01*
X143020190Y-116184314D01*
X143068571Y-116162542D01*
X143165333Y-116140771D01*
X143286285Y-116140771D01*
X143383047Y-116162542D01*
X143431428Y-116184314D01*
X143455619Y-116206085D01*
X143479809Y-116249628D01*
X143479809Y-116293171D01*
X143455619Y-116336714D01*
X143431428Y-116358485D01*
X143383047Y-116380257D01*
X143286285Y-116402028D01*
X143165333Y-116402028D01*
X143068571Y-116380257D01*
X143020190Y-116358485D01*
X142996000Y-116336714D01*
X142971809Y-116293171D01*
X142971809Y-115727114D02*
X142971809Y-115944828D01*
X143213714Y-115966600D01*
X143189523Y-115944828D01*
X143165333Y-115901285D01*
X143165333Y-115792428D01*
X143189523Y-115748885D01*
X143213714Y-115727114D01*
X143262095Y-115705342D01*
X143383047Y-115705342D01*
X143431428Y-115727114D01*
X143455619Y-115748885D01*
X143479809Y-115792428D01*
X143479809Y-115901285D01*
X143455619Y-115944828D01*
X143431428Y-115966600D01*
D12*
G04 #@! TO.C,C104*
X150928707Y-124309949D02*
X150952534Y-124333776D01*
X150976362Y-124405259D01*
X150976362Y-124452914D01*
X150952534Y-124524397D01*
X150904879Y-124572052D01*
X150857224Y-124595880D01*
X150761913Y-124619708D01*
X150690430Y-124619708D01*
X150595120Y-124595880D01*
X150547465Y-124572052D01*
X150499810Y-124524397D01*
X150475982Y-124452914D01*
X150475982Y-124405259D01*
X150499810Y-124333776D01*
X150523637Y-124309949D01*
X150976362Y-123833396D02*
X150976362Y-124119328D01*
X150976362Y-123976362D02*
X150475982Y-123976362D01*
X150547465Y-124024017D01*
X150595120Y-124071672D01*
X150618948Y-124119328D01*
X150475982Y-123523637D02*
X150475982Y-123475982D01*
X150499810Y-123428327D01*
X150523637Y-123404499D01*
X150571292Y-123380671D01*
X150666603Y-123356844D01*
X150785741Y-123356844D01*
X150881051Y-123380671D01*
X150928707Y-123404499D01*
X150952534Y-123428327D01*
X150976362Y-123475982D01*
X150976362Y-123523637D01*
X150952534Y-123571292D01*
X150928707Y-123595120D01*
X150881051Y-123618948D01*
X150785741Y-123642775D01*
X150666603Y-123642775D01*
X150571292Y-123618948D01*
X150523637Y-123595120D01*
X150499810Y-123571292D01*
X150475982Y-123523637D01*
X150642775Y-122927947D02*
X150976362Y-122927947D01*
X150452154Y-123047085D02*
X150809569Y-123166223D01*
X150809569Y-122856464D01*
D11*
G04 #@! TO.C,C103*
X153238371Y-117681428D02*
X153216600Y-117705619D01*
X153151285Y-117729809D01*
X153107742Y-117729809D01*
X153042428Y-117705619D01*
X152998885Y-117657238D01*
X152977114Y-117608857D01*
X152955342Y-117512095D01*
X152955342Y-117439523D01*
X152977114Y-117342761D01*
X152998885Y-117294380D01*
X153042428Y-117246000D01*
X153107742Y-117221809D01*
X153151285Y-117221809D01*
X153216600Y-117246000D01*
X153238371Y-117270190D01*
X153673800Y-117729809D02*
X153412542Y-117729809D01*
X153543171Y-117729809D02*
X153543171Y-117221809D01*
X153499628Y-117294380D01*
X153456085Y-117342761D01*
X153412542Y-117366952D01*
X153956828Y-117221809D02*
X154000371Y-117221809D01*
X154043914Y-117246000D01*
X154065685Y-117270190D01*
X154087457Y-117318571D01*
X154109228Y-117415333D01*
X154109228Y-117536285D01*
X154087457Y-117633047D01*
X154065685Y-117681428D01*
X154043914Y-117705619D01*
X154000371Y-117729809D01*
X153956828Y-117729809D01*
X153913285Y-117705619D01*
X153891514Y-117681428D01*
X153869742Y-117633047D01*
X153847971Y-117536285D01*
X153847971Y-117415333D01*
X153869742Y-117318571D01*
X153891514Y-117270190D01*
X153913285Y-117246000D01*
X153956828Y-117221809D01*
X154261628Y-117221809D02*
X154544657Y-117221809D01*
X154392257Y-117415333D01*
X154457571Y-117415333D01*
X154501114Y-117439523D01*
X154522885Y-117463714D01*
X154544657Y-117512095D01*
X154544657Y-117633047D01*
X154522885Y-117681428D01*
X154501114Y-117705619D01*
X154457571Y-117729809D01*
X154326942Y-117729809D01*
X154283400Y-117705619D01*
X154261628Y-117681428D01*
D12*
G04 #@! TO.C,C102*
X152940050Y-107861207D02*
X152916223Y-107885034D01*
X152844740Y-107908862D01*
X152797085Y-107908862D01*
X152725602Y-107885034D01*
X152677947Y-107837379D01*
X152654119Y-107789724D01*
X152630291Y-107694413D01*
X152630291Y-107622930D01*
X152654119Y-107527620D01*
X152677947Y-107479965D01*
X152725602Y-107432310D01*
X152797085Y-107408482D01*
X152844740Y-107408482D01*
X152916223Y-107432310D01*
X152940050Y-107456137D01*
X153416603Y-107908862D02*
X153130671Y-107908862D01*
X153273637Y-107908862D02*
X153273637Y-107408482D01*
X153225982Y-107479965D01*
X153178327Y-107527620D01*
X153130671Y-107551448D01*
X153726362Y-107408482D02*
X153774017Y-107408482D01*
X153821672Y-107432310D01*
X153845500Y-107456137D01*
X153869328Y-107503792D01*
X153893155Y-107599103D01*
X153893155Y-107718241D01*
X153869328Y-107813551D01*
X153845500Y-107861207D01*
X153821672Y-107885034D01*
X153774017Y-107908862D01*
X153726362Y-107908862D01*
X153678707Y-107885034D01*
X153654879Y-107861207D01*
X153631051Y-107813551D01*
X153607224Y-107718241D01*
X153607224Y-107599103D01*
X153631051Y-107503792D01*
X153654879Y-107456137D01*
X153678707Y-107432310D01*
X153726362Y-107408482D01*
X154083776Y-107456137D02*
X154107604Y-107432310D01*
X154155259Y-107408482D01*
X154274397Y-107408482D01*
X154322052Y-107432310D01*
X154345880Y-107456137D01*
X154369708Y-107503792D01*
X154369708Y-107551448D01*
X154345880Y-107622930D01*
X154059949Y-107908862D01*
X154369708Y-107908862D01*
G04 #@! TO.C,C101*
X151786050Y-99178707D02*
X151762223Y-99202534D01*
X151690740Y-99226362D01*
X151643085Y-99226362D01*
X151571602Y-99202534D01*
X151523947Y-99154879D01*
X151500119Y-99107224D01*
X151476291Y-99011913D01*
X151476291Y-98940430D01*
X151500119Y-98845120D01*
X151523947Y-98797465D01*
X151571602Y-98749810D01*
X151643085Y-98725982D01*
X151690740Y-98725982D01*
X151762223Y-98749810D01*
X151786050Y-98773637D01*
X152262603Y-99226362D02*
X151976671Y-99226362D01*
X152119637Y-99226362D02*
X152119637Y-98725982D01*
X152071982Y-98797465D01*
X152024327Y-98845120D01*
X151976671Y-98868948D01*
X152572362Y-98725982D02*
X152620017Y-98725982D01*
X152667672Y-98749810D01*
X152691500Y-98773637D01*
X152715328Y-98821292D01*
X152739155Y-98916603D01*
X152739155Y-99035741D01*
X152715328Y-99131051D01*
X152691500Y-99178707D01*
X152667672Y-99202534D01*
X152620017Y-99226362D01*
X152572362Y-99226362D01*
X152524707Y-99202534D01*
X152500879Y-99178707D01*
X152477051Y-99131051D01*
X152453224Y-99035741D01*
X152453224Y-98916603D01*
X152477051Y-98821292D01*
X152500879Y-98773637D01*
X152524707Y-98749810D01*
X152572362Y-98725982D01*
X153215708Y-99226362D02*
X152929776Y-99226362D01*
X153072742Y-99226362D02*
X153072742Y-98725982D01*
X153025087Y-98797465D01*
X152977431Y-98845120D01*
X152929776Y-98868948D01*
D13*
G04 #@! TO.C,Q104*
X148047619Y-84047619D02*
X148000000Y-84142857D01*
X147904761Y-84238095D01*
X147761904Y-84380952D01*
X147714285Y-84476190D01*
X147714285Y-84571428D01*
X147952380Y-84523809D02*
X147904761Y-84619047D01*
X147809523Y-84714285D01*
X147619047Y-84761904D01*
X147285714Y-84761904D01*
X147095238Y-84714285D01*
X147000000Y-84619047D01*
X146952380Y-84523809D01*
X146952380Y-84333333D01*
X147000000Y-84238095D01*
X147095238Y-84142857D01*
X147285714Y-84095238D01*
X147619047Y-84095238D01*
X147809523Y-84142857D01*
X147904761Y-84238095D01*
X147952380Y-84333333D01*
X147952380Y-84523809D01*
X147952380Y-83142857D02*
X147952380Y-83714285D01*
X147952380Y-83428571D02*
X146952380Y-83428571D01*
X147095238Y-83523809D01*
X147190476Y-83619047D01*
X147238095Y-83714285D01*
X146952380Y-82523809D02*
X146952380Y-82428571D01*
X147000000Y-82333333D01*
X147047619Y-82285714D01*
X147142857Y-82238095D01*
X147333333Y-82190476D01*
X147571428Y-82190476D01*
X147761904Y-82238095D01*
X147857142Y-82285714D01*
X147904761Y-82333333D01*
X147952380Y-82428571D01*
X147952380Y-82523809D01*
X147904761Y-82619047D01*
X147857142Y-82666666D01*
X147761904Y-82714285D01*
X147571428Y-82761904D01*
X147333333Y-82761904D01*
X147142857Y-82714285D01*
X147047619Y-82666666D01*
X147000000Y-82619047D01*
X146952380Y-82523809D01*
X147285714Y-81333333D02*
X147952380Y-81333333D01*
X146904761Y-81571428D02*
X147619047Y-81809523D01*
X147619047Y-81190476D01*
G04 #@! TO.C,Q103*
X141047619Y-84047619D02*
X141000000Y-84142857D01*
X140904761Y-84238095D01*
X140761904Y-84380952D01*
X140714285Y-84476190D01*
X140714285Y-84571428D01*
X140952380Y-84523809D02*
X140904761Y-84619047D01*
X140809523Y-84714285D01*
X140619047Y-84761904D01*
X140285714Y-84761904D01*
X140095238Y-84714285D01*
X140000000Y-84619047D01*
X139952380Y-84523809D01*
X139952380Y-84333333D01*
X140000000Y-84238095D01*
X140095238Y-84142857D01*
X140285714Y-84095238D01*
X140619047Y-84095238D01*
X140809523Y-84142857D01*
X140904761Y-84238095D01*
X140952380Y-84333333D01*
X140952380Y-84523809D01*
X140952380Y-83142857D02*
X140952380Y-83714285D01*
X140952380Y-83428571D02*
X139952380Y-83428571D01*
X140095238Y-83523809D01*
X140190476Y-83619047D01*
X140238095Y-83714285D01*
X139952380Y-82523809D02*
X139952380Y-82428571D01*
X140000000Y-82333333D01*
X140047619Y-82285714D01*
X140142857Y-82238095D01*
X140333333Y-82190476D01*
X140571428Y-82190476D01*
X140761904Y-82238095D01*
X140857142Y-82285714D01*
X140904761Y-82333333D01*
X140952380Y-82428571D01*
X140952380Y-82523809D01*
X140904761Y-82619047D01*
X140857142Y-82666666D01*
X140761904Y-82714285D01*
X140571428Y-82761904D01*
X140333333Y-82761904D01*
X140142857Y-82714285D01*
X140047619Y-82666666D01*
X140000000Y-82619047D01*
X139952380Y-82523809D01*
X139952380Y-81857142D02*
X139952380Y-81238095D01*
X140333333Y-81571428D01*
X140333333Y-81428571D01*
X140380952Y-81333333D01*
X140428571Y-81285714D01*
X140523809Y-81238095D01*
X140761904Y-81238095D01*
X140857142Y-81285714D01*
X140904761Y-81333333D01*
X140952380Y-81428571D01*
X140952380Y-81714285D01*
X140904761Y-81809523D01*
X140857142Y-81857142D01*
G04 #@! TO.C,Q102*
X135047619Y-84047619D02*
X135000000Y-84142857D01*
X134904761Y-84238095D01*
X134761904Y-84380952D01*
X134714285Y-84476190D01*
X134714285Y-84571428D01*
X134952380Y-84523809D02*
X134904761Y-84619047D01*
X134809523Y-84714285D01*
X134619047Y-84761904D01*
X134285714Y-84761904D01*
X134095238Y-84714285D01*
X134000000Y-84619047D01*
X133952380Y-84523809D01*
X133952380Y-84333333D01*
X134000000Y-84238095D01*
X134095238Y-84142857D01*
X134285714Y-84095238D01*
X134619047Y-84095238D01*
X134809523Y-84142857D01*
X134904761Y-84238095D01*
X134952380Y-84333333D01*
X134952380Y-84523809D01*
X134952380Y-83142857D02*
X134952380Y-83714285D01*
X134952380Y-83428571D02*
X133952380Y-83428571D01*
X134095238Y-83523809D01*
X134190476Y-83619047D01*
X134238095Y-83714285D01*
X133952380Y-82523809D02*
X133952380Y-82428571D01*
X134000000Y-82333333D01*
X134047619Y-82285714D01*
X134142857Y-82238095D01*
X134333333Y-82190476D01*
X134571428Y-82190476D01*
X134761904Y-82238095D01*
X134857142Y-82285714D01*
X134904761Y-82333333D01*
X134952380Y-82428571D01*
X134952380Y-82523809D01*
X134904761Y-82619047D01*
X134857142Y-82666666D01*
X134761904Y-82714285D01*
X134571428Y-82761904D01*
X134333333Y-82761904D01*
X134142857Y-82714285D01*
X134047619Y-82666666D01*
X134000000Y-82619047D01*
X133952380Y-82523809D01*
X134047619Y-81809523D02*
X134000000Y-81761904D01*
X133952380Y-81666666D01*
X133952380Y-81428571D01*
X134000000Y-81333333D01*
X134047619Y-81285714D01*
X134142857Y-81238095D01*
X134238095Y-81238095D01*
X134380952Y-81285714D01*
X134952380Y-81857142D01*
X134952380Y-81238095D01*
G04 #@! TO.C,J105*
X142714283Y-79527380D02*
X142714283Y-80241666D01*
X142666664Y-80384523D01*
X142571426Y-80479761D01*
X142428569Y-80527380D01*
X142333331Y-80527380D01*
X143714283Y-80527380D02*
X143142855Y-80527380D01*
X143428569Y-80527380D02*
X143428569Y-79527380D01*
X143333331Y-79670238D01*
X143238093Y-79765476D01*
X143142855Y-79813095D01*
X144333331Y-79527380D02*
X144428569Y-79527380D01*
X144523807Y-79575000D01*
X144571426Y-79622619D01*
X144619045Y-79717857D01*
X144666664Y-79908333D01*
X144666664Y-80146428D01*
X144619045Y-80336904D01*
X144571426Y-80432142D01*
X144523807Y-80479761D01*
X144428569Y-80527380D01*
X144333331Y-80527380D01*
X144238093Y-80479761D01*
X144190474Y-80432142D01*
X144142855Y-80336904D01*
X144095236Y-80146428D01*
X144095236Y-79908333D01*
X144142855Y-79717857D01*
X144190474Y-79622619D01*
X144238093Y-79575000D01*
X144333331Y-79527380D01*
X145571426Y-79527380D02*
X145095236Y-79527380D01*
X145047617Y-80003571D01*
X145095236Y-79955952D01*
X145190474Y-79908333D01*
X145428569Y-79908333D01*
X145523807Y-79955952D01*
X145571426Y-80003571D01*
X145619045Y-80098809D01*
X145619045Y-80336904D01*
X145571426Y-80432142D01*
X145523807Y-80479761D01*
X145428569Y-80527380D01*
X145190474Y-80527380D01*
X145095236Y-80479761D01*
X145047617Y-80432142D01*
D14*
G04 #@! TO.C,J103*
X134850000Y-131966666D02*
X134850000Y-132466666D01*
X134816666Y-132566666D01*
X134750000Y-132633333D01*
X134650000Y-132666666D01*
X134583333Y-132666666D01*
X135550000Y-132666666D02*
X135150000Y-132666666D01*
X135350000Y-132666666D02*
X135350000Y-131966666D01*
X135283333Y-132066666D01*
X135216666Y-132133333D01*
X135150000Y-132166666D01*
X135983333Y-131966666D02*
X136050000Y-131966666D01*
X136116666Y-132000000D01*
X136150000Y-132033333D01*
X136183333Y-132100000D01*
X136216666Y-132233333D01*
X136216666Y-132400000D01*
X136183333Y-132533333D01*
X136150000Y-132600000D01*
X136116666Y-132633333D01*
X136050000Y-132666666D01*
X135983333Y-132666666D01*
X135916666Y-132633333D01*
X135883333Y-132600000D01*
X135850000Y-132533333D01*
X135816666Y-132400000D01*
X135816666Y-132233333D01*
X135850000Y-132100000D01*
X135883333Y-132033333D01*
X135916666Y-132000000D01*
X135983333Y-131966666D01*
X136450000Y-131966666D02*
X136883333Y-131966666D01*
X136650000Y-132233333D01*
X136750000Y-132233333D01*
X136816666Y-132266666D01*
X136850000Y-132300000D01*
X136883333Y-132366666D01*
X136883333Y-132533333D01*
X136850000Y-132600000D01*
X136816666Y-132633333D01*
X136750000Y-132666666D01*
X136550000Y-132666666D01*
X136483333Y-132633333D01*
X136450000Y-132600000D01*
D13*
G04 #@! TO.C,J102*
X156714285Y-102952380D02*
X156714285Y-103666666D01*
X156666666Y-103809523D01*
X156571428Y-103904761D01*
X156428571Y-103952380D01*
X156333333Y-103952380D01*
X157714285Y-103952380D02*
X157142857Y-103952380D01*
X157428571Y-103952380D02*
X157428571Y-102952380D01*
X157333333Y-103095238D01*
X157238095Y-103190476D01*
X157142857Y-103238095D01*
X158333333Y-102952380D02*
X158428571Y-102952380D01*
X158523809Y-103000000D01*
X158571428Y-103047619D01*
X158619047Y-103142857D01*
X158666666Y-103333333D01*
X158666666Y-103571428D01*
X158619047Y-103761904D01*
X158571428Y-103857142D01*
X158523809Y-103904761D01*
X158428571Y-103952380D01*
X158333333Y-103952380D01*
X158238095Y-103904761D01*
X158190476Y-103857142D01*
X158142857Y-103761904D01*
X158095238Y-103571428D01*
X158095238Y-103333333D01*
X158142857Y-103142857D01*
X158190476Y-103047619D01*
X158238095Y-103000000D01*
X158333333Y-102952380D01*
X159047619Y-103047619D02*
X159095238Y-103000000D01*
X159190476Y-102952380D01*
X159428571Y-102952380D01*
X159523809Y-103000000D01*
X159571428Y-103047619D01*
X159619047Y-103142857D01*
X159619047Y-103238095D01*
X159571428Y-103380952D01*
X159000000Y-103952380D01*
X159619047Y-103952380D01*
G04 #@! TO.C,D101*
X156559523Y-116952380D02*
X156559523Y-115952380D01*
X156797619Y-115952380D01*
X156940476Y-116000000D01*
X157035714Y-116095238D01*
X157083333Y-116190476D01*
X157130952Y-116380952D01*
X157130952Y-116523809D01*
X157083333Y-116714285D01*
X157035714Y-116809523D01*
X156940476Y-116904761D01*
X156797619Y-116952380D01*
X156559523Y-116952380D01*
X158083333Y-116952380D02*
X157511904Y-116952380D01*
X157797619Y-116952380D02*
X157797619Y-115952380D01*
X157702380Y-116095238D01*
X157607142Y-116190476D01*
X157511904Y-116238095D01*
X158702380Y-115952380D02*
X158797619Y-115952380D01*
X158892857Y-116000000D01*
X158940476Y-116047619D01*
X158988095Y-116142857D01*
X159035714Y-116333333D01*
X159035714Y-116571428D01*
X158988095Y-116761904D01*
X158940476Y-116857142D01*
X158892857Y-116904761D01*
X158797619Y-116952380D01*
X158702380Y-116952380D01*
X158607142Y-116904761D01*
X158559523Y-116857142D01*
X158511904Y-116761904D01*
X158464285Y-116571428D01*
X158464285Y-116333333D01*
X158511904Y-116142857D01*
X158559523Y-116047619D01*
X158607142Y-116000000D01*
X158702380Y-115952380D01*
X159988095Y-116952380D02*
X159416666Y-116952380D01*
X159702380Y-116952380D02*
X159702380Y-115952380D01*
X159607142Y-116095238D01*
X159511904Y-116190476D01*
X159416666Y-116238095D01*
G04 #@! TO.C,J101*
X153452380Y-93790714D02*
X154166666Y-93790714D01*
X154309523Y-93838333D01*
X154404761Y-93933571D01*
X154452380Y-94076428D01*
X154452380Y-94171666D01*
X154452380Y-92790714D02*
X154452380Y-93362142D01*
X154452380Y-93076428D02*
X153452380Y-93076428D01*
X153595238Y-93171666D01*
X153690476Y-93266904D01*
X153738095Y-93362142D01*
X153452380Y-92171666D02*
X153452380Y-92076428D01*
X153500000Y-91981190D01*
X153547619Y-91933571D01*
X153642857Y-91885952D01*
X153833333Y-91838333D01*
X154071428Y-91838333D01*
X154261904Y-91885952D01*
X154357142Y-91933571D01*
X154404761Y-91981190D01*
X154452380Y-92076428D01*
X154452380Y-92171666D01*
X154404761Y-92266904D01*
X154357142Y-92314523D01*
X154261904Y-92362142D01*
X154071428Y-92409761D01*
X153833333Y-92409761D01*
X153642857Y-92362142D01*
X153547619Y-92314523D01*
X153500000Y-92266904D01*
X153452380Y-92171666D01*
X154452380Y-90885952D02*
X154452380Y-91457380D01*
X154452380Y-91171666D02*
X153452380Y-91171666D01*
X153595238Y-91266904D01*
X153690476Y-91362142D01*
X153738095Y-91457380D01*
G04 #@! TO.C,U105*
X111660714Y-82127380D02*
X111660714Y-82936904D01*
X111708333Y-83032142D01*
X111755952Y-83079761D01*
X111851190Y-83127380D01*
X112041666Y-83127380D01*
X112136904Y-83079761D01*
X112184523Y-83032142D01*
X112232142Y-82936904D01*
X112232142Y-82127380D01*
X113232142Y-83127380D02*
X112660714Y-83127380D01*
X112946428Y-83127380D02*
X112946428Y-82127380D01*
X112851190Y-82270238D01*
X112755952Y-82365476D01*
X112660714Y-82413095D01*
X113851190Y-82127380D02*
X113946428Y-82127380D01*
X114041666Y-82175000D01*
X114089285Y-82222619D01*
X114136904Y-82317857D01*
X114184523Y-82508333D01*
X114184523Y-82746428D01*
X114136904Y-82936904D01*
X114089285Y-83032142D01*
X114041666Y-83079761D01*
X113946428Y-83127380D01*
X113851190Y-83127380D01*
X113755952Y-83079761D01*
X113708333Y-83032142D01*
X113660714Y-82936904D01*
X113613095Y-82746428D01*
X113613095Y-82508333D01*
X113660714Y-82317857D01*
X113708333Y-82222619D01*
X113755952Y-82175000D01*
X113851190Y-82127380D01*
X115089285Y-82127380D02*
X114613095Y-82127380D01*
X114565476Y-82603571D01*
X114613095Y-82555952D01*
X114708333Y-82508333D01*
X114946428Y-82508333D01*
X115041666Y-82555952D01*
X115089285Y-82603571D01*
X115136904Y-82698809D01*
X115136904Y-82936904D01*
X115089285Y-83032142D01*
X115041666Y-83079761D01*
X114946428Y-83127380D01*
X114708333Y-83127380D01*
X114613095Y-83079761D01*
X114565476Y-83032142D01*
D15*
G04 #@! TO.C,J104*
X118207142Y-80342857D02*
X118207142Y-81200000D01*
X118150000Y-81371428D01*
X118035714Y-81485714D01*
X117864285Y-81542857D01*
X117750000Y-81542857D01*
X119407142Y-81542857D02*
X118721428Y-81542857D01*
X119064285Y-81542857D02*
X119064285Y-80342857D01*
X118950000Y-80514285D01*
X118835714Y-80628571D01*
X118721428Y-80685714D01*
X120150000Y-80342857D02*
X120264285Y-80342857D01*
X120378571Y-80400000D01*
X120435714Y-80457142D01*
X120492857Y-80571428D01*
X120550000Y-80800000D01*
X120550000Y-81085714D01*
X120492857Y-81314285D01*
X120435714Y-81428571D01*
X120378571Y-81485714D01*
X120264285Y-81542857D01*
X120150000Y-81542857D01*
X120035714Y-81485714D01*
X119978571Y-81428571D01*
X119921428Y-81314285D01*
X119864285Y-81085714D01*
X119864285Y-80800000D01*
X119921428Y-80571428D01*
X119978571Y-80457142D01*
X120035714Y-80400000D01*
X120150000Y-80342857D01*
X121578571Y-80742857D02*
X121578571Y-81542857D01*
X121292857Y-80285714D02*
X121007142Y-81142857D01*
X121750000Y-81142857D01*
D14*
G04 #@! TO.C,D102*
X128715687Y-87916664D02*
X128715687Y-87216664D01*
X128882354Y-87216664D01*
X128982354Y-87249998D01*
X129049021Y-87316664D01*
X129082354Y-87383331D01*
X129115687Y-87516664D01*
X129115687Y-87616664D01*
X129082354Y-87749998D01*
X129049021Y-87816664D01*
X128982354Y-87883331D01*
X128882354Y-87916664D01*
X128715687Y-87916664D01*
X129782354Y-87916664D02*
X129382354Y-87916664D01*
X129582354Y-87916664D02*
X129582354Y-87216664D01*
X129515687Y-87316664D01*
X129449021Y-87383331D01*
X129382354Y-87416664D01*
X130215687Y-87216664D02*
X130282354Y-87216664D01*
X130349021Y-87249998D01*
X130382354Y-87283331D01*
X130415687Y-87349998D01*
X130449021Y-87483331D01*
X130449021Y-87649998D01*
X130415687Y-87783331D01*
X130382354Y-87849998D01*
X130349021Y-87883331D01*
X130282354Y-87916664D01*
X130215687Y-87916664D01*
X130149021Y-87883331D01*
X130115687Y-87849998D01*
X130082354Y-87783331D01*
X130049021Y-87649998D01*
X130049021Y-87483331D01*
X130082354Y-87349998D01*
X130115687Y-87283331D01*
X130149021Y-87249998D01*
X130215687Y-87216664D01*
X130715687Y-87283331D02*
X130749021Y-87249998D01*
X130815687Y-87216664D01*
X130982354Y-87216664D01*
X131049021Y-87249998D01*
X131082354Y-87283331D01*
X131115687Y-87349998D01*
X131115687Y-87416664D01*
X131082354Y-87516664D01*
X130682354Y-87916664D01*
X131115687Y-87916664D01*
D13*
G04 #@! TO.C,U104*
X144192857Y-123592857D02*
X144192857Y-124564285D01*
X144250000Y-124678571D01*
X144307142Y-124735714D01*
X144421428Y-124792857D01*
X144650000Y-124792857D01*
X144764285Y-124735714D01*
X144821428Y-124678571D01*
X144878571Y-124564285D01*
X144878571Y-123592857D01*
X146078571Y-124792857D02*
X145392857Y-124792857D01*
X145735714Y-124792857D02*
X145735714Y-123592857D01*
X145621428Y-123764285D01*
X145507142Y-123878571D01*
X145392857Y-123935714D01*
X146821428Y-123592857D02*
X146935714Y-123592857D01*
X147050000Y-123650000D01*
X147107142Y-123707142D01*
X147164285Y-123821428D01*
X147221428Y-124050000D01*
X147221428Y-124335714D01*
X147164285Y-124564285D01*
X147107142Y-124678571D01*
X147050000Y-124735714D01*
X146935714Y-124792857D01*
X146821428Y-124792857D01*
X146707142Y-124735714D01*
X146650000Y-124678571D01*
X146592857Y-124564285D01*
X146535714Y-124335714D01*
X146535714Y-124050000D01*
X146592857Y-123821428D01*
X146650000Y-123707142D01*
X146707142Y-123650000D01*
X146821428Y-123592857D01*
X148250000Y-123992857D02*
X148250000Y-124792857D01*
X147964285Y-123535714D02*
X147678571Y-124392857D01*
X148421428Y-124392857D01*
G04 #@! TO.C,U101*
X152842857Y-106395642D02*
X153814285Y-106395642D01*
X153928571Y-106338500D01*
X153985714Y-106281357D01*
X154042857Y-106167071D01*
X154042857Y-105938500D01*
X153985714Y-105824214D01*
X153928571Y-105767071D01*
X153814285Y-105709928D01*
X152842857Y-105709928D01*
X154042857Y-104509928D02*
X154042857Y-105195642D01*
X154042857Y-104852785D02*
X152842857Y-104852785D01*
X153014285Y-104967071D01*
X153128571Y-105081357D01*
X153185714Y-105195642D01*
X152842857Y-103767071D02*
X152842857Y-103652785D01*
X152900000Y-103538500D01*
X152957142Y-103481357D01*
X153071428Y-103424214D01*
X153300000Y-103367071D01*
X153585714Y-103367071D01*
X153814285Y-103424214D01*
X153928571Y-103481357D01*
X153985714Y-103538500D01*
X154042857Y-103652785D01*
X154042857Y-103767071D01*
X153985714Y-103881357D01*
X153928571Y-103938500D01*
X153814285Y-103995642D01*
X153585714Y-104052785D01*
X153300000Y-104052785D01*
X153071428Y-103995642D01*
X152957142Y-103938500D01*
X152900000Y-103881357D01*
X152842857Y-103767071D01*
X154042857Y-102224214D02*
X154042857Y-102909928D01*
X154042857Y-102567071D02*
X152842857Y-102567071D01*
X153014285Y-102681357D01*
X153128571Y-102795642D01*
X153185714Y-102909928D01*
G04 #@! TO.C,U103*
X121285714Y-106202380D02*
X121285714Y-107011904D01*
X121333333Y-107107142D01*
X121380952Y-107154761D01*
X121476190Y-107202380D01*
X121666666Y-107202380D01*
X121761904Y-107154761D01*
X121809523Y-107107142D01*
X121857142Y-107011904D01*
X121857142Y-106202380D01*
X122857142Y-107202380D02*
X122285714Y-107202380D01*
X122571428Y-107202380D02*
X122571428Y-106202380D01*
X122476190Y-106345238D01*
X122380952Y-106440476D01*
X122285714Y-106488095D01*
X123476190Y-106202380D02*
X123571428Y-106202380D01*
X123666666Y-106250000D01*
X123714285Y-106297619D01*
X123761904Y-106392857D01*
X123809523Y-106583333D01*
X123809523Y-106821428D01*
X123761904Y-107011904D01*
X123714285Y-107107142D01*
X123666666Y-107154761D01*
X123571428Y-107202380D01*
X123476190Y-107202380D01*
X123380952Y-107154761D01*
X123333333Y-107107142D01*
X123285714Y-107011904D01*
X123238095Y-106821428D01*
X123238095Y-106583333D01*
X123285714Y-106392857D01*
X123333333Y-106297619D01*
X123380952Y-106250000D01*
X123476190Y-106202380D01*
X124142857Y-106202380D02*
X124761904Y-106202380D01*
X124428571Y-106583333D01*
X124571428Y-106583333D01*
X124666666Y-106630952D01*
X124714285Y-106678571D01*
X124761904Y-106773809D01*
X124761904Y-107011904D01*
X124714285Y-107107142D01*
X124666666Y-107154761D01*
X124571428Y-107202380D01*
X124285714Y-107202380D01*
X124190476Y-107154761D01*
X124142857Y-107107142D01*
G04 #@! TO.C,U106*
X138285714Y-101452380D02*
X138285714Y-102261904D01*
X138333333Y-102357142D01*
X138380952Y-102404761D01*
X138476190Y-102452380D01*
X138666666Y-102452380D01*
X138761904Y-102404761D01*
X138809523Y-102357142D01*
X138857142Y-102261904D01*
X138857142Y-101452380D01*
X139857142Y-102452380D02*
X139285714Y-102452380D01*
X139571428Y-102452380D02*
X139571428Y-101452380D01*
X139476190Y-101595238D01*
X139380952Y-101690476D01*
X139285714Y-101738095D01*
X140476190Y-101452380D02*
X140571428Y-101452380D01*
X140666666Y-101500000D01*
X140714285Y-101547619D01*
X140761904Y-101642857D01*
X140809523Y-101833333D01*
X140809523Y-102071428D01*
X140761904Y-102261904D01*
X140714285Y-102357142D01*
X140666666Y-102404761D01*
X140571428Y-102452380D01*
X140476190Y-102452380D01*
X140380952Y-102404761D01*
X140333333Y-102357142D01*
X140285714Y-102261904D01*
X140238095Y-102071428D01*
X140238095Y-101833333D01*
X140285714Y-101642857D01*
X140333333Y-101547619D01*
X140380952Y-101500000D01*
X140476190Y-101452380D01*
X141666666Y-101452380D02*
X141476190Y-101452380D01*
X141380952Y-101500000D01*
X141333333Y-101547619D01*
X141238095Y-101690476D01*
X141190476Y-101880952D01*
X141190476Y-102261904D01*
X141238095Y-102357142D01*
X141285714Y-102404761D01*
X141380952Y-102452380D01*
X141571428Y-102452380D01*
X141666666Y-102404761D01*
X141714285Y-102357142D01*
X141761904Y-102261904D01*
X141761904Y-102023809D01*
X141714285Y-101928571D01*
X141666666Y-101880952D01*
X141571428Y-101833333D01*
X141380952Y-101833333D01*
X141285714Y-101880952D01*
X141238095Y-101928571D01*
X141190476Y-102023809D01*
G04 #@! TO.C,Q101*
X148547619Y-111986119D02*
X148500000Y-112081357D01*
X148404761Y-112176595D01*
X148261904Y-112319452D01*
X148214285Y-112414690D01*
X148214285Y-112509928D01*
X148452380Y-112462309D02*
X148404761Y-112557547D01*
X148309523Y-112652785D01*
X148119047Y-112700404D01*
X147785714Y-112700404D01*
X147595238Y-112652785D01*
X147500000Y-112557547D01*
X147452380Y-112462309D01*
X147452380Y-112271833D01*
X147500000Y-112176595D01*
X147595238Y-112081357D01*
X147785714Y-112033738D01*
X148119047Y-112033738D01*
X148309523Y-112081357D01*
X148404761Y-112176595D01*
X148452380Y-112271833D01*
X148452380Y-112462309D01*
X148452380Y-111081357D02*
X148452380Y-111652785D01*
X148452380Y-111367071D02*
X147452380Y-111367071D01*
X147595238Y-111462309D01*
X147690476Y-111557547D01*
X147738095Y-111652785D01*
X147452380Y-110462309D02*
X147452380Y-110367071D01*
X147500000Y-110271833D01*
X147547619Y-110224214D01*
X147642857Y-110176595D01*
X147833333Y-110128976D01*
X148071428Y-110128976D01*
X148261904Y-110176595D01*
X148357142Y-110224214D01*
X148404761Y-110271833D01*
X148452380Y-110367071D01*
X148452380Y-110462309D01*
X148404761Y-110557547D01*
X148357142Y-110605166D01*
X148261904Y-110652785D01*
X148071428Y-110700404D01*
X147833333Y-110700404D01*
X147642857Y-110652785D01*
X147547619Y-110605166D01*
X147500000Y-110557547D01*
X147452380Y-110462309D01*
X148452380Y-109176595D02*
X148452380Y-109748023D01*
X148452380Y-109462309D02*
X147452380Y-109462309D01*
X147595238Y-109557547D01*
X147690476Y-109652785D01*
X147738095Y-109748023D01*
D16*
G04 #@! TO.C,R112*
X149635000Y-84857000D02*
X149635000Y-87143000D01*
X149635000Y-87143000D02*
X148365000Y-87143000D01*
X148365000Y-87143000D02*
X148365000Y-84857000D01*
X148365000Y-84857000D02*
X149635000Y-84857000D01*
G04 #@! TO.C,R111*
X142634997Y-84856999D02*
X142634997Y-87142999D01*
X142634997Y-87142999D02*
X141364997Y-87142999D01*
X141364997Y-87142999D02*
X141364997Y-84856999D01*
X141364997Y-84856999D02*
X142634997Y-84856999D01*
G04 #@! TO.C,R110*
X135635000Y-85857000D02*
X135635000Y-88143000D01*
X135635000Y-88143000D02*
X134365000Y-88143000D01*
X134365000Y-88143000D02*
X134365000Y-85857000D01*
X134365000Y-85857000D02*
X135635000Y-85857000D01*
G04 #@! TO.C,R109*
X147857000Y-95365000D02*
X150143000Y-95365000D01*
X150143000Y-95365000D02*
X150143000Y-96635000D01*
X150143000Y-96635000D02*
X147857000Y-96635000D01*
X147857000Y-96635000D02*
X147857000Y-95365000D01*
G04 #@! TO.C,R108*
X147857000Y-93365000D02*
X150143000Y-93365000D01*
X150143000Y-93365000D02*
X150143000Y-94635000D01*
X150143000Y-94635000D02*
X147857000Y-94635000D01*
X147857000Y-94635000D02*
X147857000Y-93365000D01*
G04 #@! TO.C,R107*
X158393000Y-121385000D02*
X156107000Y-121385000D01*
X156107000Y-121385000D02*
X156107000Y-120115000D01*
X156107000Y-120115000D02*
X158393000Y-120115000D01*
X158393000Y-120115000D02*
X158393000Y-121385000D01*
G04 #@! TO.C,R106*
X153040000Y-121180000D02*
X153040000Y-118894000D01*
X153040000Y-118894000D02*
X154310000Y-118894000D01*
X154310000Y-118894000D02*
X154310000Y-121180000D01*
X154310000Y-121180000D02*
X153040000Y-121180000D01*
G04 #@! TO.C,R105*
X125656020Y-88365000D02*
X127942020Y-88365000D01*
X127942020Y-88365000D02*
X127942020Y-89635000D01*
X127942020Y-89635000D02*
X125656020Y-89635000D01*
X125656020Y-89635000D02*
X125656020Y-88365000D01*
G04 #@! TO.C,R104*
X142857000Y-105065000D02*
X145143000Y-105065000D01*
X145143000Y-105065000D02*
X145143000Y-106335000D01*
X145143000Y-106335000D02*
X142857000Y-106335000D01*
X142857000Y-106335000D02*
X142857000Y-105065000D01*
G04 #@! TO.C,R103*
X145457000Y-105065000D02*
X147743000Y-105065000D01*
X147743000Y-105065000D02*
X147743000Y-106335000D01*
X147743000Y-106335000D02*
X145457000Y-106335000D01*
X145457000Y-106335000D02*
X145457000Y-105065000D01*
G04 #@! TO.C,R102*
X148518000Y-114710000D02*
X146232000Y-114710000D01*
X146232000Y-114710000D02*
X146232000Y-113440000D01*
X146232000Y-113440000D02*
X148518000Y-113440000D01*
X148518000Y-113440000D02*
X148518000Y-114710000D01*
G04 #@! TO.C,R101*
X147530000Y-100203500D02*
X149816000Y-100203500D01*
X149816000Y-100203500D02*
X149816000Y-101473500D01*
X149816000Y-101473500D02*
X147530000Y-101473500D01*
X147530000Y-101473500D02*
X147530000Y-100203500D01*
G04 #@! TO.C,C114*
X136857000Y-87365000D02*
X139143000Y-87365000D01*
X139143000Y-87365000D02*
X139143000Y-88635000D01*
X139143000Y-88635000D02*
X136857000Y-88635000D01*
X136857000Y-88635000D02*
X136857000Y-87365000D01*
G04 #@! TO.C,C113*
X133115000Y-99643000D02*
X133115000Y-97357000D01*
X133115000Y-97357000D02*
X134385000Y-97357000D01*
X134385000Y-97357000D02*
X134385000Y-99643000D01*
X134385000Y-99643000D02*
X133115000Y-99643000D01*
G04 #@! TO.C,C112*
X146635000Y-90357000D02*
X146635000Y-92643000D01*
X146635000Y-92643000D02*
X145365000Y-92643000D01*
X145365000Y-92643000D02*
X145365000Y-90357000D01*
X145365000Y-90357000D02*
X146635000Y-90357000D01*
G04 #@! TO.C,C111*
X144643000Y-89135000D02*
X142357000Y-89135000D01*
X142357000Y-89135000D02*
X142357000Y-87865000D01*
X142357000Y-87865000D02*
X144643000Y-87865000D01*
X144643000Y-87865000D02*
X144643000Y-89135000D01*
D17*
G04 #@! TO.C,C106*
X145614005Y-121901001D02*
G75*
G03*
X145614005Y-121901001I-127000J0D01*
G01*
X145487005Y-120758001D02*
X145487005Y-121774001D01*
X145487005Y-121774001D02*
X143963005Y-121774001D01*
X143963005Y-121774001D02*
X143963005Y-120758001D01*
X143963005Y-119742001D02*
X143963005Y-118726001D01*
X143963005Y-118726001D02*
X145487005Y-118726001D01*
X145487005Y-118726001D02*
X145487005Y-119742001D01*
D16*
G04 #@! TO.C,C105*
X145359997Y-115457001D02*
X145359997Y-117743001D01*
X145359997Y-117743001D02*
X144089997Y-117743001D01*
X144089997Y-117743001D02*
X144089997Y-115457001D01*
X144089997Y-115457001D02*
X145359997Y-115457001D01*
D17*
G04 #@! TO.C,C104*
X151875500Y-121874002D02*
G75*
G03*
X151875500Y-121874002I-127000J0D01*
G01*
X151748500Y-120731002D02*
X151748500Y-121747002D01*
X151748500Y-121747002D02*
X150224500Y-121747002D01*
X150224500Y-121747002D02*
X150224500Y-120731002D01*
X150224500Y-119715002D02*
X150224500Y-118699002D01*
X150224500Y-118699002D02*
X151748500Y-118699002D01*
X151748500Y-118699002D02*
X151748500Y-119715002D01*
D16*
G04 #@! TO.C,C103*
X154893000Y-116610000D02*
X152607000Y-116610000D01*
X152607000Y-116610000D02*
X152607000Y-115340000D01*
X152607000Y-115340000D02*
X154893000Y-115340000D01*
X154893000Y-115340000D02*
X154893000Y-116610000D01*
D17*
G04 #@! TO.C,C102*
X148876000Y-108762000D02*
G75*
G03*
X148876000Y-108762000I-127000J0D01*
G01*
X149892000Y-108762000D02*
X148876000Y-108762000D01*
X148876000Y-108762000D02*
X148876000Y-107238000D01*
X148876000Y-107238000D02*
X149892000Y-107238000D01*
X150908000Y-107238000D02*
X151924000Y-107238000D01*
X151924000Y-107238000D02*
X151924000Y-108762000D01*
X151924000Y-108762000D02*
X150908000Y-108762000D01*
G04 #@! TO.C,C101*
X154124000Y-100065000D02*
G75*
G03*
X154124000Y-100065000I-127000J0D01*
G01*
X152854000Y-100065000D02*
X153870000Y-100065000D01*
X153870000Y-100065000D02*
X153870000Y-101589000D01*
X153870000Y-101589000D02*
X152854000Y-101589000D01*
X151838000Y-101589000D02*
X150822000Y-101589000D01*
X150822000Y-101589000D02*
X150822000Y-100065000D01*
X150822000Y-100065000D02*
X151838000Y-100065000D01*
D18*
G04 #@! TO.C,Q104*
X151580000Y-82240000D02*
X150650000Y-82240000D01*
X148420000Y-82240000D02*
X149350000Y-82240000D01*
X148420000Y-82240000D02*
X148420000Y-84400000D01*
X151580000Y-82240000D02*
X151580000Y-83700000D01*
G04 #@! TO.C,Q103*
X144580000Y-82240000D02*
X143650000Y-82240000D01*
X141420000Y-82240000D02*
X142350000Y-82240000D01*
X141420000Y-82240000D02*
X141420000Y-84400000D01*
X144580000Y-82240000D02*
X144580000Y-83700000D01*
G04 #@! TO.C,Q102*
X138580000Y-82240000D02*
X137650000Y-82240000D01*
X135420000Y-82240000D02*
X136350000Y-82240000D01*
X135420000Y-82240000D02*
X135420000Y-84400000D01*
X138580000Y-82240000D02*
X138580000Y-83700000D01*
G04 #@! TO.C,J105*
X150799998Y-73775000D02*
X143999998Y-73775000D01*
X151559998Y-78985000D02*
X151559998Y-73015000D01*
X149749998Y-78975000D02*
X151549998Y-78975000D01*
X151559998Y-73015000D02*
X136439998Y-73015000D01*
X151849998Y-79275000D02*
X151849998Y-78025000D01*
X148249998Y-78225000D02*
X139749998Y-78225000D01*
X136439998Y-78985000D02*
X151559998Y-78985000D01*
X137199998Y-76725000D02*
X137199998Y-73775000D01*
X136439998Y-73015000D02*
X136439998Y-78985000D01*
X151549998Y-76725000D02*
X150799998Y-76725000D01*
X138249998Y-78975000D02*
X138249998Y-78225000D01*
X139749998Y-78975000D02*
X148249998Y-78975000D01*
X150599998Y-79275000D02*
X151849998Y-79275000D01*
X136449998Y-78225000D02*
X136449998Y-78975000D01*
X151549998Y-78225000D02*
X149749998Y-78225000D01*
X137199998Y-73775000D02*
X143999998Y-73775000D01*
X136449998Y-78975000D02*
X138249998Y-78975000D01*
X148249998Y-78975000D02*
X148249998Y-78225000D01*
X150799998Y-76725000D02*
X150799998Y-73775000D01*
X136449998Y-76725000D02*
X137199998Y-76725000D01*
X139749998Y-78225000D02*
X139749998Y-78975000D01*
X138249998Y-78225000D02*
X136449998Y-78225000D01*
X151549998Y-78975000D02*
X151549998Y-78225000D01*
X149749998Y-78225000D02*
X149749998Y-78975000D01*
D19*
G04 #@! TO.C,J103*
X147620000Y-128730000D02*
X147620000Y-131270000D01*
X147620000Y-131270000D02*
X132380000Y-131270000D01*
X132380000Y-131270000D02*
X132380000Y-128730000D01*
X132380000Y-128730000D02*
X147620000Y-128730000D01*
X145080000Y-128730000D02*
X145080000Y-131270000D01*
D18*
G04 #@! TO.C,J102*
X155323001Y-112488500D02*
X156073001Y-112488500D01*
X161283001Y-104878500D02*
X155313001Y-104878500D01*
X155313001Y-104878500D02*
X155313001Y-112498500D01*
X155323001Y-110688500D02*
X155323001Y-112488500D01*
X155023001Y-111538500D02*
X155023001Y-112788500D01*
X157573001Y-104888500D02*
X157573001Y-105638500D01*
X157573001Y-112488500D02*
X157573001Y-111738500D01*
X160523001Y-111738500D02*
X160523001Y-108688500D01*
X161283001Y-112498500D02*
X161283001Y-104878500D01*
X155323001Y-109188500D02*
X156073001Y-109188500D01*
X155313001Y-112498500D02*
X161283001Y-112498500D01*
X157573001Y-111738500D02*
X160523001Y-111738500D01*
X156073001Y-110688500D02*
X155323001Y-110688500D01*
X156073001Y-112488500D02*
X156073001Y-110688500D01*
X155323001Y-106688500D02*
X156073001Y-106688500D01*
X160523001Y-105638500D02*
X160523001Y-108688500D01*
X155323001Y-108188500D02*
X155323001Y-109188500D01*
X156073001Y-108188500D02*
X155323001Y-108188500D01*
X157573001Y-105638500D02*
X160523001Y-105638500D01*
X156073001Y-104888500D02*
X155323001Y-104888500D01*
X155323001Y-104888500D02*
X155323001Y-106688500D01*
X155023001Y-112788500D02*
X156273001Y-112788500D01*
X156073001Y-109188500D02*
X156073001Y-108188500D01*
X156073001Y-106688500D02*
X156073001Y-104888500D01*
D13*
G04 #@! TO.C,D101*
X152750000Y-114875000D02*
X149950000Y-114875000D01*
X152050000Y-114075000D02*
X150850000Y-114875000D01*
X152050000Y-114875000D02*
X152050000Y-113275000D01*
X152350000Y-114875000D02*
X152350000Y-113275000D01*
X150850000Y-114875000D02*
X150850000Y-113275000D01*
X149950000Y-113275000D02*
X152750000Y-113275000D01*
X152750000Y-113275000D02*
X152750000Y-114875000D01*
X149950000Y-114875000D02*
X149950000Y-113275000D01*
X150850000Y-113275000D02*
X152050000Y-114075000D01*
G04 #@! TO.C,J101*
X162170000Y-88655000D02*
X161720000Y-88655000D01*
X161720000Y-96355000D02*
X162170000Y-96355000D01*
X157770000Y-96655000D02*
X159170000Y-96655000D01*
X156020000Y-90705000D02*
X156020000Y-89980000D01*
X161720000Y-96655000D02*
X161720000Y-96355000D01*
X155595000Y-93580000D02*
X155595000Y-94305000D01*
X161720000Y-88655000D02*
X161720000Y-88355000D01*
X159170000Y-88355000D02*
X157770000Y-88355000D01*
X161720000Y-88355000D02*
X161570000Y-88355000D01*
X161570000Y-96655000D02*
X161720000Y-96655000D01*
X156020000Y-94305000D02*
X156020000Y-95030000D01*
X155595000Y-94305000D02*
X156020000Y-94305000D01*
D18*
G04 #@! TO.C,U105*
X115890000Y-92550000D02*
G75*
G03*
X115890000Y-92550000I-2540000J0D01*
G01*
X121650000Y-92550000D02*
G75*
G03*
X121650000Y-92550000I-8300000J0D01*
G01*
D15*
G04 #@! TO.C,J104*
X123250000Y-85840000D02*
X132750000Y-85840000D01*
X123250000Y-79160000D02*
X123250000Y-85840000D01*
X124250000Y-78160000D02*
X123250000Y-79160000D01*
X132750000Y-85840000D02*
X132750000Y-78160000D01*
X132750000Y-78160000D02*
X124250000Y-78160000D01*
D20*
G04 #@! TO.C,D102*
X130049721Y-88827278D02*
X130049721Y-88677418D01*
X129800801Y-88700278D02*
X129800801Y-88375158D01*
X131797241Y-89624838D02*
X131797241Y-89299718D01*
X131548321Y-89322578D02*
X131548321Y-89172718D01*
X131472121Y-89198118D02*
X131296861Y-89198118D01*
X129874461Y-89624838D02*
X129800801Y-89624838D01*
X130301181Y-89599438D02*
X130001461Y-89599438D01*
X130301181Y-89172718D02*
X130049721Y-89172718D01*
X131797241Y-88375158D02*
X131296861Y-88375158D01*
X130125921Y-89198118D02*
X130125921Y-88801878D01*
X131548321Y-89172718D02*
X131296861Y-89172718D01*
X130001461Y-89599438D02*
X130001461Y-89299718D01*
X131548321Y-89322578D02*
X131296861Y-89322578D01*
X130301181Y-88375158D02*
X129800801Y-88375158D01*
X130301181Y-88827278D02*
X130301181Y-88677418D01*
X131797241Y-88700278D02*
X131797241Y-88375158D01*
X129874461Y-89398778D02*
X129800801Y-89398778D01*
X131548321Y-88677418D02*
X131296861Y-88677418D01*
X131472121Y-89198118D02*
X131472121Y-88801878D01*
X130301181Y-89198118D02*
X130301181Y-88801878D01*
X130600901Y-89099058D02*
X130600901Y-88900938D01*
X130799021Y-88900938D02*
X130600901Y-88900938D01*
X131797241Y-88700278D02*
X131296861Y-88700278D01*
X131296861Y-89198118D02*
X131296861Y-88801878D01*
D21*
X131296861Y-89574038D02*
X129874461Y-89574038D01*
D20*
X131296861Y-89624838D02*
X131296861Y-89299718D01*
X130301181Y-89299718D02*
X130001461Y-89299718D01*
X130301181Y-88801878D02*
X130125921Y-88801878D01*
X130301181Y-88827278D02*
X130049721Y-88827278D01*
X131797241Y-89624838D02*
X131296861Y-89624838D01*
X131296861Y-88700278D02*
X131296861Y-88375158D01*
X130049721Y-89322578D02*
X130049721Y-89172718D01*
X131472121Y-88801878D02*
X131296861Y-88801878D01*
X131548321Y-88827278D02*
X131296861Y-88827278D01*
X130301181Y-89322578D02*
X130049721Y-89322578D01*
X130301181Y-89322578D02*
X130301181Y-89172718D01*
X131548321Y-88827278D02*
X131548321Y-88677418D01*
X130301181Y-88700278D02*
X129800801Y-88700278D01*
X130301181Y-88677418D02*
X130049721Y-88677418D01*
X131797241Y-89299718D02*
X131296861Y-89299718D01*
X130301181Y-89198118D02*
X130125921Y-89198118D01*
X129874461Y-89624838D02*
X129874461Y-89398778D01*
X130799021Y-89099058D02*
X130600901Y-89099058D01*
X131296861Y-89322578D02*
X131296861Y-89172718D01*
X130301181Y-88700278D02*
X130301181Y-88375158D01*
X130799021Y-89099058D02*
X130799021Y-88900938D01*
D21*
X130275781Y-88425958D02*
X131322261Y-88425958D01*
D20*
X131296861Y-88827278D02*
X131296861Y-88677418D01*
X130301181Y-89599438D02*
X130301181Y-89299718D01*
X129800801Y-89624838D02*
X129800801Y-89398778D01*
D21*
X131797241Y-88652018D02*
G75*
G03*
X131797241Y-89347978I0J-347980D01*
G01*
X129800801Y-89347978D02*
G75*
G03*
X129800801Y-88652018I0J347980D01*
G01*
D22*
X130022503Y-89449578D02*
G75*
G03*
X130022503Y-89449578I-71842J0D01*
G01*
D13*
G04 #@! TO.C,U104*
X149200000Y-119825000D02*
X149200000Y-116825000D01*
X149200000Y-116825000D02*
X146400000Y-116825000D01*
X146400000Y-116825000D02*
X146400000Y-119825000D01*
X146400000Y-119825000D02*
X149200000Y-119825000D01*
X150550000Y-120325000D02*
G75*
G03*
X150550000Y-120325000I-250000J0D01*
G01*
G04 #@! TO.C,U101*
X148898000Y-102938500D02*
X148898000Y-105738500D01*
X151898000Y-102938500D02*
X148898000Y-102938500D01*
X148898000Y-105738500D02*
X151898000Y-105738500D01*
X151898000Y-105738500D02*
X151898000Y-102938500D01*
X148648000Y-106838500D02*
G75*
G03*
X148648000Y-106838500I-250000J0D01*
G01*
D18*
G04 #@! TO.C,U103*
X115017500Y-107992500D02*
X131017500Y-107992500D01*
X131017500Y-107992500D02*
X131017500Y-124992500D01*
X131017500Y-124992500D02*
X115017500Y-124992500D01*
X115017500Y-124992500D02*
X115017500Y-107992500D01*
X113517500Y-106992500D02*
G75*
G03*
X113517500Y-106992500I-500000J0D01*
G01*
G04 #@! TO.C,U106*
X136390000Y-91840000D02*
X136390000Y-91390000D01*
X143610000Y-98610000D02*
X143160000Y-98610000D01*
X143610000Y-98160000D02*
X143610000Y-98610000D01*
X136390000Y-98160000D02*
X136390000Y-98610000D01*
X136390000Y-98610000D02*
X136840000Y-98610000D01*
X143610000Y-91840000D02*
X143610000Y-91390000D01*
X136390000Y-91390000D02*
X136840000Y-91390000D01*
X143610000Y-91390000D02*
X143160000Y-91390000D01*
X143160000Y-91390000D02*
X143160000Y-90100000D01*
G04 #@! TO.C,Q101*
X152928000Y-110178500D02*
X151998000Y-110178500D01*
X149768000Y-110178500D02*
X149768000Y-112338500D01*
X149768000Y-110178500D02*
X150698000Y-110178500D01*
X152928000Y-110178500D02*
X152928000Y-111638500D01*
G04 #@! TD*
D23*
G04 #@! TO.C,J103*
X146350000Y-130000000D03*
D24*
X143810000Y-130000000D03*
X141270000Y-130000000D03*
X138730000Y-130000000D03*
X136190000Y-130000000D03*
X133650000Y-130000000D03*
G04 #@! TD*
%LPC*%
D25*
G04 #@! TO.C,REF\u002A\u002A*
X154000000Y-126500000D03*
G04 #@! TD*
G04 #@! TO.C,REF\u002A\u002A*
X108000000Y-126500000D03*
G04 #@! TD*
G04 #@! TO.C,REF\u002A\u002A*
X108000000Y-80000000D03*
G04 #@! TD*
D26*
G04 #@! TO.C,R112*
X149000000Y-85238000D03*
X149000000Y-86762000D03*
G04 #@! TD*
G04 #@! TO.C,R111*
X141999997Y-85237999D03*
X141999997Y-86761999D03*
G04 #@! TD*
G04 #@! TO.C,R110*
X135000000Y-86238000D03*
X135000000Y-87762000D03*
G04 #@! TD*
D27*
G04 #@! TO.C,R109*
X148238000Y-96000000D03*
X149762000Y-96000000D03*
G04 #@! TD*
G04 #@! TO.C,R108*
X148238000Y-94000000D03*
X149762000Y-94000000D03*
G04 #@! TD*
G04 #@! TO.C,R107*
X158012000Y-120750000D03*
X156488000Y-120750000D03*
G04 #@! TD*
D26*
G04 #@! TO.C,R106*
X153675000Y-120799000D03*
X153675000Y-119275000D03*
G04 #@! TD*
D27*
G04 #@! TO.C,R105*
X126037020Y-89000000D03*
X127561020Y-89000000D03*
G04 #@! TD*
G04 #@! TO.C,R104*
X143238000Y-105700000D03*
X144762000Y-105700000D03*
G04 #@! TD*
G04 #@! TO.C,R103*
X145838000Y-105700000D03*
X147362000Y-105700000D03*
G04 #@! TD*
G04 #@! TO.C,R102*
X148137000Y-114075000D03*
X146613000Y-114075000D03*
G04 #@! TD*
G04 #@! TO.C,R101*
X147911000Y-100838500D03*
X149435000Y-100838500D03*
G04 #@! TD*
G04 #@! TO.C,C114*
X137238000Y-88000000D03*
X138762000Y-88000000D03*
G04 #@! TD*
D26*
G04 #@! TO.C,C113*
X133750000Y-99262000D03*
X133750000Y-97738000D03*
G04 #@! TD*
G04 #@! TO.C,C112*
X146000000Y-90738000D03*
X146000000Y-92262000D03*
G04 #@! TD*
D27*
G04 #@! TO.C,C111*
X144262000Y-88500000D03*
X142738000Y-88500000D03*
G04 #@! TD*
D28*
G04 #@! TO.C,C106*
X144725005Y-121202501D03*
X144725005Y-119297501D03*
G04 #@! TD*
D26*
G04 #@! TO.C,C105*
X144724997Y-115838001D03*
X144724997Y-117362001D03*
G04 #@! TD*
D28*
G04 #@! TO.C,C104*
X150986500Y-121175502D03*
X150986500Y-119270502D03*
G04 #@! TD*
D27*
G04 #@! TO.C,C103*
X154512000Y-115975000D03*
X152988000Y-115975000D03*
G04 #@! TD*
D29*
G04 #@! TO.C,C102*
X149447500Y-108000000D03*
X151352500Y-108000000D03*
G04 #@! TD*
G04 #@! TO.C,C101*
X153298500Y-100827000D03*
X151393500Y-100827000D03*
G04 #@! TD*
D30*
G04 #@! TO.C,Q104*
X149050000Y-84000000D03*
X150950000Y-84000000D03*
X150000000Y-82000000D03*
G04 #@! TD*
G04 #@! TO.C,Q103*
X142050000Y-84000000D03*
X143950000Y-84000000D03*
X143000000Y-82000000D03*
G04 #@! TD*
G04 #@! TO.C,Q102*
X136050000Y-84000000D03*
X137950000Y-84000000D03*
X137000000Y-82000000D03*
G04 #@! TD*
D31*
G04 #@! TO.C,J105*
X148999998Y-76525000D03*
D32*
X146499998Y-76525000D03*
X143999998Y-76525000D03*
X141499998Y-76525000D03*
X138999998Y-76525000D03*
G04 #@! TD*
D23*
G04 #@! TO.C,J103*
X146350000Y-130000000D03*
D24*
X143810000Y-130000000D03*
X141270000Y-130000000D03*
X138730000Y-130000000D03*
X136190000Y-130000000D03*
X133650000Y-130000000D03*
G04 #@! TD*
D33*
G04 #@! TO.C,J102*
X157773001Y-109938500D03*
D34*
X157773001Y-107438500D03*
G04 #@! TD*
D35*
G04 #@! TO.C,D101*
X149715000Y-114075000D03*
X152985000Y-114075000D03*
G04 #@! TD*
D36*
G04 #@! TO.C,J101*
X157620000Y-95005000D03*
X157620000Y-90005000D03*
D37*
X156520000Y-93805000D03*
X156520000Y-93155000D03*
X156520000Y-92505000D03*
X156520000Y-91855000D03*
X156520000Y-91205000D03*
D38*
X156570000Y-96230000D03*
D39*
X160370000Y-96380000D03*
D38*
X156570000Y-88780000D03*
D39*
X160370000Y-88630000D03*
G04 #@! TD*
D38*
G04 #@! TO.C,U105*
X115150000Y-94350000D03*
X115150000Y-90750000D03*
X111550000Y-90750000D03*
G04 #@! TD*
D40*
G04 #@! TO.C,J104*
X125750000Y-79460000D03*
X130250000Y-79460000D03*
X125750000Y-80730000D03*
X130250000Y-80730000D03*
X125750000Y-82000000D03*
X130250000Y-82000000D03*
X125750000Y-83270000D03*
X130250000Y-83270000D03*
X125750000Y-84540000D03*
X130250000Y-84540000D03*
G04 #@! TD*
D41*
G04 #@! TO.C,D102*
X131848041Y-88999998D03*
X129750001Y-88999998D03*
G04 #@! TD*
D42*
G04 #@! TO.C,U104*
X149150000Y-119275000D03*
X149150000Y-118325000D03*
X149150000Y-117375000D03*
X146450000Y-117375000D03*
X146450000Y-119275000D03*
G04 #@! TD*
D43*
G04 #@! TO.C,U101*
X149448000Y-105688500D03*
X150398000Y-105688500D03*
X151348000Y-105688500D03*
X151348000Y-102988500D03*
X149448000Y-102988500D03*
G04 #@! TD*
D44*
G04 #@! TO.C,U103*
X115367500Y-109492500D03*
X115367500Y-111492500D03*
X115367500Y-113492500D03*
X115367500Y-115492500D03*
X115367500Y-117492500D03*
X115367500Y-119492500D03*
X115367500Y-121492500D03*
X115367500Y-123492500D03*
X130667500Y-123492500D03*
X130667500Y-121492500D03*
X130667500Y-119492500D03*
X130667500Y-117492500D03*
X130667500Y-115492500D03*
X130667500Y-113492500D03*
X130667500Y-111492500D03*
X130667500Y-109492500D03*
G04 #@! TD*
D45*
G04 #@! TO.C,U106*
X142750000Y-90837500D03*
X142250000Y-90837500D03*
X141750000Y-90837500D03*
X141250000Y-90837500D03*
X140750000Y-90837500D03*
X140250000Y-90837500D03*
X139750000Y-90837500D03*
X139250000Y-90837500D03*
X138750000Y-90837500D03*
X138250000Y-90837500D03*
X137750000Y-90837500D03*
X137250000Y-90837500D03*
D46*
X135837500Y-92250000D03*
X135837500Y-92750000D03*
X135837500Y-93250000D03*
X135837500Y-93750000D03*
X135837500Y-94250000D03*
X135837500Y-94750000D03*
X135837500Y-95250000D03*
X135837500Y-95750000D03*
X135837500Y-96250000D03*
X135837500Y-96750000D03*
X135837500Y-97250000D03*
X135837500Y-97750000D03*
D45*
X137250000Y-99162500D03*
X137750000Y-99162500D03*
X138250000Y-99162500D03*
X138750000Y-99162500D03*
X139250000Y-99162500D03*
X139750000Y-99162500D03*
X140250000Y-99162500D03*
X140750000Y-99162500D03*
X141250000Y-99162500D03*
X141750000Y-99162500D03*
X142250000Y-99162500D03*
X142750000Y-99162500D03*
D46*
X144162500Y-97750000D03*
X144162500Y-97250000D03*
X144162500Y-96750000D03*
X144162500Y-96250000D03*
X144162500Y-95750000D03*
X144162500Y-95250000D03*
X144162500Y-94750000D03*
X144162500Y-94250000D03*
X144162500Y-93750000D03*
X144162500Y-93250000D03*
X144162500Y-92750000D03*
X144162500Y-92250000D03*
G04 #@! TD*
D30*
G04 #@! TO.C,Q101*
X150398000Y-111938500D03*
X152298000Y-111938500D03*
X151348000Y-109938500D03*
G04 #@! TD*
M02*
